<svg width="22" height="22" viewBox="0 0 22 22" fill="none" xmlns="http://www.w3.org/2000/svg">
<path d="M19.8594 9.45312C19.3906 8.98438 18.6875 9.03125 18.2188 9.45312L12.875 15.125V1.625C12.875 1.01562 12.3594 0.5 11.75 0.5H10.25C9.59375 0.5 9.125 1.01562 9.125 1.625V15.125L3.73438 9.45312C3.26562 9.03125 2.5625 8.98438 2.09375 9.45312L1.0625 10.4844C0.640625 10.9062 0.640625 11.6562 1.0625 12.0781L10.2031 21.1719C10.625 21.6406 11.3281 21.6406 11.7969 21.1719L20.8906 12.0781C21.3125 11.6562 21.3125 10.9531 20.8906 10.4844L19.8594 9.45312Z" fill="#777777"/>
</svg>
