<svg width="22" height="20" viewBox="0 0 22 20" fill="none" xmlns="http://www.w3.org/2000/svg">
<path d="M5.10019 1.59995C4.17194 1.59995 3.2817 1.9687 2.62532 2.62508C1.96894 3.28145 1.6002 4.17169 1.6002 5.09995V15.6C1.6002 15.7856 1.52645 15.9637 1.39517 16.0949C1.26389 16.2262 1.08585 16.3 0.900195 16.3C0.714544 16.3 0.536496 16.2262 0.405221 16.0949C0.273945 15.9637 0.200195 15.7856 0.200195 15.6V5.09995C0.200195 4.45647 0.326937 3.8193 0.573185 3.2248C0.819433 2.63031 1.18037 2.09013 1.63537 1.63513C2.09038 1.18012 2.63055 0.819189 3.22505 0.572941C3.81954 0.326693 4.45672 0.199951 5.10019 0.199951C5.74367 0.199951 6.38085 0.326693 6.97534 0.572941C7.56984 0.819189 8.11001 1.18012 8.56502 1.63513C9.02002 2.09013 9.38096 2.63031 9.6272 3.2248C9.87345 3.8193 10.0002 4.45647 10.0002 5.09995V17.0042C9.99992 17.3719 9.92722 17.7359 9.78625 18.0755C9.64529 18.4151 9.43881 18.7236 9.17861 18.9834C8.91841 19.2432 8.60958 19.4493 8.26977 19.5897C7.92995 19.7302 7.5658 19.8023 7.19809 19.802C6.83039 19.8018 6.46635 19.7291 6.12674 19.5881C5.78713 19.4471 5.47862 19.2407 5.21881 18.9805C4.6941 18.455 4.39964 17.7426 4.4002 17V5.09995C4.4002 4.9143 4.47394 4.73625 4.60522 4.60498C4.7365 4.4737 4.91454 4.39995 5.10019 4.39995C5.28585 4.39995 5.46389 4.4737 5.59517 4.60498C5.72644 4.73625 5.80019 4.9143 5.80019 5.09995V17C5.80019 17.3713 5.94769 17.7273 6.21025 17.9899C6.4728 18.2525 6.82889 18.4 7.20019 18.4C7.5715 18.4 7.92759 18.2525 8.19014 17.9899C8.45269 17.7273 8.60019 17.3713 8.60019 17V5.09995C8.60019 4.17169 8.23145 3.28145 7.57507 2.62508C6.91869 1.9687 6.02845 1.59995 5.10019 1.59995ZM12.8002 3.69995C12.8002 3.5143 12.8739 3.33625 13.0052 3.20498C13.1365 3.0737 13.3145 2.99995 13.5002 2.99995H20.5002C20.6858 2.99995 20.8639 3.0737 20.9952 3.20498C21.1264 3.33625 21.2002 3.5143 21.2002 3.69995C21.2002 3.8856 21.1264 4.06365 20.9952 4.19493C20.8639 4.3262 20.6858 4.39995 20.5002 4.39995H13.5002C13.3145 4.39995 13.1365 4.3262 13.0052 4.19493C12.8739 4.06365 12.8002 3.8856 12.8002 3.69995ZM13.5002 7.19995C13.3145 7.19995 13.1365 7.2737 13.0052 7.40498C12.8739 7.53625 12.8002 7.7143 12.8002 7.89995C12.8002 8.0856 12.8739 8.26365 13.0052 8.39493C13.1365 8.5262 13.3145 8.59995 13.5002 8.59995H20.5002C20.6858 8.59995 20.8639 8.5262 20.9952 8.39493C21.1264 8.26365 21.2002 8.0856 21.2002 7.89995C21.2002 7.7143 21.1264 7.53625 20.9952 7.40498C20.8639 7.2737 20.6858 7.19995 20.5002 7.19995H13.5002ZM12.8002 12.1C12.8002 11.9143 12.8739 11.7363 13.0052 11.605C13.1365 11.4737 13.3145 11.4 13.5002 11.4H20.5002C20.6858 11.4 20.8639 11.4737 20.9952 11.605C21.1264 11.7363 21.2002 11.9143 21.2002 12.1C21.2002 12.2856 21.1264 12.4637 20.9952 12.5949C20.8639 12.7262 20.6858 12.8 20.5002 12.8H13.5002C13.3145 12.8 13.1365 12.7262 13.0052 12.5949C12.8739 12.4637 12.8002 12.2856 12.8002 12.1ZM13.5002 15.6C13.3145 15.6 13.1365 15.6737 13.0052 15.805C12.8739 15.9363 12.8002 16.1143 12.8002 16.3C12.8002 16.4856 12.8739 16.6637 13.0052 16.7949C13.1365 16.9262 13.3145 17 13.5002 17H17.7002C17.8858 17 18.0639 16.9262 18.1952 16.7949C18.3264 16.6637 18.4002 16.4856 18.4002 16.3C18.4002 16.1143 18.3264 15.9363 18.1952 15.805C18.0639 15.6737 17.8858 15.6 17.7002 15.6H13.5002Z" fill="#60A49F"/>
</svg>
