<svg xmlns="http://www.w3.org/2000/svg" xmlns:xlink="http://www.w3.org/1999/xlink" width="1640" height="652" viewBox="0 0 1640 652">
  <defs>
    <clipPath id="clip-path">
      <rect id="Rectangle_41" data-name="Rectangle 41" width="1640" height="652" rx="20" transform="translate(13163 202)" fill="#d6d5db" opacity="0.61"/>
    </clipPath>
    <clipPath id="clip-path-2">
      <rect id="Rectangle_85" data-name="Rectangle 85" width="1640" height="660.049" transform="translate(0 0)"/>
    </clipPath>
    <clipPath id="clip-path-3">
      <rect id="Rectangle_86" data-name="Rectangle 86" width="1640" height="660.049"/>
    </clipPath>
    <clipPath id="clip-path-12">
      <rect id="Rectangle_95" data-name="Rectangle 95" width="1640" height="660.049" transform="translate(0)"/>
    </clipPath>
  </defs>
  <g id="Mask_Group_20" data-name="Mask Group 20" transform="translate(-13163 -202)" clip-path="url(#clip-path)">
    <g id="El_Nada_Landing_Page-Mobile_and_Desktop_01" data-name="El Nada Landing Page-Mobile and Desktop 01" transform="translate(14394 1101)">
      <g id="XMLID_2051_" transform="translate(-1231 -899.4)">
        <g id="Group_92" data-name="Group 92" clip-path="url(#clip-path-2)">
          <rect id="XMLID_2388_" width="1074.909" height="610.039" transform="translate(569.748 50.111)" fill="#96b1d7"/>
        </g>
        <g id="Group_93" data-name="Group 93" clip-path="url(#clip-path-3)">
          <path id="XMLID_2387_" d="M-127.228-537.974c-34.217,8.2-58.007-7.491-92.326,0-27.435,5.973-47.175,34.622-49.4,43.936,0,0-8,21.462,0,33.2s49.909,49.807,78.558,54.262c28.751,4.556,101.538-89.39,108.726-103.968C-74.586-525.219-127.228-537.974-127.228-537.974Z" transform="translate(1242.833 903.836)" fill="#7698c2" stroke="#fff" stroke-miterlimit="10" stroke-width="2"/>
        </g>
        <g id="Group_94" data-name="Group 94" clip-path="url(#clip-path-3)">
          <path id="XMLID_2386_" d="M-106.278-572.966a8.555,8.555,0,0,0-11.439-1.012,8.77,8.77,0,0,0-2.43,10.022c-6.783,6.783-17.919,19.133-9.516,31.18,2.531,3.644,6.175,1.62,10.326,1.215a9.339,9.339,0,0,0,9.719-1.62c7.188-5.872,14.274-11.642,21.462-17.514,6.074-4.961,28.548-9.82,28.548-18.627C-59.609-575.194-85.829-576.813-106.278-572.966Z" transform="translate(1244.56 903.396)" fill="#dea287"/>
        </g>
        <g id="Group_95" data-name="Group 95" clip-path="url(#clip-path-3)">
          <path id="XMLID_2385_" d="M-178.016-392.176a170.262,170.262,0,0,0,111.965,7.9,169.673,169.673,0,0,0,92.022-64.183L15.342-565.895c-30.573-23.79-67.523-23.79-115.306,9.314A587.341,587.341,0,0,0-184.9-484.6Z" transform="translate(1243.915 903.31)" fill="#7698c2" stroke="#fff" stroke-miterlimit="10" stroke-width="2"/>
        </g>
        <g id="XMLID_2380_" clip-path="url(#clip-path-3)">
          <path id="XMLID_2384_" d="M-170.5-829.194l.1.1a2.211,2.211,0,0,0-.3-.506c-.1,0-.1,0-.2-.1,0,.1.1.1.1.2Q-170.647-829.5-170.5-829.194Z" transform="translate(1244.088 900.26)" fill="#f89582"/>
          <path id="XMLID_2381_" d="M-5.165-848.506C-7.089-864-11.24-879.383-20.351-892.24c-9.719-13.768-24.7-22.778-41.2-26.118a121.724,121.724,0,0,0-13.565-2.025c-22.778-3.847-45.96.607-67.625,9.415a167.26,167.26,0,0,0-31.788,17.412c-11.541,8-22.474,16.906-29.864,29.054-8.1,13.363-10.832,30.775-6.681,45.859a20.645,20.645,0,0,0,2.227,11.035,109.315,109.315,0,0,0,65.6,55.578,104.024,104.024,0,0,0,18.222,3.746,2.994,2.994,0,0,0,1.012.2.913.913,0,0,0,.506-.1c1.923.2,3.847.3,5.77.4,2.733,2.835,3.847,6.985,5.467,10.933,1.519,3.442,4.758,4.961,8.3,3.442,4.252-1.721,4.859-6.175,6.378-10.022a17.3,17.3,0,0,1,3.543-5.669,139.366,139.366,0,0,0,44.442-15.185c14.173-7.694,30.877-18.323,39.481-32.4C-.509-812.467-3.04-831.094-5.165-848.506Zm-164.506,20.753h0a1.4,1.4,0,0,1-.3-.4.1.1,0,0,1-.1-.1c-.1-.1-.1-.2-.2-.3,0-.1-.1-.1-.1-.2h0a5.8,5.8,0,0,1-.4-.709,8.228,8.228,0,0,1,.607.81,3.3,3.3,0,0,1,1.215,1.114l-.911-.607C-169.773-827.956-169.773-827.855-169.672-827.753Z" transform="translate(1243.568 899.124)" fill="#dea287"/>
        </g>
        <g id="Group_96" data-name="Group 96" clip-path="url(#clip-path-3)">
          <path id="XMLID_2379_" d="M-125.911-932.293c-18.121.81-30.775,13.97-31.889,31.889a21.162,21.162,0,0,0-.1,2.531c-21.259-14.072-49.1-17.21-75.116-17.615a1113.3,1113.3,0,0,0-119.052,4.454c-10.731,1.012-23.183.81-33.812,4.556a18.628,18.628,0,0,0-6.681-.4l-2.43.3c-46.872,5.973-94.148.81-140.716-5.467,2.835.4,5.669.81,8.5,1.114-61.348-8.3-122.6-15.691-184.449-19.133q-44.8-2.43-89.593-2.733c-31.383-.2-62.968-.506-94.047,4.151-16,2.43-30.978,7.491-46.264,12.553-2.632.911-5.365,1.721-8,2.531-9.82-8.807-25.916-12.249-37.356-4.151-5.365,3.746-10.528,7.694-15.691,11.642-32.7-1.518-65.4-2.328-98.1-2.733a27.347,27.347,0,0,0-5.062-2.733c-8.909-3.746-21.664-3.442-30.269,2.43-27.131-.2-54.363-.1-81.494-.1-16.2,0-33.205,14.578-31.889,31.889,7.593,97.388,6.58,195.079,3.24,292.568-1.721,48.9-3.948,97.691-5.973,146.486q-1.518,36.6-2.733,73.294c-.81,23.588-2.025,47.277-1.721,70.864.2,14.78,2.632,29.257,9.212,42.62,7.593,15.286,21.968,26.119,38.064,31.18,24.5,7.694,51.022,0,75.724-3.847,53.452-6.58,107.309-5.264,161.064-3.543q83.367,2.581,166.835,5.264,47.226,1.519,94.553,3.037a26.123,26.123,0,0,0,4.859-.3l1.519,4.859c4.961,15.894,22.474,27.738,39.178,22.272,13.059-4.252,23.081-16.2,23.588-29.763a12.752,12.752,0,0,0,3.341,1.012c68.738,7.188,65.8-61.146,58.007-81.393-7.491-19.437-31.281-31.079-32.7-50.314-1.215-17.007,22.879-45.859,22.879-81.8,0-44.746-61.247-71.269-54.667-99.311,6.58-27.84,52.946-34.825,58.817-62.765,2.328-10.933-8.1-57.3,21.765-57.2,28.143.1,56.894-5.872,74-29.56,19.741-27.435,14.274-69.346,56.489-76.128,12.452-2.025,25,1.215,37.356,3.543,16.6,3.037,33.61,2.328,47.884-7.694,19.842-13.97,20.956-37.457,37.76-52.946,16.3-14.983,44.24-9.921,62.563-1.62,14.173,6.479,27.333,14.679,41.4,21.36,9.212,4.353,18.83,8.706,28.751,10.933a94.038,94.038,0,0,0,37.963.81c12.351-2.126,39.684-9.719,42.721-21.867,3.037-11.844,2.531-74,3.644-93.136C-93.009-917.006-109.409-933-125.911-932.293Z" transform="translate(1230.683 898.987)" fill="#483422"/>
        </g>
        <g id="Group_97" data-name="Group 97" clip-path="url(#clip-path-3)">
          <path id="XMLID_2376_" d="M445.425-654.979a128.08,128.08,0,0,0-11.439-17.615,39.828,39.828,0,0,0-.607-4.859c-3.543-18.222-6.58-36.647-9.111-55.072-2.227-16.8-3.948-33.711-5.365-50.617-1.316-16.3-2.733-32.8-1.215-49.2a83.741,83.741,0,0,1,3.644-13.768,70.188,70.188,0,0,1,4.353-7.593c1.215-1.316,2.531-2.632,3.847-3.847.709-.4,1.316-.911,2.025-1.316,11.743-6.884,18.931-22.677,14.679-36.039-4.556-14.072-16.2-22.373-30.775-23.385q-33.256-2.278-66.511-3.543l-2.43-2.126c-5.365-4.151-12.351-7.188-19.336-6.884a38.968,38.968,0,0,0-16.1,4.353,23.4,23.4,0,0,0-4.758,3.442q-66.815-1.215-133.731,1.923c-10.832.506-21.765,1.012-32.6,1.721-14.072,1.012-28.447,3.037-40.494,11.035a37.3,37.3,0,0,0-9.01,8.3c-3.138-.506-6.378-.911-9.516-1.316-4.151-5.062-9.719-9.111-15.691-9.921-25.41-3.543-50.212-3.24-75.116,2.835,0-3.847.1-7.694.1-11.541-.1-16.7-14.578-32.7-31.889-31.889A35.892,35.892,0,0,0-56.6-947.85,27.581,27.581,0,0,0-72.288-951.9c-16.8.709-32.5,14.072-31.889,31.889.709,19.538-8.3,101.64,8,119.153,13.768,14.78,46.163,22.069,65.6,22.778,12.452.4,24.8-1.721,37.254-1.012l3.644.911c2.733,4.859,4.758,10.123,7.9,14.881A58.736,58.736,0,0,0,49.5-739c16,5.467,32.8,2.835,49.2.4a177.317,177.317,0,0,1,38.773-.1,97.516,97.516,0,0,1,15.388,3.746,40.21,40.21,0,0,1,3.543,2.025l1.721,1.721a94.969,94.969,0,0,1,6.074,11.44c2.733,6.681,5.365,13.363,8.6,19.842a94.954,94.954,0,0,0,14.375,20.753c11.237,12.857,26.523,21.765,42.519,27.333,16.7,5.77,34.622,5.669,51.731,2.227,13.262-2.733,25.714-8.1,38.874-10.63a104.742,104.742,0,0,1,16.906.1,105.65,105.65,0,0,1,18.425,5.062,105.68,105.68,0,0,1,16.7,9.719,95.115,95.115,0,0,1,11.946,11.946,101.165,101.165,0,0,1,6.479,10.528c7.8,14.78,29.56,20.551,43.632,11.44C449.069-621.065,453.828-639.186,445.425-654.979ZM290.941-856.435a31.946,31.946,0,0,0-2.227-2.936h2.328A27.48,27.48,0,0,1,290.941-856.435Z" transform="translate(1244.889 898.751)" fill="#483422"/>
        </g>
        <g id="Group_98" data-name="Group 98" clip-path="url(#clip-path-3)">
          <path id="XMLID_2375_" d="M-126.479-434.916a9.064,9.064,0,0,0-4.049-2.328l-.911-.911a13.2,13.2,0,0,0,5.264-11.136,12.429,12.429,0,0,0-4.96-9.617,9.963,9.963,0,0,0,4.049-9.314c-.607-4.151-3.746-7.188-7.491-8.909a30.809,30.809,0,0,0-3.948-1.417,10.643,10.643,0,0,0,3.442-8.1,9.343,9.343,0,0,0-6.479-8.3c-3.341-1.114-7.086.1-10.427.81-15.894,3.543-31.788,6.884-47.277,12.047-3.341,1.114-6.58,2.328-9.82,3.543-4.151.1-9.01,0-8.706-1.822.4-1.923,4.96-5.062,6.277-6.277,2.43-2.126,4.859-4.049,7.491-5.973,5.872-3.138,11.338-6.985,13.059-13.667a7.105,7.105,0,0,0-8.6-8.605c-27.941,6.58-46.973,22.677-76.736,22.17-23.385-.4-86.353,3.644-92.225-25.207a4.708,4.708,0,0,0-.3-.911c-.1-1.114,0-2.43,0-3.24-1.012-16.4-1.822-33.61-9.415-48.491-9.212-18.323-25.41-19.437-44.442-18.627-21.462.911-42.822,2.632-64.183,3.746-15.185.81-31.99.506-39.988,16.4-6.277,12.351-1.215,31.18-.607,44.644.81,18.02,1.721,35.938,3.037,53.958,2.328,30.775,10.832,59.02,37.356,77.04,31.484,21.361,77.141,28.447,114.091,34.319a329.548,329.548,0,0,0,131.6-5.669c31.788-8.1,65.4-15.894,92.832-34.926,6.175-4.353,12.452-8.807,17.412-14.679C-126.682-419.63-120.81-428.842-126.479-434.916Z" transform="translate(1239.655 903.227)" fill="#dea287"/>
        </g>
        <g id="Group_99" data-name="Group 99" clip-path="url(#clip-path-3)">
          <path id="XMLID_2374_" d="M292.661-477.307c0-26.321.3-54.059-1.822-80.178-2.227-27.839-22.17-34.116-45.252-42.012-18.627-6.378-39.178-6.479-58.716-8-5.365-.4-10.731-.81-16,.4-13.97,3.24-6.783,88.175-22.778,83.822-26.119-6.985-50.415-22.677-81.9-31.18-25.106-6.783-58.919-16.8-84.025-7.9-7.086,2.531-8.909,12.047-2.126,16.2,3.24,1.923,6.479,3.746,9.921,5.365-3.948.2-13.464,2.43-15.084,3.644-3.442,2.733-8.5,6.884-7.8,11.946,1.215,8.2,8.706,12.249,17.007,14.578a7.72,7.72,0,0,0-1.721,1.316c-2.126-.709-4.353-1.417-6.378-2.328-3.138-1.316-6.58-1.417-9.212.2-5.669,1.822-7.086,9.01-4.252,13.565,0,2.632,19.538,14.882,26.017,20.348-5.568-3.037-11.237-5.77-17.007-8.4-3.543-1.519-8.2-2.025-10.326,1.012-13.363,19.741,62.867,46.568,89.39,59.121,30.472,14.375,40.8,28.953,70.459,46.77,29.156,17.514,60.741,39.077,96.477,35.128C282.639-350.967,292.762-415.858,292.661-477.307Z" transform="translate(1245.699 902.999)" fill="#dea287"/>
        </g>
        <g id="XMLID_2331_" clip-path="url(#clip-path-3)">
          <g id="XMLID_2367_" transform="translate(1222.09 358.312)">
            <g id="XMLID_42_" transform="translate(0)">
              <path id="XMLID_46_" d="M-22.686-542.16,28.64-530.315c1.923.4,6.884-2.531,3.543-3.24L-19.143-545.4c-1.923-.506-6.884,2.43-3.543,3.24Z" transform="translate(23.814 545.458)" fill="#7698c2"/>
            </g>
          </g>
          <g id="XMLID_2360_" transform="translate(1207.101 382.049)">
            <g id="XMLID_36_" transform="translate(0)">
              <path id="XMLID_40_" d="M-38.094-519.165a132.7,132.7,0,0,0,67.017,19.538c2.025,0,6.277-2.936,2.328-3.037A129.155,129.155,0,0,1-33.336-521.8c-1.519-.911-6.985,1.316-4.758,2.632Z" transform="translate(38.62 522.01)" fill="#7698c2"/>
            </g>
          </g>
          <g id="XMLID_2353_" transform="translate(1205.321 408.49)">
            <g id="XMLID_30_" transform="translate(0)">
              <path id="XMLID_34_" d="M-40.2-493.47a134.932,134.932,0,0,0,63.272,25.41c1.519.2,6.783-2.328,3.746-2.733a132.466,132.466,0,0,1-61.551-24.8c-1.417-1.114-6.681,1.215-5.467,2.126Z" transform="translate(40.378 495.892)" fill="#7698c2"/>
            </g>
          </g>
          <g id="XMLID_2346_" transform="translate(1049.749 421.956)">
            <g id="XMLID_24_" transform="translate(0)">
              <path id="XMLID_28_" d="M-140.446-482.2c-16.2,7.188-32.7,13.262-50.516,15.185-2.835.3-4.859,3.644-.81,3.138,18.83-2.126,36.444-8.4,53.553-16,3.746-1.721.4-3.543-2.227-2.328Z" transform="translate(194.053 482.59)" fill="#7698c2"/>
            </g>
          </g>
          <g id="XMLID_2339_" transform="translate(1053.059 440.975)">
            <g id="XMLID_18_" transform="translate(0)">
              <path id="XMLID_22_" d="M-132.185-463.5c-17.919,7.593-35.736,15.894-55.578,16.2-3.341,0-4.454,4.454-.506,4.454,20.956-.2,39.785-9.01,58.716-17.007,3.644-1.721.4-4.961-2.632-3.644Z" transform="translate(190.783 463.803)" fill="#7698c2"/>
            </g>
          </g>
          <g id="XMLID_2332_" transform="translate(1058.425 461.658)">
            <g id="XMLID_12_" transform="translate(0)">
              <path id="XMLID_16_" d="M-134.579-442.894c-14.983,8.807-30.269,18.02-47.884,20.044-3.341.4-4.454,4.859-.506,4.454,18.83-2.126,35.027-11.541,51.022-20.956,3.442-1.923.3-5.264-2.632-3.543Z" transform="translate(185.483 443.372)" fill="#7698c2"/>
            </g>
          </g>
        </g>
        <g id="Group_100" data-name="Group 100" clip-path="url(#clip-path-12)">
          <rect id="XMLID_2330_" width="202.57" height="62.563" transform="translate(688.294 279.205)" fill="#96b1d7"/>
        </g>
        <g id="Group_101" data-name="Group 101" transform="translate(0)" clip-path="url(#clip-path-3)">
          <rect id="XMLID_2329_" width="202.57" height="62.563" transform="translate(1371.02 258.047)" fill="#96b1d7"/>
        </g>
        <g id="Group_102" data-name="Group 102" clip-path="url(#clip-path-3)">
          <path id="XMLID_2328_" d="M-308.6-494.3v137.578s18.222-1.215,23.183-1.822S-283.9-494.1-283.9-494.1Z" transform="translate(1242.388 904.401)" fill="#fff"/>
        </g>
        <g id="Group_103" data-name="Group 103" transform="translate(0 0)" clip-path="url(#clip-path-12)">
          <circle id="XMLID_2327_" cx="1.923" cy="1.923" r="1.923" transform="translate(944.822 518.625)" fill="#f89582"/>
        </g>
        <g id="Group_104" data-name="Group 104" clip-path="url(#clip-path-12)">
          <circle id="XMLID_2326_" cx="1.923" cy="1.923" r="1.923" transform="translate(944.822 531.684)" fill="#f89582"/>
        </g>
        <g id="XMLID_2325_" clip-path="url(#clip-path-3)">
          <path id="Path_1239" data-name="Path 1239" d="M14.043,0l-.186-61.194L40.641,0H45.57L72.261-61.194,72.075,0h7.254V-68.82H68.541L43.152-11.067,17.67-68.82H6.882V0ZM143.127-50.034h-6.882v10.509c-2.418-5.673-9.765-11.9-20.46-11.9-15.252,0-25.947,11.718-25.947,26.412C89.838-11.253,99.51,1.4,115.785,1.4c8.928,0,16.554-4.185,20.46-11.718V0h6.882Zm-46.5,25.017c0-11.16,8.37-20.088,19.9-20.088a19.3,19.3,0,0,1,18.321,12,17.843,17.843,0,0,1,1.581,8,19.147,19.147,0,0,1-1.674,7.905A18.722,18.722,0,0,1,116.715-5.022c-13.764,0-19.995-10.881-20.088-19.9ZM160.425,0h6.789V-44.547h10.974v-5.487H167.214V-68.82h-6.789v18.786h-9.858v5.487h9.858ZM231.57-23.064a26,26,0,0,0-7.812-21.3,26.205,26.205,0,0,0-18.321-7.068,26.1,26.1,0,0,0-26.319,26.505c0,12.462,9.021,26.319,26.412,26.319A26.18,26.18,0,0,0,219.759-2.7,26.519,26.519,0,0,0,229.9-14.88h-7.161C219.48-8.37,213.249-4.557,205.53-4.557c-8.463.093-19.158-5.952-19.53-18.507Zm-45.477-5.487c.651-9.114,8.649-17.019,19.437-17.019,10.323-.279,18.786,8.277,19.251,17.019ZM241.335,0h6.789V-27.249c0-11.346,5.394-17.391,15.066-17.391h.651v-6.789c-5.859.186-12.369,2.139-16,9.579v-8.184h-6.51Zm29.946,0h6.882V-28.272c0-10.416,5.952-16.647,16.275-16.74,11.253-.186,16.089,7.161,16.089,17.949V0h6.789V-28.458c0-12.183-5.487-22.785-21.018-22.971-8.928-.186-15.717,3.813-18.6,10.323.093-3.348.093-6.138.093-8.928h-6.51ZM380.835-50.034h-6.882v10.509c-2.418-5.673-9.765-11.9-20.46-11.9-15.252,0-25.947,11.718-25.947,26.412,0,13.764,9.672,26.412,25.947,26.412,8.928,0,16.554-4.185,20.46-11.718V0h6.882Zm-46.5,25.017c0-11.16,8.37-20.088,19.9-20.088a19.3,19.3,0,0,1,18.321,12,17.843,17.843,0,0,1,1.581,8,19.147,19.147,0,0,1-1.674,7.905A18.722,18.722,0,0,1,354.423-5.022c-13.764,0-19.995-10.881-20.088-19.9ZM394.227,0h6.882V-68.82h-6.882ZM14.043,93l-.186-61.194L40.641,93H45.57L72.261,31.806,72.075,93h7.254V24.18H68.541L43.152,81.933,17.67,24.18H6.882V93Zm127.5-23.064a26.268,26.268,0,1,0-52.452-1.86c0,12.462,9.021,26.319,26.412,26.319A26.18,26.18,0,0,0,129.735,90.3,26.519,26.519,0,0,0,139.872,78.12h-7.161c-3.255,6.51-9.486,10.323-17.205,10.323-8.463.093-19.158-5.952-19.53-18.507ZM96.069,64.449c.651-9.114,8.649-17.019,19.437-17.019,10.323-.279,18.786,8.277,19.251,17.019ZM151.311,93h6.882V64.728c0-10.416,5.952-16.647,16.275-16.74,11.253-.186,16.089,7.161,16.089,17.949V93h6.789V64.542c0-12.183-5.487-22.785-21.018-22.971-8.928-.186-15.717,3.813-18.6,10.323.093-3.348.093-6.138.093-8.928h-6.51Zm63.24,0h6.789V48.453h10.974V42.966H221.34V24.18h-6.789V42.966h-9.858v5.487h9.858Zm72.726-50.034H280.4V53.475c-2.418-5.673-9.765-11.9-20.46-11.9-15.252,0-25.947,11.718-25.947,26.412,0,13.764,9.672,26.412,25.947,26.412,8.928,0,16.554-4.185,20.46-11.718V93h6.882Zm-46.5,25.017c0-11.16,8.37-20.088,19.9-20.088a19.3,19.3,0,0,1,18.321,12,17.843,17.843,0,0,1,1.581,8,19.147,19.147,0,0,1-1.674,7.9,18.722,18.722,0,0,1-18.042,12.183c-13.764,0-20-10.881-20.088-19.9ZM300.669,93h6.882V24.18h-6.882ZM14.508,186V154.566h33.2V186h7.719V117.18H47.709v30.6h-33.2v-30.6H6.882V186Zm103.137-23.064a26.268,26.268,0,1,0-52.452-1.86c0,12.462,9.021,26.319,26.412,26.319a26.18,26.18,0,0,0,14.229-4.092,26.519,26.519,0,0,0,10.137-12.183H108.81c-3.255,6.51-9.486,10.323-17.2,10.323-8.463.093-19.158-5.952-19.53-18.507Zm-45.477-5.487c.651-9.114,8.649-17.019,19.437-17.019,10.323-.279,18.786,8.277,19.251,17.019ZM177.63,135.966h-6.882v10.509c-2.418-5.673-9.765-11.9-20.46-11.9-15.252,0-25.947,11.718-25.947,26.412,0,13.764,9.672,26.412,25.947,26.412,8.928,0,16.554-4.185,20.46-11.718V186h6.882Zm-46.5,25.017c0-11.16,8.37-20.088,19.9-20.088a19.3,19.3,0,0,1,18.321,12,17.843,17.843,0,0,1,1.581,8,19.147,19.147,0,0,1-1.674,7.9,18.722,18.722,0,0,1-18.042,12.183c-13.764,0-19.995-10.881-20.088-19.9ZM191.022,186H197.9V117.18h-6.882Zm24.087,0H221.9V141.453h10.974v-5.487H221.9V117.18h-6.789v18.786h-9.858v5.487h9.858Zm25.3,0h6.882V157.542a16.991,16.991,0,0,1,4-11.625c2.6-2.976,6.7-4.929,12.183-4.929,5.952,0,9.858,1.86,12.555,5.115,2.511,3.255,3.627,7.812,3.627,13.206V186h6.789V159.03c0-7.161-1.3-13.206-4.743-17.577s-8.649-6.882-16.554-6.882c-7.068-.186-14.787,2.976-17.856,9.579V117.18H240.4Z" transform="translate(113.586 226.662)" fill="#fff"/>
        </g>
        <g id="XMLID_2323_" clip-path="url(#clip-path-3)">
          <rect id="XMLID_2324_" width="466.793" height="63.17" transform="translate(113.585 451)" fill="none"/>
          <path id="Path_1240" data-name="Path 1240" d="M1.064-5.768A6.122,6.122,0,0,0,7.56.364a6.037,6.037,0,0,0,6.412-6.076c0-3.808-3.08-4.9-5.04-5.656-3.136-1.064-5.18-1.68-5.152-4.2a3.563,3.563,0,0,1,3.78-3.556c2.744,0,3.416,2.044,3.668,3.388h2.3a5.576,5.576,0,0,0-5.88-5.348c-3.164,0-6.216,2.044-6.16,5.712,0,3.92,3.612,4.984,5.292,5.488,2.408.784,4.9,1.428,4.9,4.34A4.058,4.058,0,0,1,7.532-1.6c-1.288,0-3.808-.728-4.144-4.172Zm29.82-9.3H28.812v8.512c0,3.136-1.792,5.012-4.928,5.04-3.388.028-4.844-2.156-4.844-5.4v-8.148H17v8.54C17-2.856,18.648.336,23.352.42c2.688.028,4.732-1.148,5.572-3.108V0h1.96ZM34.916,5.712h2.072V-3.08A6.693,6.693,0,0,0,43.176.42a7.656,7.656,0,0,0,7.728-7.9c0-3.892-2.66-8.008-7.728-8.008a6.929,6.929,0,0,0-6.3,3.556v-3.136h-1.96ZM48.832-7.532a5.884,5.884,0,0,1-5.992,6.02A5.985,5.985,0,0,1,38.584-3.22,6.005,6.005,0,0,1,36.848-7.5a6.221,6.221,0,0,1,1.68-4.312,5.963,5.963,0,0,1,4.256-1.764,5.878,5.878,0,0,1,6.048,6.02ZM54.068,5.712H56.14V-3.08A6.693,6.693,0,0,0,62.328.42a7.656,7.656,0,0,0,7.728-7.9c0-3.892-2.66-8.008-7.728-8.008a6.929,6.929,0,0,0-6.3,3.556v-3.136h-1.96ZM67.984-7.532a5.884,5.884,0,0,1-5.992,6.02A5.985,5.985,0,0,1,57.736-3.22,6.005,6.005,0,0,1,56-7.5a6.221,6.221,0,0,1,1.68-4.312,5.963,5.963,0,0,1,4.256-1.764,5.878,5.878,0,0,1,6.048,6.02Zm4.312,0A7.772,7.772,0,0,0,80.276.392a7.778,7.778,0,0,0,8.008-7.924,7.8,7.8,0,0,0-8.008-7.952A7.788,7.788,0,0,0,72.3-7.56Zm2.044,0a5.871,5.871,0,0,1,5.936-6.02,5.854,5.854,0,0,1,5.936,6.02,5.854,5.854,0,0,1-5.936,6.02A5.865,5.865,0,0,1,74.34-7.5ZM91.392,0h2.044V-8.2c0-3.416,1.624-5.236,4.536-5.236h.2v-2.044A5.129,5.129,0,0,0,93.352-12.6v-2.464h-1.96ZM102.34,0h2.044V-13.412h3.3v-1.652h-3.3V-20.72H102.34v5.656H99.372v1.652h2.968Zm7.616-17.836h2.072V-20.72h-2.072Zm0,17.836h2.072V-15.064h-2.072Zm6.1,0h2.072V-8.512c0-3.136,1.792-5.012,4.9-5.04,3.388-.056,4.844,2.156,4.844,5.4V0h2.044V-8.568c0-3.668-1.652-6.86-6.328-6.916-2.688-.056-4.732,1.148-5.6,3.108.028-1.008.028-1.848.028-2.688h-1.96Zm32.928-15.064h-2.044v3.108a6.667,6.667,0,0,0-6.1-3.528,7.712,7.712,0,0,0-7.868,7.98A7.7,7.7,0,0,0,140.84.42a6.511,6.511,0,0,0,6.076-3.612V-1.26a5.835,5.835,0,0,1-5.824,5.992A5.938,5.938,0,0,1,137.76,3.64a5.8,5.8,0,0,1-1.792-1.988h-2.38a7.622,7.622,0,0,0,7.448,4.872A8.42,8.42,0,0,0,146.748,4.2a7.712,7.712,0,0,0,2.24-5.936Zm-13.944,7.5a5.86,5.86,0,0,1,5.992-5.992,5.549,5.549,0,0,1,4.592,2.1A6.5,6.5,0,0,1,147-7.5a6.315,6.315,0,0,1-1.68,4.256,5.78,5.78,0,0,1-4.228,1.736,5.856,5.856,0,0,1-6.048-6.02ZM161.056,0h2.072V-8.4a5.837,5.837,0,0,1,1.008-3.612,3.707,3.707,0,0,1,3.192-1.54,3.884,3.884,0,0,1,3.3,1.6,5.741,5.741,0,0,1,.784,3.584V0h2.072V-8.372a5.322,5.322,0,0,1,.9-3.612,3.938,3.938,0,0,1,3.3-1.568,3.557,3.557,0,0,1,3,1.26,5.917,5.917,0,0,1,1.12,4V0h2.072V-8.372c0-2.66-.392-4.284-1.708-5.6a5.552,5.552,0,0,0-4.06-1.512,5.669,5.669,0,0,0-4.144,1.68,6.757,6.757,0,0,0-1.092,1.6,7.863,7.863,0,0,0-.98-1.568,5.316,5.316,0,0,0-4.116-1.708,5.393,5.393,0,0,0-4.76,2.8v-2.38h-1.96ZM186.9-7.532A7.772,7.772,0,0,0,194.88.392a7.778,7.778,0,0,0,8.008-7.924,7.8,7.8,0,0,0-8.008-7.952A7.788,7.788,0,0,0,186.9-7.56Zm2.044,0a5.871,5.871,0,0,1,5.936-6.02,5.854,5.854,0,0,1,5.936,6.02,5.854,5.854,0,0,1-5.936,6.02A5.865,5.865,0,0,1,188.944-7.5ZM207.172,0h2.044V-13.412h3.3v-1.652h-3.3V-20.72h-2.044v5.656H204.2v1.652h2.968Zm7.616,0h2.072V-8.568a5.116,5.116,0,0,1,1.2-3.5,4.7,4.7,0,0,1,3.668-1.484,4.549,4.549,0,0,1,3.78,1.54A6.433,6.433,0,0,1,226.6-8.036V0h2.044V-8.12a8.4,8.4,0,0,0-1.428-5.292,5.882,5.882,0,0,0-4.984-2.072A5.678,5.678,0,0,0,216.86-12.6v-8.12h-2.072Zm32.48-6.944a7.829,7.829,0,0,0-2.352-6.412,7.89,7.89,0,0,0-5.516-2.128,7.859,7.859,0,0,0-7.924,7.98A7.78,7.78,0,0,0,239.428.42a7.882,7.882,0,0,0,4.284-1.232,7.984,7.984,0,0,0,3.052-3.668h-2.156a5.571,5.571,0,0,1-5.18,3.108,5.738,5.738,0,0,1-5.88-5.572ZM233.576-8.6a5.705,5.705,0,0,1,5.852-5.124,5.73,5.73,0,0,1,5.8,5.124ZM250.208,0h2.044V-8.2c0-3.416,1.624-5.236,4.536-5.236h.2v-2.044a5.129,5.129,0,0,0-4.816,2.884v-2.464h-1.96Zm17.836-11.284a4.268,4.268,0,0,0-4.592-4.2c-2.548,0-4.7,1.6-4.7,4.312.056,2.38,1.736,3.248,3.892,3.892,2.6.756,3.724,1.456,3.78,3.164a2.789,2.789,0,0,1-2.912,2.828,2.981,2.981,0,0,1-3.136-3h-2.044c.028,3.164,2.716,4.7,5.152,4.7a4.685,4.685,0,0,0,4.984-4.788c-.112-3.22-2.52-3.836-4.676-4.424-1.82-.532-2.912-1.12-2.968-2.548a2.384,2.384,0,0,1,2.6-2.436A2.36,2.36,0,0,1,266-11.284Zm26.964-3.78h-2.072V-11.9a6.617,6.617,0,0,0-6.16-3.584,7.692,7.692,0,0,0-7.812,7.952A7.668,7.668,0,0,0,286.776.42a6.685,6.685,0,0,0,6.16-3.528V0h2.072Zm-14,7.532A5.907,5.907,0,0,1,287-13.58a5.811,5.811,0,0,1,5.516,3.612,5.372,5.372,0,0,1,.476,2.408,5.765,5.765,0,0,1-.5,2.38,5.637,5.637,0,0,1-5.432,3.668A5.883,5.883,0,0,1,281.008-7.5ZM299.04,0h2.072V-8.512c0-3.136,1.792-5.012,4.9-5.04,3.388-.056,4.844,2.156,4.844,5.4V0H312.9V-8.568c0-3.668-1.652-6.86-6.328-6.916-2.688-.056-4.732,1.148-5.6,3.108.028-1.008.028-1.848.028-2.688h-1.96Zm32.928-20.72H329.9v8.708a6.629,6.629,0,0,0-6.16-3.472A7.64,7.64,0,0,0,315.98-7.56,7.67,7.67,0,0,0,323.764.42a6.666,6.666,0,0,0,6.216-3.528V0h1.988ZM318.024-7.56a5.89,5.89,0,0,1,6.02-6.02,5.892,5.892,0,0,1,4.256,1.736,5.78,5.78,0,0,1,1.736,4.228,5.909,5.909,0,0,1-1.68,4.34,5.98,5.98,0,0,1-4.284,1.764,5.871,5.871,0,0,1-6.048-6.02ZM14.532,28.9a5.68,5.68,0,0,1-5.46,3.584,5.854,5.854,0,0,1-5.936-6.02,6.18,6.18,0,0,1,1.708-4.34A5.72,5.72,0,0,1,9.1,20.42a5.768,5.768,0,0,1,5.46,3.724h2.128a7.817,7.817,0,0,0-7.672-5.628,7.953,7.953,0,1,0,.14,15.9A7.806,7.806,0,0,0,16.688,28.9Zm20.244-9.968H32.7V22.1a6.617,6.617,0,0,0-6.16-3.584,7.692,7.692,0,0,0-7.812,7.952,7.668,7.668,0,0,0,7.812,7.952,6.685,6.685,0,0,0,6.16-3.528V34h2.072Zm-14,7.532a5.907,5.907,0,0,1,5.992-6.048,5.811,5.811,0,0,1,5.516,3.612,5.372,5.372,0,0,1,.476,2.408,5.765,5.765,0,0,1-.5,2.38,5.637,5.637,0,0,1-5.432,3.668A5.883,5.883,0,0,1,20.776,26.5ZM38.808,34h2.044V25.8c0-3.416,1.624-5.236,4.536-5.236h.2V18.516A5.129,5.129,0,0,0,40.768,21.4V18.936h-1.96Zm22.6-6.944a7.909,7.909,0,1,0-15.792-.56,7.78,7.78,0,0,0,7.952,7.924,7.882,7.882,0,0,0,4.284-1.232A7.984,7.984,0,0,0,60.9,29.52H58.744a5.571,5.571,0,0,1-5.18,3.108,5.738,5.738,0,0,1-5.88-5.572ZM47.712,25.4a5.872,5.872,0,0,1,11.648,0Zm31.7-6.468H77.364v3.108a6.667,6.667,0,0,0-6.1-3.528,7.712,7.712,0,0,0-7.868,7.98A7.7,7.7,0,0,0,71.26,34.42a6.511,6.511,0,0,0,6.076-3.612V32.74a5.835,5.835,0,0,1-5.824,5.992A5.938,5.938,0,0,1,68.18,37.64a5.8,5.8,0,0,1-1.792-1.988h-2.38a7.622,7.622,0,0,0,7.448,4.872A8.42,8.42,0,0,0,77.168,38.2a7.712,7.712,0,0,0,2.24-5.936Zm-13.944,7.5a5.86,5.86,0,0,1,5.992-5.992,5.549,5.549,0,0,1,4.592,2.1A6.5,6.5,0,0,1,77.42,26.5a6.315,6.315,0,0,1-1.68,4.256,5.78,5.78,0,0,1-4.228,1.736,5.856,5.856,0,0,1-6.048-6.02ZM83.412,16.164h2.072V13.28H83.412Zm0,17.836h2.072V18.936H83.412Zm18.34-15.064H99.568L94.752,31.452,89.908,18.936H87.724L93.66,34h2.156Zm16.212,8.12a7.909,7.909,0,1,0-15.792-.56,7.78,7.78,0,0,0,7.952,7.924,7.882,7.882,0,0,0,4.284-1.232,7.984,7.984,0,0,0,3.052-3.668H115.3a5.571,5.571,0,0,1-5.18,3.108,5.738,5.738,0,0,1-5.88-5.572ZM104.272,25.4a5.872,5.872,0,0,1,11.648,0ZM120.9,34h2.044V25.8c0-3.416,1.624-5.236,4.536-5.236h.2V18.516a5.129,5.129,0,0,0-4.816,2.884V18.936H120.9ZM138.74,22.716a4.268,4.268,0,0,0-4.592-4.2c-2.548,0-4.7,1.6-4.7,4.312.056,2.38,1.736,3.248,3.892,3.892,2.6.756,3.724,1.456,3.78,3.164a2.789,2.789,0,0,1-2.912,2.828,2.981,2.981,0,0,1-3.136-3h-2.044c.028,3.164,2.716,4.7,5.152,4.7a4.685,4.685,0,0,0,4.984-4.788c-.112-3.22-2.52-3.836-4.676-4.424-1.82-.532-2.912-1.12-2.968-2.548a2.384,2.384,0,0,1,2.6-2.436,2.36,2.36,0,0,1,2.576,2.492ZM151.76,34H153.8V20.588h3.3V18.936h-3.3V13.28H151.76v5.656h-2.968v1.652h2.968Zm7.616,0h2.072V25.432a5.116,5.116,0,0,1,1.2-3.5,4.7,4.7,0,0,1,3.668-1.484,4.549,4.549,0,0,1,3.78,1.54,6.433,6.433,0,0,1,1.092,3.976V34h2.044V25.88a8.4,8.4,0,0,0-1.428-5.292,5.882,5.882,0,0,0-4.984-2.072,5.678,5.678,0,0,0-5.376,2.884V13.28h-2.072Zm17.836,0h2.044V25.8c0-3.416,1.624-5.236,4.536-5.236h.2V18.516a5.129,5.129,0,0,0-4.816,2.884V18.936h-1.96Zm6.916-7.532a7.994,7.994,0,0,0,15.988,0,7.994,7.994,0,0,0-15.988-.028Zm2.044,0a5.937,5.937,0,1,1,11.872,0,5.936,5.936,0,1,1-11.872.028Zm30.912-7.532h-2.072v8.512c0,3.136-1.792,5.012-4.928,5.04-3.388.028-4.844-2.156-4.844-5.4V18.936H203.2v8.54c0,3.668,1.652,6.86,6.356,6.944,2.688.028,4.732-1.148,5.572-3.108V34h1.96Zm19.1,0h-2.044v3.108a6.667,6.667,0,0,0-6.1-3.528,7.712,7.712,0,0,0-7.868,7.98,7.7,7.7,0,0,0,7.868,7.924,6.511,6.511,0,0,0,6.076-3.612V32.74a5.835,5.835,0,0,1-5.824,5.992,5.938,5.938,0,0,1-3.332-1.092,5.8,5.8,0,0,1-1.792-1.988h-2.38a7.622,7.622,0,0,0,7.448,4.872A8.42,8.42,0,0,0,233.94,38.2a7.712,7.712,0,0,0,2.24-5.936Zm-13.944,7.5a5.86,5.86,0,0,1,5.992-5.992,5.549,5.549,0,0,1,4.592,2.1,6.5,6.5,0,0,1,1.372,3.948,6.315,6.315,0,0,1-1.68,4.256,5.78,5.78,0,0,1-4.228,1.736,5.856,5.856,0,0,1-6.048-6.02ZM240.184,34h2.072V25.432a5.116,5.116,0,0,1,1.2-3.5,4.7,4.7,0,0,1,3.668-1.484,4.549,4.549,0,0,1,3.78,1.54A6.433,6.433,0,0,1,252,25.964V34h2.044V25.88a8.4,8.4,0,0,0-1.428-5.292,5.882,5.882,0,0,0-4.984-2.072,5.678,5.678,0,0,0-5.376,2.884V13.28h-2.072Zm40.544-6.944a7.909,7.909,0,1,0-15.792-.56,7.78,7.78,0,0,0,7.952,7.924,7.882,7.882,0,0,0,4.284-1.232,7.984,7.984,0,0,0,3.052-3.668h-2.156a5.571,5.571,0,0,1-5.18,3.108,5.738,5.738,0,0,1-5.88-5.572ZM267.036,25.4a5.872,5.872,0,0,1,11.648,0ZM295.4,18.936h-2.184L288.4,31.452l-4.844-12.516h-2.184L287.308,34h2.156Zm16.212,8.12a7.909,7.909,0,1,0-15.792-.56,7.78,7.78,0,0,0,7.952,7.924,7.882,7.882,0,0,0,4.284-1.232,7.984,7.984,0,0,0,3.052-3.668h-2.156a5.571,5.571,0,0,1-5.18,3.108,5.738,5.738,0,0,1-5.88-5.572ZM297.92,25.4a5.872,5.872,0,0,1,11.648,0ZM314.552,34H316.6V25.8c0-3.416,1.624-5.236,4.536-5.236h.2V18.516a5.129,5.129,0,0,0-4.816,2.884V18.936h-1.96Zm11.032,5.712h2.24l8.6-20.776h-2.268l-4.872,12.18-4.732-12.18h-2.212L328.16,33.72ZM359.044,28.9a5.68,5.68,0,0,1-5.46,3.584,5.854,5.854,0,0,1-5.936-6.02,6.181,6.181,0,0,1,1.708-4.34,5.973,5.973,0,0,1,9.716,2.016H361.2a7.981,7.981,0,1,0-7.532,10.276A7.806,7.806,0,0,0,361.2,28.9Zm4.984,5.1H366.1V25.432a5.116,5.116,0,0,1,1.2-3.5,4.7,4.7,0,0,1,3.668-1.484,4.549,4.549,0,0,1,3.78,1.54,6.433,6.433,0,0,1,1.092,3.976V34h2.044V25.88a8.4,8.4,0,0,0-1.428-5.292,5.882,5.882,0,0,0-4.984-2.072A5.678,5.678,0,0,0,366.1,21.4V13.28h-2.072Zm32.956-15.064h-2.072V22.1a6.617,6.617,0,0,0-6.16-3.584,7.692,7.692,0,0,0-7.812,7.952,7.668,7.668,0,0,0,7.812,7.952,6.685,6.685,0,0,0,6.16-3.528V34h2.072Zm-14,7.532a5.907,5.907,0,0,1,5.992-6.048,5.811,5.811,0,0,1,5.516,3.612,5.372,5.372,0,0,1,.476,2.408,5.765,5.765,0,0,1-.5,2.38,5.637,5.637,0,0,1-5.432,3.668,5.883,5.883,0,0,1-6.048-5.992Zm18.032,13.244h2.072V30.92a6.693,6.693,0,0,0,6.188,3.5,7.656,7.656,0,0,0,7.728-7.9c0-3.892-2.66-8.008-7.728-8.008a6.929,6.929,0,0,0-6.3,3.556V18.936h-1.96Zm13.916-13.244a5.884,5.884,0,0,1-5.992,6.02,5.883,5.883,0,0,1-5.992-5.992,6.221,6.221,0,0,1,1.68-4.312,5.963,5.963,0,0,1,4.256-1.764,5.878,5.878,0,0,1,6.048,6.02Zm3.22-1.344v2.044h7.588V25.124Z" transform="translate(113.586 474.238)" fill="#fff"/>
        </g>
        <g id="XMLID_2279_" clip-path="url(#clip-path-3)">
          <path id="XMLID_2319_" d="M315.716-740.349c0-.1.1-.1.1-.2-.1-.2-.3-.506-.4-.709a.852.852,0,0,0-1.417.1.609.609,0,0,0,.1.4c.506.1,1.012.3,1.62.4m-42.62-.911c.2-.1.4-.1.506-.2s0-.3-.1-.4a3.781,3.781,0,0,0-.709-.607.466.466,0,0,0-.709.3.487.487,0,0,0,.2.607,6.964,6.964,0,0,0,.81.3m-5.365,0h2.126c.3,0,.4-.1.4-.4a2.845,2.845,0,0,1,1.417-2.632,1.873,1.873,0,0,1,1.923,0,2.877,2.877,0,0,1,1.519,2.328c.1.81.1.81.911.81.607,0,1.215-.1,1.822-.1a1.459,1.459,0,0,0,1.316-.81c.1-.1.1-.3.2-.4a3.6,3.6,0,0,1,.911-.4c0,.3.2.607.1.81-.4,1.012,0,.81.709.911h.506a1.862,1.862,0,0,0,1.721-1.215.79.79,0,0,1,.4-.4.637.637,0,0,1,.607,0c.1,0,.1.4.1.506a.912.912,0,0,1-.1.506c0,.3.1.506.4.506h.1c1.114.2,1.215.4,1.316-.911,0-.4.911-1.012,1.316-.911.1,0,.2.1.2.3a.912.912,0,0,1,.1.506,1.19,1.19,0,0,0,1.114,1.012,4.521,4.521,0,0,0,2.835-.3,2.576,2.576,0,0,0,1.215-1.114,1.01,1.01,0,0,1,.4-.506c.4-.3.607-.2.709.3a1.624,1.624,0,0,0,1.417,1.519c1.012.1,2.025.1,3.037.1a1.56,1.56,0,0,0,1.316-.911c.1-.1.1-.3.3-.4l.911-.3c0,.2.1.506.1.709-.2,1.012-.4.911.81,1.012a1.665,1.665,0,0,0,1.822-1.215,1.011,1.011,0,0,1,.4-.506c.607-.2.81-.1.709.506-.1.911-.1.911.709,1.012.709.2.81.1.911-.607a1.3,1.3,0,0,1,1.114-1.215c.3-.1.4,0,.506.3v.1c.2,1.316.4,1.518,1.822,1.518a1.849,1.849,0,0,0,1.519-.607,6.165,6.165,0,0,1,2.632-1.822,2.163,2.163,0,0,1,3.037,1.215,5.421,5.421,0,0,1,.1,4.353c-.2.3-.4.506-.709.506a18.835,18.835,0,0,1-3.442-.4,11.159,11.159,0,0,0-1.822-.2c-1.316-.1-2.632.1-3.847-.4h-.4a3.08,3.08,0,0,1-2.328.2.372.372,0,0,1-.3-.1,3.308,3.308,0,0,0-1.721,0,12.335,12.335,0,0,1-2.733,0h-.911c-.4,0-.709.1-1.114.1-1.114,0-2.126.1-3.24,0a2.687,2.687,0,0,1-1.417-.506c-.2-.1-.4-.2-.506,0a2.132,2.132,0,0,1-1.316.506h-2.328c-.709-.1-1.316-.2-1.923-.3-.2,0-.4-.1-.506,0a2.937,2.937,0,0,1-2.43.2,3.372,3.372,0,0,0-2.227.1,5.774,5.774,0,0,1-2.632,0,2.753,2.753,0,0,0-.911,0c-.607,0-1.316.2-1.923.2h-8.909c-.709.1-.81.2-1.012.911a2.23,2.23,0,0,1-1.215,1.62,7.893,7.893,0,0,1-6.378.911,2.616,2.616,0,0,1-1.923-3.24,8.99,8.99,0,0,1,1.923-3.948,2.035,2.035,0,0,1,.81-.4h.3a.372.372,0,0,1-.1.3,14.815,14.815,0,0,0-.911,1.316,5.426,5.426,0,0,0-.506,1.114,1.312,1.312,0,0,0,.81,1.721,5.808,5.808,0,0,0,1.417.4,6.627,6.627,0,0,0,3.138-.506c.506-.2.506-.4.1-.709a3.837,3.837,0,0,0-1.316-.607c-.709-.2-.81-.506-.3-1.012a2.672,2.672,0,0,1,1.923-.709c.3,0,.607-.1.911-.1a24.076,24.076,0,0,1,2.43-.1Z" transform="translate(1249.371 901.312)" fill="#fff"/>
          <path id="XMLID_2318_" d="M234.374-738.787c-1.215.911-2.632.607-4.049.607a4.566,4.566,0,0,1-1.114-.3A1.384,1.384,0,0,1,228.3-740c.1-.607.3-1.114.4-1.62,0-.1.2-.2.3-.4a.765.765,0,0,1,.1.4c.1.2.2.4.4.4h3.138c-.1-.2-.1-.3-.2-.4-.2-.3-.4-.506-.607-.81-.709-.911-.709-1.114-.1-2.126q.3-.456.607,0a13.463,13.463,0,0,1,1.417,1.923c1.012,1.822.607,1.518,2.733,1.518a5.924,5.924,0,0,0,1.316-.2,1.786,1.786,0,0,0,1.316-1.215c.1-.2.1-.3.3-.4.1-.1.4-.2.506-.1.1,0,.2.3.2.506.1,1.012.4,1.417,1.417,1.519,1.519.1,3.138.1,4.657.1.3,0,.4-.1.4-.4-.1-1.518-.2-2.936-.3-4.454v-.1c-.709-.911.2-1.417.607-2.126,0-.1.4-.1.4,0a12.134,12.134,0,0,1,1.114,1.215.609.609,0,0,1,.1.4c-.607.911-.3,1.822-.3,2.733,0,1.721.1,3.442.1,5.062a.537.537,0,0,1-.607.607h-7.086a3.118,3.118,0,0,1-1.215-.506c-.2-.1-.3-.2-.506,0a1.554,1.554,0,0,1-1.316.506h-2.126c-.607-.2-.607-.2-1.114-.81" transform="translate(1249.016 901.268)" fill="#fff"/>
          <path id="XMLID_2317_" d="M218.432-744.386a2.211,2.211,0,0,1-.3.506c-.2.607-.506,1.114-.709,1.721a1.82,1.82,0,0,0,1.114,2.227,5.9,5.9,0,0,0,3.948.2l1.822-.607v-.1c-.1,0-.2-.1-.3-.1-.3-.1-.709-.2-1.012-.3-1.316-.3-1.62-1.114-1.012-2.227a5.357,5.357,0,0,1,2.632-2.328,1.623,1.623,0,0,1,1.519.1c.607.3.709.709.4,1.316a3.031,3.031,0,0,1-.4.81c-.1.2-.2.3-.506.1-.709-.607-1.519-.4-2.126.506.4.1.709.2,1.012.3l1.519.3c.607.2.709.506.607,1.215a3.869,3.869,0,0,1-1.923,2.733,7.636,7.636,0,0,1-5.872,1.316c-1.822-.4-3.746-1.923-2.733-4.454a12.835,12.835,0,0,1,1.215-2.328c.2-.607.506-.911,1.114-.911" transform="translate(1248.862 901.3)" fill="#fff"/>
          <path id="XMLID_2316_" d="M235.363-725.734v-4.556c0-.607.2-.709.911-.709s.911.1.911.709v6.985c0,.709-.3.911-.911.911a1.655,1.655,0,0,1-1.822-1.114c-.709-1.518-1.519-3.037-2.328-4.556,0-.1-.1-.1-.2-.2v4.961c0,.607-.2.81-.81.81-.709,0-.911-.1-.911-.709v-6.884c0-.709.3-.911,1.012-1.012a1.8,1.8,0,0,1,2.025,1.215c.607,1.316,1.316,2.531,1.923,3.746a.768.768,0,0,1,.2.4c-.1,0,0,0,0,0" transform="translate(1249.04 901.478)" fill="#fff"/>
          <path id="XMLID_2313_" d="M279.675-726.645c-.1-.607-.1-1.012-.2-1.417a1.854,1.854,0,0,0-1.822-1.62,1.791,1.791,0,0,0-2.025,1.417,5.176,5.176,0,0,0,0,3.037,1.731,1.731,0,0,0,1.62,1.316,1.771,1.771,0,0,0,2.025-1.114,4.765,4.765,0,0,0,.4-1.62m1.923-.2a4.564,4.564,0,0,1-1.316,3.644c-1.519,1.316-4.454,1.316-5.77-.2a3.972,3.972,0,0,1-.81-1.417,6.74,6.74,0,0,1,.1-3.746,3.564,3.564,0,0,1,4.151-2.531,4.542,4.542,0,0,1,1.923.506c1.316.607,1.62,1.924,1.721,3.24,0,.1,0,.3,0,.506" transform="translate(1249.574 901.477)" fill="#fff"/>
          <path id="XMLID_2310_" d="M248.423-726.747v2.328c0,.3.1.4.4.506a2.353,2.353,0,0,0,2.936-2.43v-.607a2.379,2.379,0,0,0-2.835-2.632c-.3,0-.506.1-.506.506,0,.81,0,1.518,0,2.328m-1.923,0v-3.442c0-.709.2-.911.911-.911h2.43a3.536,3.536,0,0,1,3.746,3.341,5.517,5.517,0,0,1-.1,2.227,3.547,3.547,0,0,1-3.644,3.037H247.31c-.506,0-.81-.2-.81-.81,0-1.114,0-2.227,0-3.442" transform="translate(1249.241 901.478)" fill="#fff"/>
          <path id="XMLID_2309_" d="M272.38-726.745v3.543c0,.607-.1.709-.709.709h-.506a.537.537,0,0,1-.607-.607v-2.43c0-.607,0-.607-.607-.607h-1.62c-.607,0-.607,0-.607.607v2.328c0,.607-.1.709-.709.709h-.709A.478.478,0,0,1,265.8-723v-7.593a.642.642,0,0,1,.506-.607h.1c1.114-.1,1.215.1,1.215,1.114v1.721c0,.4.1.506.506.506h1.923c.4,0,.506-.1.506-.506v-2.126c0-.607.1-.709.709-.709h.3c.709,0,.81.1.81.81q0,1.974,0,3.644" transform="translate(1249.479 901.476)" fill="#fff"/>
          <path id="XMLID_2306_" d="M257.945-728.772h-.2a26.141,26.141,0,0,0-.81,2.632.456.456,0,0,0,.3.3h1.215c.4,0,.4-.2.3-.506a6.55,6.55,0,0,1-.4-1.316,7.678,7.678,0,0,0-.4-1.114m3.037,6.378c-.81,0-.911-.1-1.215-.911-.4-1.316-.1-1.114-1.519-1.114h-1.316a.555.555,0,0,0-.607.4,2.383,2.383,0,0,0-.2.81,1.159,1.159,0,0,1-1.721.607c-.1-.1-.2-.506-.1-.607.3-1.114.709-2.227,1.114-3.341.4-1.316.911-2.531,1.316-3.847a.908.908,0,0,1,1.012-.709c1.519,0,1.519,0,2.025,1.417.709,2.126,1.417,4.151,2.126,6.277.1.81,0,1.012-.911,1.012" transform="translate(1249.337 901.478)" fill="#fff"/>
          <path id="XMLID_2303_" d="M241.847-728.774a.314.314,0,0,1-.2.1,24.43,24.43,0,0,0-.81,2.531.456.456,0,0,0,.3.3h1.316a.456.456,0,0,0,.3-.3,27.049,27.049,0,0,1-.911-2.632m-.1,4.454h-.709c-.81,0-.81,0-1.012.709,0,.1-.1.2-.1.4-.3.81-.506,1.012-1.316.911-.607-.1-.709-.2-.607-.81.3-1.012.709-2.025,1.012-3.037.4-1.316.911-2.531,1.316-3.847.3-.81.4-.911,1.316-.911,1.215,0,1.215,0,1.62,1.114.81,2.227,1.519,4.353,2.328,6.58.3.81.2.911-.709,1.012-.911,0-1.012-.1-1.316-.911-.4-1.316-.2-1.114-1.519-1.114a.372.372,0,0,0-.3-.1" transform="translate(1249.135 901.48)" fill="#fff"/>
          <path id="XMLID_2300_" d="M291.431-729.481c-.2,0-.607-.1-.607.4v1.923c0,.1.2.3.3.4a1.332,1.332,0,0,0,1.721-1.215c.1-1.114-.3-1.519-1.417-1.519m-2.531,2.835v-3.442c0-.709.2-.911,1.012-.911a24.679,24.679,0,0,1,2.733.1,2.326,2.326,0,0,1,2.227,2.328,2.664,2.664,0,0,1-2.126,3.037c-.4.1-.911.1-1.417.2-.3,0-.506.1-.506.506v1.721a.669.669,0,0,1-.607.709h-.506c-.709-.1-.709-.1-.81-.81h0v-3.442" transform="translate(1249.764 901.479)" fill="#fff"/>
          <path id="XMLID_2299_" d="M215.1-726.748v-3.341c0-.709.2-.911.911-.911h3.442c.607,0,.709.2.709.709,0,.607-.2.709-.709.81H217.53c-.4,0-.506.1-.506.506v.911c0,.4.2.506.506.506h1.62c.506,0,.709.2.709.709s-.2.709-.709.709h-1.62c-.4,0-.506.1-.506.506v1.215c0,.4.2.506.506.506h1.923a.825.825,0,0,1,.709,1.316.773.773,0,0,1-.506.2h-3.847c-.506,0-.709-.2-.709-.709,0-1.316,0-2.43,0-3.644Z" transform="translate(1248.853 901.479)" fill="#fff"/>
          <path id="XMLID_2298_" d="M284.529-722.19c-.506-.2-1.114-.3-1.721-.506a1.069,1.069,0,0,1-.506-1.518c.2-.3.4-.2.607-.1a5.556,5.556,0,0,0,1.721.506.981.981,0,0,0,1.215-1.012,1.286,1.286,0,0,0-.4-.709,6.045,6.045,0,0,0-1.114-.607,2.924,2.924,0,0,1-1.923-2.126,2.282,2.282,0,0,1,1.519-2.632,3.329,3.329,0,0,1,2.936.1,1.035,1.035,0,0,1,.506,1.417c-.1.3-.3.3-.607.2s-.607-.3-.911-.4a.865.865,0,0,0-.709,0,1.07,1.07,0,0,0-.709.607.7.7,0,0,0,.3.911,4.406,4.406,0,0,0,.709.4c.3.2.709.3,1.012.506a2.581,2.581,0,0,1,1.417,2.733,2.576,2.576,0,0,1-2.025,2.126,6.217,6.217,0,0,0-1.316.1" transform="translate(1249.681 901.477)" fill="#fff"/>
          <path id="XMLID_2297_" d="M300.93-726.039v-2.835a.537.537,0,0,0-.607-.607h-1.215c-.506,0-.607-.3-.607-.709,0-.506.1-.81.607-.81h5.467c.506,0,.607.4.607.81s0,.709-.607.81h-1.215a.537.537,0,0,0-.607.607v5.669c0,.3.1.709-.3.81a3.481,3.481,0,0,1-1.417-.1c-.1,0-.2-.4-.2-.506.1-1.215.1-2.126.1-3.138" transform="translate(1249.883 901.479)" fill="#fff"/>
          <path id="XMLID_2296_" d="M221.5-726.849v-3.442c0-.607.1-.709.709-.709h.4c.607,0,.709.1.709.709v5.669c0,.709,0,.709.709.709h1.519c.506,0,.607.4.607.81s0,.81-.506.81h-3.543c-.506,0-.607-.2-.709-.81.1-1.316.1-2.531.1-3.746" transform="translate(1248.931 901.479)" fill="#fff"/>
          <path id="XMLID_2295_" d="M297.823-726.746v3.543c0,.506-.1.709-.709.709h-.506c-.506,0-.709-.2-.709-.709v-7.289c0-.506.2-.709.709-.709h.506c.506,0,.709.2.709.709v3.746" transform="translate(1249.851 901.477)" fill="#fff"/>
          <path id="XMLID_2294_" d="M252.422-741.823a4.929,4.929,0,0,0,.1,1.215,2.689,2.689,0,0,1-1.114,2.227c-.2.2-.4.1-.4-.2,0-.506-.1-1.012-.1-1.518-.1-2.025-.2-3.948-.3-5.973a1.362,1.362,0,0,1,.506-1.215l.607-.607c.1-.1.3-.1.4-.2.1.2.2.3.2.506a8.707,8.707,0,0,1,.1,1.62v4.049h0" transform="translate(1249.291 901.268)" fill="#fff"/>
          <path id="XMLID_2293_" d="M286.265-745.69c-.1.1-.1.2-.2.3-.3.2-.607.506-.911.709-.2.1-.506.1-.607-.1-1.012-.607-1.012-.607-1.923.1a.616.616,0,0,1-.81,0c-1.215-1.012-1.114-.81,0-1.721a.616.616,0,0,1,.81,0c.911.709.911.709,1.923,0,.3-.2.506-.2.709,0s.506.3.709.506c.1,0,.2.1.3.2" transform="translate(1249.666 901.287)" fill="#fff"/>
          <path id="XMLID_2292_" d="M293.232-745.082a4.284,4.284,0,0,0-.709.506c-.4.4-.709.3-1.114,0-1.012-.81-1.012-.709-.1-1.519.506-.4.607-.506,1.114-.1.1,0,.1.1.2.1.607.506.607.506,1.316,0,.2-.2.607-.506.81-.4a4.5,4.5,0,0,1,1.114.81c.1,0,0,.3-.1.4s-.2.2-.3.2c-1.012.81-.81.709-1.721.1a.913.913,0,0,1-.506-.1" transform="translate(1249.786 901.287)" fill="#fff"/>
          <path id="XMLID_2291_" d="M239.515-744.174a12.131,12.131,0,0,0-1.215-1.114v-.1c.4-.3.709-.607,1.114-.911.1-.1.506,0,.607.1,1.114.81,1.114.81,0,1.62a2.771,2.771,0,0,1-.506.4" transform="translate(1249.14 901.29)" fill="#fff"/>
          <path id="XMLID_2290_" d="M272.015-745.473c-.2-.2-.4-.3-.607-.506-.81-.709-.81-.709,0-1.316.709-.506.709-.506,1.316,0,.911.607.911.607,0,1.316-.2.2-.506.3-.709.506" transform="translate(1249.541 901.273)" fill="#fff"/>
          <path id="XMLID_2289_" d="M283.716-748.8c.4.4.81.709,1.215,1.114v.1a5.451,5.451,0,0,1-1.215.911c-.1.1-.506-.1-.607-.2-.911-.81-.911-.81.1-1.518a.713.713,0,0,1,.506-.4" transform="translate(1249.684 901.259)" fill="#fff"/>
          <path id="XMLID_2284_" d="M281.3-787.541c-.506.1-1.114.1-1.721.2a12.237,12.237,0,0,0-1.822.506c-2.733,1.114-4.454,3.341-3.644,6.378.4,1.519-.3,2.43-1.417,3.24q-.911.607,0,1.215c.4.3.4.506.1.81s-.3.506.1.81c.1.1.2.4.1.506-.2.4-.1.607.3.81.3.2.506.4.4.81a1.3,1.3,0,0,0,.4,1.215,3.4,3.4,0,0,0,3.037,1.114,17.839,17.839,0,0,0,6.479-1.518,10.491,10.491,0,0,0,2.733-1.721,10.361,10.361,0,0,0,3.037-8,4.775,4.775,0,0,0-1.215-3.24,8.858,8.858,0,0,0-6.884-3.138M261.858-816.19h0a18.89,18.89,0,0,0-2.531.4,28.128,28.128,0,0,0-14.173,8.1,27.791,27.791,0,0,0-5.669,8.5,27.391,27.391,0,0,0-2.126,13.363,26.874,26.874,0,0,0,2.227,8.807,28.108,28.108,0,0,0,9.01,11.338A30,30,0,0,0,265-759.7a34.04,34.04,0,0,0,10.123-.911,28.473,28.473,0,0,0,9.516-4.049c.1-.1.3-.2.4-.3-.2,0-.3,0-.4.1a20.673,20.673,0,0,1-6.479,2.328,56.121,56.121,0,0,1-5.77.709,26.861,26.861,0,0,1-10.225-.911,27.277,27.277,0,0,1-14.173-8.909,26.788,26.788,0,0,1-6.681-16.8,28.755,28.755,0,0,1,.81-7.8,27.282,27.282,0,0,1,6.479-11.844,29.069,29.069,0,0,1,11.035-7.39c.607-.2,1.417-.506,2.227-.709m-17.716,26.22c.1,1.114.1,2.126.3,3.24.81,4.859,2.43,9.314,5.973,12.958A41.431,41.431,0,0,0,257.1-767.9a9.263,9.263,0,0,0,1.721.911c.3.1.4.1.4-.3a6.154,6.154,0,0,1-.1-1.923,13.016,13.016,0,0,1,2.936-6.985,4.339,4.339,0,0,1,3.037-1.822c.911-.1,1.822-.1,2.733-.2a4.99,4.99,0,0,0,2.936-1.114,1.115,1.115,0,0,0,.3-1.519c-.1-.3-.3-.607-.4-.911a1.227,1.227,0,0,1,.2-1.518c.4-.607.4-.81-.1-1.316-.607-.607-.607-.607,0-1.316l.1-.1a.676.676,0,0,0-.1-1.012,1.011,1.011,0,0,1-.506-.4c-.607-.4-.607-.911-.1-1.417l.709-.709c.4-.506.3-.81-.2-1.215a2.211,2.211,0,0,1-.506-.3c-.81-.4-1.62-.911-2.531-1.316a2.365,2.365,0,0,1-1.417-2.025,8.843,8.843,0,0,0-.506-2.227,7.977,7.977,0,0,0-5.264-4.252,14.95,14.95,0,0,0-9.415.4,8.615,8.615,0,0,0-5.77,6.277,7.871,7.871,0,0,0-1.114,4.252m23.081,34.116a40.909,40.909,0,0,1-13.565-2.126,31.976,31.976,0,0,1-9.314-5.062,29.7,29.7,0,0,1-7.9-9.82,38.34,38.34,0,0,1-3.746-12.857,29.978,29.978,0,0,1,.607-10.832,35.681,35.681,0,0,1,3.644-8.3,87.566,87.566,0,0,1,7.593-10.326c3.341-4.049,6.681-8,9.617-12.351a89.773,89.773,0,0,0,5.568-9.516c2.126-3.948,4.151-7.8,6.277-11.743.3-.506.506-1.012,1.215-1.012s1.012.506,1.215,1.012c1.417,2.531,2.733,5.062,4.049,7.593,1.822,3.341,3.543,6.681,5.365,9.921a71.481,71.481,0,0,0,7.188,10.225c3.138,3.847,6.277,7.694,9.314,11.642a40.08,40.08,0,0,1,6.277,11.338,27.793,27.793,0,0,1,1.215,11.136,39.292,39.292,0,0,1-2.43,10.731,30.289,30.289,0,0,1-7.8,11.642,30.319,30.319,0,0,1-10.832,6.479,38.228,38.228,0,0,1-11.743,2.126,2.8,2.8,0,0,0-.911.1h-.911" transform="translate(1249.068 900.012)" fill="#fff"/>
          <path id="XMLID_2281_" d="M309.045-728.772h-.2c-.3.911-.607,1.721-.911,2.632a.456.456,0,0,0,.3.3h1.316c.1,0,.3-.3.3-.3a26.127,26.127,0,0,0-.81-2.632m0-2.328h.607a.761.761,0,0,1,.709.506c.81,2.531,1.721,4.961,2.531,7.491.2.4,0,.607-.4.709h-.4c-.81,0-1.012-.1-1.215-.911-.4-1.215-.1-1.114-1.519-1.114h-.1a3.731,3.731,0,0,0-1.519.1c-.3.2-.4.81-.607,1.316a1.291,1.291,0,0,1-1.721.4,1.109,1.109,0,0,1,0-.81c.4-1.316.911-2.632,1.417-3.948l.911-2.733c.2-1.012.2-1.012,1.316-1.012" transform="translate(1249.967 901.478)" fill="#fff"/>
          <path id="XMLID_2280_" d="M313.7-726.848v-3.442c0-.607.2-.709.81-.81h.4c.607,0,.709.2.709.81v5.568c0,.81,0,.81.81.81h1.417c.4,0,.607.2.607.506v.506a.478.478,0,0,1-.506.506h-3.543c-.506,0-.607-.3-.607-.81-.1-1.215-.1-2.43-.1-3.644" transform="translate(1250.07 901.478)" fill="#fff"/>
        </g>
        <g id="XMLID_2054_" clip-path="url(#clip-path-3)">
          <g id="XMLID_2272_" transform="translate(912.883 219.173)">
            <g id="XMLID_2274_" transform="translate(0)">
              <path id="XMLID_2278_" d="M-326.972-678.041c3.138,0,3.138-4.859,0-4.859-3.037.1-3.037,4.859,0,4.859Z" transform="translate(329.25 682.9)" fill="#fff"/>
            </g>
          </g>
          <g id="XMLID_2265_" transform="translate(1012.928 184.247)">
            <g id="XMLID_2267_" transform="translate(0)">
              <path id="XMLID_2271_" d="M-228.071-712.541c3.138,0,3.138-4.859,0-4.859s-3.138,4.859,0,4.859Z" transform="translate(230.425 717.4)" fill="#fff"/>
            </g>
          </g>
          <g id="XMLID_2258_" transform="translate(1222.585 252.58)">
            <g id="XMLID_2260_" transform="translate(0)">
              <path id="XMLID_2264_" d="M-20.971-645.041c3.138,0,3.138-4.859,0-4.859s-3.138,4.859,0,4.859Z" transform="translate(23.325 649.9)" fill="#fff"/>
            </g>
          </g>
          <g id="XMLID_2251_" transform="translate(1099.863 276.37)">
            <g id="XMLID_2253_" transform="translate(0)">
              <path id="XMLID_2257_" d="M-142.272-621.541c3.138,0,3.138-4.859,0-4.859-3.037,0-3.037,4.859,0,4.859Z" transform="translate(144.55 626.4)" fill="#fff"/>
            </g>
          </g>
          <g id="XMLID_2244_" transform="translate(761.967 271.612)">
            <g id="XMLID_2246_">
              <path id="XMLID_2250_" d="M-475.971-626.241c3.138,0,3.138-4.859,0-4.859s-3.138,4.859,0,4.859Z" transform="translate(478.325 631.1)" fill="#fff"/>
            </g>
          </g>
          <g id="XMLID_2237_" transform="translate(700.493 400.99)">
            <g id="XMLID_2239_">
              <path id="XMLID_2243_" d="M-536.772-498.441c3.138,0,3.138-4.859,0-4.859-3.037,0-3.037,4.859,0,4.859Z" transform="translate(539.05 503.3)" fill="#fff"/>
            </g>
          </g>
          <g id="XMLID_2230_" transform="translate(631.716 365.356)">
            <g id="XMLID_2232_">
              <path id="XMLID_2236_" d="M-604.672-533.641c3.138,0,3.138-4.859,0-4.859-3.037,0-3.138,4.859,0,4.859Z" transform="translate(606.988 538.5)" fill="#fff"/>
            </g>
          </g>
          <g id="XMLID_2223_" transform="translate(665.086 536.847)">
            <g id="XMLID_2225_" transform="translate(0 0)">
              <path id="XMLID_2229_" d="M-571.671-364.241c3.138,0,3.138-4.859,0-4.859-3.138.1-3.138,4.859,0,4.859Z" transform="translate(574.025 369.1)" fill="#fff"/>
            </g>
          </g>
          <g id="XMLID_2216_" transform="translate(746.073 609.938)">
            <g id="XMLID_2218_" transform="translate(0 0)">
              <path id="XMLID_2222_" d="M-491.671-292.041c3.138,0,3.138-4.859,0-4.859s-3.138,4.859,0,4.859Z" transform="translate(494.025 296.9)" fill="#fff"/>
            </g>
          </g>
          <g id="XMLID_2209_" transform="translate(855.685 609.938)">
            <g id="XMLID_2211_" transform="translate(0 0)">
              <path id="XMLID_2215_" d="M-383.472-292.041c3.138,0,3.138-4.859,0-4.859-3.037,0-3.037,4.859,0,4.859Z" transform="translate(385.75 296.9)" fill="#fff"/>
            </g>
          </g>
          <g id="XMLID_2202_" transform="translate(909.669 365.356)">
            <g id="XMLID_2204_" transform="translate(0)">
              <path id="XMLID_2208_" d="M-330.071-533.641c3.138,0,3.138-4.859,0-4.859s-3.138,4.859,0,4.859Z" transform="translate(332.425 538.5)" fill="#fff"/>
            </g>
          </g>
          <g id="XMLID_2195_" transform="translate(823.417 309.272)">
            <g id="XMLID_2197_" transform="translate(0)">
              <path id="XMLID_2201_" d="M-415.271-589.041c3.138,0,3.138-4.859,0-4.859s-3.138,4.859,0,4.859Z" transform="translate(417.625 593.9)" fill="#fff"/>
            </g>
          </g>
          <g id="XMLID_2188_" transform="translate(992.276 285.684)">
            <g id="XMLID_2190_">
              <path id="XMLID_2194_" d="M-248.471-612.341c3.138,0,3.138-4.859,0-4.859s-3.138,4.859,0,4.859Z" transform="translate(250.825 617.2)" fill="#fff"/>
            </g>
          </g>
          <g id="XMLID_2181_" transform="translate(949.39 115.914)">
            <g id="XMLID_2183_">
              <path id="XMLID_2187_" d="M-290.872-780.041c3.138,0,3.138-4.859,0-4.859-3.037.1-3.138,4.859,0,4.859Z" transform="translate(293.188 784.9)" fill="#fff"/>
            </g>
          </g>
          <g id="XMLID_2174_" transform="translate(812.787 179.489)">
            <g id="XMLID_2176_">
              <path id="XMLID_2180_" d="M-425.771-717.241c3.138,0,3.138-4.859,0-4.859s-3.138,4.859,0,4.859Z" transform="translate(428.125 722.1)" fill="#fff"/>
            </g>
          </g>
          <g id="XMLID_2167_" transform="translate(1128.841 200.141)">
            <g id="XMLID_2169_" transform="translate(0)">
              <path id="XMLID_2173_" d="M-113.571-696.841c3.138,0,3.138-4.859,0-4.859s-3.138,4.859,0,4.859Z" transform="translate(115.925 701.7)" fill="#fff"/>
            </g>
          </g>
          <g id="XMLID_2160_" transform="translate(1324.224 209.657)">
            <g id="XMLID_2162_" transform="translate(0)">
              <path id="XMLID_2166_" d="M79.429-687.441c3.138,0,3.138-4.859,0-4.859s-3.138,4.859,0,4.859Z" transform="translate(-77.075 692.3)" fill="#fff"/>
            </g>
          </g>
          <g id="XMLID_2153_" transform="translate(1349.634 316.054)">
            <g id="XMLID_2155_" transform="translate(0)">
              <path id="XMLID_2159_" d="M104.529-582.341c3.138,0,3.138-4.859,0-4.859-3.138.1-3.138,4.859,0,4.859Z" transform="translate(-102.175 587.2)" fill="#fff"/>
            </g>
          </g>
          <g id="XMLID_2146_" transform="translate(1238.478 155.598)">
            <g id="XMLID_2148_" transform="translate(0)">
              <path id="XMLID_2152_" d="M-5.271-740.841c3.138,0,3.138-4.859,0-4.859-3.138.1-3.138,4.859,0,4.859Z" transform="translate(7.625 745.7)" fill="#fff"/>
            </g>
          </g>
          <g id="XMLID_2139_" transform="translate(1438.619 271.612)">
            <g id="XMLID_2141_">
              <path id="XMLID_2145_" d="M192.429-626.241c3.138,0,3.138-4.859,0-4.859s-3.138,4.859,0,4.859Z" transform="translate(-190.075 631.1)" fill="#fff"/>
            </g>
          </g>
          <g id="XMLID_2132_" transform="translate(1556.152 276.37)">
            <g id="XMLID_2134_">
              <path id="XMLID_2138_" d="M308.529-621.541c3.138,0,3.138-4.859,0-4.859s-3.138,4.859,0,4.859Z" transform="translate(-306.175 626.4)" fill="#fff"/>
            </g>
          </g>
          <g id="XMLID_2125_" transform="translate(1556.152 375.378)">
            <g id="XMLID_2127_">
              <path id="XMLID_2131_" d="M308.529-523.741c3.138,0,3.138-4.859,0-4.859s-3.138,4.859,0,4.859Z" transform="translate(-306.175 528.6)" fill="#fff"/>
            </g>
          </g>
          <g id="XMLID_2118_" transform="translate(1611.022 334.479)">
            <g id="XMLID_2120_" transform="translate(0)">
              <path id="XMLID_2124_" d="M362.729-564.141c3.138,0,3.138-4.859,0-4.859-3.138.1-3.138,4.859,0,4.859Z" transform="translate(-360.375 569)" fill="#fff"/>
            </g>
          </g>
          <g id="XMLID_2111_" transform="translate(1584.701 501.921)">
            <g id="XMLID_2113_">
              <path id="XMLID_2117_" d="M336.729-398.741c3.138,0,3.138-4.859,0-4.859s-3.138,4.859,0,4.859Z" transform="translate(-334.375 403.6)" fill="#fff"/>
            </g>
          </g>
          <g id="XMLID_2104_" transform="translate(1447.604 578.049)">
            <g id="XMLID_2106_" transform="translate(0)">
              <path id="XMLID_2110_" d="M201.228-323.541c3.138,0,3.138-4.859,0-4.859-3.037.1-3.037,4.859,0,4.859Z" transform="translate(-198.95 328.4)" fill="#fff"/>
            </g>
          </g>
          <g id="XMLID_2097_" transform="translate(1552.812 592.425)">
            <g id="XMLID_2099_">
              <path id="XMLID_2103_" d="M305.229-309.341c3.138,0,3.138-4.859,0-4.859-3.138.1-3.138,4.859,0,4.859Z" transform="translate(-302.875 314.2)" fill="#fff"/>
            </g>
          </g>
          <g id="XMLID_2090_" transform="translate(1362.364 624.212)">
            <g id="XMLID_2092_" transform="translate(0 0)">
              <path id="XMLID_2096_" d="M117.028-277.941c3.138,0,3.138-4.859,0-4.859-3.037,0-3.037,4.859,0,4.859Z" transform="translate(-114.75 282.8)" fill="#fff"/>
            </g>
          </g>
          <g id="XMLID_2083_" transform="translate(1317.922 549.602)">
            <g id="XMLID_2085_" transform="translate(0)">
              <path id="XMLID_2089_" d="M73.128-351.641c3.138,0,3.138-4.859,0-4.859-3.037,0-3.037,4.859,0,4.859Z" transform="translate(-70.85 356.5)" fill="#fff"/>
            </g>
          </g>
          <g id="XMLID_2076_" transform="translate(1238.478 592.425)">
            <g id="XMLID_2078_" transform="translate(0)">
              <path id="XMLID_2082_" d="M-5.271-309.341c3.138,0,3.138-4.859,0-4.859-3.138.1-3.138,4.859,0,4.859Z" transform="translate(7.625 314.2)" fill="#fff"/>
            </g>
          </g>
          <g id="XMLID_2069_" transform="translate(1136.839 563.877)">
            <g id="XMLID_2071_" transform="translate(0)">
              <path id="XMLID_2075_" d="M-105.671-337.541c3.138,0,3.138-4.859,0-4.859s-3.138,4.859,0,4.859Z" transform="translate(108.025 342.4)" fill="#fff"/>
            </g>
          </g>
          <g id="XMLID_2062_" transform="translate(1079.717 619.454)">
            <g id="XMLID_2064_" transform="translate(0)">
              <path id="XMLID_2068_" d="M-162.172-282.641c3.138,0,3.138-4.859,0-4.859-3.037,0-3.037,4.859,0,4.859Z" transform="translate(164.45 287.5)" fill="#fff"/>
            </g>
          </g>
          <g id="XMLID_2055_" transform="translate(992.276 589.286)">
            <g id="XMLID_2057_">
              <path id="XMLID_2061_" d="M-248.471-312.441c3.138,0,3.138-4.859,0-4.859s-3.138,4.859,0,4.859Z" transform="translate(250.825 317.3)" fill="#fff"/>
            </g>
          </g>
        </g>
        <g id="Group_105" data-name="Group 105" clip-path="url(#clip-path-3)">
          <path id="XMLID_2053_" d="M-116.162-805.9a10.271,10.271,0,0,1,9.82,7.694c.709,3.24-.4,6.985-3.138,8.807-2.733,1.924-6.985,1.417-8.909-1.316a4.46,4.46,0,0,1-.81-3.543,3.018,3.018,0,0,1,2.632-2.328,2.3,2.3,0,0,1,2.43,2.227" transform="translate(1244.725 900.554)" fill="none" stroke="#483422" stroke-miterlimit="10" stroke-width="3"/>
        </g>
      </g>
    </g>
  </g>
</svg>
