<svg xmlns="http://www.w3.org/2000/svg" xmlns:xlink="http://www.w3.org/1999/xlink" width="1920" height="1080" viewBox="0 0 1920 1080"><defs><style>.a{fill:#decae0;}.b{fill:#99c6c7;}.c{fill:#00bac8;}.d{opacity:0.5;}.e{fill:#caeef0;}.f{fill:#afd1ff;}.g{fill:#eff6ff;}.h{fill:#ffc200;}.i{fill:#e047ff;}.aa,.ae,.ah,.j,.w{fill:none;}.k,.z{fill:#3c114f;}.k{font-size:80px;font-family:Montserrat-Bold, Montserrat;font-weight:700;}.l{fill:#efd9c3;}.m{fill:#fff1e2;}.n{fill:#007173;}.o{clip-path:url(#a);}.ai,.p{fill:#fff;}.q{fill:#ffdc66;}.r{fill:#7ad4d9;}.s{fill:#66aaab;}.t{fill:#ffe799;}.u{fill:#ba5d56;}.v{fill:#210b3a;}.ae,.w{stroke:#210b3a;}.aa,.ae,.ah,.w{stroke-linecap:round;stroke-miterlimit:10;}.w{stroke-width:1.317px;}.x{fill:#5d2cd1;}.y{fill:#ff57ff;}.aa{stroke:#fff;}.aa,.ae,.ah{stroke-width:1.859px;}.ab{fill:#f47365;}.ac{fill:#ffe94a;}.ad{fill:#9200e9;}.af{fill:#00b8c7;}.ag{fill:#ffc13b;}.ah{stroke:#ff57ff;}.ai{opacity:0.52;}</style><clipPath id="a"><path d="M-74.271,676.205c11.032-96.024,86.623-176.354,174.8-214.111C116.223,559.672,21.753,673.02-72.717,687.237" transform="translate(74.271 -462.094)"/></clipPath></defs><g transform="translate(133.196 40.443)"><g transform="translate(1550.614 -40.443)"><path class="a" d="M1456.2-40.243c-40.165-2.952-108.609,26.8-114.591,87.789-5.283,53.916,13.362,93.693,56.558,117.544,84.836,49.1,199.35-16.392,175.577-120.5-13.363-55.082-68.444-86.313-121.972-84.836" transform="translate(-1340.738 40.443)"/></g><g transform="translate(920.363 159.298)"><path class="b" d="M947.029,349.29c-40.321-15.149-162.914-33.562-152.814-68.832,15.149-18.49,73.882,15.149,100.763,23.54-15.149-21.831-80.641-68.832-75.591-97.422,3.341-38.611,73.882,47,87.322,55.392-1.709-23.54-16.781-47-20.121-70.542-5.05-45.37,15.149-38.611,35.271-5.05,21.831,35.271,48.711,95.713,47,139.374" transform="translate(-793.626 -159.298)"/><g transform="translate(22.088 134.262)"><path class="c" d="M817.211,297.549c47.313,7.225,88.643,35.038,136.034,41.952,2.564.388,3.729-3.574,1.088-3.962-47.39-6.992-88.721-34.727-136.033-41.952-2.564-.388-3.729,3.574-1.088,3.962Z" transform="translate(-815.714 -293.56)"/></g><g transform="translate(42.173 62.059)"><path class="c" d="M836.478,224.832c21.6,19.345,44.438,37.524,63.783,59.2,16.781,18.723,31.7,40.709,52.44,55.315,2.175,1.554,4.2-2.02,2.1-3.574-10.022-7.07-18.412-16.237-26.492-25.4-8.779-10.022-17.092-20.355-26.026-30.221-19.189-21.209-41.719-39.155-63.006-58.267-1.865-1.709-4.817,1.165-2.8,2.952Z" transform="translate(-835.799 -221.357)"/></g><g transform="translate(112.749 26.797)"><path class="c" d="M906.476,188.629c7.3,25.249,19.655,48.711,30.3,72.639,10.41,23.384,20.821,48.556,20.044,74.659-.078,2.641,4.04,2.641,4.118,0,.544-19.578-5.127-38.689-12.2-56.713-7.769-19.966-17.4-39.078-25.948-58.655a274.851,274.851,0,0,1-12.275-32.94c-.855-2.641-4.817-1.554-4.04,1.01Z" transform="translate(-906.375 -186.095)"/></g><g transform="translate(57.898 77.822)"><path class="c" d="M853.026,256.141c7.458,1.088,14.916,1.709,22.375,2.331a2.006,2.006,0,0,0,2.02-2.02,81.088,81.088,0,0,0-1.787-17.868c-.622-2.564-4.584-1.476-3.962,1.088a80.871,80.871,0,0,1,1.631,16.781l2.02-2.02c-7.147-.544-14.217-1.088-21.287-2.175-2.486-.466-3.651,3.5-1.01,3.884Z" transform="translate(-851.524 -237.12)"/></g><g transform="translate(79.772 103.537)"><path class="c" d="M874.856,277.971c8.313,1.709,16.47,3.807,24.627,6.137a2.077,2.077,0,0,0,2.564-1.4c1.165-6.137.155-12.43-1.088-18.412-.544-2.564-4.506-1.476-3.962,1.088,1.165,5.283,2.1,10.876,1.088,16.237l2.564-1.4c-8.157-2.331-16.315-4.428-24.627-6.137-2.642-.621-3.729,3.341-1.165,3.884Z" transform="translate(-873.398 -262.835)"/></g><g transform="translate(108.274 124.85)"><path class="c" d="M903.368,307.649c7.458,1.165,14.839,2.8,22.375,2.875,1.01,0,2.175-.932,2.02-2.02-.7-7.536-3.185-14.761-3.341-22.374-.078-2.641-4.2-2.641-4.118,0,.155,7.614,2.641,14.839,3.341,22.374l2.02-2.02c-7.225-.078-14.217-1.632-21.287-2.719-2.486-.544-3.574,3.418-1.01,3.884Z" transform="translate(-901.9 -284.148)"/></g><g transform="translate(125.09 99.009)"><path class="c" d="M919.683,264.842c8.7,5.205,17.635,10.1,27.347,13.052a2.183,2.183,0,0,0,2.564-1.4c1.165-5.283,2.253-10.566,3.884-15.693.777-2.486-3.185-3.574-3.962-1.088-1.631,5.127-2.719,10.41-3.884,15.693l2.564-1.4c-9.4-2.875-17.946-7.614-26.414-12.663-2.253-1.4-4.351,2.175-2.1,3.5Z" transform="translate(-918.716 -258.307)"/></g><g transform="translate(115.633 69.38)"><path class="c" d="M910.671,236.563c7.147,2.408,14.217,5.283,20.2,9.867,1.088.855,2.641-.078,3.03-1.243,1.476-4.739,4.351-9.4,3.962-14.528-.155-2.641-4.273-2.641-4.118,0,.311,4.661-2.486,9.09-3.884,13.44,1.01-.388,2.02-.855,3.03-1.243-6.293-4.817-13.751-7.769-21.209-10.255-2.408-.855-3.5,3.108-1.01,3.962Z" transform="translate(-909.259 -228.678)"/></g><g transform="translate(107.657 45.202)"><path class="c" d="M901.97,208.6a55.918,55.918,0,0,0,18.257,11.187,2.143,2.143,0,0,0,2.564-1.4c1.4-3.5,2.1-7.225,3.729-10.721,1.088-2.408-2.408-4.506-3.574-2.1-1.709,3.807-2.564,7.847-4.118,11.653l2.564-1.4c-6.215-2.175-11.5-5.827-16.47-10.1-2.1-1.787-4.972,1.088-2.952,2.874Z" transform="translate(-901.283 -204.499)"/></g><g transform="translate(45.04 130.378)"><path class="c" d="M845.412,292.188c1.787,4.894,4.506,9.323,6.914,13.906.388-1.01.855-2.02,1.243-3.03-4.506,1.709-8.779,3.807-13.44,5.05-2.564.7-1.476,4.661,1.088,3.962,4.661-1.243,8.934-3.341,13.44-5.05A2.149,2.149,0,0,0,855.9,304c-2.253-4.273-4.894-8.39-6.526-12.974-.855-2.408-4.817-1.321-3.962,1.165Z" transform="translate(-838.666 -289.676)"/></g><g transform="translate(77.548 143.14)"><path class="c" d="M880.916,305.551c2.253,4.506,4.506,8.934,6.681,13.44.388-1.01.855-2.02,1.243-3.03-5.361,1.631-10.876,2.253-16.237,3.884-2.486.777-1.476,4.739,1.088,3.962,5.361-1.632,10.876-2.253,16.237-3.884a2.083,2.083,0,0,0,1.243-3.03c-2.253-4.506-4.506-8.934-6.681-13.44-1.243-2.331-4.739-.233-3.574,2.1Z" transform="translate(-871.174 -302.438)"/></g></g><g class="d" transform="translate(437.169 784.562)"><path class="e" d="M371.276,853.1H886.9c12.974-8.779,22.374-20.743,23.617-36.98,5.05-41.952-16.781-85.613-53.761-104.1-40.321-18.49-68.832-40.321-102.472-68.832-33.562-25.171-72.173-40.321-114.2-28.59-48.711,13.44-67.2,58.811-105.812,82.273-28.512,18.49-65.492,10.1-97.422,11.731-77.223,3.341-97.422,72.173-83.982,141.083C358.846,850.928,364.905,852.016,371.276,853.1Z" transform="translate(-349.006 -610.562)"/><g transform="translate(16.613 18.331)"><path class="f" d="M375.238,796.39l-8.39,8.39c-3.807,3.807,2.1,9.789,5.9,5.9l8.39-8.39C385.027,798.488,379.123,792.584,375.238,796.39Z" transform="translate(-365.618 -628.893)"/><path class="f" d="M404.76,767.878l-11.731-11.731c-3.807-3.807-9.789,2.1-5.9,5.9l11.731,11.731C402.585,777.59,408.567,771.685,404.76,767.878Z" transform="translate(-365.618 -628.893)"/><path class="f" d="M431.951,806.956H415.17c-5.438,0-5.438,8.391,0,8.391h16.781C437.389,815.346,437.389,806.956,431.951,806.956Z" transform="translate(-365.618 -628.893)"/><path class="f" d="M448.421,746.048,433.272,730.9c-3.807-3.807-9.789,2.1-5.9,5.9l15.149,15.149C446.246,755.759,452.228,749.855,448.421,746.048Z" transform="translate(-365.618 -628.893)"/><path class="f" d="M465.979,776.269l-10.1,10.1c-3.807,3.807,2.1,9.789,5.9,5.9l10.1-10.1C475.69,778.367,469.786,772.384,465.979,776.269Z" transform="translate(-365.618 -628.893)"/><path class="f" d="M502.1,741,492,730.9c-3.807-3.807-9.789,2.1-5.9,5.9l10.1,10.1C500.007,750.787,505.989,744.8,502.1,741Z" transform="translate(-365.618 -628.893)"/><path class="f" d="M502.493,811.928H484c-5.438,0-5.438,8.39,0,8.39h18.49C507.931,820.319,507.931,811.928,502.493,811.928Z" transform="translate(-365.618 -628.893)"/><path class="f" d="M528.985,774.56l-8.39-8.39c-3.807-3.807-9.789,2.1-5.9,5.9l8.39,8.39C526.887,784.349,532.791,778.367,528.985,774.56Z" transform="translate(-365.618 -628.893)"/><path class="f" d="M557.574,725.849l-13.44-13.44c-3.807-3.807-9.789,2.1-5.9,5.9l13.44,13.44C555.4,735.638,561.381,729.733,557.574,725.849Z" transform="translate(-365.618 -628.893)"/><path class="f" d="M563.323,791.341,543.2,811.462c-3.807,3.807,2.1,9.789,5.9,5.9l20.121-20.122C573.112,793.438,567.208,787.534,563.323,791.341Z" transform="translate(-365.618 -628.893)"/><path class="f" d="M591.136,764.46l-10.1-10.1c-3.807-3.807-9.789,2.1-5.9,5.9l10.1,10.1C589.038,774.249,594.943,768.345,591.136,764.46Z" transform="translate(-365.618 -628.893)"/><path class="f" d="M598.594,680.556l-15.149,15.149c-3.807,3.807,2.1,9.789,5.9,5.9L604.5,686.46C608.383,682.654,602.479,676.672,598.594,680.556Z" transform="translate(-365.618 -628.893)"/><path class="f" d="M634.8,742.63l-13.44-13.44c-3.807-3.807-9.789,2.1-5.9,5.9l13.44,13.44C632.7,752.418,638.6,746.514,634.8,742.63Z" transform="translate(-365.618 -628.893)"/><path class="f" d="M621.745,810.3H599.915c-5.438,0-5.438,8.39,0,8.39h21.831C627.184,818.687,627.184,810.3,621.745,810.3Z" transform="translate(-365.618 -628.893)"/><path class="f" d="M661.678,789.709,646.528,774.56c-3.807-3.807-9.789,2.1-5.9,5.9l15.149,15.149C659.58,799.42,665.484,793.516,661.678,789.709Z" transform="translate(-365.618 -628.893)"/><path class="f" d="M670.456,716.215h-13.44c-5.438,0-5.438,8.39,0,8.39h13.44C675.895,724.606,675.895,716.215,670.456,716.215Z" transform="translate(-365.618 -628.893)"/><path class="f" d="M641.09,666.727v18.49c0,5.438,8.39,5.438,8.39,0v-18.49C649.48,661.289,641.09,661.289,641.09,666.727Z" transform="translate(-365.618 -628.893)"/><path class="f" d="M660.357,628.893H640.235c-5.438,0-5.438,8.39,0,8.39h20.121C665.8,637.283,665.8,628.893,660.357,628.893Z" transform="translate(-365.618 -628.893)"/><path class="f" d="M699.357,650.257l-15.149,15.149c-3.807,3.807,2.1,9.789,5.9,5.9l15.149-15.149C709.146,652.433,703.241,646.451,699.357,650.257Z" transform="translate(-365.618 -628.893)"/><path class="f" d="M730.9,701.144H714.118c-5.438,0-5.438,8.39,0,8.39H730.9C736.337,709.534,736.337,701.144,730.9,701.144Z" transform="translate(-365.618 -628.893)"/><path class="f" d="M750.243,673.409v15.149c0,5.438,8.39,5.438,8.39,0V673.409C758.633,667.97,750.243,667.97,750.243,673.409Z" transform="translate(-365.618 -628.893)"/><path class="f" d="M712.409,749.855h-13.44c-5.438,0-5.438,8.39,0,8.39h13.44C717.847,758.245,717.847,749.855,712.409,749.855Z" transform="translate(-365.618 -628.893)"/><path class="f" d="M745.193,743.95v16.781c0,5.438,8.39,5.438,8.39,0V743.95C753.584,738.512,745.193,738.512,745.193,743.95Z" transform="translate(-365.618 -628.893)"/><path class="f" d="M705.339,798.1l-8.39-8.39c-3.807-3.807-9.789,2.1-5.9,5.9l8.39,8.39C703.241,807.811,709.146,801.906,705.339,798.1Z" transform="translate(-365.618 -628.893)"/><path class="f" d="M764.46,808.588H745.97c-5.438,0-5.438,8.39,0,8.39h18.49C769.9,816.978,769.9,808.588,764.46,808.588Z" transform="translate(-365.618 -628.893)"/><path class="f" d="M789.321,769.51l-8.39-8.39c-3.807-3.807-9.789,2.1-5.9,5.9l8.39,8.39C787.223,779.3,793.127,773.394,789.321,769.51Z" transform="translate(-365.618 -628.893)"/><path class="f" d="M798.488,709.068,786.757,720.8c-3.807,3.807,2.1,9.789,5.9,5.9l11.731-11.731C808.277,711.165,802.295,705.261,798.488,709.068Z" transform="translate(-365.618 -628.893)"/><path class="f" d="M848.442,736.414H831.661c-5.438,0-5.438,8.39,0,8.39h16.781C853.88,744.8,853.88,736.414,848.442,736.414Z" transform="translate(-365.618 -628.893)"/><path class="f" d="M824.125,774.171v20.122c0,5.438,8.39,5.438,8.39,0V774.171C832.516,768.733,824.125,768.733,824.125,774.171Z" transform="translate(-365.618 -628.893)"/><path class="f" d="M865.223,813.637H845.1c-5.438,0-5.438,8.391,0,8.391h20.121C870.661,822.028,870.661,813.637,865.223,813.637Z" transform="translate(-365.618 -628.893)"/><path class="f" d="M890.083,779.609l-10.1-10.1c-3.807-3.807-9.789,2.1-5.9,5.9l10.1,10.1C887.908,789.4,893.89,783.416,890.083,779.609Z" transform="translate(-365.618 -628.893)"/><path class="f" d="M800.119,811.54l-11.731,11.731c-3.807,3.807,2.1,9.789,5.9,5.9l11.731-11.731C809.908,813.637,804,807.655,800.119,811.54Z" transform="translate(-365.618 -628.893)"/><path class="f" d="M681.8,818.221l-6.681-6.681c-3.807-3.807-9.789,2.1-5.9,5.9l6.681,6.681C679.7,828.01,685.683,822.028,681.8,818.221Z" transform="translate(-365.618 -628.893)"/></g></g><path class="g" d="M1491.63,313.165c-8.7-13.906-73.882-153.669-243.477-46.147-70.309,44.594-182.88-71.552-275.408-11.731-161.2,104.1-55.392,267.017-62.151,329.169-8.39,89.032-124.3,57.1-119.253,154.523,3.5,67.279,75.281,81.807,140.229,114.2h560.06Z" transform="translate(209.876)"/><g transform="translate(177.481 156.874)"><g transform="translate(0 -6)"><path class="h" d="M367.21,296.571a79.645,79.645,0,0,0,2.158-18.7,81.474,81.474,0,0,0-162.948,0,80.283,80.283,0,0,0,2.158,18.7Z" transform="translate(-169.844 -144.128)"/><path class="h" d="M263.21,164.04v25.069c0,9.452,14.692,9.452,14.692,0V164.04C277.9,154.485,263.21,154.485,263.21,164.04Z" transform="translate(-151.531 -156.874)"/><path class="h" d="M227.381,201.067l-.719-.719h0l-11.815-11.815c-6.678-6.678-17.158,3.7-10.377,10.377l11.815,11.815h0l.719.719C223.682,218.122,234.059,207.745,227.381,201.067Z" transform="translate(-171.181 -147.359)"/><path class="h" d="M325.126,182.639l-13.767,13.767c-6.678,6.678,3.7,17.158,10.377,10.377L335.5,193.015C342.284,186.337,331.907,175.858,325.126,182.639Z" transform="translate(-136.699 -149.273)"/><path class="h" d="M357.736,222.035H343.25c-9.452,0-9.452,14.692,0,14.692h14.487C367.188,236.727,367.188,222.035,357.736,222.035Z" transform="translate(-128.006 -135.861)"/><path class="h" d="M200.338,222.035H185.852c-9.452,0-9.452,14.692,0,14.692h14.487C209.79,236.727,209.79,222.035,200.338,222.035Z" transform="translate(-178.762 -135.861)"/></g><g transform="translate(12.918 304.35)"><path class="i" d="M188.866,365.784c5.137,11.4,11.2,22.911,25.583,22.295,10.274-.411,16.644-7.4,22.809-14.795,2.26-2.774,5.034-6.37,8.733-7.089,5.548-1.13,11.713,4.212,15.411,7.706,4.11,3.9,7.5,8.733,12.843,10.993,5.445,2.363,12.226,1.849,17.569-.616,9.966-4.623,10.993-18.083,22.295-20.754,8.733-2.055,15.1,5.959,20.446,11.507,5.343,5.651,11.713,11.713,20.137,11.3,11.4-.514,20.651-11.1,28.665-18.082,4.212-3.7,7.808-5.343,13.048-2.363,7.295,4.212,12.534,11.3,20.035,15.206,5.548,2.877,11.918,4.418,17.98,2.363,7.192-2.466,11.61-9.144,14.795-15.719,1.747-3.7-3.8-6.986-5.548-3.185-2.774,5.959-6.884,12.945-14.281,13.562-6.678.514-13.254-4.11-18.082-8.322-7.089-6.267-16.233-15.719-26.507-10.377-9.76,5.137-15.719,15.719-26.4,19.726-8.014,3.082-14.178-3.288-19.213-8.63-5.343-5.548-10.993-12.021-18.9-13.459-9.247-1.644-17.672,4.007-22.5,11.507-3.082,4.829-5.445,9.349-11.4,10.788-7.089,1.747-11.713-1.13-16.439-6.062-6.37-6.678-16.028-16.028-26.3-13.151-8.836,2.466-12.637,12.637-19.521,17.774-5.137,3.9-12.534,5.137-18.288,1.849-6.062-3.493-8.63-11.3-11.4-17.261-1.747-3.7-7.295-.514-5.548,3.288Z" transform="translate(-188.53 -356.765)"/></g><rect class="j" width="473.022" height="134.489" transform="translate(11.302 119.874)"/><text class="k" transform="translate(11.299 176.913)"><tspan x="0" y="0">Your Safe </tspan><tspan x="0" y="75">Space</tspan></text></g><g class="d" transform="translate(-133.196 556.57)"><path class="l" d="M-2.952,556.8c-45.37-3.341-122.593,30.221-129.275,99.054-5.9,60.831,15.149,105.813,63.783,132.693,95.713,55.392,225.065-18.49,198.185-136.034C114.591,590.359,52.518,555.088-8,556.8" transform="translate(133.196 -556.57)"/></g><g class="d" transform="translate(-76.178 727.941)"><path class="m" d="M13.052,728.1c-31.076-2.331-83.982,20.743-88.565,67.9-4.04,41.641,10.333,72.484,43.739,90.9,65.57,37.99,154.135-12.663,135.723-93.149-10.333-42.574-52.906-66.735-94.314-65.57" transform="translate(76.178 -727.941)"/></g><g class="d" transform="translate(-30.451 698.735)"><path class="n" d="M90.508,707.126H63.627c-5.438,0-5.438,8.39,0,8.39h26.88C95.946,715.516,95.946,707.126,90.508,707.126Z" transform="translate(-59.549 -698.735)"/><path class="n" d="M114.048,725.616H92.217c-5.438,0-5.438,8.39,0,8.39h21.831C119.408,734.006,119.408,725.616,114.048,725.616Z" transform="translate(-59.549 -698.735)"/><path class="n" d="M140.85,698.735H125.7c-5.438,0-5.438,8.39,0,8.39H140.85C146.288,707.126,146.288,698.735,140.85,698.735Z" transform="translate(-59.549 -698.735)"/><path class="n" d="M152.659,742.4H132.538c-5.438,0-5.438,8.39,0,8.39h20.121C158.02,750.787,158.02,742.4,152.659,742.4Z" transform="translate(-59.549 -698.735)"/><path class="n" d="M98.9,752.5H78.777c-5.438,0-5.438,8.39,0,8.39H98.9C104.336,760.886,104.336,752.5,98.9,752.5Z" transform="translate(-59.549 -698.735)"/><path class="n" d="M137.51,772.617h-26.88c-5.438,0-5.438,8.39,0,8.39h26.88C142.948,781.008,142.948,772.617,137.51,772.617Z" transform="translate(-59.549 -698.735)"/><path class="n" d="M174.49,717.225H152.659c-5.438,0-5.438,8.39,0,8.39H174.49C179.85,725.616,179.85,717.225,174.49,717.225Z" transform="translate(-59.549 -698.735)"/><path class="n" d="M181.171,760.886H164.39c-5.438,0-5.438,8.39,0,8.39h16.781C186.609,769.277,186.609,760.886,181.171,760.886Z" transform="translate(-59.549 -698.735)"/></g><g class="d" transform="translate(-74.271 462.094)"><g class="o"><path class="b" d="M-74.271,676.205c11.032-96.024,86.623-176.354,174.8-214.111C116.223,559.672,21.753,673.02-72.717,687.237" transform="translate(74.271 -462.094)"/></g><g class="o"><g transform="translate(4.174 -6.845)"><path class="p" d="M100.3,456.268c-17.946,33.1-45.215,59.354-68.677,88.41C19.034,560.293,7.847,577-4.273,592.923c-6.6,8.7-13.363,17.4-20.121,26.026-5.594,7.147-11.5,14.062-16.392,21.675-5.05,7.924-9.245,16.237-13.906,24.317-4.04,6.914-8.313,14.217-14.683,19.189-2.1,1.631.855,4.506,2.874,2.875,11.731-9.09,17.868-24.86,25.094-37.446,9.789-17.014,23.229-31.853,35.193-47.39,12.741-16.625,24.472-34.028,37.446-50.5,11.576-14.683,24.161-28.512,36.281-42.729,13.518-15.849,26.414-32.319,36.358-50.653,1.243-2.253-2.331-4.351-3.574-2.02Z" transform="translate(70.097 -455.25)"/></g></g><g class="o"><g transform="translate(120.797 4.235)"><path class="p" d="M52.829,467.843c-3.108,19.267-1.631,39-4.739,58.267.622-.466,1.321-1.01,1.942-1.476H48.478v4.117c21.364-1.631,44.127-2.486,64.016-11.265,2.408-1.088.311-4.584-2.1-3.574-19.189,8.468-41.331,9.167-61.918,10.721-2.564.233-2.641,4.117,0,4.117h1.554a1.939,1.939,0,0,0,1.942-1.476c3.108-19.267,1.631-39,4.739-58.267.466-2.719-3.418-3.807-3.884-1.165Z" transform="translate(-46.526 -466.329)"/></g></g><g class="o"><g transform="translate(85.578 27.842)"><path class="p" d="M18.179,491.461c-5.283,26.8-8.08,55.082-6.371,82.428a2.006,2.006,0,0,0,2.02,2.02c28.59,1.476,56.713-4.661,84.992-7.847,2.564-.311,2.641-4.428,0-4.117-28.279,3.185-56.4,9.323-84.992,7.847l2.02,2.02c-1.709-26.958,1.01-54.848,6.215-81.34.622-2.564-3.341-3.651-3.884-1.01Z" transform="translate(-11.308 -489.937)"/></g></g><g class="o"><g transform="translate(49.913 68.842)"><path class="p" d="M-22.841,532.869c-3.03,28.59,3.03,57.49-1.476,86.079a2.066,2.066,0,0,0,1.942,2.564,721.335,721.335,0,0,0,81.884,4.739c2.641,0,2.641-4.117,0-4.117a703.831,703.831,0,0,1-81.884-4.739c.622.855,1.321,1.709,1.942,2.564,4.661-28.9-1.4-58.111,1.631-87.167.388-2.486-3.729-2.486-4.04.078Z" transform="translate(24.358 -530.936)"/></g></g><g class="o"><g transform="translate(19.815 114.432)"><path class="p" d="M-52.673,579.094c5.9,27.58-3.03,55.159-1.631,82.894a2.112,2.112,0,0,0,2.02,2.02c15.771,0,31.542-.078,47.235-1.554,2.641-.233,2.641-4.351,0-4.118-15.693,1.554-31.464,1.554-47.235,1.554l2.02,2.02c-1.4-28.123,7.458-56.014,1.476-83.982-.466-2.486-4.428-1.4-3.884,1.165Z" transform="translate(54.456 -576.526)"/></g></g></g><g class="d" transform="translate(184.876 734.188)"><path class="q" d="M227.452,695.705c2.253-4.428,7.01-14.683,12.518-15.3,1.5-.155,3.088.622,4.757,1.865a56.809,56.809,0,0,1,5.174,4.661c7.761,7.614,19.278,16.936,30.294,8,5.258-4.273,6.843-11.964,12.435-15.615,6.259-4.04,12.351,2.02,15.356,6.526,3.755,5.594,7.678,11.187,15.356,12.042,7.094.777,13.353-2.1,18.11-6.759,3.922-3.807,7.01-10.1,12.1-12.663,6.426-3.263,14.938,9.556,18.026,13.673,3,4.04,10.181.233,7.177-3.884-4.924-6.681-11.517-16.237-20.864-17.868-6.176-1.088-11.1,2.641-14.855,6.759-3.672,4.117-7.01,9.867-12.518,12.2-7.344,3.108-11.433-1.554-14.938-6.837-4.34-6.526-9.514-11.576-18.276-11.964-8.846-.466-13.6,5.982-17.609,12.275-2.921,4.584-6.676,9.867-13.019,7.38-5.007-1.942-8.679-6.6-12.351-10.1-4.256-4.04-9.6-8.39-16.107-7.147-9.1,1.709-14.271,11.964-17.859,18.878-2.337,4.428,4.757,8.313,7.094,3.884Z" transform="translate(-219.892 -670.188)"/><g transform="translate(58.771 26.902)"><path class="q" d="M276.163,732.608c2.253-4.428,7.01-14.683,12.518-15.3,1.5-.155,3.088.621,4.757,1.865a56.791,56.791,0,0,1,5.174,4.661c7.761,7.614,19.278,16.936,30.294,8,5.258-4.273,6.843-11.964,12.435-15.615,6.259-4.04,12.351,2.02,15.356,6.526,3.755,5.594,7.678,11.187,15.356,12.042,7.094.777,13.353-2.1,18.11-6.759,3.922-3.807,7.01-10.1,12.1-12.663,6.426-3.263,14.938,9.556,18.026,13.673,3,4.04,10.181.233,7.177-3.884-4.924-6.681-11.517-16.237-20.864-17.868-6.176-1.088-11.1,2.641-14.855,6.759-3.672,4.118-7.01,9.867-12.518,12.2-7.344,3.108-11.433-1.554-14.938-6.837-4.34-6.526-9.514-11.576-18.276-11.964-8.846-.466-13.6,5.982-17.609,12.275-2.921,4.584-6.676,9.867-13.019,7.38-5.007-1.942-8.679-6.6-12.351-10.1-4.256-4.04-9.6-8.39-16.107-7.147-9.1,1.709-14.271,11.964-17.859,18.878-2.337,4.428,4.757,8.39,7.094,3.884Z" transform="translate(-268.603 -707.09)"/></g></g><g transform="translate(1175.533 129.472)"><path class="r" d="M1027.515,154.99c2.1-4.428,6.526-14.683,11.653-15.3,1.4-.155,2.875.622,4.428,1.865a54.4,54.4,0,0,1,4.817,4.661c7.225,7.614,17.946,16.936,28.2,8,4.895-4.273,6.37-11.964,11.576-15.615,5.827-4.04,11.5,2.02,14.295,6.526,3.5,5.594,7.147,11.187,14.295,12.042,6.6.777,12.43-2.1,16.859-6.759,3.651-3.807,6.526-10.1,11.265-12.663,5.982-3.263,13.906,9.556,16.781,13.673,2.8,4.04,9.478.233,6.681-3.884-4.584-6.681-10.721-16.237-19.422-17.868-5.749-1.088-10.333,2.641-13.829,6.759-3.418,4.118-6.526,9.867-11.653,12.2-6.837,3.108-10.643-1.554-13.906-6.837-4.04-6.526-8.857-11.576-17.014-11.964-8.235-.466-12.663,5.982-16.392,12.275-2.719,4.584-6.215,9.867-12.12,7.38-4.661-1.942-8.08-6.6-11.5-10.1-3.962-4.04-8.934-8.39-14.994-7.147-8.468,1.709-13.285,11.964-16.626,18.878-2.175,4.428,4.429,8.39,6.6,3.884Z" transform="translate(-1020.478 -129.472)"/></g><g transform="translate(1237.757 167.462)"><path class="r" d="M1082.364,192.98c2.1-4.428,6.526-14.683,11.653-15.3,1.4-.155,2.875.622,4.428,1.865a54.417,54.417,0,0,1,4.817,4.661c7.225,7.614,17.946,16.936,28.2,8,4.894-4.273,6.37-11.964,11.576-15.616,5.827-4.04,11.5,2.02,14.295,6.526,3.5,5.594,7.147,11.187,14.295,12.042,6.6.777,12.43-2.1,16.858-6.759,3.651-3.807,6.526-10.1,11.265-12.663,5.982-3.263,13.906,9.556,16.781,13.673,2.8,4.04,9.478.233,6.681-3.884-4.584-6.681-10.721-16.237-19.422-17.868-5.749-1.088-10.333,2.641-13.829,6.759-3.418,4.118-6.526,9.867-11.653,12.2-6.837,3.108-10.643-1.554-13.906-6.837-4.04-6.526-8.857-11.576-17.014-11.964-8.235-.466-12.663,5.982-16.392,12.275-2.719,4.584-6.215,9.867-12.12,7.38-4.661-1.942-8.08-6.6-11.5-10.1-3.962-4.04-8.934-8.39-14.994-7.147-8.468,1.709-13.285,11.964-16.625,18.878-2.175,4.428,4.506,8.39,6.6,3.884Z" transform="translate(-1075.33 -167.462)"/></g><g transform="translate(1185.22 325.015)"><g transform="translate(52.052)"><path class="n" d="M1083.374,350.533c2.1-4.428,6.526-14.683,11.653-15.3,1.4-.155,2.875.621,4.428,1.865a54.4,54.4,0,0,1,4.817,4.661c7.225,7.613,17.946,16.936,28.2,8,4.894-4.273,6.37-11.964,11.576-15.616,5.827-4.04,11.5,2.02,14.295,6.526,3.5,5.594,7.147,11.187,14.295,12.042,6.6.777,12.43-2.1,16.858-6.759,3.651-3.807,6.526-10.1,11.265-12.663,5.982-3.263,13.906,9.556,16.781,13.673,2.8,4.04,9.478.233,6.681-3.884-4.584-6.681-10.721-16.237-19.422-17.868-5.749-1.088-10.333,2.641-13.829,6.759-3.418,4.117-6.526,9.867-11.653,12.2-6.837,3.108-10.643-1.554-13.906-6.837-4.04-6.526-8.857-11.576-17.014-11.964-8.235-.466-12.663,5.982-16.392,12.275-2.719,4.584-6.215,9.867-12.119,7.38-4.661-1.942-8.08-6.6-11.5-10.1-3.962-4.04-8.934-8.39-14.994-7.147-8.468,1.709-13.285,11.964-16.625,18.878-2.175,4.506,4.506,8.39,6.6,3.884Z" transform="translate(-1076.34 -325.015)"/></g><g transform="translate(0 33.639)"><path class="n" d="M1031.322,384.172c2.1-4.428,6.526-14.683,11.653-15.3,1.4-.155,2.875.621,4.428,1.865a54.415,54.415,0,0,1,4.817,4.661c7.225,7.613,17.946,16.936,28.2,8,4.895-4.273,6.37-11.964,11.576-15.616,5.827-4.04,11.5,2.02,14.295,6.526,3.5,5.594,7.147,11.187,14.295,12.042,6.6.777,12.43-2.1,16.859-6.759,3.651-3.807,6.526-10.1,11.265-12.663,5.982-3.263,13.906,9.556,16.781,13.673,2.8,4.04,9.478.233,6.681-3.884-4.584-6.681-10.721-16.237-19.422-17.868-5.749-1.088-10.333,2.641-13.829,6.759-3.418,4.117-6.526,9.867-11.653,12.2-6.837,3.108-10.643-1.554-13.906-6.837-4.04-6.526-8.857-11.576-17.014-11.964-8.235-.466-12.663,5.982-16.392,12.275-2.719,4.584-6.215,9.867-12.119,7.38-4.661-1.942-8.08-6.6-11.5-10.1-3.962-4.04-8.934-8.39-14.994-7.147-8.468,1.709-13.285,11.964-16.625,18.878-2.175,4.428,4.506,8.313,6.6,3.884Z" transform="translate(-1024.288 -358.655)"/></g></g><g transform="translate(1586.803 147.532)"><path class="l" d="M1463.584,147.687c-30.143-2.253-81.573,20.121-86,65.88-3.962,40.476,10.022,70.386,42.418,88.255,63.7,36.825,149.707-12.275,131.838-90.508-10.022-41.331-51.353-64.793-91.6-63.705" transform="translate(-1376.927 -147.532)"/><path class="p" d="M1464.283,275.8c-8.157,0-8.157,12.586,0,12.586C1472.44,288.459,1472.44,275.8,1464.283,275.8Z" transform="translate(-1376.927 -147.532)"/><path class="p" d="M1420.622,262.434c-8.157,0-8.157,12.586,0,12.586S1428.779,262.434,1420.622,262.434Z" transform="translate(-1376.927 -147.532)"/><path class="p" d="M1465.992,235.553c-8.157,0-8.157,12.586,0,12.586C1474.072,248.139,1474.072,235.553,1465.992,235.553Z" transform="translate(-1376.927 -147.532)"/><path class="p" d="M1427.381,223.744c-8.157,0-8.157,12.586,0,12.586C1435.46,236.33,1435.46,223.744,1427.381,223.744Z" transform="translate(-1376.927 -147.532)"/><path class="p" d="M1407.182,193.523c-8.157,0-8.157,12.586,0,12.586S1415.339,193.523,1407.182,193.523Z" transform="translate(-1376.927 -147.532)"/><path class="p" d="M1462.574,196.864c-8.157,0-8.157,12.586,0,12.586C1470.731,209.527,1470.731,196.864,1462.574,196.864Z" transform="translate(-1376.927 -147.532)"/><path class="p" d="M1442.452,165.012c-8.157,0-8.157,12.586,0,12.586S1450.61,165.012,1442.452,165.012Z" transform="translate(-1376.927 -147.532)"/><path class="p" d="M1477.723,161.671c-8.157,0-8.157,12.586,0,12.586S1485.881,161.671,1477.723,161.671Z" transform="translate(-1376.927 -147.532)"/><path class="p" d="M1390.4,243.944c-8.157,0-8.157,12.586,0,12.586S1398.558,243.944,1390.4,243.944Z" transform="translate(-1376.927 -147.532)"/><path class="p" d="M1511.285,212.013c-8.157,0-8.157,12.586,0,12.586S1519.442,212.013,1511.285,212.013Z" transform="translate(-1376.927 -147.532)"/><path class="p" d="M1523.094,180.083c-8.157,0-8.157,12.586,0,12.586C1531.173,192.669,1531.173,180.083,1523.094,180.083Z" transform="translate(-1376.927 -147.532)"/><path class="p" d="M1536.534,242.234c-8.157,0-8.157,12.586,0,12.586C1544.613,254.82,1544.613,242.234,1536.534,242.234Z" transform="translate(-1376.927 -147.532)"/><path class="p" d="M1516.335,267.406c-8.157,0-8.157,12.586,0,12.586S1524.492,267.406,1516.335,267.406Z" transform="translate(-1376.927 -147.532)"/></g><g transform="translate(1651.701 519.507)"><path class="s" d="M1486.657,784.5c-19.189-32.474-31.231-62.773-39.466-100.607-15.46-60.364,5.516-106.589,24.55-164.39,49.8,81.729,43.739,185.055,16.781,266.318" transform="translate(-1441.825 -519.507)"/><g transform="translate(20.011 58.966)"><path class="r" d="M1464.283,583.6h18.49c3.341,0,3.341-5.128,0-5.128h-18.49c-3.263,0-3.263,5.128,0,5.128Z" transform="translate(-1461.836 -578.473)"/></g><g transform="translate(16.612 87.556)"><path class="r" d="M1460.942,612.19h28.512c3.341,0,3.341-5.127,0-5.127h-28.512c-3.341,0-3.341,5.127,0,5.127Z" transform="translate(-1458.437 -607.062)"/></g><g transform="translate(11.562 121.117)"><path class="r" d="M1455.893,645.751h33.562c3.341,0,3.341-5.127,0-5.127h-33.562c-3.341,0-3.341,5.127,0,5.127Z" transform="translate(-1453.387 -640.624)"/></g><g transform="translate(16.612 149.706)"><path class="r" d="M1460.942,674.341h35.271c3.341,0,3.341-5.128,0-5.128h-35.271c-3.341-.078-3.341,5.128,0,5.128Z" transform="translate(-1458.437 -669.213)"/></g><g transform="translate(26.712 179.928)"><path class="r" d="M1471.042,704.562h21.831c3.341,0,3.341-5.127,0-5.127h-21.831c-3.341,0-3.341,5.127,0,5.127Z" transform="translate(-1468.536 -699.434)"/></g><g transform="translate(33.422 205.099)"><path class="r" d="M1477.723,729.733h15.149c3.341,0,3.341-5.127,0-5.127h-15.149c-3.263,0-3.34,5.127,0,5.127Z" transform="translate(-1475.247 -724.606)"/></g></g><g transform="translate(1348.953 711.651)"><path class="t" d="M1507.944,718a70.2,70.2,0,0,0-6.681-2.641c-41.952-13.44-80.641,11.731-105.812,41.952-31.93,38.611-65.492,40.321-114.2,31.93-36.98-6.681-70.542-16.781-105.812,1.709-24.627,13.129-28.357,37.524-36.359,62.151h368.867Z" transform="translate(-1139.077 -711.651)"/></g><rect class="j" width="1334.931" height="839.663" transform="translate(369.45)"/><g transform="translate(874.799 394.86)"><g transform="translate(488.76 15.624)"><g transform="translate(55.306)"><path class="u" d="M1220.184,429.465c-5.594,4.273-4.506,26.647-3.729,28.823,0,0-7.769,1.554-7.458,3.574.233,2.02,5.594,6.837,5.594,6.837s-2.1,26.958,5.594,26.647a29.509,29.509,0,0,0,12.508-2.875l2.408,16.781h40.01l-4.273-19.966s23.229-24.55,24.239-36.825c1.088-12.275-11.731-38.611-54.693-34.105C1227.642,419.6,1220.184,429.465,1220.184,429.465Z" transform="translate(-1208.988 -410.483)"/><g transform="translate(6.389 34.716)"><g transform="translate(0 2.718)"><path class="p" d="M1215.445,455.258c.311,2.8,1.709,4.972,3.341,5.671a2.64,2.64,0,0,0,1.554.233c2.253-.388,3.807-3.651,3.418-7.3s-2.641-6.293-4.894-5.9a2.793,2.793,0,0,0-1.631.855A8.052,8.052,0,0,0,1215.445,455.258Z" transform="translate(-1215.377 -447.917)"/><path class="v" d="M1215.445,455.258c.311,2.8,1.709,4.972,3.341,5.671,1.321-1.321,2.02-3.729,1.709-6.448-.311-2.8-1.709-4.972-3.341-5.671A8.333,8.333,0,0,0,1215.445,455.258Z" transform="translate(-1215.377 -447.917)"/></g><path class="w" d="M1215.911,445.469a10.678,10.678,0,0,1,7.847,1.243" transform="translate(-1215.377 -445.199)"/><path class="w" d="M1215.678,472.039a2.019,2.019,0,0,0,1.243.7,4.235,4.235,0,0,0,3.341-.466,4.289,4.289,0,0,0,1.942-2.719" transform="translate(-1215.377 -445.199)"/></g><g transform="translate(8.4)"><path class="v" d="M1222.9,414.471c-9.09,6.137-6.37,15.693,3.962,13.6,10.41-2.1,3.185,20.743,3.185,20.743l-2.175,12.974h3.5l5.36-7.613s.544,33.872,6.681,35.426c6.137,1.631,27.424-.544,27.424-.544s37.834-27.735,23.229-57.334c-14.683-29.6-41.952-16.237-41.952-16.237S1232.692,407.867,1222.9,414.471Z" transform="translate(-1217.388 -410.483)"/><path class="w" d="M1251.1,415.947a35.8,35.8,0,0,1,26.1-4.739" transform="translate(-1217.388 -410.483)"/></g><g transform="translate(23.16 42.133)"><circle class="u" cx="8.235" cy="8.235" r="8.235"/><path class="u" d="M1244.5,456.889a7.919,7.919,0,0,0-7.847,3.5" transform="translate(-1232.148 -452.616)"/><path class="w" d="M1238.13,458.987a3.982,3.982,0,0,1,1.709,2.641,4.332,4.332,0,0,1-.7,3.108" transform="translate(-1232.148 -452.616)"/></g></g><g transform="translate(119.097 99.39)"><path class="u" d="M1299.5,509.873a30.258,30.258,0,0,1,19.034,19.578c13.829,44.205,57.179,197.641,57.179,197.641l-29.677,12.353-29.988-98.2L1272.78,517.331Z" transform="translate(-1272.78 -509.873)"/><path class="u" d="M1373.7,722.275c4.428,9.323,15.3,38.534,13.13,39.311s-9.478-11.964-9.167-11.964c0,0,9.478,22.064,7.691,22.763-3.03,1.165-16-20.976-16-20.976s12.2,25.482,10.1,26.1c-4.817,1.4-16.392-24.239-16.392-24.239s6.914,18.179,4.506,19.034c-3.962,1.321-11.109-19.422-12.741-22.374s-1.554-1.942-.932,1.476c.622,3.263,1.787,14.839-1.4,14.528-1.865-.155-6.837-27.968-6.837-27.968Z" transform="translate(-1272.78 -509.873)"/></g><g transform="translate(0 91.232)"><path class="x" d="M1206.122,594.943c-1.787,0-52.44-3.341-52.44-3.341s21.209-60.209,37.757-76.757c12.586-12.586,43.04-13.129,43.04-13.129h41.564l24.705,5.594a39.733,39.733,0,0,1,27.424,22.141l25.56,55.159L1310.3,598.361l20.51,99.753h-128.5Z" transform="translate(-1153.682 -501.716)"/><line class="w" x1="12.275" y1="61.374" transform="translate(148.852 56.946)"/><line class="w" y1="39.854" x2="13.44" transform="translate(55.315 53.372)"/><line class="w" y1="5.516" x2="11.731" transform="translate(62.695 65.803)"/><line class="w" y1="11.032" x2="7.225" transform="translate(151.727 60.287)"/></g><g transform="translate(20.001 287.63)"><g transform="translate(0 66.813)"><path class="y" d="M1219.873,991.778l-8.157,1.165a3.056,3.056,0,0,0-2.486,3.884l3.108,10.255,7.536-2.1Z" transform="translate(-1173.683 -764.926)"/><path class="u" d="M1216.533,1015.24h39.311l-4.04-250.314h-39.388Z" transform="translate(-1173.683 -764.926)"/><path class="y" d="M1175.513,1038.936h93.693a2.8,2.8,0,0,0,2.8-3.03c-.622-7.847-3.574-16.159-6.6-22.918h0a113.317,113.317,0,0,0-7.691-14.45,29.931,29.931,0,0,0-33.018,10.721l-8.235-3.962s-19.267,8.08-28.59,15.382C1178.62,1027.981,1175.513,1038.936,1175.513,1038.936Z" transform="translate(-1173.683 -764.926)"/><path class="p" d="M1235.333,1000.324l3.885,8.313a7.547,7.547,0,0,0,6.837,4.351H1265.4a113.322,113.322,0,0,0-7.691-14.45A31.1,31.1,0,0,0,1235.333,1000.324Z" transform="translate(-1173.683 -764.926)"/><path class="p" d="M1180.563,1028.37h89.653a1.923,1.923,0,0,1,1.942,1.942v5.827a2.785,2.785,0,0,1-2.8,2.8h-92.683a2.989,2.989,0,0,1-2.486-4.661l2.486-3.807A4.823,4.823,0,0,1,1180.563,1028.37Z" transform="translate(-1173.683 -764.926)"/><path class="w" d="M1211.483,1007.7a3.235,3.235,0,0,0-3.341.155,6.735,6.735,0,0,0-2.253,2.641,15.1,15.1,0,0,0-1.709,6.837" transform="translate(-1173.683 -764.926)"/><path class="w" d="M1204.258,1008.715a13.916,13.916,0,0,0-4.273,2.564,9.6,9.6,0,0,0-2.1,7.07" transform="translate(-1173.683 -764.926)"/></g><g transform="translate(98.51 61.763)"><path class="y" d="M1318.305,991.778l-8.157,1.165a3.056,3.056,0,0,0-2.486,3.884l3.108,10.255,7.536-2.1Z" transform="translate(-1272.193 -759.876)"/><path class="u" d="M1314.965,1015.24h39.388l-35.115-255.364h-39.388Z" transform="translate(-1272.193 -759.876)"/><path class="y" d="M1273.945,1038.936h93.693a2.8,2.8,0,0,0,2.8-3.03c-.622-7.847-3.574-16.159-6.6-22.918h0a113.327,113.327,0,0,0-7.691-14.45,29.931,29.931,0,0,0-33.018,10.721l-8.235-3.962s-19.267,8.08-28.59,15.382C1277.052,1027.981,1273.945,1038.936,1273.945,1038.936Z" transform="translate(-1272.193 -759.876)"/><path class="p" d="M1333.843,1000.324l3.884,8.313a7.547,7.547,0,0,0,6.837,4.351h19.345a113.332,113.332,0,0,0-7.691-14.45A31.131,31.131,0,0,0,1333.843,1000.324Z" transform="translate(-1272.193 -759.876)"/><path class="p" d="M1278.995,1028.37h89.731a1.923,1.923,0,0,1,1.942,1.942v5.827a2.785,2.785,0,0,1-2.8,2.8h-92.683a2.989,2.989,0,0,1-2.486-4.661l2.486-3.807A4.577,4.577,0,0,1,1278.995,1028.37Z" transform="translate(-1272.193 -759.876)"/><path class="w" d="M1309.915,1007.7a3.235,3.235,0,0,0-3.341.155,6.736,6.736,0,0,0-2.253,2.641,15.1,15.1,0,0,0-1.709,6.837" transform="translate(-1272.193 -759.876)"/><path class="w" d="M1302.69,1008.715a13.916,13.916,0,0,0-4.273,2.564,9.6,9.6,0,0,0-2.1,7.07" transform="translate(-1272.193 -759.876)"/></g><path class="z" d="M1202.393,698.114l1.709,90.352h56.091l2.719-65.1,11.42,63.394h56.325l-12.042-88.643Z" transform="translate(-1173.683 -698.114)"/><line class="aa" y2="77.456" transform="translate(40.83 11.187)"/></g></g><g transform="translate(0 125.579)"><path class="ab" d="M673.1,715.361c-3.651,11.964-10.255,30.92-7.536,31.464s11.032-14.062,10.643-13.906c-.388.078-9.245,26.1-6.914,26.57,3.884.855,16.392-27.036,16.392-27.036s-10.954,31.775-8.313,32.086c5.982.777,16.7-31.386,16.7-31.386s-6.448,22.53-3.418,23c4.972.855,9.789-25.171,11.265-28.978s1.476-2.564,1.321,1.554c-.155,4.04.544,18.024,4.273,17.092,2.175-.544,3.418-30.454,3.418-30.454H673.1Z" transform="translate(-664.922 -520.439)"/><path class="ab" d="M760.576,520.439,710.855,715.361H673.1l49.721-194.922Z" transform="translate(-664.922 -520.439)"/><path class="w" d="M695.783,719.478a12.874,12.874,0,0,1,1.243-15.926" transform="translate(-664.922 -520.439)"/><g transform="translate(31.715 91.052)"><g transform="translate(100.452 357.37)"><path class="ac" d="M849.374,991.778l8.157,1.165a3.056,3.056,0,0,1,2.486,3.884l-3.108,10.255-7.536-2.1Z" transform="translate(-797.09 -968.86)"/><path class="ab" d="M852.793,1015.24H813.4l-5.516-46.38H847.2Z" transform="translate(-797.09 -968.86)"/><path class="ac" d="M893.812,1038.936H800.119a2.8,2.8,0,0,1-2.8-3.03c.622-7.847,3.574-16.159,6.6-22.918h0a113.322,113.322,0,0,1,7.691-14.45,29.931,29.931,0,0,1,33.018,10.721l8.235-3.962s19.267,8.08,28.59,15.382C890.7,1027.981,893.812,1038.936,893.812,1038.936Z" transform="translate(-797.09 -968.86)"/><path class="p" d="M833.914,1000.324l-3.884,8.313a7.547,7.547,0,0,1-6.837,4.351H803.848a113.327,113.327,0,0,1,7.691-14.45A31.131,31.131,0,0,1,833.914,1000.324Z" transform="translate(-797.09 -968.86)"/><path class="p" d="M888.763,1028.37H799.032a1.923,1.923,0,0,0-1.942,1.942v5.827a2.785,2.785,0,0,0,2.8,2.8h92.683a2.989,2.989,0,0,0,2.486-4.661l-2.486-3.807A4.576,4.576,0,0,0,888.763,1028.37Z" transform="translate(-797.09 -968.86)"/><path class="w" d="M857.842,1007.7a3.235,3.235,0,0,1,3.341.155,6.736,6.736,0,0,1,2.253,2.641,15.1,15.1,0,0,1,1.709,6.837" transform="translate(-797.09 -968.86)"/><path class="w" d="M865.067,1008.715a13.915,13.915,0,0,1,4.273,2.564,9.6,9.6,0,0,1,2.1,7.07" transform="translate(-797.09 -968.86)"/></g><g transform="translate(11.265 356.204)"><rect class="ab" width="41.253" height="46.38" transform="translate(14.45)"/><path class="ac" d="M804.548,1037.693H710.855a2.8,2.8,0,0,1-2.8-3.03c.622-7.847,3.574-16.159,6.6-22.918h0a113.318,113.318,0,0,1,7.691-14.45,29.931,29.931,0,0,1,33.018,10.721l8.235-3.962s19.267,8.08,28.59,15.382A40.091,40.091,0,0,1,804.548,1037.693Z" transform="translate(-707.903 -967.695)"/><path class="ac" d="M763.606,990.846l4.661.777a3.225,3.225,0,0,1,2.564,4.118l-3.03,10.1-4.117-1.787V990.846Z" transform="translate(-707.903 -967.695)"/><path class="p" d="M744.727,999.081l-3.884,8.313a7.547,7.547,0,0,1-6.837,4.351H714.661a113.318,113.318,0,0,1,7.691-14.45A31.1,31.1,0,0,1,744.727,999.081Z" transform="translate(-707.903 -967.695)"/><path class="p" d="M799.576,1027.2H709.845a1.923,1.923,0,0,0-1.942,1.942v5.827a2.785,2.785,0,0,0,2.8,2.8h92.683a2.989,2.989,0,0,0,2.486-4.661l-2.486-3.807A4.5,4.5,0,0,0,799.576,1027.2Z" transform="translate(-707.903 -967.695)"/><path class="w" d="M768.655,1006.461a3.235,3.235,0,0,1,3.341.155,6.737,6.737,0,0,1,2.253,2.641,15.1,15.1,0,0,1,1.709,6.837" transform="translate(-707.903 -967.695)"/><path class="w" d="M775.8,1007.549a13.915,13.915,0,0,1,4.273,2.564,9.6,9.6,0,0,1,2.1,7.07" transform="translate(-707.903 -967.695)"/></g><path class="ad" d="M721.265,655.229C716.371,686.771,696.638,984.4,696.638,984.4h90.2L776.269,655.229h-55Z" transform="translate(-696.638 -611.49)"/><path class="ad" d="M817.056,611.49C831.195,661.522,878.119,984.4,878.119,984.4H786.757L771.607,684.674l-50.42-29.444s3.03-32.629,26.8-43.739Z" transform="translate(-696.638 -611.49)"/><path class="w" d="M746.126,669.757l25.56,14.839,15.072,299.8" transform="translate(-696.638 -611.49)"/><line class="aa" x2="47.002" y2="352.631" transform="translate(117.544 12.741)"/><line class="ae" x2="78.233" transform="translate(40.787 7.458)"/></g></g><g transform="translate(329.271 39.056)"><g transform="translate(0 85.746)"><path class="ab" d="M1003.354,623.532c-1.243,12.43-11.42,167.42-8.7,167.42,2.8,0,8.157-15.926,7.769-15.693-.311.155-4.04,27.347-1.709,27.424,3.962.078,10.876-29.677,10.876-29.677s-4.661,33.251-2.02,33.1c5.982-.388,10.333-34.028,10.333-34.028s-2.02,23.307,1.01,23.229c4.972-.078,4.739-26.647,5.438-30.609.7-4.04,1.01-2.8,1.631,1.321.621,4.04,4.04,17.558,7.458,15.926,2.02-.932,3.807-156.31,3.807-156.31Z" transform="translate(-994.193 -519.662)"/><path class="z" d="M1056.649,519.662c-16.936,5.671-36.514,5.283-46.769,39-8,26.259-7.38,6.526-11.42,53.916a21.293,21.293,0,0,0,20.044,23.074l25.948,1.088,5.982-78.077h41.874v-39h-35.659Z" transform="translate(-994.193 -519.662)"/></g><g transform="translate(2.557 235.841)"><g transform="translate(99.675 49.721)"><path class="p" d="M1146.069,1015.24h-39.311l-10.333-289.7,53.528-6.06Z" transform="translate(-1096.425 -719.478)"/><path class="af" d="M1167.589,1015.473c-11.653-8.7-20.432-28.9-20.432-28.9h-.7l-.7,5.982a3.447,3.447,0,0,1-6.215,1.631h0a18.438,18.438,0,0,0-14.839-7.614h-20.277c.078.233-8.235,23.462-6.137,47.157h80.952C1185.224,1033.653,1179.242,1024.1,1167.589,1015.473Z" transform="translate(-1096.425 -719.478)"/><path class="p" d="M1181.65,1028.37H1097.9v10.566h85.613Z" transform="translate(-1096.425 -719.478)"/></g><g transform="translate(0 49.721)"><path class="p" d="M1033.73,1015.24h39.388l17.713-289.7-55.47-6.06Z" transform="translate(-996.75 -719.478)"/><path class="af" d="M1012.754,1015.473c11.653-8.7,20.432-28.9,20.432-28.9h.7l.7,5.982a3.447,3.447,0,0,0,6.215,1.631h0a18.438,18.438,0,0,1,14.839-7.614h20.277c-.078.233,8.235,23.462,6.137,47.157H1001.1C995.119,1033.653,1001.1,1024.1,1012.754,1015.473Z" transform="translate(-996.75 -719.478)"/><path class="p" d="M998.615,1028.37h83.749v10.566H996.75Z" transform="translate(-996.75 -719.478)"/></g><path class="ag" d="M1144.981,669.757c18.49,41.1,28.667,308.5,28.667,308.5s-82.894,5.05-82.894,2.874c.078-2.175,6.6-271.834,6.6-271.834l-6.6,271.834-75.9-2.874s.155-236.33,31.153-307.416Z" transform="translate(-996.75 -669.757)"/><path class="w" d="M1090.832,981.135v-255.6l-28.9.932" transform="translate(-996.75 -669.757)"/><line class="w" y1="2.175" x2="25.327" transform="translate(94.081 53.605)"/></g><g transform="translate(27.262)"><path class="ab" d="M1189.652,682.5c12.508,0,107.288-98.354,105.191-100.219s-16.625,6.526-16.237,6.6,21.209-17.791,19.422-19.422c-2.875-2.641-27.813,14.994-27.813,14.994s25.56-21.831,23.462-23.462c-4.739-3.729-30.3,18.568-30.3,18.568s16.936-16.159,14.606-18.1c-3.807-3.263-21.209,16.781-24.394,19.345s-2.564,1.476-.311-2.02c2.175-3.418,8.623-15.849,4.972-16.936-2.175-.621-92.139,93.926-92.139,93.926S1165.18,682.5,1189.652,682.5Z" transform="translate(-1021.455 -433.916)"/><path class="z" d="M1145.6,701.066l-124.147-19.5L1043.6,523.313h97.577l18.412,164.235A12.25,12.25,0,0,1,1145.6,701.066Z" transform="translate(-1021.455 -433.916)"/><path class="z" d="M1162.927,590.359l30.92,21.986s-14.761-60.675-20.743-70.7c-6.06-9.944-7.38-14.139-19.422-17.791-12.042-3.729-37.368-4.2-61.3-4.2L1089.9,587.8h51.275l24.86,69.609c-2.1-2.952-1.4-10.177,7.691-14.217l8.7-10.643a10.6,10.6,0,0,0,3.108-16.392Z" transform="translate(-1021.455 -433.916)"/><path class="i" d="M1139.931,508.708c-1.4-20.432-20.976-34.183-22.374-47-1.321-12.819-8.468-27.735-26.337-27.735,0,0-16.392-1.554-24.472,11.886s-.544,22.452-12.819,39-15.46,39.854-15.46,39.854c4.04,2.331,27.813,15.693,51.275,14.994,25.171-.7,50.109-15.538,50.109-15.538S1140.786,521.682,1139.931,508.708Z" transform="translate(-1021.455 -433.916)"/><path class="ah" d="M1035.75,508.63a21.064,21.064,0,0,1,4.118-17.713c2.564-3.185,5.9-5.516,8.934-8.157,9.167-7.847,16-18.878,16.7-30.92" transform="translate(-1021.455 -433.916)"/><path class="ah" d="M1113.051,452.228a25.926,25.926,0,0,0,9.4,17.868c3.5,2.8,7.614,4.661,10.876,7.691a19.654,19.654,0,0,1,5.982,12.042" transform="translate(-1021.455 -433.916)"/><path class="aa" d="M1072.264,465.668c.932,10.566-3.884,20.665-8.235,30.376s-8.313,20.432-5.516,30.687" transform="translate(-1021.455 -433.916)"/><path class="aa" d="M1105.36,479.419c-.155,7.847,4.35,14.839,8.157,21.675,3.884,6.837,7.3,14.683,5.127,22.219" transform="translate(-1021.455 -433.916)"/></g></g><g transform="translate(367.408 106.856)"><path class="u" d="M1087.336,671.466c-10.1,2.1-41.02,5.9-41.253,3.574-.233-2.253,13.829-6.37,13.751-6.137,0,0-23.7,4.04-23.928,2.175-.389-3.263,24.161-10.721,24.161-10.721s-27.657,5.9-27.735,3.729c-.233-4.972,27.347-10.255,27.347-10.255s-19.345,2.486-19.578,0c-.388-4.117,21.442-6.215,24.705-7.147s2.253-1.088-1.243-1.243c-3.341-.155-14.839-1.787-13.751-4.739.622-1.787,28.745-.078,28.745-.078Z" transform="translate(-1032.33 -501.716)"/><path class="u" d="M1234.4,501.716c-2.408.621-19.733,6.837-32.4,11.343a33.644,33.644,0,0,0-19.189,17.868l-26.181,85.613-83.749,23.773,7.07,32.552,84.526-15.3a41.27,41.27,0,0,0,29.988-23.074l28.046-79.4Z" transform="translate(-1032.33 -501.716)"/><path class="p" d="M1092.308,672.865l-7.38,1.865-3.807-38.767,7.847-1.865Z" transform="translate(-1032.33 -501.716)"/><path class="x" d="M1206.122,594.943c-1.787,0-52.44-3.341-52.44-3.341s21.209-60.209,37.757-76.757c12.586-12.586,43.04-13.129,43.04-13.129l-8.7,91.518Z" transform="translate(-1032.33 -501.716)"/></g><g transform="translate(154.153)"><g transform="translate(97.655 6.948)"><path class="ab" d="M955.964,401.808c6.215,4.118,6.914,15.3,4.584,27.347,0,0,5.516,8.623,4.817,11.11s-7.536,4.661-7.536,4.661,2.331,22.607-5.982,22.374l-8.235-.233v6.681h-26.88l3.03-19.345,2.719-52.518h33.484Z" transform="translate(-916.731 -401.808)"/><g transform="translate(33.001 18.257)"><path class="w" d="M951.458,443.294a5.111,5.111,0,0,0,1.942,2.952,2.6,2.6,0,0,0,2.874.466" transform="translate(-949.732 -420.065)"/><path class="w" d="M949.826,424.26a19.452,19.452,0,0,1,10.1-4.2" transform="translate(-949.732 -420.065)"/><g transform="translate(0 4.235)"><path class="p" d="M959.926,431.64a6.858,6.858,0,0,1-4.118,5.671,3.874,3.874,0,0,1-1.865.233c-2.8-.388-4.661-3.651-4.118-7.3.466-3.651,3.185-6.293,5.982-5.9a3.912,3.912,0,0,1,2.02.855A6.988,6.988,0,0,1,959.926,431.64Z" transform="translate(-949.732 -424.3)"/><path class="v" d="M959.926,431.64a3.871,3.871,0,1,1-6.215-.777,3.866,3.866,0,1,1,6.215.777Z" transform="translate(-949.732 -424.3)"/></g></g></g><g transform="translate(129.119 594.433)"><path class="v" d="M948.894,990.846l3.03,48.09s76.135,1.4,76.135,0-4.351-21.442-22.53-28.2c-6.37-2.331-12.275-10.488-12.275-10.488l-5.438-10.954-36.436,1.321" transform="translate(-948.195 -989.292)"/><path class="p" d="M1028.914,1039.557H948.195l1.865-9.944h76.99Z" transform="translate(-948.195 -989.292)"/><path class="aa" d="M1009.958,1015.473a28.314,28.314,0,0,1,8.779,7.536" transform="translate(-948.195 -989.292)"/></g><g transform="translate(0 106.079)"><path class="af" d="M819.076,723.751h46.38l34.572-222.812H853.569Z" transform="translate(-819.076 -500.939)"/><path class="ab" d="M825.446,721.964c-1.243,12.43-4.2,32.319-1.4,32.319s8.157-15.926,7.769-15.693c-.311.155-4.04,27.347-1.709,27.424,3.962.078,10.876-29.677,10.876-29.677s-4.661,33.251-2.02,33.1c5.982-.388,10.333-34.028,10.333-34.028s-2.02,23.307,1.01,23.229c4.972-.078,4.739-26.647,5.438-30.609.7-4.04,1.01-2.8,1.631,1.321.622,4.04,4.04,17.558,7.458,15.926,2.02-.932-2.486-30.609-2.486-30.609Z" transform="translate(-819.076 -500.939)"/><path class="p" d="M874.856,694.851l-9.4,28.9h-46.38l3.108-20.2Z" transform="translate(-819.076 -500.939)"/></g><g transform="translate(45.06 594.355)"><path class="v" d="M872.293,990.846l-4.428,48.09s76.135,1.4,76.135,0-4.351-21.442-22.53-28.2c-6.37-2.331-9.012-11.343-9.012-11.343l-1.321-10.177L874.7,990.535" transform="translate(-864.135 -989.215)"/><path class="p" d="M944.854,1039.557H864.135l1.864-9.944h76.99Z" transform="translate(-864.135 -989.215)"/><path class="aa" d="M925.9,1015.473a28.315,28.315,0,0,1,8.779,7.536" transform="translate(-864.135 -989.215)"/></g><path class="v" d="M980.513,640.546c3.884,31.153,17.558,350.3,17.558,350.3h-52.6L926.519,698.58l-8.313,292.266H865.067l2.564-351.31Z" transform="translate(-819.076 -394.86)"/><g transform="translate(34.395 71.197)"><path class="p" d="M982.378,645.751,861.416,691.044l-1.865-46.3Z" transform="translate(-853.471 -466.057)"/><path class="af" d="M909.35,466.057l34.105,3.651,2.253,9.167,59.665,24.006-32.707,32.008,15.3,116.378-129.9-1.088s-6.759-28.2,1.631-55.315c8.391-27.036,7.847-64.249,7.847-64.249l-12.819-23.384a10.13,10.13,0,0,1,5.516-14.45l47.157-16.625Z" transform="translate(-853.471 -466.057)"/><path class="w" d="M858.075,650.1s-6.759-28.2,1.631-55.315c8.39-27.036,7.847-64.249,7.847-64.249" transform="translate(-853.471 -466.057)"/></g><g transform="translate(69.917)"><path class="v" d="M959.3,405.459c-6.681-11.964-42.185-15.149-54.848-2.486-12.741,12.741-11.576,53.372-2.02,53.372h15.538c6.526,0,20.9,1.942,22.219-13.207.932-11.187,1.631-15.149,1.631-15.149Z" transform="translate(-888.993 -394.86)"/><rect class="p" width="16.47" height="6.681" transform="translate(14.453 61.563)"/><path class="v" d="M946.486,417.112l-.932,19.189h-2.175l-2.952-12.741Z" transform="translate(-888.993 -394.86)"/><path class="w" d="M957.673,405.459a18.011,18.011,0,0,1-.155,4.584,12.4,12.4,0,0,1-1.942,4.506c-2.486,3.651-6.137,5.749-9.633,7.614" transform="translate(-888.993 -394.86)"/><path class="w" d="M902.281,406.081c-1.865,3.5-4.273,6.6-6.37,9.944a48.508,48.508,0,0,0-6.293,16.392c-.932,4.972-1.01,10.255,1.088,14.839s6.837,8.313,11.964,8.08" transform="translate(-888.993 -394.86)"/><path class="v" d="M903.446,463.027c-6.6,3.5-12.974,18.568-5.438,27.89a16.065,16.065,0,0,0,7.147,5.205c7.691,2.719,15.926-1.321,19.655-8.546,2.8-5.516,3.418-13.673-4.972-24.55H903.446Z" transform="translate(-888.993 -394.86)"/><path class="w" d="M902.591,463.726a26.607,26.607,0,0,0-11.032,21.287,16.632,16.632,0,0,0,.777,5.516,13.868,13.868,0,0,0,5.05,6.992" transform="translate(-888.993 -394.86)"/><g transform="translate(39.314 31.731)"><circle class="ab" cx="8.623" cy="8.623" r="8.623"/><path class="w" d="M932.735,431.1a7.975,7.975,0,0,1,8.157,3.651" transform="translate(-928.306 -426.591)"/><path class="w" d="M939.338,433.272a4.053,4.053,0,0,0-1.787,2.8,4.438,4.438,0,0,0,.7,3.263" transform="translate(-928.306 -426.591)"/></g></g><g transform="translate(144.036 108.021)"><path class="ab" d="M1076.537,613.355c12.12-3.108,51.741-19.578,50.809-22.141-.932-2.641-18.49.388-18.179.622,0,0,27.89-8.157,27.114-10.333-1.321-3.729-31.853,1.243-31.853,1.243s33.1-8.313,32.086-10.721c-2.408-5.516-35.193,3.418-35.193,3.418s22.3-7.614,21.209-10.41c-1.787-4.661-26.647,4.661-30.687,5.361s-2.952,0,.7-1.942c3.574-1.942,15.149-9.789,12.43-12.508-1.554-1.554-31.309,15.227-31.309,15.227Z" transform="translate(-963.111 -502.881)"/><path class="af" d="M1005.374,502.881c6.681,24.394,25.016,88.876,25.016,88.876l56.558-29.677,3.418,49.488-58.733,29.522a29.286,29.286,0,0,1-39-18.1l-29.522-89.575Z" transform="translate(-963.111 -502.881)"/><path class="p" d="M1086.947,562s-15.771,6.759-17.092,7.3,2.02,54.227,2.02,54.227l18.49-11.964Z" transform="translate(-963.111 -502.881)"/></g></g><g transform="translate(31.715 22.552)"><path class="ab" d="M817.056,611.49H748.068l-5.05-12.353h77.767Z" transform="translate(-696.638 -417.412)"/><g transform="translate(194.689 78.536)"><path class="ab" d="M912.613,558.351l77.844-47.623,3.5-13.673,4.2,2.253s1.01-3.651,5.749-3.341c4.739.388,15.926,2.564,16.936,7.847,1.01,5.205,1.709,21.6,0,25.637-1.709,3.962-44.283,33.329-61.918,47.779-11.42,9.323-27.968,19.034-38.145,24.783a19.881,19.881,0,0,1-18.568.466l-10.876-5.361Z" transform="translate(-891.326 -495.948)"/><g transform="translate(88.332 16.722)"><path class="p" d="M993.1,554l-13.44-38.3,5.438-3.03,13.129,37.524Z" transform="translate(-979.659 -512.67)"/></g><g transform="translate(81.34 21.383)"><path class="p" d="M979.581,566.042l-6.914-46.536,4.894-2.175,6.681,45.681Z" transform="translate(-972.667 -517.331)"/></g></g><g transform="translate(0 71.097)"><path class="ag" d="M847.743,499.851A43.9,43.9,0,0,0,818.3,488.509H745.038l-.311.311a28.481,28.481,0,0,0-22.918,20.2l-25.171,86.7,45.526-.388c.155.7.855,3.729.855,3.729h77.611l11.343-41.1L892.647,615.3l19.966-56.946Z" transform="translate(-696.638 -488.509)"/><line class="w" x1="13.285" y1="54.305" transform="translate(32.241 52.518)"/><path class="w" d="M814.181,550.194l17.868,7.847c-15.849-15.46-17.868-18.179-17.868-18.179" transform="translate(-696.638 -488.509)"/></g><g transform="translate(15.538)"><path class="ab" d="M832.05,450.363c-.388-2.253-4.972-.855-4.972-.855,2.408-6.137,1.631-15.538-2.641-21.6a14.437,14.437,0,0,0-6.293-5.127,79.732,79.732,0,0,0-8.779.621h0c-9.556,1.243-24.161,4.894-27.89,15.771-2.719,7.769-.466,16.082,2.719,22.607h-5.438l-11.187,34.183h27.5l5.438-16.781a37.682,37.682,0,0,0,12.9,3.5c12.042,1.01,11.731-24.705,11.731-24.705S832.438,452.616,832.05,450.363Z" transform="translate(-712.175 -417.412)"/><path class="v" d="M814.181,421.075s-3.108,8.08-9.09,13.673-6.137,21.753-6.137,21.753a50.251,50.251,0,0,1-16.237,36.281,53.7,53.7,0,0,0-7.07,8.235,51.92,51.92,0,0,0-3.574,5.9,77.944,77.944,0,0,0-8.39,27.813s-50.265-.621-50.5,0-.388-5.594,5.361-28.046c.078-.388.233-.777.311-1.088a34.441,34.441,0,0,1,9.478-15.538c9.245-9.012,21.908-12.974,27.968-19.5,5.361-5.749,5.283-13.829,6.837-22.918a43.844,43.844,0,0,1,6.448-17.48c.311-.466.7-1.01,1.01-1.476C782.251,412.606,803.615,417.346,814.181,421.075Z" transform="translate(-712.175 -417.412)"/><path class="ai" d="M799.42,447.023c-4.739,1.321-9.4-3.03-14.295-2.486-3.185.311-5.671,2.564-8.235,4.506-2.564,1.865-5.749,3.574-8.7,2.564-2.02-.7-3.418-2.408-5.05-3.807a43.846,43.846,0,0,1,6.448-17.48c.155.078.388.155.544.233,1.709.932,2.253,3.03,2.874,4.817s1.709,3.807,3.651,4.04c1.709.155,3.108-1.088,4.351-2.175,2.719-2.253,6.681-3.807,9.633-1.942,2.175,1.321,3.03,3.962,3.884,6.293C795.458,443.915,796.934,446.479,799.42,447.023Z" transform="translate(-712.175 -417.412)"/><path class="w" d="M786.135,422.784c-6.448-1.476-13.207,2.486-17.014,7.847-3.884,5.361-5.516,11.964-7.225,18.412s-3.574,12.974-7.691,18.1c-7.769,9.556-21.675,11.886-30.3,20.665-6.6,6.681-9.245,16.159-11.731,25.171" transform="translate(-712.175 -417.412)"/><path class="w" d="M797.789,461.4c.388,11.809-6.137,22.607-12.586,32.552s-13.129,20.588-13.129,32.4" transform="translate(-712.175 -417.412)"/><g transform="translate(72.717 24.639)"><circle class="ab" cx="8.934" cy="8.934" r="8.934"/><path class="w" d="M789.476,446.712a8.114,8.114,0,0,1,8.39,3.807" transform="translate(-784.892 -442.051)"/><path class="w" d="M796.313,448.965a4.814,4.814,0,0,0-1.865,2.875,4.261,4.261,0,0,0,.777,3.341" transform="translate(-784.892 -442.051)"/></g><path class="v" d="M818.143,422.784h0l-3.962-1.631-2.02,2.02c-.855.078-4.118,4.584-4.118,4.584a49.324,49.324,0,0,0-7.614,11.886c-3.962,9.323-1.476,21.986-1.631,33.406s-4.817,17.247-13.285,29.677-9.323,32.163-9.323,32.163h12.2c-3.108-15.849,10.41-37.99,15.382-48.556s1.01-30.532,1.01-38.378a18.85,18.85,0,0,1,.7-5.05,59.9,59.9,0,0,0,10.177-2.8c6.681-2.486,8.779-12.119,8.779-12.119A13.608,13.608,0,0,0,818.143,422.784Z" transform="translate(-712.175 -417.412)"/><g transform="translate(71.163 40.332)"><path class="p" d="M807.422,469.708a12.042,12.042,0,0,1-24.084,0,12.176,12.176,0,0,1,6.6-10.721,6.958,6.958,0,0,0,1.787.621.076.076,0,0,0-.078.078,10.812,10.812,0,1,0,5.749-.466h0a7.881,7.881,0,0,0-1.942-.155.613.613,0,0,1-.621-.622.685.685,0,0,1,.621-.7,13.809,13.809,0,0,1,3.651.544A12.09,12.09,0,0,1,807.422,469.708Z" transform="translate(-783.339 -457.744)"/></g><g transform="translate(101.307 21.025)"><path class="w" d="M813.482,440.031a18.452,18.452,0,0,1,11.343-1.165" transform="translate(-813.482 -438.437)"/><path class="w" d="M817.444,460a3.585,3.585,0,0,0,1.709,2.719,3.469,3.469,0,0,0,3.263.078" transform="translate(-813.482 -438.437)"/><g transform="translate(0.682 3.964)"><path class="p" d="M824.358,449.742a6.858,6.858,0,0,1-4.118,5.671,3.874,3.874,0,0,1-1.865.233c-2.8-.388-4.661-3.651-4.118-7.3.466-3.651,3.185-6.293,5.982-5.9a3.911,3.911,0,0,1,2.02.855C823.892,444.537,824.747,447.023,824.358,449.742Z" transform="translate(-814.164 -442.401)"/><path class="v" d="M824.358,449.742a3.871,3.871,0,1,1-6.215-.777,6.789,6.789,0,0,1,4.04-5.671C823.892,444.537,824.747,447.023,824.358,449.742Z" transform="translate(-814.164 -442.401)"/></g></g></g></g></g></g></svg>