<svg xmlns="http://www.w3.org/2000/svg" width="421.64" height="762.416" viewBox="0 0 421.64 762.416"><defs><style>.a{fill:#decae0;}.b{fill:#99c6c7;}.c{fill:#00bac8;}.d{opacity:0.5;}.e{fill:#caeef0;}.f{fill:#afd1ff;}.g{fill:#eff6ff;}.h{fill:#7ad4d9;}.i{fill:#007173;}.j{fill:#efd9c3;}.aa,.k{fill:#fff;}.l{fill:#ba5d56;}.m{fill:#210b3a;}.ac,.n,.r,.v,.z{fill:none;}.n,.v{stroke:#210b3a;}.n,.r,.v,.z{stroke-linecap:round;stroke-miterlimit:10;}.n{stroke-width:1.317px;}.o{fill:#5d2cd1;}.p{fill:#ff57ff;}.ad,.q{fill:#3c114f;}.r{stroke:#fff;}.r,.v,.z{stroke-width:1.859px;}.s{fill:#f47365;}.t{fill:#ffe94a;}.u{fill:#9200e9;}.w{fill:#00b8c7;}.x{fill:#ffc13b;}.y{fill:#e047ff;}.z{stroke:#ff57ff;}.aa{opacity:0.52;}.ab{fill:#ffc200;}.ad{font-size:38px;font-family:Montserrat-Bold, Montserrat;font-weight:700;}</style></defs><g transform="translate(-0.986 -81.316)"><g transform="translate(373.621 530.584)"><g transform="translate(-43.509 -118)"><path class="a" d="M1385.965-40.365c-15.732-1.156-42.541,10.5-44.885,34.386-2.069,21.118,5.234,36.7,22.153,46.041,33.23,19.232,78.084-6.421,68.772-47.2-5.234-21.575-26.809-33.808-47.775-33.23" transform="translate(-1340.738 40.443)"/></g><g transform="translate(-290.372 -39.763)"><path class="b" d="M853.713,233.716c-15.793-5.934-63.812-13.146-59.856-26.961,5.934-7.242,28.939,5.934,39.468,9.22-5.934-8.551-31.586-26.961-29.609-38.159,1.309-15.124,28.939,18.41,34.2,21.7-.669-9.22-6.573-18.41-7.881-27.631-1.978-17.771,5.934-15.124,13.815-1.978,8.551,13.815,19.08,37.49,18.41,54.592" transform="translate(-793.626 -159.298)"/><g transform="translate(8.652 52.589)"><path class="c" d="M816.3,295.123c18.532,2.83,34.721,13.724,53.283,16.432,1,.152,1.461-1.4.426-1.552-18.562-2.739-34.751-13.6-53.283-16.432-1-.152-1.461,1.4-.426,1.552Z" transform="translate(-815.714 -293.56)"/></g><g transform="translate(16.519 24.308)"><path class="c" d="M836.065,222.718c8.46,7.577,17.406,14.7,24.983,23.188,6.573,7.334,12.416,15.945,20.54,21.666.852.609,1.643-.791.822-1.4a61.749,61.749,0,0,1-10.377-9.951c-3.439-3.925-6.695-7.973-10.194-11.837-7.516-8.307-16.341-15.337-24.679-22.823-.73-.669-1.887.456-1.1,1.156Z" transform="translate(-835.799 -221.357)"/></g><g transform="translate(44.163 10.496)"><path class="c" d="M906.415,187.088c2.86,9.89,7.7,19.08,11.868,28.452,4.078,9.159,8.155,19.019,7.851,29.243-.03,1.035,1.582,1.035,1.613,0,.213-7.668-2.008-15.154-4.778-22.214-3.043-7.821-6.816-15.306-10.164-22.975a107.653,107.653,0,0,1-4.808-12.9c-.335-1.035-1.887-.609-1.582.4Z" transform="translate(-906.375 -186.095)"/></g><g transform="translate(22.678 30.482)"><path class="c" d="M852.112,244.57c2.921.426,5.843.669,8.764.913a.786.786,0,0,0,.791-.791,31.762,31.762,0,0,0-.7-7c-.243-1-1.8-.578-1.552.426a31.681,31.681,0,0,1,.639,6.573l.791-.791c-2.8-.213-5.569-.426-8.338-.852-.974-.183-1.43,1.369-.4,1.521Z" transform="translate(-851.524 -237.12)"/></g><g transform="translate(31.246 40.555)"><path class="c" d="M873.969,268.764c3.256.669,6.451,1.491,9.646,2.4a.814.814,0,0,0,1-.548,18.582,18.582,0,0,0-.426-7.212c-.213-1-1.765-.578-1.552.426a16.053,16.053,0,0,1,.426,6.36l1-.548c-3.2-.913-6.39-1.735-9.646-2.4-1.035-.243-1.461,1.309-.456,1.522Z" transform="translate(-873.398 -262.835)"/></g><g transform="translate(42.41 48.903)"><path class="c" d="M902.475,293.353a61.1,61.1,0,0,0,8.764,1.126c.4,0,.852-.365.791-.791-.274-2.952-1.248-5.782-1.308-8.764-.03-1.035-1.643-1.035-1.613,0,.061,2.982,1.035,5.812,1.309,8.764l.791-.791a58.941,58.941,0,0,1-8.338-1.065c-.974-.213-1.4,1.339-.4,1.521Z" transform="translate(-901.9 -284.148)"/></g><g transform="translate(48.997 38.781)"><path class="c" d="M919.1,260.867a48.751,48.751,0,0,0,10.711,5.112.855.855,0,0,0,1-.548c.456-2.069.882-4.138,1.521-6.147.3-.974-1.248-1.4-1.552-.426-.639,2.008-1.065,4.078-1.522,6.147l1-.548a47.555,47.555,0,0,1-10.346-4.96.8.8,0,0,0-.822,1.369Z" transform="translate(-918.716 -258.307)"/></g><g transform="translate(45.292 27.175)"><path class="c" d="M909.812,231.766a26.936,26.936,0,0,1,7.912,3.865c.426.335,1.035-.03,1.187-.487.578-1.856,1.7-3.682,1.552-5.69-.061-1.035-1.674-1.035-1.613,0,.122,1.826-.974,3.56-1.521,5.264.4-.152.791-.335,1.187-.487a28,28,0,0,0-8.307-4.017c-.943-.335-1.369,1.217-.4,1.552Z" transform="translate(-909.259 -228.678)"/></g><g transform="translate(42.168 17.705)"><path class="c" d="M901.552,206.1a21.9,21.9,0,0,0,7.151,4.382.839.839,0,0,0,1-.548c.548-1.369.822-2.83,1.461-4.2.426-.943-.943-1.765-1.4-.822-.669,1.491-1,3.073-1.613,4.565l1-.548a20.168,20.168,0,0,1-6.451-3.956c-.822-.7-1.948.426-1.156,1.126Z" transform="translate(-901.283 -204.499)"/></g><g transform="translate(17.642 51.068)"><path class="c" d="M841.308,290.66a45.384,45.384,0,0,0,2.708,5.447c.152-.4.335-.791.487-1.187a54.868,54.868,0,0,1-5.264,1.978.805.805,0,0,0,.426,1.552,54.846,54.846,0,0,0,5.264-1.978.842.842,0,0,0,.487-1.187,39.686,39.686,0,0,1-2.556-5.082c-.335-.943-1.887-.517-1.552.456Z" transform="translate(-838.666 -289.676)"/></g><g transform="translate(30.375 56.067)"><path class="c" d="M874.99,303.657c.883,1.765,1.765,3.5,2.617,5.264.152-.4.335-.791.487-1.187-2.1.639-4.26.882-6.36,1.521-.974.3-.578,1.856.426,1.552,2.1-.639,4.26-.882,6.36-1.522a.816.816,0,0,0,.487-1.187c-.883-1.765-1.765-3.5-2.617-5.264-.487-.913-1.856-.091-1.4.822Z" transform="translate(-871.174 -302.438)"/></g></g><g class="d" transform="translate(-372.635 218.147)"><path class="e" d="M357.729,705.563H559.693c5.082-3.439,8.764-8.125,9.251-14.485,1.978-16.432-6.573-33.534-21.058-40.776-15.793-7.242-26.961-15.793-40.137-26.961-13.146-9.859-28.27-15.793-44.732-11.2-19.08,5.264-26.322,23.036-41.446,32.225-11.168,7.242-25.653,3.956-38.159,4.595-30.247,1.309-38.159,28.27-32.895,55.261C352.86,704.711,355.233,705.137,357.729,705.563Z" transform="translate(-349.006 -610.562)"/><g transform="translate(6.507 7.18)"><path class="f" d="M369.386,795.643l-3.286,3.286c-1.491,1.491.822,3.834,2.313,2.313l3.286-3.286A1.636,1.636,0,0,0,369.386,795.643Z" transform="translate(-365.618 -730.035)"/><path class="f" d="M393.265,759.995,388.67,755.4c-1.491-1.491-3.834.822-2.313,2.313l4.595,4.6C392.413,763.8,394.756,761.486,393.265,759.995Z" transform="translate(-377.934 -705.555)"/><path class="f" d="M419.262,806.956h-6.573a1.644,1.644,0,0,0,0,3.286h6.573A1.644,1.644,0,0,0,419.262,806.956Z" transform="translate(-393.28 -737.21)"/><path class="f" d="M434.847,736.085l-5.934-5.934c-1.491-1.491-3.834.822-2.313,2.313l5.934,5.934C433.995,739.888,436.338,737.576,434.847,736.085Z" transform="translate(-402.414 -690.196)"/><path class="f" d="M459.087,775.5l-3.956,3.956c-1.491,1.491.822,3.834,2.313,2.313l3.956-3.956C462.891,776.323,460.578,773.98,459.087,775.5Z" transform="translate(-419.777 -717.776)"/><path class="f" d="M491.6,734.107l-3.956-3.956c-1.491-1.491-3.834.822-2.313,2.313l3.956,3.956A1.636,1.636,0,0,0,491.6,734.107Z" transform="translate(-438.142 -690.196)"/><path class="f" d="M488.764,811.928h-7.242a1.644,1.644,0,0,0,0,3.286h7.242A1.644,1.644,0,0,0,488.764,811.928Z" transform="translate(-435.152 -740.235)"/><path class="f" d="M519.522,768.708l-3.286-3.286c-1.491-1.491-3.834.822-2.313,2.313l3.286,3.286C518.7,772.542,521.013,770.2,519.522,768.708Z" transform="translate(-455.533 -711.652)"/><path class="f" d="M545.04,716.925l-5.264-5.264c-1.491-1.491-3.834.822-2.313,2.313l5.264,5.264C544.188,720.759,546.531,718.447,545.04,716.925Z" transform="translate(-469.852 -678.948)"/><path class="f" d="M550.335,790.593l-7.881,7.881c-1.491,1.491.822,3.834,2.313,2.313l7.881-7.881A1.636,1.636,0,0,0,550.335,790.593Z" transform="translate(-472.896 -726.963)"/><path class="f" d="M580.634,757.569l-3.956-3.956c-1.491-1.491-3.834.822-2.313,2.313l3.956,3.956A1.636,1.636,0,0,0,580.634,757.569Z" transform="translate(-492.3 -704.468)"/><path class="f" d="M588.631,679.789l-5.934,5.934c-1.491,1.491.822,3.834,2.313,2.313l5.934-5.934A1.636,1.636,0,0,0,588.631,679.789Z" transform="translate(-497.376 -659.553)"/><path class="f" d="M622.263,733.706,617,728.442c-1.491-1.491-3.834.822-2.313,2.313l5.264,5.264A1.636,1.636,0,0,0,622.263,733.706Z" transform="translate(-516.828 -689.156)"/><path class="f" d="M605.985,810.3h-8.551a1.644,1.644,0,0,0,0,3.286h8.551A1.644,1.644,0,0,0,605.985,810.3Z" transform="translate(-505.662 -739.242)"/><path class="f" d="M648.1,779.746l-5.934-5.934c-1.491-1.491-3.834.822-2.313,2.313l5.934,5.934A1.636,1.636,0,0,0,648.1,779.746Z" transform="translate(-532.14 -716.755)"/><path class="f" d="M659.8,716.215h-5.264a1.644,1.644,0,0,0,0,3.286H659.8A1.644,1.644,0,0,0,659.8,716.215Z" transform="translate(-540.397 -682.012)"/><path class="f" d="M641.09,664.246v7.242a1.644,1.644,0,0,0,3.286,0v-7.242A1.644,1.644,0,0,0,641.09,664.246Z" transform="translate(-533.19 -649.427)"/><path class="f" d="M645.636,628.893h-7.881a1.644,1.644,0,0,0,0,3.286h7.881A1.644,1.644,0,0,0,645.636,628.893Z" transform="translate(-530.189 -628.893)"/><path class="f" d="M689.393,649.515l-5.934,5.934c-1.491,1.491.822,3.834,2.313,2.313l5.934-5.934C693.228,650.367,690.915,648.024,689.393,649.515Z" transform="translate(-558.671 -641.147)"/><path class="f" d="M718.209,701.144h-6.573a1.644,1.644,0,0,0,0,3.286h6.573A1.644,1.644,0,0,0,718.209,701.144Z" transform="translate(-575.133 -672.844)"/><path class="f" d="M750.243,670.927v5.934a1.644,1.644,0,0,0,3.286,0v-5.934A1.644,1.644,0,0,0,750.243,670.927Z" transform="translate(-599.589 -653.491)"/><path class="f" d="M701.752,749.855h-5.264a1.644,1.644,0,0,0,0,3.286h5.264A1.644,1.644,0,0,0,701.752,749.855Z" transform="translate(-565.917 -702.475)"/><path class="f" d="M745.193,741.469v6.573a1.644,1.644,0,0,0,3.286,0v-6.573A1.644,1.644,0,0,0,745.193,741.469Z" transform="translate(-596.517 -696.402)"/><path class="f" d="M695.876,792.248l-3.286-3.286c-1.491-1.491-3.834.822-2.313,2.313l3.286,3.286A1.636,1.636,0,0,0,695.876,792.248Z" transform="translate(-562.811 -725.971)"/><path class="f" d="M750.732,808.588h-7.242a1.644,1.644,0,0,0,0,3.287h7.242A1.644,1.644,0,0,0,750.732,808.588Z" transform="translate(-594.509 -738.203)"/><path class="f" d="M779.858,763.658l-3.286-3.287c-1.491-1.491-3.834.822-2.313,2.313l3.286,3.286A1.636,1.636,0,0,0,779.858,763.658Z" transform="translate(-613.898 -708.58)"/><path class="f" d="M790.6,708.32l-4.595,4.595c-1.491,1.491.822,3.834,2.313,2.313l4.595-4.595C794.438,709.142,792.1,706.829,790.6,708.32Z" transform="translate(-621.053 -676.916)"/><path class="f" d="M835.753,736.414H829.18a1.644,1.644,0,0,0,0,3.286h6.573A1.644,1.644,0,0,0,835.753,736.414Z" transform="translate(-646.635 -694.299)"/><path class="f" d="M824.125,771.69v7.881a1.644,1.644,0,0,0,3.286,0V771.69A1.644,1.644,0,0,0,824.125,771.69Z" transform="translate(-644.532 -714.786)"/><path class="f" d="M850.5,813.637H842.62a1.644,1.644,0,0,0,0,3.286H850.5A1.644,1.644,0,0,0,850.5,813.637Z" transform="translate(-654.811 -741.275)"/><path class="f" d="M879.581,772.718l-3.956-3.956c-1.491-1.491-3.834.822-2.313,2.313l3.956,3.956C878.729,776.552,881.072,774.209,879.581,772.718Z" transform="translate(-674.153 -713.684)"/><path class="f" d="M792.236,810.773l-4.595,4.595c-1.491,1.491.822,3.834,2.313,2.313l4.595-4.595A1.636,1.636,0,0,0,792.236,810.773Z" transform="translate(-622.045 -739.231)"/><path class="f" d="M673.376,813.409l-2.617-2.617c-1.491-1.491-3.834.822-2.313,2.313l2.617,2.617A1.636,1.636,0,0,0,673.376,813.409Z" transform="translate(-549.531 -739.251)"/></g></g><path class="g" d="M1065.54,260.539c-3.408-5.447-28.939-60.191-95.368-18.075-27.539,17.467-71.632-28.026-107.875-4.595-63.142,40.776-21.7,104.588-24.344,128.932-3.287,34.873-48.688,22.366-46.71,60.526,1.369,26.352,29.487,32.043,54.926,44.732H1065.54Z" transform="translate(-1049.946 -240.035)"/><g transform="translate(-190.424 -51.446)"><path class="h" d="M1023.234,139.467c.822-1.735,2.556-5.751,4.565-5.995a2.518,2.518,0,0,1,1.734.73,21.334,21.334,0,0,1,1.887,1.826c2.83,2.982,7.029,6.634,11.046,3.134,1.917-1.674,2.5-4.686,4.534-6.116,2.282-1.582,4.5.791,5.6,2.556,1.37,2.191,2.8,4.382,5.6,4.717a7.784,7.784,0,0,0,6.6-2.647c1.43-1.491,2.556-3.956,4.412-4.96,2.343-1.278,5.447,3.743,6.573,5.356,1.1,1.582,3.713.091,2.617-1.521-1.8-2.617-4.2-6.36-7.607-7-2.252-.426-4.047,1.035-5.417,2.647-1.339,1.613-2.556,3.865-4.565,4.778-2.678,1.217-4.169-.609-5.447-2.678-1.582-2.556-3.469-4.534-6.664-4.686-3.226-.183-4.96,2.343-6.421,4.808-1.065,1.8-2.434,3.865-4.747,2.891-1.826-.761-3.165-2.587-4.5-3.956-1.552-1.582-3.5-3.286-5.873-2.8-3.317.669-5.2,4.686-6.512,7.395-.852,1.735,1.735,3.286,2.587,1.522Z" transform="translate(-1020.478 -129.472)"/></g><g transform="translate(-166.052 -36.566)"><path class="h" d="M1078.085,177.457c.822-1.735,2.556-5.751,4.565-5.995a2.518,2.518,0,0,1,1.734.73,21.3,21.3,0,0,1,1.887,1.826c2.83,2.982,7.029,6.634,11.046,3.134,1.917-1.674,2.5-4.686,4.534-6.116,2.282-1.582,4.5.791,5.6,2.556,1.369,2.191,2.8,4.382,5.6,4.717a7.784,7.784,0,0,0,6.6-2.647c1.43-1.491,2.556-3.956,4.412-4.96,2.343-1.278,5.447,3.743,6.573,5.356,1.1,1.582,3.712.091,2.617-1.521-1.8-2.617-4.2-6.36-7.608-7-2.252-.426-4.047,1.035-5.417,2.647-1.339,1.613-2.556,3.865-4.564,4.778-2.678,1.217-4.169-.609-5.447-2.678-1.582-2.556-3.469-4.534-6.664-4.686-3.226-.183-4.96,2.343-6.421,4.808-1.065,1.8-2.434,3.865-4.747,2.891-1.826-.761-3.165-2.587-4.5-3.956-1.552-1.582-3.5-3.286-5.873-2.8-3.317.669-5.2,4.686-6.512,7.395-.852,1.735,1.765,3.286,2.587,1.521Z" transform="translate(-1075.33 -167.462)"/></g><g transform="translate(-186.63 25.147)"><g transform="translate(20.388)"><path class="i" d="M1079.1,335.01c.822-1.735,2.556-5.751,4.565-5.995a2.518,2.518,0,0,1,1.734.73,21.337,21.337,0,0,1,1.887,1.826c2.83,2.982,7.029,6.634,11.046,3.134,1.917-1.674,2.5-4.686,4.534-6.116,2.282-1.582,4.5.791,5.6,2.556,1.369,2.191,2.8,4.382,5.6,4.717a7.784,7.784,0,0,0,6.6-2.647c1.43-1.491,2.556-3.956,4.412-4.96,2.343-1.278,5.447,3.743,6.573,5.356,1.1,1.582,3.713.091,2.617-1.522-1.8-2.617-4.2-6.36-7.608-7-2.252-.426-4.047,1.035-5.417,2.647-1.339,1.613-2.556,3.865-4.565,4.778-2.678,1.217-4.169-.609-5.447-2.678-1.582-2.556-3.469-4.534-6.664-4.686-3.226-.183-4.96,2.343-6.421,4.808-1.065,1.8-2.434,3.865-4.747,2.891-1.826-.761-3.165-2.587-4.5-3.956-1.552-1.582-3.5-3.286-5.873-2.8-3.317.669-5.2,4.686-6.512,7.395-.852,1.765,1.765,3.286,2.587,1.522Z" transform="translate(-1076.34 -325.015)"/></g><g transform="translate(0 13.176)"><path class="i" d="M1027.043,368.65c.822-1.734,2.556-5.751,4.565-5.995a2.518,2.518,0,0,1,1.734.73,21.342,21.342,0,0,1,1.887,1.826c2.83,2.982,7.029,6.634,11.046,3.134,1.917-1.674,2.5-4.686,4.534-6.116,2.282-1.582,4.5.791,5.6,2.556,1.37,2.191,2.8,4.382,5.6,4.717a7.784,7.784,0,0,0,6.6-2.647c1.43-1.491,2.556-3.956,4.412-4.96,2.343-1.278,5.447,3.743,6.573,5.356,1.1,1.582,3.713.091,2.617-1.521-1.8-2.617-4.2-6.36-7.607-7-2.252-.426-4.047,1.035-5.417,2.647-1.339,1.613-2.556,3.865-4.565,4.778-2.678,1.217-4.169-.609-5.447-2.678-1.582-2.556-3.469-4.534-6.664-4.686-3.226-.183-4.96,2.343-6.421,4.808-1.065,1.8-2.434,3.865-4.747,2.891-1.826-.761-3.165-2.587-4.5-3.956-1.552-1.582-3.5-3.286-5.873-2.8-3.317.669-5.2,4.686-6.512,7.395-.852,1.734,1.765,3.256,2.587,1.521Z" transform="translate(-1024.289 -358.655)"/></g></g><g transform="translate(-29.334 -44.372)"><path class="j" d="M1410.87,147.593c-11.807-.882-31.952,7.881-33.686,25.8-1.552,15.854,3.925,27.57,16.615,34.569,24.953,14.424,58.639-4.808,51.64-35.451-3.926-16.189-20.114-25.379-35.877-24.953" transform="translate(-1376.927 -147.532)"/><path class="k" d="M1460.562,275.8c-3.2,0-3.2,4.93,0,4.93C1463.757,280.756,1463.757,275.8,1460.562,275.8Z" transform="translate(-1426.345 -225.556)"/><path class="k" d="M1416.9,262.434c-3.2,0-3.2,4.93,0,4.93S1420.1,262.434,1416.9,262.434Z" transform="translate(-1399.785 -217.428)"/><path class="k" d="M1462.271,235.553c-3.2,0-3.2,4.93,0,4.93C1465.435,240.483,1465.435,235.553,1462.271,235.553Z" transform="translate(-1427.385 -201.076)"/><path class="k" d="M1423.659,223.744c-3.2,0-3.2,4.93,0,4.93C1426.824,228.674,1426.824,223.744,1423.659,223.744Z" transform="translate(-1403.897 -193.893)"/><path class="k" d="M1403.46,193.523c-3.2,0-3.2,4.93,0,4.93S1406.655,193.523,1403.46,193.523Z" transform="translate(-1391.61 -175.509)"/><path class="k" d="M1458.852,196.864c-3.2,0-3.2,4.93,0,4.93C1462.047,201.824,1462.047,196.864,1458.852,196.864Z" transform="translate(-1425.305 -177.541)"/><path class="k" d="M1438.731,165.012c-3.2,0-3.2,4.93,0,4.93S1441.926,165.012,1438.731,165.012Z" transform="translate(-1413.065 -158.165)"/><path class="k" d="M1474,161.671c-3.2,0-3.2,4.93,0,4.93S1477.2,161.671,1474,161.671Z" transform="translate(-1434.521 -156.133)"/><path class="k" d="M1386.679,243.944c-3.2,0-3.2,4.93,0,4.93S1389.874,243.944,1386.679,243.944Z" transform="translate(-1381.402 -206.18)"/><path class="k" d="M1507.563,212.013c-3.2,0-3.2,4.93,0,4.93S1510.758,212.013,1507.563,212.013Z" transform="translate(-1454.937 -186.757)"/><path class="k" d="M1519.372,180.083c-3.2,0-3.2,4.93,0,4.93C1522.537,185.013,1522.537,180.083,1519.372,180.083Z" transform="translate(-1462.12 -167.333)"/><path class="k" d="M1532.812,242.234c-3.2,0-3.2,4.93,0,4.93C1535.977,247.164,1535.977,242.234,1532.812,242.234Z" transform="translate(-1470.296 -205.14)"/><path class="k" d="M1512.613,267.406c-3.2,0-3.2,4.93,0,4.93S1515.808,267.406,1512.613,267.406Z" transform="translate(-1458.008 -220.452)"/></g><g transform="translate(-308.219 60.504)"><g transform="translate(191.443 6.12)"><g transform="translate(21.663)"><path class="l" d="M1213.373,422.395c-2.191,1.674-1.765,10.438-1.461,11.29,0,0-3.043.609-2.921,1.4.091.791,2.191,2.678,2.191,2.678s-.822,10.559,2.191,10.438a11.558,11.558,0,0,0,4.9-1.126l.943,6.573h15.671l-1.674-7.821s9.1-9.616,9.494-14.424c.426-4.808-4.595-15.124-21.423-13.359A12.219,12.219,0,0,0,1213.373,422.395Z" transform="translate(-1208.988 -414.96)"/><g transform="translate(2.502 13.598)"><g transform="translate(0 1.065)"><path class="k" d="M1215.4,450.792a2.692,2.692,0,0,0,1.309,2.221,1.034,1.034,0,0,0,.609.091c.883-.152,1.491-1.43,1.339-2.86s-1.035-2.465-1.917-2.313a1.094,1.094,0,0,0-.639.335A3.153,3.153,0,0,0,1215.4,450.792Z" transform="translate(-1215.377 -447.917)"/><path class="m" d="M1215.4,451.335a2.692,2.692,0,0,0,1.308,2.221,3.114,3.114,0,0,0,.669-2.526,2.692,2.692,0,0,0-1.308-2.221A3.264,3.264,0,0,0,1215.4,451.335Z" transform="translate(-1215.377 -448.46)"/></g><path class="n" d="M1215.911,445.3a4.182,4.182,0,0,1,3.073.487" transform="translate(-1215.702 -445.199)"/><path class="n" d="M1215.678,470.526a.791.791,0,0,0,.487.274,1.659,1.659,0,0,0,1.309-.183,1.68,1.68,0,0,0,.761-1.065" transform="translate(-1215.56 -460.013)"/></g><g transform="translate(3.29)"><path class="m" d="M1219.548,412.832c-3.56,2.4-2.5,6.147,1.552,5.325,4.078-.822,1.248,8.125,1.248,8.125l-.852,5.082h1.369l2.1-2.982s.213,13.268,2.617,13.876c2.4.639,10.742-.213,10.742-.213s14.819-10.864,9.1-22.457c-5.751-11.594-16.432-6.36-16.432-6.36S1223.383,410.246,1219.548,412.832Z" transform="translate(-1217.388 -411.27)"/><path class="n" d="M1251.1,412.624a14.021,14.021,0,0,1,10.224-1.856" transform="translate(-1237.898 -410.483)"/></g><g transform="translate(9.072 16.503)"><circle class="l" cx="3.226" cy="3.226" r="3.226"/><path class="l" d="M1239.728,456.821a3.1,3.1,0,0,0-3.073,1.369" transform="translate(-1234.889 -455.147)"/><path class="n" d="M1238.13,458.987a1.559,1.559,0,0,1,.67,1.035,1.7,1.7,0,0,1-.274,1.217" transform="translate(-1235.787 -456.492)"/></g></g><g transform="translate(46.649 38.93)"><path class="l" d="M1283.247,509.873a11.852,11.852,0,0,1,7.455,7.668c5.417,17.315,22.4,77.414,22.4,77.414l-11.624,4.838-11.746-38.464-16.95-48.536Z" transform="translate(-1272.78 -509.873)"/><path class="l" d="M1356.637,722.275c1.735,3.652,5.995,15.093,5.143,15.4s-3.713-4.686-3.591-4.686c0,0,3.712,8.642,3.013,8.916-1.187.456-6.269-8.216-6.269-8.216s4.778,9.981,3.956,10.224c-1.887.548-6.421-9.494-6.421-9.494s2.708,7.121,1.765,7.455c-1.552.517-4.352-7.608-4.99-8.764s-.609-.761-.365.578c.244,1.278.7,5.812-.548,5.69-.73-.061-2.678-10.955-2.678-10.955Z" transform="translate(-1317.108 -639.079)"/></g><g transform="translate(0 35.735)"><path class="o" d="M1174.223,538.232c-.7,0-20.54-1.308-20.54-1.308s8.307-23.583,14.789-30.065c4.93-4.93,16.858-5.143,16.858-5.143h16.28l9.677,2.191a15.563,15.563,0,0,1,10.742,8.673l10.012,21.605-17.011,5.386,8.034,39.072h-50.331Z" transform="translate(-1153.682 -501.716)"/><line class="n" x1="4.808" y1="24.04" transform="translate(58.304 22.305)"/><line class="n" y1="15.611" x2="5.264" transform="translate(21.666 20.905)"/><line class="n" y1="2.161" x2="4.595" transform="translate(24.557 25.774)"/><line class="n" y1="4.321" x2="2.83" transform="translate(59.43 23.614)"/></g><g transform="translate(7.834 112.662)"><g transform="translate(0 26.17)"><path class="p" d="M1213.333,991.778l-3.2.456a1.2,1.2,0,0,0-.974,1.521l1.217,4.017,2.952-.822Z" transform="translate(-1195.241 -902.922)"/><path class="l" d="M1214.028,862.972h15.4l-1.582-98.046h-15.428Z" transform="translate(-1197.244 -764.926)"/><path class="p" d="M1175.513,1013.571h36.7a1.1,1.1,0,0,0,1.1-1.187,28.582,28.582,0,0,0-2.586-8.977h0a44.384,44.384,0,0,0-3.013-5.66,11.723,11.723,0,0,0-12.933,4.2l-3.226-1.552s-7.547,3.165-11.2,6.025A15.548,15.548,0,0,0,1175.513,1013.571Z" transform="translate(-1174.796 -906.245)"/><path class="k" d="M1235.333,998.448l1.521,3.256a2.956,2.956,0,0,0,2.678,1.7h7.577a44.4,44.4,0,0,0-3.013-5.66A12.182,12.182,0,0,0,1235.333,998.448Z" transform="translate(-1211.186 -906.245)"/><path class="k" d="M1176.378,1028.37h35.116a.754.754,0,0,1,.761.761v2.282a1.091,1.091,0,0,1-1.1,1.1h-36.3a1.171,1.171,0,0,1-.974-1.826l.974-1.491A1.89,1.89,0,0,1,1176.378,1028.37Z" transform="translate(-1173.683 -925.181)"/><path class="n" d="M1207.041,1007.464a1.267,1.267,0,0,0-1.308.061,2.64,2.64,0,0,0-.883,1.035,5.914,5.914,0,0,0-.669,2.678" transform="translate(-1192.235 -912.37)"/><path class="n" d="M1200.367,1008.715a5.447,5.447,0,0,0-1.674,1,3.759,3.759,0,0,0-.822,2.769" transform="translate(-1188.391 -913.225)"/></g><g transform="translate(38.585 24.192)"><path class="p" d="M1311.766,991.778l-3.2.456a1.2,1.2,0,0,0-.974,1.521l1.217,4.017,2.952-.822Z" transform="translate(-1293.704 -900.944)"/><path class="l" d="M1293.6,859.9h15.428l-13.754-100.024h-15.428Z" transform="translate(-1276.85 -759.877)"/><path class="p" d="M1273.945,1013.571h36.7a1.1,1.1,0,0,0,1.1-1.187,28.585,28.585,0,0,0-2.587-8.977h0a44.394,44.394,0,0,0-3.013-5.66,11.723,11.723,0,0,0-12.933,4.2l-3.226-1.552s-7.547,3.165-11.2,6.025A15.549,15.549,0,0,0,1273.945,1013.571Z" transform="translate(-1273.259 -904.267)"/><path class="k" d="M1333.843,998.448l1.521,3.256a2.956,2.956,0,0,0,2.678,1.7h7.577a44.4,44.4,0,0,0-3.013-5.66A12.194,12.194,0,0,0,1333.843,998.448Z" transform="translate(-1309.695 -904.267)"/><path class="k" d="M1274.857,1028.37H1310a.753.753,0,0,1,.761.761v2.282a1.091,1.091,0,0,1-1.1,1.1h-36.3a1.171,1.171,0,0,1-.974-1.826l.974-1.491A1.793,1.793,0,0,1,1274.857,1028.37Z" transform="translate(-1272.193 -923.203)"/><path class="n" d="M1305.473,1007.464a1.267,1.267,0,0,0-1.308.061,2.638,2.638,0,0,0-.882,1.035,5.913,5.913,0,0,0-.67,2.678" transform="translate(-1290.697 -910.392)"/><path class="n" d="M1298.8,1008.715a5.447,5.447,0,0,0-1.674,1,3.759,3.759,0,0,0-.822,2.769" transform="translate(-1286.854 -911.247)"/></g><path class="q" d="M1202.393,698.114l.669,35.39h21.97L1226.1,708l4.473,24.831h22.062l-4.717-34.721Z" transform="translate(-1191.148 -698.114)"/><line class="r" y2="30.339" transform="translate(15.993 4.382)"/></g></g><g transform="translate(0 49.188)"><path class="s" d="M668.125,715.361c-1.43,4.686-4.017,12.111-2.952,12.324s4.321-5.508,4.169-5.447c-.152.03-3.621,10.224-2.708,10.407,1.522.335,6.421-10.59,6.421-10.59s-4.291,12.446-3.256,12.568c2.343.3,6.542-12.294,6.542-12.294s-2.526,8.825-1.339,9.007c1.948.335,3.834-9.859,4.412-11.35s.578-1,.517.609c-.061,1.582.213,7.06,1.674,6.695.852-.213,1.339-11.929,1.339-11.929Z" transform="translate(-664.922 -639.011)"/><path class="s" d="M707.362,520.439l-19.475,76.349H673.1l19.475-76.349Z" transform="translate(-669.896 -520.439)"/><path class="n" d="M694.453,709.79a5.042,5.042,0,0,1,.487-6.238" transform="translate(-682.365 -631.828)"/><g transform="translate(12.423 35.664)"><g transform="translate(39.346 139.978)"><path class="t" d="M849.374,991.778l3.2.456a1.2,1.2,0,0,1,.974,1.521l-1.217,4.017-2.952-.822Z" transform="translate(-828.895 -982.801)"/><path class="s" d="M825.477,987.027H810.049l-2.161-18.167h15.4Z" transform="translate(-803.659 -968.86)"/><path class="t" d="M835.109,1013.571h-36.7a1.1,1.1,0,0,1-1.1-1.187,28.587,28.587,0,0,1,2.587-8.977h0a44.389,44.389,0,0,1,3.013-5.66,11.723,11.723,0,0,1,12.933,4.2l3.226-1.552s7.547,3.165,11.2,6.025A15.548,15.548,0,0,1,835.109,1013.571Z" transform="translate(-797.224 -986.123)"/><path class="k" d="M815.625,998.448,814.1,1001.7a2.956,2.956,0,0,1-2.678,1.7h-7.577a44.392,44.392,0,0,1,3.013-5.66A12.194,12.194,0,0,1,815.625,998.448Z" transform="translate(-801.201 -986.123)"/><path class="k" d="M833,1028.37H797.85a.753.753,0,0,0-.761.761v2.282a1.091,1.091,0,0,0,1.1,1.1h36.3a1.171,1.171,0,0,0,.974-1.826l-.974-1.491A1.793,1.793,0,0,0,833,1028.37Z" transform="translate(-797.09 -1005.06)"/><path class="n" d="M857.842,1007.464a1.267,1.267,0,0,1,1.308.061,2.64,2.64,0,0,1,.883,1.035,5.915,5.915,0,0,1,.669,2.678" transform="translate(-834.046 -992.249)"/><path class="n" d="M865.067,1008.715a5.45,5.45,0,0,1,1.674,1,3.759,3.759,0,0,1,.822,2.769" transform="translate(-838.441 -993.104)"/></g><g transform="translate(4.412 139.522)"><rect class="s" width="16.158" height="18.167" transform="translate(5.66)"/><path class="t" d="M745.845,1012.328h-36.7a1.1,1.1,0,0,1-1.1-1.187,28.588,28.588,0,0,1,2.587-8.977h0a44.383,44.383,0,0,1,3.013-5.66,11.724,11.724,0,0,1,12.933,4.2l3.226-1.552s7.547,3.165,11.2,6.025A15.7,15.7,0,0,1,745.845,1012.328Z" transform="translate(-707.99 -984.911)"/><path class="t" d="M763.606,990.846l1.826.3a1.263,1.263,0,0,1,1,1.613l-1.187,3.956-1.613-.7v-5.173Z" transform="translate(-741.787 -981.778)"/><path class="k" d="M726.438,997.2l-1.521,3.256a2.956,2.956,0,0,1-2.678,1.7h-7.577a44.388,44.388,0,0,1,3.013-5.66A12.182,12.182,0,0,1,726.438,997.2Z" transform="translate(-712.014 -984.911)"/><path class="k" d="M743.81,1027.2H708.663a.754.754,0,0,0-.761.761v2.282a1.091,1.091,0,0,0,1.1,1.1h36.3a1.171,1.171,0,0,0,.974-1.826l-.974-1.491A1.761,1.761,0,0,0,743.81,1027.2Z" transform="translate(-707.902 -1003.895)"/><path class="n" d="M768.655,1006.221a1.267,1.267,0,0,1,1.308.061,2.638,2.638,0,0,1,.883,1.035,5.913,5.913,0,0,1,.669,2.678" transform="translate(-744.859 -991.036)"/><path class="n" d="M775.8,1007.549a5.449,5.449,0,0,1,1.674,1,3.758,3.758,0,0,1,.822,2.769" transform="translate(-749.207 -991.939)"/></g><path class="u" d="M706.284,655.229c-1.917,12.355-9.646,128.932-9.646,128.932h35.329l-4.138-128.932Z" transform="translate(-696.638 -638.097)"/><path class="u" d="M758.738,611.49c5.538,19.6,23.918,146.065,23.918,146.065H746.87l-5.934-117.4-19.749-11.533s1.187-12.781,10.5-17.132Z" transform="translate(-711.572 -611.49)"/><path class="n" d="M746.126,669.757l10.012,5.812,5.9,117.43" transform="translate(-726.742 -646.935)"/><line class="r" x2="18.41" y2="138.122" transform="translate(46.041 4.991)"/><line class="v" x2="30.643" transform="translate(15.976 2.921)"/></g></g><g transform="translate(128.972 15.298)"><g transform="translate(0 33.586)"><path class="s" d="M997.781,623.532c-.487,4.869-4.473,65.577-3.408,65.577,1.1,0,3.2-6.238,3.043-6.147-.122.061-1.582,10.711-.669,10.742,1.552.03,4.26-11.624,4.26-11.624s-1.826,13.024-.791,12.963c2.343-.152,4.047-13.328,4.047-13.328s-.791,9.129.4,9.1c1.948-.03,1.856-10.437,2.13-11.989.274-1.582.4-1.1.639.517.243,1.582,1.582,6.877,2.921,6.238.791-.365,1.491-61.225,1.491-61.225Z" transform="translate(-994.193 -582.847)"/><path class="q" d="M1021.2,519.662c-6.634,2.221-14.3,2.069-18.319,15.276-3.134,10.285-2.891,2.556-4.473,21.118a8.34,8.34,0,0,0,7.851,9.038l10.164.426,2.343-30.582h16.4V519.662Z" transform="translate(-996.741 -519.662)"/></g><g transform="translate(1.002 92.377)"><g transform="translate(39.042 19.475)"><path class="k" d="M1115.87,835.326h-15.4l-4.047-113.474,20.966-2.374Z" transform="translate(-1096.425 -719.478)"/><path class="w" d="M1125.227,997.893c-4.565-3.408-8-11.32-8-11.32h-.274l-.274,2.343a1.35,1.35,0,0,1-2.434.639h0a7.222,7.222,0,0,0-5.812-2.982h-7.942c.03.091-3.226,9.19-2.4,18.471h31.708C1132.135,1005.014,1129.792,1001.271,1125.227,997.893Z" transform="translate(-1097.353 -881.954)"/><path class="k" d="M1130.705,1028.37h-32.8v4.139h33.534Z" transform="translate(-1097.323 -907.38)"/></g><g transform="translate(0 19.475)"><path class="k" d="M1033.73,835.326h15.428l6.938-113.474-21.727-2.374Z" transform="translate(-1019.246 -719.478)"/><path class="w" d="M1004.234,997.893c4.565-3.408,8-11.32,8-11.32h.274l.274,2.343a1.35,1.35,0,0,0,2.434.639h0a7.222,7.222,0,0,1,5.812-2.982h7.942c-.03.091,3.226,9.19,2.4,18.471H999.67C997.327,1005.014,999.67,1001.271,1004.234,997.893Z" transform="translate(-997.966 -881.954)"/><path class="k" d="M997.481,1028.37h32.8v4.139H996.75Z" transform="translate(-996.75 -907.38)"/></g><path class="x" d="M1065.822,669.757c7.242,16.1,11.229,120.838,11.229,120.838s-32.469,1.978-32.469,1.126c.03-.852,2.587-106.475,2.587-106.475l-2.587,106.475-29.73-1.126s.061-92.568,12.2-120.412Z" transform="translate(-1007.762 -669.757)"/><path class="n" d="M1073.252,825.653V725.538l-11.32.365" transform="translate(-1036.401 -703.689)"/><line class="n" y1="0.852" x2="9.92" transform="translate(36.851 20.997)"/></g><g transform="translate(10.678)"><path class="s" d="M1175.33,608.329c4.9,0,42.024-38.525,41.2-39.255s-6.512,2.556-6.36,2.587,8.307-6.969,7.607-7.608c-1.126-1.035-10.894,5.873-10.894,5.873s10.012-8.551,9.19-9.19c-1.856-1.461-11.868,7.273-11.868,7.273s6.634-6.329,5.721-7.09c-1.491-1.278-8.307,6.573-9.555,7.577s-1,.578-.122-.791c.852-1.339,3.378-6.208,1.948-6.634-.852-.243-36.09,36.79-36.09,36.79S1165.745,608.329,1175.33,608.329Z" transform="translate(-1109.449 -510.962)"/><path class="q" d="M1070.083,592.938l-48.627-7.638,8.673-61.986h38.22l7.212,64.329A4.8,4.8,0,0,1,1070.083,592.938Z" transform="translate(-1021.456 -488.297)"/><path class="q" d="M1118.5,547.353l12.111,8.612s-5.782-23.766-8.125-27.691c-2.374-3.9-2.891-5.538-7.607-6.969-4.717-1.461-14.637-1.643-24.009-1.643l-.974,26.687h20.084l9.738,27.265c-.822-1.156-.548-3.986,3.013-5.569l3.408-4.169a4.154,4.154,0,0,0,1.217-6.421Z" transform="translate(-1063.091 -486.076)"/><path class="y" d="M1078.211,463.211c-.548-8-8.216-13.389-8.764-18.41-.517-5.021-3.317-10.864-10.316-10.864,0,0-6.421-.609-9.586,4.656s-.213,8.794-5.021,15.276-6.056,15.611-6.056,15.611c1.582.913,10.894,6.147,20.084,5.873,9.859-.274,19.627-6.086,19.627-6.086S1078.546,468.293,1078.211,463.211Z" transform="translate(-1031.805 -433.916)"/><path class="z" d="M1035.444,474.084a8.251,8.251,0,0,1,1.613-6.938,26.729,26.729,0,0,1,3.5-3.2c3.591-3.073,6.269-7.395,6.542-12.111" transform="translate(-1029.844 -444.819)"/><path class="z" d="M1113.051,452.228a10.155,10.155,0,0,0,3.682,7c1.369,1.1,2.982,1.826,4.26,3.013a7.7,7.7,0,0,1,2.343,4.717" transform="translate(-1077.174 -445.055)"/><path class="r" d="M1063.331,465.668c.365,4.138-1.521,8.094-3.226,11.9s-3.256,8-2.16,12.02" transform="translate(-1043.429 -453.231)"/><path class="r" d="M1105.358,479.419c-.061,3.073,1.7,5.812,3.2,8.49,1.521,2.678,2.86,5.751,2.008,8.7" transform="translate(-1072.493 -461.596)"/></g></g><g transform="translate(143.91 41.855)"><path class="l" d="M1053.876,652.256c-3.956.822-16.067,2.313-16.158,1.4-.091-.883,5.417-2.5,5.386-2.4,0,0-9.281,1.582-9.373.852-.152-1.278,9.464-4.2,9.464-4.2s-10.833,2.313-10.863,1.461c-.091-1.948,10.711-4.017,10.711-4.017s-7.577.974-7.668,0c-.152-1.613,8.4-2.434,9.677-2.8s.882-.426-.487-.487c-1.309-.061-5.812-.7-5.386-1.856.244-.7,11.259-.03,11.259-.03Z" transform="translate(-1032.331 -585.766)"/><path class="l" d="M1136.15,501.716c-.943.243-7.729,2.678-12.689,4.443a13.178,13.178,0,0,0-7.516,7l-10.255,33.534-32.8,9.312,2.769,12.75,33.108-5.995a16.165,16.165,0,0,0,11.746-9.038l10.985-31.1Z" transform="translate(-1057.001 -501.716)"/><path class="k" d="M1085.5,649.283l-2.891.73-1.491-15.185,3.073-.73Z" transform="translate(-1062.01 -582.245)"/><path class="o" d="M1174.223,538.232c-.7,0-20.54-1.308-20.54-1.308s8.307-23.583,14.789-30.065c4.93-4.93,16.858-5.143,16.858-5.143l-3.408,35.847Z" transform="translate(-1106.15 -501.716)"/></g><g transform="translate(60.38)"><g transform="translate(38.251 2.721)"><path class="s" d="M932.1,401.808c2.434,1.613,2.708,5.995,1.8,10.711,0,0,2.161,3.378,1.887,4.352s-2.952,1.826-2.952,1.826.913,8.855-2.343,8.764l-3.226-.091v2.617H916.731l1.187-7.577,1.065-20.571H932.1Z" transform="translate(-916.731 -401.808)"/><g transform="translate(12.926 7.151)"><path class="n" d="M951.458,443.294a2,2,0,0,0,.761,1.156,1.019,1.019,0,0,0,1.126.183" transform="translate(-950.782 -434.195)"/><path class="n" d="M949.826,421.708a7.619,7.619,0,0,1,3.956-1.643" transform="translate(-949.789 -420.065)"/><g transform="translate(0 1.659)"><path class="k" d="M953.725,427.175a2.686,2.686,0,0,1-1.613,2.221,1.517,1.517,0,0,1-.73.091,2.348,2.348,0,0,1-1.613-2.86c.182-1.43,1.248-2.465,2.343-2.313a1.532,1.532,0,0,1,.791.335A2.737,2.737,0,0,1,953.725,427.175Z" transform="translate(-949.732 -424.3)"/><path class="m" d="M956.089,427.718a1.516,1.516,0,1,1-2.434-.3,1.514,1.514,0,1,1,2.434.3Z" transform="translate(-952.096 -424.842)"/></g></g></g><g transform="translate(50.575 232.834)"><path class="m" d="M948.894,989.9l1.187,18.836s29.822.548,29.822,0-1.7-8.4-8.825-11.046c-2.5-.913-4.808-4.108-4.808-4.108l-2.13-4.291-14.272.517" transform="translate(-948.62 -989.292)"/><path class="k" d="M979.812,1033.508H948.195l.73-3.895h30.156Z" transform="translate(-948.195 -1013.82)"/><path class="r" d="M1009.958,1015.473a11.092,11.092,0,0,1,3.439,2.952" transform="translate(-985.766 -1005.218)"/></g><g transform="translate(0 41.55)"><path class="w" d="M819.076,588.212h18.167l13.541-87.273h-18.2Z" transform="translate(-819.076 -500.939)"/><path class="s" d="M823.886,717.522c-.487,4.869-1.643,12.659-.548,12.659s3.2-6.238,3.043-6.147c-.122.061-1.582,10.711-.669,10.742,1.552.03,4.26-11.624,4.26-11.624s-1.826,13.024-.791,12.963c2.343-.152,4.047-13.328,4.047-13.328s-.791,9.129.4,9.1c1.948-.03,1.856-10.438,2.13-11.99.274-1.582.4-1.1.639.517.243,1.582,1.582,6.877,2.921,6.238.791-.365-.974-11.99-.974-11.99Z" transform="translate(-821.391 -630.948)"/><path class="k" d="M840.924,694.851l-3.682,11.32H819.076l1.217-7.912Z" transform="translate(-819.076 -618.897)"/></g><g transform="translate(17.649 232.804)"><path class="m" d="M869.6,989.854l-1.735,18.836s29.822.548,29.822,0-1.7-8.4-8.825-11.046c-2.5-.913-3.53-4.443-3.53-4.443l-.517-3.986-14.272.517" transform="translate(-866.404 -989.215)"/><path class="k" d="M895.752,1033.508H864.135l.73-3.895h30.156Z" transform="translate(-864.135 -1013.789)"/><path class="r" d="M925.9,1015.473a11.09,11.09,0,0,1,3.439,2.952" transform="translate(-901.706 -1005.188)"/></g><path class="m" d="M910.287,639.932c1.522,12.2,6.877,137.209,6.877,137.209h-20.6l-7.425-114.478-3.256,114.478H865.067l1-137.6Z" transform="translate(-847.053 -543.699)"/><g transform="translate(13.472 27.887)"><path class="k" d="M907.662,645.137l-47.38,17.741-.73-18.136Z" transform="translate(-857.17 -574.752)"/><path class="w" d="M875.358,466.057l13.359,1.43.883,3.591,23.37,9.4-12.811,12.537,5.995,45.584-50.879-.426s-2.647-11.046.639-21.666c3.286-10.59,3.073-25.166,3.073-25.166l-5.021-9.159a3.968,3.968,0,0,1,2.16-5.66l18.471-6.512Z" transform="translate(-853.471 -466.057)"/><path class="n" d="M856.51,577.37s-2.647-11.046.639-21.666c3.286-10.59,3.073-25.166,3.073-25.166" transform="translate(-854.706 -505.282)"/></g><g transform="translate(27.386)"><path class="m" d="M920.237,399.011c-2.617-4.686-16.524-5.934-21.484-.974-4.991,4.991-4.534,20.905-.791,20.905h6.086c2.556,0,8.186.761,8.7-5.173.365-4.382.639-5.934.639-5.934Z" transform="translate(-892.697 -394.86)"/><rect class="k" width="6.451" height="2.617" transform="translate(5.661 24.114)"/><path class="m" d="M942.8,417.113l-.365,7.516h-.852l-1.156-4.991Z" transform="translate(-920.28 -408.396)"/><path class="n" d="M950.537,405.459a7.057,7.057,0,0,1-.061,1.8,4.857,4.857,0,0,1-.761,1.765A9.85,9.85,0,0,1,945.942,412" transform="translate(-923.635 -401.307)"/><path class="n" d="M894.2,406.081c-.73,1.369-1.674,2.587-2.5,3.9a19,19,0,0,0-2.465,6.421,9.7,9.7,0,0,0,.426,5.812,5.2,5.2,0,0,0,4.686,3.165" transform="translate(-888.993 -401.686)"/><path class="m" d="M898.063,463.027c-2.587,1.369-5.082,7.273-2.13,10.924a6.293,6.293,0,0,0,2.8,2.039,6.391,6.391,0,0,0,7.7-3.347c1.1-2.161,1.339-5.356-1.948-9.616Z" transform="translate(-892.402 -436.326)"/><path class="n" d="M895.881,463.726a10.422,10.422,0,0,0-4.321,8.338,6.516,6.516,0,0,0,.3,2.161,5.433,5.433,0,0,0,1.978,2.739" transform="translate(-890.554 -436.752)"/><g transform="translate(15.399 12.429)"><circle class="s" cx="3.378" cy="3.378" r="3.378"/><path class="n" d="M932.735,431.014a3.124,3.124,0,0,1,3.2,1.43" transform="translate(-931 -429.249)"/><path class="n" d="M938.2,433.272a1.587,1.587,0,0,0-.7,1.1,1.738,1.738,0,0,0,.274,1.278" transform="translate(-933.883 -430.655)"/></g></g><g transform="translate(56.417 42.311)"><path class="s" d="M1074.788,578.369c4.747-1.217,20.266-7.668,19.9-8.673-.365-1.035-7.242.152-7.121.243,0,0,10.924-3.2,10.62-4.047-.517-1.461-12.476.487-12.476.487s12.963-3.256,12.568-4.2c-.943-2.161-13.785,1.339-13.785,1.339s8.734-2.982,8.307-4.078c-.7-1.826-10.438,1.826-12.02,2.1s-1.156,0,.274-.761c1.4-.761,5.934-3.834,4.869-4.9-.609-.609-12.263,5.964-12.263,5.964Z" transform="translate(-1030.36 -535.097)"/><path class="w" d="M979.665,502.881c2.617,9.555,9.8,34.812,9.8,34.812l22.153-11.624,1.339,19.384L989.95,557.016a11.471,11.471,0,0,1-15.276-7.09L963.111,514.84Z" transform="translate(-963.111 -502.881)"/><path class="k" d="M1076.363,562s-6.177,2.647-6.695,2.86.791,21.24.791,21.24l7.242-4.686Z" transform="translate(-1027.857 -538.845)"/></g></g><g transform="translate(12.423 8.834)"><path class="s" d="M772.018,603.976H745l-1.978-4.838h30.461Z" transform="translate(-724.851 -527.958)"/><g transform="translate(76.258 30.762)"><path class="s" d="M899.664,520.391l30.491-18.654,1.369-5.356,1.643.883a2.027,2.027,0,0,1,2.252-1.309c1.856.152,6.238,1,6.634,3.073.4,2.039.669,8.46,0,10.042-.669,1.552-17.345,13.054-24.253,18.714a116.364,116.364,0,0,1-14.941,9.707,7.787,7.787,0,0,1-7.273.183l-4.26-2.1Z" transform="translate(-891.326 -495.948)"/><g transform="translate(34.599 6.55)"><path class="k" d="M984.923,528.859l-5.264-15,2.13-1.187,5.143,14.7Z" transform="translate(-979.659 -512.67)"/></g><g transform="translate(31.86 8.376)"><path class="k" d="M975.375,536.411l-2.708-18.228,1.917-.852,2.617,17.893Z" transform="translate(-972.667 -517.331)"/></g></g><g transform="translate(0 27.848)"><path class="x" d="M755.824,492.952a17.2,17.2,0,0,0-11.533-4.443H715.6l-.122.122a11.156,11.156,0,0,0-8.977,7.912l-9.859,33.96,17.832-.152c.061.274.335,1.461.335,1.461h30.4l4.443-16.1,23.766,22.457,7.82-22.305Z" transform="translate(-696.638 -488.509)"/><line class="n" x1="5.204" y1="21.271" transform="translate(12.629 20.571)"/><path class="n" d="M814.181,543.908l7,3.073c-6.208-6.056-7-7.121-7-7.121" transform="translate(-768.14 -519.747)"/></g><g transform="translate(6.086)"><path class="s" d="M792.825,433.586c-.152-.882-1.948-.335-1.948-.335a9.79,9.79,0,0,0-1.035-8.46,5.655,5.655,0,0,0-2.465-2.008,31.23,31.23,0,0,0-3.439.243h0c-3.743.487-9.464,1.917-10.924,6.177-1.065,3.043-.183,6.3,1.065,8.855h-2.13l-4.382,13.389H778.34l2.13-6.573a14.758,14.758,0,0,0,5.051,1.369c4.717.4,4.595-9.677,4.595-9.677S792.977,434.469,792.825,433.586Z" transform="translate(-745.871 -420.68)"/><path class="m" d="M752.693,418.847a16.379,16.379,0,0,1-3.56,5.356c-2.343,2.191-2.4,8.52-2.4,8.52a19.683,19.683,0,0,1-6.36,14.211,21.038,21.038,0,0,0-2.769,3.226,20.35,20.35,0,0,0-1.4,2.313,30.53,30.53,0,0,0-3.286,10.894s-19.688-.243-19.78,0-.152-2.191,2.1-10.985c.03-.152.091-.3.122-.426a13.49,13.49,0,0,1,3.713-6.086c3.621-3.53,8.581-5.082,10.955-7.638,2.1-2.252,2.069-5.417,2.678-8.977a17.174,17.174,0,0,1,2.526-6.847c.122-.183.274-.4.4-.578C740.186,415.53,748.555,417.386,752.693,418.847Z" transform="translate(-712.738 -417.412)"/><path class="aa" d="M777.35,436.862c-1.856.517-3.682-1.187-5.6-.974a6.776,6.776,0,0,0-3.226,1.765c-1,.73-2.252,1.4-3.408,1a6.65,6.65,0,0,1-1.978-1.491,17.175,17.175,0,0,1,2.526-6.847c.061.03.152.061.213.091.669.365.883,1.187,1.126,1.887s.669,1.491,1.43,1.582a2.436,2.436,0,0,0,1.7-.852c1.065-.882,2.617-1.491,3.773-.761a4.436,4.436,0,0,1,1.521,2.465C775.8,435.645,776.377,436.649,777.35,436.862Z" transform="translate(-743.177 -425.264)"/><path class="n" d="M741.145,422.594c-2.526-.578-5.173.974-6.664,3.073-1.522,2.1-2.161,4.686-2.83,7.212s-1.4,5.082-3.013,7.09c-3.043,3.743-8.49,4.656-11.868,8.094-2.587,2.617-3.621,6.329-4.6,9.859" transform="translate(-712.175 -420.49)"/><path class="n" d="M782.146,461.4c.152,4.625-2.4,8.855-4.93,12.75s-5.143,8.064-5.143,12.689" transform="translate(-748.612 -444.167)"/><g transform="translate(28.483 9.651)"><circle class="s" cx="3.499" cy="3.499" r="3.499"/><path class="n" d="M789.476,446.629a3.178,3.178,0,0,1,3.286,1.491" transform="translate(-787.681 -444.804)"/><path class="n" d="M795.132,448.965a1.886,1.886,0,0,0-.73,1.126,1.669,1.669,0,0,0,.3,1.308" transform="translate(-790.659 -446.257)"/></g><path class="m" d="M792.623,421.791h0l-1.552-.639-.791.791c-.335.03-1.613,1.8-1.613,1.8a19.318,19.318,0,0,0-2.982,4.656c-1.552,3.652-.578,8.612-.639,13.085s-1.887,6.755-5.2,11.624-3.652,12.6-3.652,12.6h4.778c-1.217-6.208,4.078-14.88,6.025-19.019s.4-11.959.4-15.033a7.385,7.385,0,0,1,.274-1.978,23.463,23.463,0,0,0,3.986-1.1c2.617-.974,3.439-4.747,3.439-4.747A5.331,5.331,0,0,0,792.623,421.791Z" transform="translate(-751.117 -419.687)"/><g transform="translate(27.874 15.798)"><path class="k" d="M792.772,462.43a4.717,4.717,0,0,1-9.433,0,4.769,4.769,0,0,1,2.587-4.2,2.726,2.726,0,0,0,.7.243.03.03,0,0,0-.03.03,4.235,4.235,0,1,0,2.252-.183h0a3.088,3.088,0,0,0-.761-.061.24.24,0,0,1-.243-.243.268.268,0,0,1,.243-.274,5.409,5.409,0,0,1,1.43.213A4.736,4.736,0,0,1,792.772,462.43Z" transform="translate(-783.339 -457.744)"/></g><g transform="translate(39.681 8.235)"><path class="n" d="M813.482,439.061a7.227,7.227,0,0,1,4.443-.456" transform="translate(-813.482 -438.437)"/><path class="n" d="M817.444,460a1.4,1.4,0,0,0,.669,1.065,1.359,1.359,0,0,0,1.278.03" transform="translate(-815.892 -451.552)"/><g transform="translate(0.267 1.553)"><path class="k" d="M818.157,445.276a2.686,2.686,0,0,1-1.613,2.221,1.517,1.517,0,0,1-.73.091,2.348,2.348,0,0,1-1.613-2.86c.182-1.43,1.248-2.465,2.343-2.313a1.532,1.532,0,0,1,.791.335A2.683,2.683,0,0,1,818.157,445.276Z" transform="translate(-814.164 -442.401)"/><path class="m" d="M820.521,445.819a1.516,1.516,0,1,1-2.434-.3,2.659,2.659,0,0,1,1.582-2.221A2.625,2.625,0,0,1,820.521,445.819Z" transform="translate(-816.528 -442.944)"/></g></g></g></g></g></g><g transform="translate(30.676 81.316)"><g transform="translate(0 0)"><path class="ab" d="M285.17,245.459a39.006,39.006,0,0,0,1.057-9.158,39.9,39.9,0,0,0-79.807,0,39.319,39.319,0,0,0,1.057,9.158Z" transform="translate(-188.506 -170.798)"/><path class="ab" d="M263.21,160.383v12.278c0,4.629,7.2,4.629,7.2,0V160.383C270.406,155.7,263.21,155.7,263.21,160.383Z" transform="translate(-208.513 -156.874)"/><path class="ab" d="M214.57,193.573l-.352-.352h0l-5.787-5.787c-3.271-3.271-8.4,1.812-5.082,5.082l5.787,5.787h0l.352.352C212.759,201.926,217.841,196.843,214.57,193.573Z" transform="translate(-187.045 -167.268)"/><path class="ab" d="M317,181.518l-6.743,6.743c-3.271,3.271,1.811,8.4,5.082,5.082l6.743-6.743C325.406,183.33,320.324,178.2,317,181.518Z" transform="translate(-224.717 -165.177)"/><path class="ab" d="M346.728,222.035h-7.1c-4.629,0-4.629,7.2,0,7.2h7.1C351.357,229.231,351.357,222.035,346.728,222.035Z" transform="translate(-234.213 -179.83)"/><path class="ab" d="M189.33,222.035h-7.1c-4.629,0-4.629,7.2,0,7.2h7.1C193.959,229.231,193.959,222.035,189.33,222.035Z" transform="translate(-178.762 -179.83)"/></g><g transform="translate(6.327 103.023)"><path class="y" d="M188.695,361.182c2.516,5.585,5.485,11.221,12.53,10.919,5.032-.2,8.152-3.623,11.171-7.246,1.107-1.359,2.466-3.12,4.277-3.472,2.717-.553,5.736,2.063,7.548,3.774,2.013,1.912,3.673,4.277,6.29,5.384a10.89,10.89,0,0,0,8.6-.3c4.881-2.264,5.384-8.856,10.919-10.165,4.277-1.006,7.4,2.919,10.014,5.636,2.617,2.768,5.736,5.736,9.863,5.535,5.585-.252,10.114-5.435,14.039-8.856,2.063-1.811,3.824-2.617,6.391-1.157,3.573,2.063,6.139,5.535,9.812,7.447,2.717,1.409,5.837,2.164,8.806,1.157,3.522-1.208,5.686-4.478,7.246-7.7.855-1.812-1.862-3.422-2.717-1.56-1.359,2.919-3.371,6.34-6.994,6.642-3.271.252-6.491-2.013-8.856-4.076-3.472-3.069-7.95-7.7-12.982-5.082-4.78,2.516-7.7,7.7-12.932,9.661-3.925,1.51-6.944-1.61-9.41-4.227-2.617-2.717-5.384-5.887-9.259-6.592-4.529-.805-8.655,1.962-11.02,5.636-1.51,2.365-2.667,4.579-5.585,5.284-3.472.855-5.736-.553-8.051-2.969-3.12-3.271-7.85-7.85-12.882-6.441-4.327,1.208-6.189,6.189-9.561,8.705a8.305,8.305,0,0,1-8.957.906c-2.969-1.711-4.227-5.535-5.585-8.454-.855-1.812-3.573-.252-2.717,1.61Z" transform="translate(-188.53 -356.765)"/></g><rect class="ac" width="231.671" height="65.868" transform="translate(5.535 61.649)"/><text class="ad" transform="translate(6.044 88.873)"><tspan x="0" y="0">Your Safe Space</tspan></text></g></g></svg>