<svg xmlns="http://www.w3.org/2000/svg" width="100.766" height="100.862" viewBox="0 0 100.766 100.862"><defs><style>.a{fill:#5e5e5e;}.b,.c,.d{stroke:none;}.c{fill:snow;}.d{fill:#626262;}</style></defs><g transform="translate(-290 -981.628)"><g class="a" transform="translate(332 1006.628)"><path class="b" d="M 15.32173156738281 20.69067764282227 L 1.094411730766296 20.69067764282227 C -0.3361482918262482 20.69067764282227 -1.499998331069946 19.52682685852051 -1.499998331069946 18.09626770019531 L -1.499998331069946 -9.961493492126465 C -1.499998331069946 -10.37814331054688 -1.441058278083801 -10.69615268707275 -0.1754682958126068 -12.85588264465332 C 0.547271728515625 -14.08922290802002 1.486451745033264 -15.60774326324463 2.401281595230103 -17.02207374572754 C 3.145291805267334 -18.17233276367188 4.235851764678955 -19.81443214416504 5.206111907958984 -21.10526275634766 C 6.585591793060303 -22.94048309326172 7.268931865692139 -23.50000381469727 8.13081169128418 -23.50000381469727 C 8.864901542663574 -23.50000381469727 9.405511856079102 -23.04080390930176 9.880361557006836 -22.54458236694336 C 10.2098913192749 -22.20022392272949 10.5996618270874 -21.73274230957031 11.07194137573242 -21.11542320251465 C 12.05995178222656 -19.82401275634766 13.17152214050293 -18.18294334411621 13.93003177642822 -17.03366279602051 C 14.86502170562744 -15.61698341369629 15.82375144958496 -14.09860324859619 16.56038093566895 -12.86784267425537 C 17.85581207275391 -10.70344352722168 17.91614151000977 -10.38279342651367 17.91614151000977 -9.961493492126465 L 17.91614151000977 18.09626770019531 C 17.91614151000977 19.52682685852051 16.75229263305664 20.69067764282227 15.32173156738281 20.69067764282227 Z"/><path class="c" d="M 8.13081169128418 -22.00000381469727 C 7.05178165435791 -22.00000381469727 1.9073486328125e-06 -10.5659236907959 1.9073486328125e-06 -9.961492538452148 L 1.9073486328125e-06 18.09626770019531 C 1.9073486328125e-06 18.70068740844727 0.4899816513061523 19.19067764282227 1.094411849975586 19.19067764282227 L 15.32173156738281 19.19067764282227 C 15.92616176605225 19.19067764282227 16.41614151000977 18.70068740844727 16.41614151000977 18.09626770019531 L 16.41614151000977 -9.961492538452148 C 16.41614151000977 -10.5659236907959 9.209841728210449 -22.00000381469727 8.13081169128418 -22.00000381469727 M 8.13081169128418 -25.00000381469727 C 9.851841926574707 -25.00000381469727 10.9744815826416 -23.71142387390137 12.26327133178711 -22.0268726348877 C 13.27755165100098 -20.70112228393555 14.41030120849609 -19.02911376953125 15.18195152282715 -17.85991287231445 C 16.12851142883301 -16.42571258544922 17.10005187988281 -14.88695335388184 17.84746170043945 -13.63818264007568 C 19.15225219726562 -11.45814323425293 19.41614151000977 -10.83963298797607 19.41614151000977 -9.961492538452148 L 19.41614151000977 18.09626770019531 C 19.41614151000977 20.35393714904785 17.57940101623535 22.19067764282227 15.32173156738281 22.19067764282227 L 1.094411849975586 22.19067764282227 C -1.163257598876953 22.19067764282227 -2.999998092651367 20.35393714904785 -2.999998092651367 18.09626770019531 L -2.999998092651367 -9.961492538452148 C -2.999998092651367 -10.82753276824951 -2.742547988891602 -11.44202327728271 -1.469627380371094 -13.61425304412842 C -0.7362785339355469 -14.86572265625 0.2155513763427734 -16.40476226806641 1.141791343688965 -17.83674240112305 C 1.898891448974609 -19.00723266601562 3.010561943054199 -20.6808032989502 4.007071495056152 -22.00654220581055 C 5.281961441040039 -23.70261383056641 6.395121574401855 -25.00000381469727 8.13081169128418 -25.00000381469727 Z"/></g><g class="a" transform="translate(290 1019)"><path class="b" d="M 94.42398071289062 61.4896240234375 L 6.341909885406494 61.4896240234375 C 5.25762414932251 61.4896240234375 4.21390962600708 60.94589233398438 3.403038501739502 59.95862197875977 C 2.498266935348511 58.85699462890625 1.999995470046997 57.36870956420898 1.999995470046997 55.76791000366211 L 1.999995470046997 7.721708297729492 C 1.999995470046997 6.120908260345459 2.498266935348511 4.632622718811035 3.403038501739502 3.531008243560791 C 4.21390962600708 2.54372239112854 5.257609844207764 2.000008106231689 6.341909885406494 2.000008106231689 L 94.42398071289062 2.000008106231689 C 95.50827026367188 2.000008106231689 96.55196380615234 2.54372239112854 97.36283874511719 3.531008243560791 C 98.26760864257812 4.632622718811035 98.76588439941406 6.120908260345459 98.76588439941406 7.721708297729492 L 98.76588439941406 55.76791000366211 C 98.76588439941406 57.36870956420898 98.26760864257812 58.85699462890625 97.36283874511719 59.95862197875977 C 96.55196380615234 60.94590759277344 95.50827026367188 61.4896240234375 94.42398071289062 61.4896240234375 Z"/><path class="d" d="M 6.341903686523438 3.999992370605469 C 5.236419677734375 3.999992370605469 4.000007629394531 5.591609954833984 4.000007629394531 7.721706390380859 L 4.000007629394531 55.76790618896484 C 4.000007629394531 57.89799118041992 5.236419677734375 59.48960876464844 6.341903686523438 59.48960876464844 L 94.42397308349609 59.48960876464844 C 95.52945709228516 59.48960876464844 96.765869140625 57.89799118041992 96.765869140625 55.76790618896484 L 96.765869140625 7.721706390380859 C 96.765869140625 5.591609954833984 95.52945709228516 3.999992370605469 94.42397308349609 3.999992370605469 L 6.341903686523438 3.999992370605469 M 6.341903686523438 -7.62939453125e-06 L 94.42397308349609 -7.62939453125e-06 C 97.92650604248047 -7.62939453125e-06 100.765869140625 3.457126617431641 100.765869140625 7.721706390380859 L 100.765869140625 55.76790618896484 C 100.765869140625 60.03248977661133 97.92650604248047 63.48960876464844 94.42397308349609 63.48960876464844 L 6.341903686523438 63.48960876464844 C 2.839370727539062 63.48960876464844 7.62939453125e-06 60.03248977661133 7.62939453125e-06 55.76790618896484 L 7.62939453125e-06 7.721706390380859 C 7.62939453125e-06 3.457126617431641 2.839370727539062 -7.62939453125e-06 6.341903686523438 -7.62939453125e-06 Z"/></g></g></svg>