<svg xmlns="http://www.w3.org/2000/svg" xmlns:xlink="http://www.w3.org/1999/xlink" width="353" height="75" viewBox="0 0 353 75"><defs><style>.a{fill:url(#a);}.b{fill:#5e5e5e;font-size:14px;font-family:AvantGardeITCbyBT-Demi, AvantGarde Bk BT;font-weight:300;}</style><linearGradient id="a" x1="0.5" x2="0.5" y2="1" gradientUnits="objectBoundingBox"><stop offset="0" stop-color="#0a0d6f"/><stop offset="0.248" stop-color="#d312ba"/><stop offset="0.502" stop-color="#f49d15"/><stop offset="0.733" stop-color="#f6e41d"/><stop offset="1" stop-color="#00c5e3"/></linearGradient></defs><g transform="translate(1127 -324) rotate(90)"><path class="a" d="M-84,352a4,4,0,0,1-4-4v-9a4,4,0,0,1,4-4h47a4,4,0,0,1,4,4v9a4,4,0,0,1-4,4Zm0-18a4,4,0,0,1-4-4v-8a4,4,0,0,1,4-4h47a4,4,0,0,1,4,4v8a4,4,0,0,1-4,4Zm0-17a4,4,0,0,1-4-4V303a4,4,0,0,1,4-4h47a4,4,0,0,1,4,4v10a4,4,0,0,1-4,4Zm0-19a4,4,0,0,1-4-4v-7a4,4,0,0,1,4-4h47a4,4,0,0,1,4,4v7a4,4,0,0,1-4,4Zm0-16a4,4,0,0,1-4-4v-9a4,4,0,0,1,4-4h47a4,4,0,0,1,4,4v9a4,4,0,0,1-4,4Zm0-18a4,4,0,0,1-4-4v-8a4,4,0,0,1,4-4h47a4,4,0,0,1,4,4v8a4,4,0,0,1-4,4Zm0-17a4,4,0,0,1-4-4V233a4,4,0,0,1,4-4h47a4,4,0,0,1,4,4v10a4,4,0,0,1-4,4Zm0-19a4,4,0,0,1-4-4v-8a4,4,0,0,1,4-4h47a4,4,0,0,1,4,4v8a4,4,0,0,1-4,4Zm0-17a4,4,0,0,1-4-4v-9a4,4,0,0,1,4-4h47a4,4,0,0,1,4,4v9a4,4,0,0,1-4,4Zm0-18a4,4,0,0,1-4-4v-8a4,4,0,0,1,4-4h47a4,4,0,0,1,4,4v8a4,4,0,0,1-4,4Zm0-17a4,4,0,0,1-4-4V162a4,4,0,0,1,4-4h47a4,4,0,0,1,4,4v10a4,4,0,0,1-4,4Zm0-19a4,4,0,0,1-4-4v-9a4,4,0,0,1,4-4h47a4,4,0,0,1,4,4v9a4,4,0,0,1-4,4Zm0-18a4,4,0,0,1-4-4v-8a4,4,0,0,1,4-4h47a4,4,0,0,1,4,4v8a4,4,0,0,1-4,4Zm0-17a4,4,0,0,1-4-4v-9a4,4,0,0,1,4-4h47a4,4,0,0,1,4,4v9a4,4,0,0,1-4,4Zm0-18a4,4,0,0,1-4-4V92a4,4,0,0,1,4-4h47a4,4,0,0,1,4,4v8a4,4,0,0,1-4,4Zm0-17a4,4,0,0,1-4-4V73a4,4,0,0,1,4-4h47a4,4,0,0,1,4,4V83a4,4,0,0,1-4,4Zm0-19a4,4,0,0,1-4-4V56a4,4,0,0,1,4-4h47a4,4,0,0,1,4,4v8a4,4,0,0,1-4,4Zm0-17a4,4,0,0,1-4-4V38a4,4,0,0,1,4-4h47a4,4,0,0,1,4,4v9a4,4,0,0,1-4,4Zm0-18a4,4,0,0,1-4-4V21a4,4,0,0,1,4-4h47a4,4,0,0,1,4,4v8a4,4,0,0,1-4,4Zm0-17a4,4,0,0,1-4-4V4a4,4,0,0,1,4-4h47a4,4,0,0,1,4,4v8a4,4,0,0,1-4,4Z" transform="translate(412 775)"/><text class="b" transform="translate(396 791) rotate(-90)"><tspan x="0" y="0">40</tspan></text><text class="b" transform="translate(396 1122) rotate(-90)"><tspan x="0" y="0">0</tspan></text></g></svg>