<?xml version="1.0" encoding="utf-8"?>
<!-- Generator: Adobe Illustrator 22.0.1, SVG Export Plug-In . SVG Version: 6.00 Build 0)  -->
<svg version="1.1" id="Layer_1" xmlns="http://www.w3.org/2000/svg" xmlns:xlink="http://www.w3.org/1999/xlink" x="0px" y="0px"
	 viewBox="0 0 358 126.3" style="enable-background:new 0 0 358 126.3;" xml:space="preserve">
<style type="text/css">
	.st0{fill:#5E5E5E;}
	.st1{fill:#FFFAFA;}
	.st2{fill:#626262;}
	.st3{enable-background:new    ;}
	.st4{fill:#FFFFFF;}
	.st5{fill:url(#Union_2_2_);}
</style>
<g id="Group_45_1_" transform="translate(-127 -341)">
	<g id="Path_75_1_" transform="translate(332 1006.628)">
		<path class="st0" d="M-21.7-570.8h-8.1c-0.8,0-1.5-0.7-1.5-1.5v-16c0-0.2,0-0.4,0.8-1.7c0.4-0.7,0.9-1.6,1.5-2.4
			c0.4-0.7,1-1.6,1.6-2.3c0.8-1,1.2-1.4,1.7-1.4c0.4,0,0.7,0.3,1,0.5c0.2,0.2,0.4,0.5,0.7,0.8c0.6,0.7,1.2,1.7,1.6,2.3
			c0.5,0.8,1.1,1.7,1.5,2.4c0.7,1.2,0.8,1.4,0.8,1.7v16C-20.2-571.4-20.8-570.8-21.7-570.8z"/>
		<path class="st1" d="M-25.8-595.2c-0.6,0-4.6,6.5-4.6,6.9v16c0,0.3,0.3,0.6,0.6,0.6h8.1c0.3,0,0.6-0.3,0.6-0.6v-16
			C-21-588.6-25.1-595.2-25.8-595.2 M-25.8-596.9c1,0,1.6,0.7,2.4,1.7c0.6,0.8,1.2,1.7,1.7,2.4c0.5,0.8,1.1,1.7,1.5,2.4
			c0.7,1.2,0.9,1.6,0.9,2.1v16c0,1.3-1,2.3-2.3,2.3h-8.1c-1.3,0-2.3-1-2.3-2.3v-16c0-0.5,0.1-0.8,0.9-2.1c0.4-0.7,1-1.6,1.5-2.4
			c0.4-0.7,1.1-1.6,1.6-2.4C-27.4-596.1-26.8-596.9-25.8-596.9z"/>
	</g>
	<g id="Path_74_1_" transform="translate(290 1019)">
		<path class="st0" d="M41.5-552.8H-8.8c-0.6,0-1.2-0.3-1.7-0.9c-0.5-0.6-0.8-1.5-0.8-2.4v-27.4c0-0.9,0.3-1.8,0.8-2.4
			c0.5-0.6,1.1-0.9,1.7-0.9h50.3c0.6,0,1.2,0.3,1.7,0.9c0.5,0.6,0.8,1.5,0.8,2.4v27.4c0,0.9-0.3,1.8-0.8,2.4S42.1-552.8,41.5-552.8z
			"/>
		<path class="st2" d="M-8.8-585.6c-0.6,0-1.3,0.9-1.3,2.1v27.4c0,1.2,0.7,2.1,1.3,2.1h50.3c0.6,0,1.3-0.9,1.3-2.1v-27.4
			c0-1.2-0.7-2.1-1.3-2.1H-8.8 M-8.8-587.9h50.3c2,0,3.6,2,3.6,4.4v27.4c0,2.4-1.6,4.4-3.6,4.4H-8.8c-2,0-3.6-2-3.6-4.4v-27.4
			C-12.4-585.9-10.8-587.9-8.8-587.9z"/>
	</g>
</g>
<g class="st3">
	<path class="st4" d="M176.4,114c0.3,0,0.6,0.1,0.9,0.3s0.3,0.5,0.3,0.9c0,0.3-0.1,0.6-0.3,0.8c-0.2,0.2-0.5,0.3-0.9,0.3H169
		c-0.4,0-0.7-0.1-0.9-0.3s-0.3-0.5-0.3-0.9s0.1-0.7,0.4-1l4.7-5.1c0.5-0.6,0.9-1.1,1.3-1.7c0.3-0.6,0.5-1.1,0.5-1.6
		c0-0.4-0.1-0.9-0.3-1.2c-0.2-0.4-0.5-0.7-0.8-0.9c-0.3-0.2-0.7-0.3-1.1-0.3c-0.4,0-0.8,0.1-1.3,0.4c-0.4,0.3-0.8,0.7-1.1,1.1
		c-0.2,0.2-0.3,0.4-0.5,0.4c-0.2,0.1-0.3,0.1-0.5,0.1c-0.3,0-0.6-0.1-0.9-0.4c-0.3-0.2-0.4-0.5-0.4-0.8c0-0.2,0.1-0.5,0.2-0.7
		c0.2-0.2,0.4-0.5,0.6-0.7c0.5-0.5,1.2-1,1.9-1.3c0.7-0.3,1.4-0.5,2.1-0.5c1,0,1.8,0.2,2.5,0.6c0.7,0.4,1.3,1,1.6,1.7
		c0.4,0.7,0.6,1.5,0.6,2.4c0,0.6-0.1,1.2-0.3,1.9s-0.5,1.2-0.9,1.8c-0.4,0.6-0.8,1.2-1.3,1.7l-2.9,3.1l-0.2-0.2H176.4z"/>
	<path class="st4" d="M184.9,116.6c-1.2,0-2.3-0.3-3.2-1c-0.9-0.7-1.5-1.6-2-2.8c-0.4-1.2-0.7-2.5-0.7-4.1c0-1.5,0.2-2.9,0.7-4.1
		c0.4-1.2,1.1-2.1,2-2.7c0.9-0.7,1.9-1,3.2-1c1.2,0,2.3,0.3,3.2,1c0.9,0.7,1.5,1.6,2,2.7c0.4,1.2,0.7,2.5,0.7,4.1
		c0,1.5-0.2,2.9-0.7,4.1c-0.4,1.2-1.1,2.1-2,2.8C187.2,116.3,186.1,116.6,184.9,116.6z M184.9,114c0.6,0,1.1-0.2,1.6-0.6
		c0.4-0.4,0.8-1,1-1.7c0.2-0.8,0.4-1.7,0.4-2.9c0-1.2-0.1-2.1-0.4-2.9c-0.2-0.8-0.6-1.3-1-1.7c-0.4-0.4-1-0.6-1.6-0.6
		c-0.6,0-1.1,0.2-1.6,0.6c-0.4,0.4-0.8,1-1,1.7s-0.4,1.7-0.4,2.9c0,1.2,0.1,2.1,0.4,2.9s0.6,1.4,1,1.7
		C183.8,113.8,184.3,114,184.9,114z"/>
</g>
<linearGradient id="Union_2_2_" gradientUnits="userSpaceOnUse" x1="-336.8636" y1="478.9125" x2="-336.8636" y2="477.9125" gradientTransform="matrix(3.367779e-15 55 352 -2.155379e-14 -168222.2031 18555)">
	<stop  offset="0" style="stop-color:#0A0D6F"/>
	<stop  offset="0.248" style="stop-color:#D312BA"/>
	<stop  offset="0.502" style="stop-color:#F49D15"/>
	<stop  offset="0.733" style="stop-color:#F6E41D"/>
	<stop  offset="1" style="stop-color:#00C5E3"/>
</linearGradient>
<path id="Union_2_1_" class="st5" d="M3,4c0-2.2,1.8-4,4-4h9c2.2,0,4,1.8,4,4v47c0,2.2-1.8,4-4,4H7c-2.2,0-4-1.8-4-4V4z M21,4
	c0-2.2,1.8-4,4-4h8c2.2,0,4,1.8,4,4v47c0,2.2-1.8,4-4,4h-8c-2.2,0-4-1.8-4-4V4z M38,4c0-2.2,1.8-4,4-4h10c2.2,0,4,1.8,4,4v47
	c0,2.2-1.8,4-4,4H42c-2.2,0-4-1.8-4-4V4z M57,4c0-2.2,1.8-4,4-4h7c2.2,0,4,1.8,4,4v47c0,2.2-1.8,4-4,4h-7c-2.2,0-4-1.8-4-4V4z M73,4
	c0-2.2,1.8-4,4-4h9c2.2,0,4,1.8,4,4v47c0,2.2-1.8,4-4,4h-9c-2.2,0-4-1.8-4-4V4z M91,4c0-2.2,1.8-4,4-4h8c2.2,0,4,1.8,4,4v47
	c0,2.2-1.8,4-4,4h-8c-2.2,0-4-1.8-4-4V4z M108,4c0-2.2,1.8-4,4-4h10c2.2,0,4,1.8,4,4v47c0,2.2-1.8,4-4,4h-10c-2.2,0-4-1.8-4-4V4z
	 M127,4c0-2.2,1.8-4,4-4h8c2.2,0,4,1.8,4,4v47c0,2.2-1.8,4-4,4h-8c-2.2,0-4-1.8-4-4V4z M144,4c0-2.2,1.8-4,4-4h9c2.2,0,4,1.8,4,4v47
	c0,2.2-1.8,4-4,4h-9c-2.2,0-4-1.8-4-4V4z M162,4c0-2.2,1.8-4,4-4h8c2.2,0,4,1.8,4,4v47c0,2.2-1.8,4-4,4h-8c-2.2,0-4-1.8-4-4V4z
	 M179,4c0-2.2,1.8-4,4-4h10c2.2,0,4,1.8,4,4v47c0,2.2-1.8,4-4,4h-10c-2.2,0-4-1.8-4-4V4z M198,4c0-2.2,1.8-4,4-4h9c2.2,0,4,1.8,4,4
	v47c0,2.2-1.8,4-4,4h-9c-2.2,0-4-1.8-4-4V4z M216,4c0-2.2,1.8-4,4-4h8c2.2,0,4,1.8,4,4v47c0,2.2-1.8,4-4,4h-8c-2.2,0-4-1.8-4-4V4z
	 M233,4c0-2.2,1.8-4,4-4h9c2.2,0,4,1.8,4,4v47c0,2.2-1.8,4-4,4h-9c-2.2,0-4-1.8-4-4V4z M251,4c0-2.2,1.8-4,4-4h8c2.2,0,4,1.8,4,4v47
	c0,2.2-1.8,4-4,4h-8c-2.2,0-4-1.8-4-4V4z M268,4c0-2.2,1.8-4,4-4h10c2.2,0,4,1.8,4,4v47c0,2.2-1.8,4-4,4h-10c-2.2,0-4-1.8-4-4V4z
	 M287,4c0-2.2,1.8-4,4-4h8c2.2,0,4,1.8,4,4v47c0,2.2-1.8,4-4,4h-8c-2.2,0-4-1.8-4-4V4z M304,4c0-2.2,1.8-4,4-4h9c2.2,0,4,1.8,4,4v47
	c0,2.2-1.8,4-4,4h-9c-2.2,0-4-1.8-4-4V4z M322,4c0-2.2,1.8-4,4-4h8c2.2,0,4,1.8,4,4v47c0,2.2-1.8,4-4,4h-8c-2.2,0-4-1.8-4-4V4z
	 M339,4c0-2.2,1.8-4,4-4h8c2.2,0,4,1.8,4,4v47c0,2.2-1.8,4-4,4h-8c-2.2,0-4-1.8-4-4V4z"/>
<g class="st3">
	<path class="st0" d="M341.6,72c-0.2,0-0.4-0.1-0.6-0.2s-0.2-0.4-0.2-0.6v-6.6l0.3,0.1l-2.7,3.3l-0.1-0.2h4.7c0.2,0,0.4,0.1,0.6,0.2
		s0.2,0.3,0.2,0.6c0,0.2-0.1,0.4-0.2,0.5s-0.3,0.2-0.6,0.2h-5.9c-0.2,0-0.4-0.1-0.6-0.2c-0.2-0.2-0.3-0.4-0.3-0.6
		c0-0.2,0.1-0.4,0.2-0.6l4.4-5.4c0.1-0.1,0.2-0.2,0.3-0.2c0.1-0.1,0.3-0.1,0.4-0.1c0.2,0,0.4,0.1,0.6,0.2s0.2,0.4,0.2,0.6v8.1
		c0,0.2-0.1,0.4-0.2,0.6C342,71.9,341.8,72,341.6,72z"/>
	<path class="st0" d="M349.2,72.1c-0.8,0-1.5-0.2-2-0.6c-0.6-0.4-1-1-1.3-1.8c-0.3-0.8-0.4-1.6-0.4-2.6c0-1,0.1-1.9,0.4-2.6
		c0.3-0.8,0.7-1.3,1.3-1.8c0.6-0.4,1.2-0.6,2-0.6s1.5,0.2,2,0.6s1,1,1.3,1.8c0.3,0.8,0.4,1.6,0.4,2.6c0,1-0.1,1.9-0.4,2.6
		c-0.3,0.8-0.7,1.4-1.3,1.8S350,72.1,349.2,72.1z M349.2,70.5c0.4,0,0.7-0.1,1-0.4s0.5-0.6,0.7-1.1c0.2-0.5,0.2-1.1,0.2-1.9
		c0-0.8-0.1-1.4-0.2-1.9c-0.2-0.5-0.4-0.9-0.7-1.1s-0.6-0.4-1-0.4c-0.4,0-0.7,0.1-1,0.4c-0.3,0.2-0.5,0.6-0.7,1.1
		c-0.2,0.5-0.2,1.1-0.2,1.9c0,0.7,0.1,1.4,0.2,1.9c0.2,0.5,0.4,0.9,0.7,1.1C348.5,70.3,348.8,70.5,349.2,70.5z"/>
</g>
<g class="st3">
	<path class="st0" d="M12.3,72.1c-0.8,0-1.5-0.2-2-0.6c-0.6-0.4-1-1-1.3-1.8c-0.3-0.8-0.4-1.6-0.4-2.6c0-1,0.1-1.9,0.4-2.6
		c0.3-0.8,0.7-1.3,1.3-1.8c0.6-0.4,1.2-0.6,2-0.6s1.5,0.2,2,0.6s1,1,1.3,1.8c0.3,0.8,0.4,1.6,0.4,2.6c0,1-0.1,1.9-0.4,2.6
		c-0.3,0.8-0.7,1.4-1.3,1.8S13.1,72.1,12.3,72.1z M12.3,70.5c0.4,0,0.7-0.1,1-0.4s0.5-0.6,0.7-1.1c0.2-0.5,0.2-1.1,0.2-1.9
		c0-0.8-0.1-1.4-0.2-1.9c-0.2-0.5-0.4-0.9-0.7-1.1s-0.6-0.4-1-0.4c-0.4,0-0.7,0.1-1,0.4c-0.3,0.2-0.5,0.6-0.7,1.1
		c-0.2,0.5-0.2,1.1-0.2,1.9c0,0.7,0.1,1.4,0.2,1.9c0.2,0.5,0.4,0.9,0.7,1.1C11.6,70.3,11.9,70.5,12.3,70.5z"/>
</g>
<text transform="matrix(1 0 0 1 663 164)" class="st4" style="font-family:'Quicksand-Bold'; font-size:14px;">40</text>
<text transform="matrix(1 0 0 1 336 164)" class="st4" style="font-family:'Quicksand-Bold'; font-size:14px;">0</text>
</svg>
