<?xml version="1.0" encoding="utf-8"?>
<!-- Generator: Adobe Illustrator 22.0.1, SVG Export Plug-In . SVG Version: 6.00 Build 0)  -->
<svg version="1.1" id="Layer_1" xmlns="http://www.w3.org/2000/svg" xmlns:xlink="http://www.w3.org/1999/xlink" x="0px" y="0px"
	 viewBox="0 0 353 77.6" style="enable-background:new 0 0 353 77.6;" xml:space="preserve">
<style type="text/css">
	.st0{fill:url(#Union_2_1_);}
	.st1{enable-background:new    ;}
	.st2{fill:#5E5E5E;}
</style>
<linearGradient id="Union_2_1_" gradientUnits="userSpaceOnUse" x1="-760.8636" y1="480.1085" x2="-760.8636" y2="479.1085" gradientTransform="matrix(3.367779e-15 55 352 -2.155379e-14 -168646.2031 41875)">
	<stop  offset="0" style="stop-color:#0A0D6F"/>
	<stop  offset="0.248" style="stop-color:#D312BA"/>
	<stop  offset="0.502" style="stop-color:#F49D15"/>
	<stop  offset="0.733" style="stop-color:#F6E41D"/>
	<stop  offset="1" style="stop-color:#00C5E3"/>
</linearGradient>
<path id="Union_2" class="st0" d="M0,4c0-2.2,1.8-4,4-4h9c2.2,0,4,1.8,4,4v47c0,2.2-1.8,4-4,4H4c-2.2,0-4-1.8-4-4V4z M18,4
	c0-2.2,1.8-4,4-4h8c2.2,0,4,1.8,4,4v47c0,2.2-1.8,4-4,4h-8c-2.2,0-4-1.8-4-4V4z M35,4c0-2.2,1.8-4,4-4h10c2.2,0,4,1.8,4,4v47
	c0,2.2-1.8,4-4,4H39c-2.2,0-4-1.8-4-4V4z M54,4c0-2.2,1.8-4,4-4h7c2.2,0,4,1.8,4,4v47c0,2.2-1.8,4-4,4h-7c-2.2,0-4-1.8-4-4V4z M70,4
	c0-2.2,1.8-4,4-4h9c2.2,0,4,1.8,4,4v47c0,2.2-1.8,4-4,4h-9c-2.2,0-4-1.8-4-4V4z M88,4c0-2.2,1.8-4,4-4h8c2.2,0,4,1.8,4,4v47
	c0,2.2-1.8,4-4,4h-8c-2.2,0-4-1.8-4-4V4z M105,4c0-2.2,1.8-4,4-4h10c2.2,0,4,1.8,4,4v47c0,2.2-1.8,4-4,4h-10c-2.2,0-4-1.8-4-4V4z
	 M124,4c0-2.2,1.8-4,4-4h8c2.2,0,4,1.8,4,4v47c0,2.2-1.8,4-4,4h-8c-2.2,0-4-1.8-4-4V4z M141,4c0-2.2,1.8-4,4-4h9c2.2,0,4,1.8,4,4v47
	c0,2.2-1.8,4-4,4h-9c-2.2,0-4-1.8-4-4V4z M159,4c0-2.2,1.8-4,4-4h8c2.2,0,4,1.8,4,4v47c0,2.2-1.8,4-4,4h-8c-2.2,0-4-1.8-4-4V4z
	 M176,4c0-2.2,1.8-4,4-4h10c2.2,0,4,1.8,4,4v47c0,2.2-1.8,4-4,4h-10c-2.2,0-4-1.8-4-4V4z M195,4c0-2.2,1.8-4,4-4h9c2.2,0,4,1.8,4,4
	v47c0,2.2-1.8,4-4,4h-9c-2.2,0-4-1.8-4-4V4z M213,4c0-2.2,1.8-4,4-4h8c2.2,0,4,1.8,4,4v47c0,2.2-1.8,4-4,4h-8c-2.2,0-4-1.8-4-4V4z
	 M230,4c0-2.2,1.8-4,4-4h9c2.2,0,4,1.8,4,4v47c0,2.2-1.8,4-4,4h-9c-2.2,0-4-1.8-4-4V4z M248,4c0-2.2,1.8-4,4-4h8c2.2,0,4,1.8,4,4v47
	c0,2.2-1.8,4-4,4h-8c-2.2,0-4-1.8-4-4V4z M265,4c0-2.2,1.8-4,4-4h10c2.2,0,4,1.8,4,4v47c0,2.2-1.8,4-4,4h-10c-2.2,0-4-1.8-4-4V4z
	 M284,4c0-2.2,1.8-4,4-4h8c2.2,0,4,1.8,4,4v47c0,2.2-1.8,4-4,4h-8c-2.2,0-4-1.8-4-4V4z M301,4c0-2.2,1.8-4,4-4h9c2.2,0,4,1.8,4,4v47
	c0,2.2-1.8,4-4,4h-9c-2.2,0-4-1.8-4-4V4z M319,4c0-2.2,1.8-4,4-4h8c2.2,0,4,1.8,4,4v47c0,2.2-1.8,4-4,4h-8c-2.2,0-4-1.8-4-4V4z
	 M336,4c0-2.2,1.8-4,4-4h8c2.2,0,4,1.8,4,4v47c0,2.2-1.8,4-4,4h-8c-2.2,0-4-1.8-4-4V4z"/>
<g class="st1">
	<path class="st2" d="M338.6,72c-0.2,0-0.4-0.1-0.6-0.2c-0.2-0.2-0.2-0.4-0.2-0.6v-6.6l0.3,0.1l-2.7,3.3l-0.1-0.2h4.7
		c0.2,0,0.4,0.1,0.6,0.2c0.1,0.1,0.2,0.3,0.2,0.6c0,0.2-0.1,0.4-0.2,0.5c-0.2,0.1-0.3,0.2-0.6,0.2h-5.9c-0.2,0-0.4-0.1-0.6-0.2
		c-0.2-0.2-0.3-0.4-0.3-0.6c0-0.2,0.1-0.4,0.2-0.6l4.4-5.4c0.1-0.1,0.2-0.2,0.3-0.2s0.3-0.1,0.4-0.1c0.2,0,0.4,0.1,0.6,0.2
		c0.2,0.2,0.2,0.4,0.2,0.6v8.1c0,0.2-0.1,0.4-0.2,0.6S338.8,72,338.6,72z"/>
	<path class="st2" d="M346.2,72.1c-0.8,0-1.5-0.2-2-0.6c-0.6-0.4-1-1-1.3-1.8c-0.3-0.8-0.4-1.6-0.4-2.6c0-1,0.1-1.9,0.4-2.6
		s0.7-1.3,1.3-1.8c0.6-0.4,1.2-0.6,2-0.6s1.5,0.2,2,0.6s1,1,1.3,1.8s0.4,1.6,0.4,2.6c0,1-0.1,1.9-0.4,2.6c-0.3,0.8-0.7,1.4-1.3,1.8
		S347,72.1,346.2,72.1z M346.2,70.5c0.4,0,0.7-0.1,1-0.4c0.3-0.2,0.5-0.6,0.7-1.1c0.2-0.5,0.2-1.1,0.2-1.9c0-0.8-0.1-1.4-0.2-1.9
		c-0.2-0.5-0.4-0.9-0.7-1.1c-0.3-0.2-0.6-0.4-1-0.4c-0.4,0-0.7,0.1-1,0.4c-0.3,0.2-0.5,0.6-0.7,1.1c-0.2,0.5-0.2,1.1-0.2,1.9
		c0,0.7,0.1,1.4,0.2,1.9c0.2,0.5,0.4,0.9,0.7,1.1C345.5,70.3,345.8,70.5,346.2,70.5z"/>
</g>
<g class="st1">
	<path class="st2" d="M9.3,72.1c-0.8,0-1.5-0.2-2-0.6c-0.6-0.4-1-1-1.3-1.8c-0.3-0.8-0.4-1.6-0.4-2.6c0-1,0.1-1.9,0.4-2.6
		c0.3-0.8,0.7-1.3,1.3-1.8c0.6-0.4,1.2-0.6,2-0.6s1.5,0.2,2,0.6s1,1,1.3,1.8c0.3,0.8,0.4,1.6,0.4,2.6c0,1-0.1,1.9-0.4,2.6
		c-0.3,0.8-0.7,1.4-1.3,1.8S10.1,72.1,9.3,72.1z M9.3,70.5c0.4,0,0.7-0.1,1-0.4s0.5-0.6,0.7-1.1c0.2-0.5,0.2-1.1,0.2-1.9
		c0-0.8-0.1-1.4-0.2-1.9c-0.2-0.5-0.4-0.9-0.7-1.1s-0.6-0.4-1-0.4c-0.4,0-0.7,0.1-1,0.4c-0.3,0.2-0.5,0.6-0.7,1.1
		c-0.2,0.5-0.2,1.1-0.2,1.9c0,0.7,0.1,1.4,0.2,1.9c0.2,0.5,0.4,0.9,0.7,1.1C8.6,70.3,8.9,70.5,9.3,70.5z"/>
</g>
</svg>
