<svg xmlns="http://www.w3.org/2000/svg" width="527" height="396" viewBox="0 0 527 396">
  <g id="Group_132" data-name="Group 132" transform="translate(-6519 -4113)">
    <text id="XMLID_145_" transform="translate(6519 4460.416)" font-size="21.85" font-family="ITCAvantGardeStd-Bk, ITC Avant Garde Gothic Std"><tspan x="0" y="0">Perinatal mental illness affects </tspan><tspan y="0" font-family="ITCAvantGardeStd-BoldObl, ITC Avant Garde Gothic Std" font-weight="700" font-style="oblique">1 in every 5 moms</tspan></text>
    <g id="XMLID_159_" transform="translate(7109.304 4519)">
      <g id="XMLID_463_">
        <path id="XMLID_477_" d="M-386-372.9l-21.1,23.3a5.777,5.777,0,0,0,.5,8.3l24.3,20.8.2-8.4-12-12.3a5.824,5.824,0,0,1,.1-8.2l13.8-13.6Z" fill="#8ad4b0"/>
        <path id="XMLID_476_" d="M-339.1-320.6c-1.2-7.2-6.6-16.2-12-21.4-5.9-5.7-8.4-12.5-9.8-20.5l-1.8-10.4H-386l-13.5,76.7h45.3a12.951,12.951,0,0,0,4.9-.9C-341.7-300.3-337.5-310.7-339.1-320.6Z" fill="#8ad4b0"/>
        <path id="XMLID_473_" d="M-382.1-262.5h0a6.445,6.445,0,0,1-6.4-6.4v-31.8h12.8v31.8A6.258,6.258,0,0,1-382.1-262.5Z" fill="#8ad4b0"/>
        <path id="XMLID_472_" d="M-363.7-262.5h0a6.445,6.445,0,0,1-6.4-6.4v-31.8h12.8v31.8A6.38,6.38,0,0,1-363.7-262.5Z" fill="#8ad4b0"/>
        <g id="XMLID_464_">
          <circle id="XMLID_468_" cx="14.3" cy="14.3" r="14.3" transform="translate(-385.9 -406)" fill="#8ad4b0"/>
          <path id="XMLID_467_" d="M-385.8-392.2v14.7h15.1l-.9-14.7Z" fill="#8ad4b0"/>
        </g>
      </g>
      <g id="XMLID_455_">
        <path id="XMLID_462_" d="M-288.9-372.9-310-349.6a5.777,5.777,0,0,0,.5,8.3l24.3,20.8.2-8.4-12-12.3a5.824,5.824,0,0,1,.1-8.2l13.8-13.6Z" fill="#8ad4b0"/>
        <path id="XMLID_461_" d="M-242-320.6c-1.2-7.2-6.6-16.2-12-21.4-5.9-5.7-8.4-12.5-9.8-20.5l-1.8-10.4h-23.3l-13.5,76.7h45.3a12.951,12.951,0,0,0,4.9-.9C-244.5-300.3-240.4-310.7-242-320.6Z" fill="#8ad4b0"/>
        <path id="XMLID_460_" d="M-284.9-262.5h0a6.445,6.445,0,0,1-6.4-6.4v-31.8h12.8v31.8A6.38,6.38,0,0,1-284.9-262.5Z" fill="#8ad4b0"/>
        <path id="XMLID_459_" d="M-266.6-262.5h0a6.445,6.445,0,0,1-6.4-6.4v-31.8h12.8v31.8A6.38,6.38,0,0,1-266.6-262.5Z" fill="#8ad4b0"/>
        <g id="XMLID_456_">
          <circle id="XMLID_458_" cx="14.3" cy="14.3" r="14.3" transform="translate(-288.7 -406)" fill="#8ad4b0"/>
          <path id="XMLID_457_" d="M-288.7-392.2v14.7h15.1l-.8-14.7Z" fill="#8ad4b0"/>
        </g>
      </g>
      <g id="XMLID_441_">
        <path id="XMLID_454_" d="M-436.7-229.4l-21.1,23.3a5.777,5.777,0,0,0,.5,8.3L-433-177l.2-8.4-12-12.3a5.824,5.824,0,0,1,.1-8.2l13.8-13.6Z" fill="#8ad4b0"/>
        <path id="XMLID_453_" d="M-389.8-177.1c-1.2-7.2-6.6-16.2-12-21.4-5.9-5.7-8.4-12.5-9.8-20.5l-1.8-10.4h-23.3l-13.5,76.7h45.3a12.951,12.951,0,0,0,4.9-.9C-392.3-156.8-388.2-167.2-389.8-177.1Z" fill="#8ad4b0"/>
        <path id="XMLID_452_" d="M-432.8-118.9h0a6.445,6.445,0,0,1-6.4-6.4v-31.8h12.8v31.8A6.318,6.318,0,0,1-432.8-118.9Z" fill="#8ad4b0"/>
        <path id="XMLID_448_" d="M-414.4-118.9h0a6.445,6.445,0,0,1-6.4-6.4v-31.8H-408v31.8A6.445,6.445,0,0,1-414.4-118.9Z" fill="#8ad4b0"/>
        <g id="XMLID_442_">
          <circle id="XMLID_447_" cx="14.3" cy="14.3" r="14.3" transform="translate(-436.6 -262.5)" fill="#8ad4b0"/>
          <path id="XMLID_443_" d="M-436.5-248.7V-234h15.1l-.9-14.7Z" fill="#8ad4b0"/>
        </g>
      </g>
      <g id="XMLID_433_">
        <path id="XMLID_440_" d="M-339.6-229.4l-21.1,23.3a5.777,5.777,0,0,0,.5,8.3l24.3,20.8.2-8.4-12-12.3a5.824,5.824,0,0,1,.1-8.2l13.8-13.6Z" fill="#96b1d7"/>
        <path id="XMLID_439_" d="M-292.7-177.1c-1.2-7.2-6.6-16.2-12-21.4-5.9-5.7-8.4-12.5-9.8-20.5l-1.8-10.4h-23.3l-13.5,76.7h45.3a12.951,12.951,0,0,0,4.9-.9C-295.2-156.8-291.1-167.2-292.7-177.1Z" fill="#96b1d7"/>
        <path id="XMLID_438_" d="M-335.6-118.9h0a6.445,6.445,0,0,1-6.4-6.4v-31.8h12.8v31.8A6.445,6.445,0,0,1-335.6-118.9Z" fill="#96b1d7"/>
        <path id="XMLID_437_" d="M-317.3-118.9h0a6.445,6.445,0,0,1-6.4-6.4v-31.8h12.8v31.8A6.445,6.445,0,0,1-317.3-118.9Z" fill="#96b1d7"/>
        <g id="XMLID_434_">
          <circle id="XMLID_436_" cx="14.3" cy="14.3" r="14.3" transform="translate(-339.4 -262.5)" fill="#96b1d7"/>
          <path id="XMLID_435_" d="M-339.4-248.7V-234h15.1l-.8-14.7Z" fill="#96b1d7"/>
        </g>
      </g>
      <g id="XMLID_408_">
        <path id="XMLID_432_" d="M-242.4-229.4l-21.1,23.3a5.777,5.777,0,0,0,.5,8.3l24.3,20.8.2-8.4-12-12.3a5.824,5.824,0,0,1,.1-8.2l13.8-13.6Z" fill="#8ad4b0"/>
        <path id="XMLID_431_" d="M-195.5-177.1c-1.2-7.2-6.6-16.2-12-21.4-5.9-5.7-8.4-12.5-9.8-20.5l-1.8-10.4h-23.3l-13.5,76.7h45.3a12.951,12.951,0,0,0,4.9-.9C-198.1-156.8-193.9-167.2-195.5-177.1Z" fill="#8ad4b0"/>
        <path id="XMLID_430_" d="M-238.5-118.9h0a6.445,6.445,0,0,1-6.4-6.4v-31.8h12.8v31.8A6.445,6.445,0,0,1-238.5-118.9Z" fill="#8ad4b0"/>
        <path id="XMLID_429_" d="M-220.2-118.9h0a6.445,6.445,0,0,1-6.4-6.4v-31.8h12.8v31.8A6.38,6.38,0,0,1-220.2-118.9Z" fill="#8ad4b0"/>
        <g id="XMLID_409_">
          <circle id="XMLID_428_" cx="14.3" cy="14.3" r="14.3" transform="translate(-242.3 -262.5)" fill="#8ad4b0"/>
          <path id="XMLID_427_" d="M-242.3-248.7V-234h15.2l-.9-14.7Z" fill="#8ad4b0"/>
        </g>
      </g>
    </g>
    <g id="XMLID_771_" transform="translate(7109.304 4519)">
      <circle id="XMLID_772_" cx="6" cy="6" r="6" transform="translate(-367.3 -22)" fill="#13cec4"/>
      <circle id="XMLID_810_" cx="6" cy="6" r="6" transform="translate(-343.3 -22)" fill="#13cec4" opacity="0.2"/>
      <circle id="XMLID_813_" cx="6" cy="6" r="6" transform="translate(-319.3 -22)" fill="#13cec4" opacity="0.2"/>
      <circle id="XMLID_815_" cx="6" cy="6" r="6" transform="translate(-295.4 -22)" fill="#13cec4" opacity="0.2"/>
    </g>
  </g>
</svg>
