<svg xmlns="http://www.w3.org/2000/svg" width="532.478" height="342.53" viewBox="0 0 532.478 342.53">
  <g id="Group_137" data-name="Group 137" transform="translate(-8470 -4125.421)">
    <rect id="XMLID_384_" width="524.1" height="48.6" transform="translate(8474 4417.6)" fill="none"/>
    <g id="Group" transform="translate(8429.938 4519)">
      <text id="Depression_and_anxiety" data-name="Depression and anxiety" transform="translate(82.462 -83.248)" font-size="21.85" font-family="'ITC Avant Garde Gothic Std Book',sans-serif" font-weight="700" font-style="oblique"><tspan x="0" y="0">Depression and anxiety</tspan></text>
      <text id="_are_the_two_most_" data-name=" are the two most " transform="translate(330.062 -83.248)" font-size="21.85" font-family="'ITC Avant Garde Gothic Std Book',sans-serif"><tspan x="0" y="0" xml:space="preserve"> are the two most </tspan></text>
      <text id="common_perinatal_mental_health_diffculties" data-name="common perinatal mental health diffculties" transform="translate(75.062 -57.048)" font-size="21.85" font-family="ITCAvantGardeStd-Bk, ITC Avant Garde Gothic Std"><tspan x="0" y="0">common perinatal mental health diffculties</tspan></text>
    </g>
    <g id="XMLID_2087_" transform="translate(8428.199 4519)">
      <g id="XMLID_2140_">
        <g id="XMLID_2151_">
          <path id="XMLID_2152_" d="M380-162.2a2.689,2.689,0,0,1-1.3-2.8l5.3-27.5c-9.5-3.4-45.7-17-60.1-31.3-9.2-9-15.3-30.7-14.8-52.6.3-16.3,4.6-47.2,29.6-70.1,41-37.5,133.3-61.9,200.2-36.9,17,6.4,28,19.4,32.8,38.8,5.2,21.3,2.5,50.2-7.8,81.6-8.5,26.2-21.8,51.7-33.7,65-13.3,14.8-38.1,21.3-73.8,19.3a291.055,291.055,0,0,1-47.6-6.9c-10.2,10.8-25.1,22.9-25.7,23.4a2.716,2.716,0,0,1-1.7.6A8.428,8.428,0,0,1,380-162.2Zm28.6-29.3c.5.1,29.6,7.4,59.9,7.4,22.3,0,45.2-4,57.6-17.8,11.5-12.8,24.3-37.5,32.6-63,9.9-30.4,12.6-58.3,7.7-78.6-4.3-17.5-14.2-29.3-29.4-35-65.1-24.3-154.8-.7-194.6,35.8-23.5,21.6-27.5,50.8-27.8,66.2-.4,22.9,6.3,41.9,13.2,48.7,15.5,15.3,59.9,30.7,60.3,30.8a2.777,2.777,0,0,1,1.8,3.1l-4.3,22.3A251.013,251.013,0,0,0,406-190.8a2.665,2.665,0,0,1,2-.9A1.421,1.421,0,0,0,408.6-191.5Z" fill="#e188bd"/>
        </g>
        <g id="XMLID_2149_">
          <path id="XMLID_2150_" d="M482.5-287.2c.1.5.7,12.2,5.8,9.8C493.5-279.8,482.5-287.2,482.5-287.2Z" fill="#fff"/>
        </g>
        <g id="XMLID_2141_">
          <g id="XMLID_2147_">
            <path id="XMLID_2148_" d="M439.7-288.9,427.4-253l21.3-3-8.6,31.3,24.1-41.7-23.7,2.8,23.8-25Z" fill="#fada76"/>
          </g>
          <g id="XMLID_2145_">
            <path id="XMLID_2146_" d="M420.8-243.9,414.3-225l11.3-1.6L421.1-210l12.7-22-12.6,1.4,12.6-13.2Z" fill="#fada76"/>
          </g>
          <g id="XMLID_2142_">
            <g id="XMLID_2143_">
              <path id="XMLID_2144_" d="M391.5-320.6c16.1-2.6,22.2,6.7,22.2,6.7s-.6-15.8,9.7-20.5c10.2-4.7,15.9,3,15.9,3s-.7-32.2,33.2-26.6c33.9,5.7,31.6,53.1,31.6,53.1s3.7-11.2,17-5.7,9.3,24.1,9.3,24.1l-157.5,1C372.8-285.5,375.4-318,391.5-320.6Z" fill="#96b1d7"/>
            </g>
          </g>
        </g>
      </g>
      <g id="XMLID_2088_">
        <g id="XMLID_2096_">
          <g id="XMLID_2138_">
            <path id="XMLID_2139_" d="M259-186.7s-62,13.3-99.9,8S71.8-231.5,48.8-276.2c-23.1-44.6,15.6-98.8,48.9-109s147.9-7.5,171.4,14.7,24.4,50.8,24.4,50.8,31.5-3.8,51.5,19.8C365-276.4,350.1-200.9,259-186.7Z" fill="#8ad4b0"/>
          </g>
          <g id="XMLID_2097_">
            <g id="XMLID_2098_">
              <path id="XMLID_2099_" d="M112.8-305.7c.6,2.9,2.7,5,4.5,6.8a29.1,29.1,0,0,1,2.4,2.7c2.8,3.7,3,8.8,3.3,13.8l.1,1.2a126.688,126.688,0,0,0,4.5,27.2l.1.4-.2.3a22.761,22.761,0,0,0-2.9,7.3c-1.1,5.5.6,12.2,6,13.8a7.687,7.687,0,0,0,3,.3,6.753,6.753,0,0,0,1.4-.2l.7-.2.3.7c.6,1.2,1.1,2.3,1.7,3.3.6,1.2,2.4,4.5,5.5,4.6h.6a3.553,3.553,0,0,0,1-.2l.4-.1.4.2a28.685,28.685,0,0,0,15.9,4.3c.5,0,1-.1,1.5-.1,5.3-.5,10.3-2.4,15.1-4.3,4.4-1.7,8.5-3.3,12.9-4,.5-.1,1.1-.1,1.7-.2h1.1l.3.5a17.44,17.44,0,0,0,4.8,5.7,11.412,11.412,0,0,0,7.5,2.2,7.664,7.664,0,0,0,4.4-1.9c2-1.8,2.9-4.4,2.7-7.7v-.7l.6-.2a16,16,0,0,0,7.2-5.4,26.93,26.93,0,0,0,2.9-5.9,34.678,34.678,0,0,1,1.5-3.6l.2-.3.3-.1a24.4,24.4,0,0,1,6.7-1.7,12.471,12.471,0,0,1,5.5.6,1.483,1.483,0,0,0,.7.1,1.77,1.77,0,0,0,1.4-1.1,1.672,1.672,0,0,0-.1-1.2,1.419,1.419,0,0,0-.9-.8,7.491,7.491,0,0,0-1.6-.4l-3.6-.8,3.6-1c1-.3,2.4-.7,3.7-1.2,9.2-3.8,13.6-13,15.4-18.1a50.07,50.07,0,0,0,2-8.3l.1-.4.3-.2c8.4-5.8,15.6-12.1,11.4-18.5-2.3-3.6-6.3-5-12.6-4.4a35.472,35.472,0,0,0-4,.6l-.5.1-.3-.4a24.752,24.752,0,0,0-6.3-5.8,26.215,26.215,0,0,0-8.9-3.4l-5.8-1.2,5.9-.6h.1c1.1-.1,2.3-.1,3.6-.1h.2a1.389,1.389,0,0,0,1-.5,1.656,1.656,0,0,0,.5-1.2c0-4.3-2.2-8.6-6.1-11.9-3.5-3-7.7-4.7-11.4-6.1-7.4-2.8-17.2-6-27.2-5-.8.1-1.7.2-2.5.3a35.826,35.826,0,0,0-6.4,1.8l-.2.1h-1.4c-4.2.4-7.5,3-10.7,5.4a37.019,37.019,0,0,1-5.4,3.7,18.5,18.5,0,0,1-6.9,1.9c-4.5.4-9.2-.4-14.1-1.2-5-.8-10.2-1.7-15.3-1.3a20.781,20.781,0,0,0-6.3,1.5c-5.4,2.1-9.5,6.3-12.5,9.7C114.9-314.2,111.9-310.1,112.8-305.7Zm60.2-13,.9.2-.1.9v.1c-.3,1.7-.5,3.4-1.4,4.5s-2.4,1.8-4.8,2a24.441,24.441,0,0,1-2.9.1l-14-.1c-1,0-2.2,0-3.4.1a14.482,14.482,0,0,0-4.1,1l-3.8,1.7,2.8-3.1.1-.1c.1-.1.1-.2.2-.3,4-4.3,9.7-6.8,17-7.5A51.238,51.238,0,0,1,173-318.7Zm-34.5,17a13.694,13.694,0,0,0,2,6.3,24.008,24.008,0,0,0,2.8,3.7l.6.6-.5.6a19.524,19.524,0,0,0-2.6,4c-2.3,5-2.4,11.2-.1,17.6.3.9.8,1.9,1.3,3.1l.4.8-.8.4c-.5.3-1.1.5-1.7.8a33.653,33.653,0,0,0-3.8,1.9l-1.5.8.1-1.7a44.519,44.519,0,0,0-.2-10.9c-.3-1.6-.7-3.2-1.1-4.7a34.829,34.829,0,0,1-1.3-6.9c-.1-3.7,1.1-7.3,2.4-10.9.6-1.7,1.3-3.8,2.1-5.8l1.5-3.8Zm19.7,44.5a8.488,8.488,0,0,0,.9,2.2,4.282,4.282,0,0,1,.7,2.1,1.551,1.551,0,0,1-.7,1.1,5.783,5.783,0,0,1-1.4.5,5.283,5.283,0,0,1-1.3-.1c-1.7-.6-3-2.3-4.4-4.3-1.5-2.2-3.2-4.6-4.7-7.2l-.4-.7.7-.5a11.179,11.179,0,0,0,2.7-2.6,24.225,24.225,0,0,0,3.2-5.9c.5-1.1.9-2.1,1.4-3.1,2.2-4.2,6-7.3,8.7-9.2l.2-.1h.2c.3-.1.5-.1.8-.2h.1l1.8-.4-.7,1.7a27.1,27.1,0,0,0-2.1,13.7,25.582,25.582,0,0,0,.5,2.7l.2.7-.6.3c-.4.2-.8.5-1.2.7C159.7-264.1,157.3-260.7,158.2-257.2ZM231.3-300c.2.2.3.4.5.6l.3.3.8.9-1.1.5a31.207,31.207,0,0,0-5.7,3.2l-.9.7-.4-1.1a30.038,30.038,0,0,0-9.4-12.2l-1.5-1.2,1.8-.4a45.686,45.686,0,0,1,6.1-1c1.1-.1,2.3-.2,3.7-.2h2.2v1C227.3-304.9,230.2-301.3,231.3-300Zm3,4.8.6-.2.4.5a30.675,30.675,0,0,1,4.6,7.5c1.7,4.2,1.5,9.9-2,12.8a9.362,9.362,0,0,1-5.2,2,26.722,26.722,0,0,1-8.4-.9c-.2,0-.3-.1-.5-.1-.1,0-.3-.1-.4-.1l-1.4-.4.9-1.1c2.9-3.4,4.1-8.5,3.2-13.9,0-.2-.1-.5-.1-.7l-.1-.5.4-.3A33.32,33.32,0,0,1,234.3-295.2Zm-3,26.1-3.1,1.3-6.3,2.7-.8.4-.4-.9a39.021,39.021,0,0,1-1.6-4.5l-.5-1.6,1.6.4.4.1c1,.3,1.9.5,2.9.8a44.7,44.7,0,0,0,4.5.9ZM217.9-275l-.3-1.5c-.1-.6-.2-1.3-.3-1.9v-.1a6.752,6.752,0,0,1-.2-1.4l-.1-.5.4-.3a26.069,26.069,0,0,0,3.8-4.4l.4-.5,1.8-2.3-.1,2.9a12.126,12.126,0,0,1-3.5,8.6,2.651,2.651,0,0,1-.6.5Zm-1.7-9.1-.5-1.6a15.714,15.714,0,0,0-.9-2.3,51.913,51.913,0,0,0-3.7-6.5,43.7,43.7,0,0,1-3.4-5.8,18,18,0,0,1-1.2-3.5l-.2-.6.5-.4a10.985,10.985,0,0,1,1.4-.9c.4-.2.8-.5,1.2-.7l.5-.2.4.3a27.925,27.925,0,0,1,11.8,14.4l.2.5-.4.4c-.6.6-1.2,1.2-1.7,1.8-.6.7-1.1,1.4-1.7,2.2a19.224,19.224,0,0,1-1.3,1.7Zm2,20.7-.8.4-13.6,5.8-.8-1.7a20.451,20.451,0,0,0,4.5-2.9,38.216,38.216,0,0,0,3.4-3.6,25.377,25.377,0,0,1,3.6-3.7c.1-.1.2-.1.3-.2l1-.8.4,1.2c.5,1.6,1.1,3.1,1.7,4.6Zm-20.9,3.1-.6.1-.4-.4a11.983,11.983,0,0,1-1.1-1.2c-2.1-2.2-4.1-4.3-5.3-6.9-1.2-2.5-1.6-6.2.4-8.5a7.164,7.164,0,0,1,4.6-2.1,8.844,8.844,0,0,1,2.3,0,25.424,25.424,0,0,1,7.2,2.4l.9.4c2.2.9,4.6,1.9,7.3,2.8l1.6.6-1.4,1-.2.1c-.1.1-.2.1-.3.2a27.148,27.148,0,0,0-4.1,4.2,31.253,31.253,0,0,1-3,3.2A16.938,16.938,0,0,1,197.3-260.3Zm2.5,9a77.1,77.1,0,0,1,4.9,7.7l.9,1.6-1.8-.3a12.22,12.22,0,0,1-3.4-1c-2.1-1-3.8-2.8-5.6-4.6l-.3-.3-.1-.1-.9-1,1.2-.5,4.1-1.8.7-.3Zm-8.7-.5-.5.2-.4-.3a14,14,0,0,0-1.6-1,11.389,11.389,0,0,0-1.9-.9l-3.6-1.4,3.9-.3h.6l1.1-.1c1.9-.2,4.1-.4,6.3-.8l.5-.1.3.4a5.548,5.548,0,0,1,.6.8l.8.9-1.1.5Zm-13-6.9-.4-.1-.2-.3a22.149,22.149,0,0,1-3.3-8l-.1-.6.5-.3A24.868,24.868,0,0,0,185-281.3a5.639,5.639,0,0,1,.4-1.2c.8-2.5,1.6-5.1,3.5-5.8.2-.1.5-.1.7-.2a7.408,7.408,0,0,1,4.2,1.4c1.4.9,2.7,2,4.1,3.1h0l2.4,1.9-3.1-.3a11.294,11.294,0,0,0-2.6,0,10.793,10.793,0,0,0-6.7,3.1c-2.6,3-3,7.7-.9,12a25.7,25.7,0,0,0,4.8,6.6l1.2,1.3-1.8.2c-.9.1-1.9.2-3.1.3l-.8.1A40.5,40.5,0,0,1,178.1-258.7Zm-4.6-12.4-.2-1.6c-.6-4.1-1.3-8.3-3.3-11.9l-.3-.5.3-.5a19.956,19.956,0,0,1,5.8-6.1,19.263,19.263,0,0,1,8.5-3,17.678,17.678,0,0,1,13.4,4,1.746,1.746,0,0,0,1.2.4,1.421,1.421,0,0,0,.6-.2,1.8,1.8,0,0,0,.9-1.6,12.189,12.189,0,0,1,2.2-8.3l1-1.5.6,1.7a6.119,6.119,0,0,0,.5,1.2,43.406,43.406,0,0,0,3.7,6.3,40.692,40.692,0,0,1,3.5,6,31.367,31.367,0,0,1,1.3,4l.2.8-.8.3c-.4.1-.9.2-1.3.3-2.9.3-5.7-1.2-7.1-2.1a39.81,39.81,0,0,1-4.3-3.2,50.444,50.444,0,0,0-4.4-3.3,9.921,9.921,0,0,0-6.2-1.9,7.974,7.974,0,0,0-1.5.3c-3.5,1.2-4.5,4.8-5.5,7.9v.1c-.1.4-.2.7-.3,1.1a21.809,21.809,0,0,1-7.2,10.3Zm-3.2-34.3a53.572,53.572,0,0,1,18.6-5.6,40.4,40.4,0,0,1,12.6.8l1.4.4-1,1.1a18.858,18.858,0,0,1-2,2c-2.8,2.3-6.4,3.5-10.1,4.7h-.1a9.829,9.829,0,0,1-1.6.5,102.643,102.643,0,0,0-24.6,12.2c-.4.3-.8.5-1.2.8l-.2.1h-.2a1.268,1.268,0,0,0-.6.1,20.014,20.014,0,0,1-11.6-2.6l-1.1-.7,1-.8c1.9-1.5,3.9-2.9,5.8-4.2C160.3-299.5,165.1-302.8,170.3-305.4Zm-5.7-.6c-3.8,2.2-7.4,4.6-10.8,6.9a71.6,71.6,0,0,0-6.9,5.1l-.7.6-.6-.6a14.8,14.8,0,0,1-2.2-2.9c-1.6-2.7-2.4-6.7-.3-8.9a7,7,0,0,1,4.6-1.8c1-.1,2.1-.1,3.1-.1l13.4.1h3.4Zm26.9,7a57.741,57.741,0,0,0,6.1-2.3l2.4-1.1-1.2,2.4a20.315,20.315,0,0,0-1.4,3.9l-.2,1.2-1.1-.6a22.018,22.018,0,0,0-4.5-1.7l-3.1-.8Zm-18.4,39.7-2.8-2.9a9.509,9.509,0,0,1-1.5-2l-.6-.9,1-.4a6.884,6.884,0,0,1,.8-.3l1-.4.3,1,.6,2.1Zm-5.9-8.9-.2-1.1a7.719,7.719,0,0,1-.2-1.5,21.65,21.65,0,0,1,.4-7.6l.8-3.7,1,3.7a62.1,62.1,0,0,1,1.3,7.3l.1.6v.3l.1.7-.7.3a6.394,6.394,0,0,1-1.6.6Zm-21,.9-.9.8-.5-1.1a17.847,17.847,0,0,1-.9-2.3c-1.2-3.2-2.7-9.4,0-15.1a15.149,15.149,0,0,1,2.1-3.3l.5-.7.7.5a22.578,22.578,0,0,0,9,3.5l1.8.3-1.3,1.3a26.041,26.041,0,0,0-4.7,6.2,25.183,25.183,0,0,0-1.5,3.4,18.985,18.985,0,0,1-2.7,5.1A10.7,10.7,0,0,0,146.2-267.3Zm30.5-59.1-1.2,2.6a14.675,14.675,0,0,0-.6,1.4l-.3.7-.7-.1-1.8-.3-3.4-.5,3.2-1.3a14.17,14.17,0,0,0,1.8-.8c.1-.1.2-.1.3-.2.1,0,.2-.1.3-.1Zm22.3-.4c2,3.8,2.5,8.1,2.9,12.3l.1,1.2-1.2-.2a40.367,40.367,0,0,0-12.1-.6,53.937,53.937,0,0,0-11.5,2.5l-1.9.6.7-1.8a16.318,16.318,0,0,0,1-4.1v-.1c.1-.5.1-.9.2-1.4,1.2-6.3,5.9-11.7,12.9-14.8l.2-.1h.3C194.6-332.8,197.6-329.5,199-326.8Zm30.1,13.3-.3.3h-.4c-1,0-2.1,0-3.2.1-1.4.1-2.7.1-3.8.3a40.061,40.061,0,0,0-10.8,2.4l-.4.2-.4-.2c-.2-.1-.5-.2-.7-.3l-.3-.2-.9-.4.5-.9.1-.2.2-.4h0c.5-.9,1.1-1.8,1.6-2.6,2.9-4.5,6-7,9.2-7.5a1.554,1.554,0,0,0,1.3-1.9,1.752,1.752,0,0,0-1.8-1.4h-.1q-6.3,1.05-11.4,9c-.3.4-.5.8-.8,1.2l-.2.4-1.4,2.3-.3-2.7a33.809,33.809,0,0,0-3.1-12.3,15.416,15.416,0,0,0-4.6-5.5l-1.7-1.3,2.2-.3c.5-.1.9-.1,1.4-.2,9.4-.9,18.6,2.1,25.7,4.8,3.4,1.3,7.3,2.9,10.4,5.6a14.512,14.512,0,0,1,4.5,6.7l.3,1.1-1.2.1a4.1,4.1,0,0,0-1.1.1C233.7-316.9,230.8-315.6,229.1-313.5ZM250-301.9l-1.7.3c-1.5.3-3.1.6-4.6.8a54.19,54.19,0,0,0-7,1.4l-.6.2-.4-.5c-.6-.8-1.3-1.5-1.9-2.3-2.2-2.8-3.2-5.1-3.1-7v-.9l.9.1a28.667,28.667,0,0,1,13.4,3.7,20.558,20.558,0,0,1,3.7,2.9Zm5.4,2.2,1.3-.2a13.664,13.664,0,0,1,1.9-.2c3.3-.3,7.3-.3,9.3,2.9,2.4,3.8-2.6,8.3-7.3,11.8l-1.4,1-.1-1.7a36.773,36.773,0,0,0-.7-5.8,26.82,26.82,0,0,0-2.4-6.7Zm0,18c-.7.5-1.3.9-1.9,1.4a72.962,72.962,0,0,1-9.1,5.4l-2.3,1.2,1-2.3a16.513,16.513,0,0,0-.1-12.4,32.409,32.409,0,0,0-3.9-6.8l-.8-1.1,1.4-.3a37.28,37.28,0,0,1,4.4-.8,58.945,58.945,0,0,0,6.4-1.2l.9-.2.6-.1.3.6a25.912,25.912,0,0,1,2.9,7.3,31.372,31.372,0,0,1,.6,8.7v.4Zm-27.1,28.5a49.532,49.532,0,0,1-5.2-7.7l-.5-.9.9-.4,9.8-4.2c6.7-2.9,13.6-5.8,19.9-9.9l2-1.3-.6,2.3a27.587,27.587,0,0,1-.8,2.7c-2.7,7.9-7.7,13.8-13.5,16.2a32.716,32.716,0,0,1-5,1.5,40.561,40.561,0,0,0-5.9,1.9l-.6.3Zm-17.9,13.8,1-.3a50.972,50.972,0,0,0,7.9-3l2.1-1-.9,2.1a16.018,16.018,0,0,1-2,3.9,12.147,12.147,0,0,1-4.9,3.9l-.9.4-.3-1a10.662,10.662,0,0,0-.7-1.9,21.4,21.4,0,0,0-1-2.2Zm-1.4-3-.3-.6a66.423,66.423,0,0,0-5.6-9.2l-.6-.9,1-.4,15.3-6.6.8-.3.4.7a58.1,58.1,0,0,0,5.4,8.2l.5.6-.6.6-.3.3a10.1,10.1,0,0,0-1.3,1.6l-.2.2-.2.1c-1.7.7-3.3,1.5-4.8,2.2a42.244,42.244,0,0,1-8.9,3.3Zm-11.6,14h2.1c2.3,0,4.6,0,7-.2h0a25.125,25.125,0,0,0,2.7-.4l1.1-.2-.1,1.2a5.4,5.4,0,0,1-1.6,3.9A4.707,4.707,0,0,1,206-223a7.319,7.319,0,0,1-5.2-1.6,11.448,11.448,0,0,1-2.2-2.2Zm-14.7-2.4.8-1.4c.1-.2.2-.3.2-.5.9-2.2-.1-4.2-.8-5.8a8.539,8.539,0,0,1-.9-2.7c-.2-2.5,3.1-4.5,5.9-5.7l1.7-.7.6-.2.4.4,1.9,1.9a27.012,27.012,0,0,0,6.4,5.2,15.929,15.929,0,0,0,7.6,1.5h.6l.3.6c.5,1.1,1,2.2,1.5,3.4.2.5.4,1,.6,1.6l.3,1-1,.2a21.655,21.655,0,0,1-2.5.4h0c-2.2.2-4.4.2-6.7.2h-3.8l-.3-.5-.1-.2-.2-.5a1.589,1.589,0,0,0-1-.8,1.268,1.268,0,0,0-.6-.1,1.854,1.854,0,0,0-.7.2,17.025,17.025,0,0,1-7.4,2.4c-.3,0-.7.1-1.1.1Zm-4-2.1a9.115,9.115,0,0,1-3.2-.3,12.092,12.092,0,0,1-1.8-.5l-.3-.1h-.1l-.1-.1a18.8,18.8,0,0,1-3.4-2.8,31.719,31.719,0,0,1-3.3-4.6,40.244,40.244,0,0,0-3-4.2c-.8-.9-1.6-1.7-2.4-2.5l-.9-.7.9-.7a4.539,4.539,0,0,0,1.9-3.3,7.659,7.659,0,0,0-1-3.8,5.85,5.85,0,0,1-.6-1.5c-.5-2,1.1-4.1,2.8-5.2.1-.1.2-.1.3-.2l.8-.5.5.8a13.364,13.364,0,0,0,3.1,3.9,14.955,14.955,0,0,0,6.8,3.3l.3.1.2.2a10.038,10.038,0,0,0,2.6,2,23.685,23.685,0,0,0,4.7,2c.6.2,1.1.4,1.7.6l2,.7-1.9.9c-4.6,2.3-6.8,5.1-6.5,8.3a11.3,11.3,0,0,0,1.2,3.8c.6,1.3,1.1,2.4.8,3.2A2.391,2.391,0,0,1,178.7-232.9Zm-30.8,6.7.7-.9a1.38,1.38,0,0,1,.3-.4l.1-.1c.2-.3.5-.7.7-1,1.9-2.3,5.1-3.8,8.9-4.2a20.9,20.9,0,0,1,2.5-.1c3.5.1,7,1.1,10.6,2h.1l.1.1a24.01,24.01,0,0,0,4.6,2.1l2.5.8-2.4.9c-4.5,1.8-9.2,3.6-14,4.1-.5,0-.9.1-1.4.1a24.545,24.545,0,0,1-12.5-3Zm-8.5-8.2.6-.5a21.791,21.791,0,0,0,3.9-4.5l.3-.5c2.5-3.7,5.1-7.4,8.9-7.8,3.7-.3,6.7,2.9,7.9,4.2a38.858,38.858,0,0,1,2.8,3.9c.5.7,1,1.5,1.5,2.2l1.2,1.7-2.1-.3a17.09,17.09,0,0,0-3.1-.3c-1,0-2,0-3,.1-4.7.4-8.6,2.3-11.1,5.4a10.625,10.625,0,0,0-.9,1.1,3.039,3.039,0,0,0-.5.7l-.6.7-.7-.6a19.857,19.857,0,0,1-2.1-2,26.631,26.631,0,0,1-2.6-3.1Zm-5.2-15.5c-.1-2.3,0-4.5.1-6.3v-.4l.3-.2a14.964,14.964,0,0,1,2.3-1.7,30.488,30.488,0,0,1,4.4-2.3l1.8-.9.8-.4.4.7c1.6,2.6,3.3,5.1,4.9,7.4.5.7,1,1.5,1.6,2.2l.8,1-1.2.4c-4,1.4-6.7,5.4-8.9,8.7l-.3.4a19.753,19.753,0,0,1-2.7,3.2l-.9.9-.6-1.2A31.857,31.857,0,0,1,134.2-249.9Zm-5.3.4.9,2.8c1.2,3.5,2.5,6.9,4,10.3l.5,1.2h-1.4a3.887,3.887,0,0,1-1.5-.2c-3.5-1-4.7-5.9-3.8-10,.1-.4.2-.8.3-1.1l.1-.2Zm-9.3-65.3c2.7-3.1,6.5-7,11.2-8.8a19.255,19.255,0,0,1,5.5-1.3c4.6-.4,9.3.4,14.4,1.2.8.1,1.5.3,2.3.4l4.2.7-4.2,1.1a26.5,26.5,0,0,0-12.9,7.5c-4.5,4.8-6.6,11.2-8.6,16.8-1.2,3.6-2.7,7.8-2.5,12a32.725,32.725,0,0,0,1.4,7.7,39.272,39.272,0,0,1,1,4.4c.7,4.2.3,8.4-.1,12.9v.4l-.5,5.6-1.3-5.5a125.768,125.768,0,0,1-3.2-21.9l-.1-1.1c-.3-5.2-.6-11-3.9-15.5a26.123,26.123,0,0,0-2.7-3c-1.7-1.7-3.2-3.3-3.6-5.2C115.5-308.7,116.7-311.4,119.6-314.8Z" fill="#fff"/>
            </g>
          </g>
        </g>
        <g id="XMLID_2089_">
          <g id="XMLID_2092_">
            <path id="XMLID_2093_" d="M257.2-167.6c-3.8-4.6-10-7.1-15.8-8.1-5.5-.9-11.9-.9-16.5,2.7a12.815,12.815,0,0,0-4.9,10.4,17.169,17.169,0,0,0-.5,2.6c-.4,8.5,10.1,12.1,16.9,13,7.5,1.1,18.6.7,22.7-7C261.6-158.4,260.3-163.9,257.2-167.6Zm-24.3,7.1c0,.2-.1.2,0,0v-.1c-.1-.1-.2-.2-.1-.3.5-.5.3.1.1.4Z" fill="#8ad4b0"/>
          </g>
          <g id="XMLID_2090_">
            <path id="XMLID_2091_" d="M232.9-160.6Z" fill="#8ad4b0"/>
          </g>
        </g>
      </g>
    </g>
  </g>
</svg>
