<svg xmlns="http://www.w3.org/2000/svg" width="569.66" height="263.168" viewBox="0 0 569.66 263.168">
  <g id="Group_139" data-name="Group 139" transform="translate(-8451 -4615.8)">
    <text id="XMLID_558_" transform="translate(8487 4872.968)" font-size="21.85" font-family="'ITC Avant Garde Gothic Std Book',sans-serif"><tspan x="0" y="0">Maternal mental illness affects </tspan><tspan y="0" font-family="'ITC Avant Garde Gothic Std Book',sans-serif" font-weight="700" font-style="oblique">25% of children</tspan></text>
    <g id="XMLID_1211_" transform="translate(8427.83 4519)">
      <g id="XMLID_1811_">
        <circle id="XMLID_2028_" cx="16" cy="16" r="16" transform="translate(258.6 100.2)" fill="#96b1d7"/>
        <path id="XMLID_2022_" d="M315.3,180.6l-24.6-42.2a7.1,7.1,0,0,0-5.4-3.4H264.4a7.1,7.1,0,0,0-5.4,3.4l-18.5,31.8L220,134.9a7.173,7.173,0,0,0-6.1-3.5h-20a6.959,6.959,0,0,0-6.1,3.5l-24.6,42.2a6.989,6.989,0,0,0,2.5,9.6,7.42,7.42,0,0,0,3.5,1,7.173,7.173,0,0,0,6.1-3.5l10.8-18.6v8l-4.9,35a4.968,4.968,0,0,0,4.9,5.6h0v21.4a7.57,7.57,0,0,0,7.1,7.6,7.39,7.39,0,0,0,7.7-7.4V214h5.9v21.4a7.57,7.57,0,0,0,7.1,7.6,7.452,7.452,0,0,0,7.7-7.4V214h0a4.921,4.921,0,0,0,4.9-5.6l-4.9-35v-7.7L232.3,184c.4.6,2.9,5,4.6,6a7.42,7.42,0,0,0,3.5,1,7.173,7.173,0,0,0,6.1-3.5L257,169.4l-.1,62.2a7.383,7.383,0,0,0,7.4,7.4h.2a7.383,7.383,0,0,0,7.4-7.4l-.1-37.6a2.96,2.96,0,0,1,2.7-3,2.89,2.89,0,0,1,3.1,2.9v37.5a7.57,7.57,0,0,0,7.1,7.6,7.39,7.39,0,0,0,7.7-7.4V169.4l10.5,18.1A7.173,7.173,0,0,0,309,191a6.434,6.434,0,0,0,3.5-1A6.619,6.619,0,0,0,315.3,180.6Z" fill="#96b1d7"/>
        <path id="XMLID_1812_" d="M179,128.4l4-.4a3.772,3.772,0,0,0,3.4-4.6c-.7-3.4-.9-8.2,1.9-11.1v.4a16,16,0,0,0,32,0v-.4c2.8,2.9,2.6,7.7,1.9,11.1a3.94,3.94,0,0,0,3.4,4.6l4,.4a3.881,3.881,0,0,0,4.2-3.4c.5-5.1.4-12.7-2.4-15.7a13.6,13.6,0,0,0-12.8-3.9,16.023,16.023,0,0,0-28.4,0c-3.4-.6-8.6-.6-12.8,3.9-2.9,3-3,10.6-2.4,15.7A3.656,3.656,0,0,0,179,128.4Z" fill="#96b1d7"/>
      </g>
      <g id="XMLID_1220_">
        <circle id="XMLID_1810_" cx="15.8" cy="15.8" r="15.8" transform="translate(396.7 101.9)" fill="#96b1d7"/>
        <path id="XMLID_1809_" d="M452.8,181.5l-24.3-41.8a6.933,6.933,0,0,0-5.3-3.4H402.5a6.779,6.779,0,0,0-5.3,3.4l-18.3,31.5-20.4-35a7.011,7.011,0,0,0-6-3.5H332.7a6.8,6.8,0,0,0-6,3.5L302.1,178a6.983,6.983,0,0,0,2.5,9.5,7.3,7.3,0,0,0,3.5.9,6.8,6.8,0,0,0,6-3.5l10.7-18.4v7.9L320,209a4.867,4.867,0,0,0,4.8,5.5h0v21.2a7.351,7.351,0,1,0,14.7.2V214.5h5.8v21.2a7.351,7.351,0,1,0,14.7.2V214.5h0a4.867,4.867,0,0,0,4.8-5.5L360,174.4v-7.6L370.6,185c.4.6,2.9,5,4.6,6a7.3,7.3,0,0,0,3.5.9,6.8,6.8,0,0,0,6-3.5l10.4-17.9-.1,61.7a7.383,7.383,0,0,0,7.4,7.4h.2a7.383,7.383,0,0,0,7.4-7.4l-.1-37.2a3.031,3.031,0,0,1,2.7-3,2.89,2.89,0,0,1,3.1,2.9V232a7.351,7.351,0,1,0,14.7.2V170.5l10.4,17.9a7.011,7.011,0,0,0,6,3.5,7.3,7.3,0,0,0,3.5-.9A7.006,7.006,0,0,0,452.8,181.5Z" fill="#96b1d7"/>
        <path id="XMLID_1808_" d="M317.7,129.7l3.9-.3a3.786,3.786,0,0,0,3.4-4.5c-.7-3.4-.9-8.1,1.9-11v.4a15.8,15.8,0,1,0,31.6,0v-.4c2.8,2.9,2.6,7.6,1.9,11a3.786,3.786,0,0,0,3.4,4.5l3.9.3a3.729,3.729,0,0,0,4.1-3.4c.5-5,.4-12.5-2.4-15.5a13.335,13.335,0,0,0-12.7-3.8,15.859,15.859,0,0,0-28.2,0,13.584,13.584,0,0,0-12.7,3.8c-2.8,3-2.9,10.5-2.4,15.5A4.04,4.04,0,0,0,317.7,129.7Z" fill="#96b1d7"/>
      </g>
      <g id="XMLID_1216_">
        <circle id="XMLID_1219_" cx="15.8" cy="15.8" r="15.8" transform="translate(535.8 101.9)" fill="#96b1d7"/>
        <path id="XMLID_1218_" d="M591.9,181.5l-24.3-41.8a6.933,6.933,0,0,0-5.3-3.4H541.6a6.779,6.779,0,0,0-5.3,3.4L518,171.2l-20.4-35a7.011,7.011,0,0,0-6-3.5H471.8a6.8,6.8,0,0,0-6,3.5L441.2,178a6.983,6.983,0,0,0,2.5,9.5,7.3,7.3,0,0,0,3.5.9,6.8,6.8,0,0,0,6-3.5l10.7-18.4v7.9L459.1,209a4.867,4.867,0,0,0,4.8,5.5h0v21.2a7.351,7.351,0,1,0,14.7.2V214.5h5.8v21.2a7.351,7.351,0,1,0,14.7.2V214.5h0a4.867,4.867,0,0,0,4.8-5.5l-4.8-34.6v-7.6L509.7,185c.4.6,2.9,5,4.6,6a7.3,7.3,0,0,0,3.5.9,6.8,6.8,0,0,0,6-3.5l10.4-17.9-.1,61.7a7.383,7.383,0,0,0,7.4,7.4h.2a7.383,7.383,0,0,0,7.4-7.4L549,195a3.031,3.031,0,0,1,2.7-3,2.89,2.89,0,0,1,3.1,2.9V232a7.351,7.351,0,1,0,14.7.2V170.5l10.4,17.9a7.011,7.011,0,0,0,6,3.5,7.3,7.3,0,0,0,3.5-.9A7.007,7.007,0,0,0,591.9,181.5Z" fill="#96b1d7"/>
        <path id="XMLID_1217_" d="M456.8,129.7l3.9-.3a3.786,3.786,0,0,0,3.4-4.5c-.7-3.4-.9-8.1,1.9-11v.4a15.8,15.8,0,1,0,31.6,0v-.4c2.8,2.9,2.6,7.6,1.9,11a3.786,3.786,0,0,0,3.4,4.5l3.9.3a3.729,3.729,0,0,0,4.1-3.4c.5-5,.4-12.5-2.4-15.5a13.335,13.335,0,0,0-12.7-3.8,15.761,15.761,0,0,0-14.1-8.6,15.993,15.993,0,0,0-14.1,8.6,13.584,13.584,0,0,0-12.7,3.8c-2.8,3-2.9,10.5-2.4,15.5A4.04,4.04,0,0,0,456.8,129.7Z" fill="#96b1d7"/>
      </g>
      <g id="XMLID_1212_">
        <circle id="XMLID_1215_" cx="15.8" cy="15.8" r="15.8" transform="translate(118.7 100.9)" fill="#8ad4b0"/>
        <path id="XMLID_1214_" d="M174.8,180.5l-24.3-41.8a6.933,6.933,0,0,0-5.3-3.4H124.5a6.779,6.779,0,0,0-5.3,3.4l-18.3,31.5-20.4-35a7.011,7.011,0,0,0-6-3.5H54.6a6.8,6.8,0,0,0-6,3.5L24.1,177a6.983,6.983,0,0,0,2.5,9.5,7.3,7.3,0,0,0,3.5.9,6.8,6.8,0,0,0,6-3.5l10.7-18.4v7.9L42,208a4.867,4.867,0,0,0,4.8,5.5h0v21.2a7.351,7.351,0,1,0,14.7.2V213.5h5.8v21.2a7.351,7.351,0,1,0,14.7.2V213.5h0a4.867,4.867,0,0,0,4.8-5.5L82,173.4v-7.6L92.7,184c.4.6,2.9,5,4.6,6a7.3,7.3,0,0,0,3.5.9,6.8,6.8,0,0,0,6-3.5l10.4-17.9-.1,61.7a7.383,7.383,0,0,0,7.4,7.4h.2a7.383,7.383,0,0,0,7.4-7.4L132,194a3.031,3.031,0,0,1,2.7-3,2.89,2.89,0,0,1,3.1,2.9V231a7.351,7.351,0,1,0,14.7.2V169.5l10.4,17.9a7.011,7.011,0,0,0,6,3.5,7.3,7.3,0,0,0,3.5-.9A6.976,6.976,0,0,0,174.8,180.5Z" fill="#8ad4b0"/>
        <path id="XMLID_1213_" d="M39.7,128.7l3.9-.3a3.786,3.786,0,0,0,3.4-4.5c-.7-3.4-.9-8.1,1.9-11v.4a15.8,15.8,0,0,0,31.6,0v-.4c2.8,2.9,2.6,7.6,1.9,11a3.786,3.786,0,0,0,3.4,4.5l3.9.3a3.729,3.729,0,0,0,4.1-3.4c.5-5,.4-12.5-2.4-15.5A13.334,13.334,0,0,0,78.7,106a15.761,15.761,0,0,0-14.1-8.6A15.993,15.993,0,0,0,50.5,106a13.584,13.584,0,0,0-12.7,3.8c-2.8,3-2.9,10.5-2.4,15.5A4.04,4.04,0,0,0,39.7,128.7Z" fill="#8ad4b0"/>
      </g>
    </g>
  </g>
</svg>
