<svg xmlns="http://www.w3.org/2000/svg" width="463.779" height="359.567" viewBox="0 0 463.779 359.567">
  <g id="Group_138" data-name="Group 138" transform="translate(-7871 -4519.4)">
    <text id="XMLID_531_" transform="translate(7898 4872.967)" font-size="21.85" font-family="'ITC Avant Garde Gothic Std Book',sans-serif"><tspan x="0" y="0">&apos;Baby blues&apos; affects </tspan><tspan y="0" font-family="'ITC Avant Garde Gothic Std Book',sans-serif" font-weight="700" font-style="oblique">80% of new moms</tspan></text>
    <g id="XMLID_1030_" transform="translate(8428.176 4519)">
      <g id="XMLID_1028_">
        <path id="XMLID_1029_" d="M-540.7,215.3c-1,2.9-36.5,69.3-.1,73.3C-504.4,292.4-540.7,215.3-540.7,215.3Z" fill="#96b1d7"/>
      </g>
      <g id="XMLID_1031_">
        <path id="XMLID_1032_" d="M-444.6,215.3c-1,2.9-36.5,69.3-.1,73.3C-408.3,292.4-444.6,215.3-444.6,215.3Z" fill="#96b1d7"/>
      </g>
      <g id="XMLID_1033_">
        <path id="XMLID_1034_" d="M-348.5,215.3c-1,2.9-36.5,69.3-.1,73.3C-312.2,292.4-348.5,215.3-348.5,215.3Z" fill="#96b1d7"/>
      </g>
      <g id="XMLID_1035_">
        <path id="XMLID_1036_" d="M-252.4,215.3c-1,2.9-36.5,69.3-.1,73.3C-216.1,292.4-252.4,215.3-252.4,215.3Z" fill="#e188bd"/>
      </g>
      <g id="XMLID_1037_">
        <path id="XMLID_1038_" d="M-156.3,215.3c-1,2.9-36.5,69.3-.1,73.3C-120,292.4-156.3,215.3-156.3,215.3Z" fill="#e188bd"/>
      </g>
      <g id="XMLID_1047_">
        <path id="XMLID_1048_" d="M-494,133.3c-1,2.9-36.5,69.3-.1,73.3C-457.6,210.5-494,133.3-494,133.3Z" fill="#96b1d7"/>
      </g>
      <g id="XMLID_1045_">
        <path id="XMLID_1046_" d="M-397.9,133.3c-1,2.9-36.5,69.3-.1,73.3C-361.5,210.5-397.9,133.3-397.9,133.3Z" fill="#96b1d7"/>
      </g>
      <g id="XMLID_1043_">
        <path id="XMLID_1044_" d="M-301.8,133.3c-1,2.9-36.5,69.3-.1,73.3C-265.4,210.5-301.8,133.3-301.8,133.3Z" fill="#96b1d7"/>
      </g>
      <g id="XMLID_1041_">
        <path id="XMLID_1042_" d="M-205.7,133.3c-1,2.9-36.5,69.3-.1,73.3C-169.3,210.5-205.7,133.3-205.7,133.3Z" fill="#96b1d7"/>
      </g>
      <g id="XMLID_1039_">
        <path id="XMLID_1040_" d="M-109.5,133.3c-1,2.9-36.5,69.3-.1,73.3C-73.2,210.5-109.5,133.3-109.5,133.3Z" fill="#96b1d7"/>
      </g>
    </g>
    <g id="XMLID_1081_" transform="translate(8405.4 4519)">
      <path id="XMLID_1075_" d="M-214.8,52.9s-49.4,52.5-110.3,52.5S-435.4,52.9-435.4,52.9-385.9.4-325,.4-214.8,52.9-214.8,52.9Z" fill="#eaeaea"/>
      <circle id="XMLID_1076_" cx="42.5" cy="42.5" r="42.5" transform="translate(-367.5 20.3)" fill="#231f20"/>
      <path id="XMLID_1077_" d="M-435.3,52.9s67.7,9.9,110.3,9.9,110.3-9.9,110.3-9.9S-264.6.4-325,.4-435.3,52.9-435.3,52.9Z" fill="#dea287"/>
      <path id="XMLID_1078_" d="M-215.3,53c3.9-.5,32.2-6.9,45.8-15.3" fill="none" stroke="#231f20" stroke-miterlimit="10" stroke-width="0.613"/>
      <path id="XMLID_1079_" d="M-242.3,56.5A106.219,106.219,0,0,0-204,39.6" fill="none" stroke="#231f20" stroke-miterlimit="10" stroke-width="0.613"/>
      <path id="XMLID_1080_" d="M-275.4,60.1c17.6-1.5,36.5-10.9,48.1-24.2" fill="none" stroke="#231f20" stroke-miterlimit="10" stroke-width="0.613"/>
      <path id="XMLID_1109_" d="M-435.3,52.9s67.7,9.9,110.3,9.9,110.3-9.9,110.3-9.9" fill="none" stroke="#231f20" stroke-miterlimit="10" stroke-width="0.613"/>
    </g>
  </g>
</svg>
