<svg xmlns="http://www.w3.org/2000/svg" width="532.478" height="340.988" viewBox="0 0 532.478 340.988">
  <g id="Group_139" data-name="Group 139" transform="translate(-8470 -4125.421)">
    <rect id="XMLID_384_" width="524.1" height="48.6" transform="translate(8474 4417.6)" fill="none"/>
    <path id="Path_1243" data-name="Path 1243" d="M1.464,0H7.123c6.14,0,9.024-3.715,9.833-8.128a7.454,7.454,0,0,0-.546-5.026c-1.551-3.015-4.785-3.015-6.6-3.015H4.457ZM7.91-12.542H9.7c1.835,0,2.535.765,2.884,1.486A5.213,5.213,0,0,1,12.8-8.063c-.415,2.294-1.682,4.436-4.763,4.436H6.271ZM30.415-4.807c.7-2.229.59-4.173-.634-5.812a5.135,5.135,0,0,0-4.239-1.923,8.128,8.128,0,0,0-7.56,6.511A5.21,5.21,0,0,0,23.227.393,6.83,6.83,0,0,0,26.875-.7a9.185,9.185,0,0,0,3.037-3.1H26.2a2.964,2.964,0,0,1-2.4,1.136c-1.42,0-2.491-.852-2.4-2.141ZM21.937-7.56A3.275,3.275,0,0,1,25-9.483a2.09,2.09,0,0,1,2.36,1.923ZM30.9,4.042h3.627L35.266,0l.2-1.093A3.782,3.782,0,0,0,38.827.415c3.452,0,6.446-2.862,7.079-6.358.524-2.819-.393-6.6-4.7-6.6a5.818,5.818,0,0,0-4.152,1.748l.24-1.333H33.889ZM42.3-6.052A3.8,3.8,0,0,1,38.7-2.972a2.491,2.491,0,0,1-1.988-.9,2.584,2.584,0,0,1-.481-2.163,3.951,3.951,0,0,1,1.267-2.207,3.625,3.625,0,0,1,2.36-.918,2.457,2.457,0,0,1,2.469,3.081ZM46.846,0h3.627l1.2-6.511c.328-1.7,1.311-2.382,3.168-2.382h.131l.677-3.649a3.8,3.8,0,0,0-3.409,1.77l.262-1.355H49.1ZM67.364-4.807c.7-2.229.59-4.173-.634-5.812a5.135,5.135,0,0,0-4.239-1.923,8.128,8.128,0,0,0-7.56,6.511A5.21,5.21,0,0,0,60.175.393,6.83,6.83,0,0,0,63.824-.7a9.186,9.186,0,0,0,3.037-3.1H63.147a2.964,2.964,0,0,1-2.4,1.136c-1.42,0-2.491-.852-2.4-2.141ZM58.886-7.56a3.275,3.275,0,0,1,3.059-1.923A2.09,2.09,0,0,1,64.3-7.56ZM78.922-8.718c.284-3.19-2.36-3.824-3.955-3.824a5.384,5.384,0,0,0-5.441,4.108c-.306,1.639.808,2.666,2.294,3.168,2.141.9,3.015,1.005,2.862,1.835a1.427,1.427,0,0,1-1.442.94,1.033,1.033,0,0,1-1.158-1.114H68.478c-.262,3.19,2.338,4.02,4.173,4.02,2.688,0,5.244-1.573,5.725-4.239.5-2.622-1.573-3.234-3.518-3.8-.918-.284-1.748-.655-1.639-1.2a1.116,1.116,0,0,1,1.18-.808c1.071,0,.983.656.961.918Zm10.9,0c.284-3.19-2.36-3.824-3.955-3.824A5.384,5.384,0,0,0,80.43-8.434c-.306,1.639.808,2.666,2.294,3.168,2.141.9,3.015,1.005,2.862,1.835a1.427,1.427,0,0,1-1.442.94,1.033,1.033,0,0,1-1.158-1.114H79.381c-.262,3.19,2.338,4.02,4.173,4.02,2.688,0,5.244-1.573,5.725-4.239.5-2.622-1.573-3.234-3.518-3.8-.918-.284-1.748-.655-1.639-1.2a1.116,1.116,0,0,1,1.18-.808c1.071,0,.983.656.961.918Zm3.059-4.7h3.627l.5-2.753H93.387ZM90.393,0h3.627l2.251-12.127H92.644Zm6.817-6.074C96.643-3.1,98.128.371,102.542.371a7.978,7.978,0,0,0,7.735-6.446c.546-2.972-.94-6.446-5.353-6.446A7.936,7.936,0,0,0,97.211-6.1Zm3.627,0a3.7,3.7,0,0,1,3.452-3.059,2.406,2.406,0,0,1,2.36,3.059,3.72,3.72,0,0,1-3.474,3.059,2.406,2.406,0,0,1-2.36-3.037ZM111.195,0h3.627l1.224-6.6c.24-1.245.743-2.535,2.535-2.535,1.617,0,1.682,1.18,1.442,2.513L118.8,0h3.627l1.4-7.582c.306-1.639.5-4.96-3.583-4.96a4.424,4.424,0,0,0-3.649,1.7l.24-1.289h-3.387Zm35.55-12.127h-3.627l-.24,1.289a3.342,3.342,0,0,0-3.277-1.7,7.658,7.658,0,0,0-7.276,6.468C131.668-2.6,133.351.415,137.2.415a4.93,4.93,0,0,0,3.911-1.726L140.867,0h3.627Zm-10.816,6.1a3.784,3.784,0,0,1,3.583-3.125,2.28,2.28,0,0,1,2.425,1.682,3.032,3.032,0,0,1,.022,1.6,4.177,4.177,0,0,1-.787,1.551,3.506,3.506,0,0,1-2.8,1.355,2.447,2.447,0,0,1-2.447-3.037ZM147.138,0h3.627l1.224-6.6c.24-1.245.743-2.535,2.535-2.535,1.617,0,1.682,1.18,1.442,2.513L154.742,0h3.627l1.4-7.582c.306-1.639.5-4.96-3.583-4.96a4.424,4.424,0,0,0-3.649,1.7l.24-1.289h-3.387ZM176.57-16.169h-3.627l-.7,3.758L172-11.1a3.832,3.832,0,0,0-3.3-1.442A7.579,7.579,0,0,0,161.515-6.1c-.677,3.649,1.2,6.489,4.873,6.489a4.844,4.844,0,0,0,3.977-1.7L170.124,0h3.452ZM165.142-6.118a3.745,3.745,0,0,1,3.649-3.037,2.461,2.461,0,0,1,1.988.852,2.436,2.436,0,0,1,.5,2.141,3.514,3.514,0,0,1-1.267,2.251,3.843,3.843,0,0,1-2.425.918,2.4,2.4,0,0,1-2.447-3.1Zm32.8-6.009h-3.627l-.24,1.289a3.342,3.342,0,0,0-3.277-1.7,7.658,7.658,0,0,0-7.276,6.468C182.863-2.6,184.545.415,188.391.415A4.93,4.93,0,0,0,192.3-1.311L192.062,0h3.627Zm-10.816,6.1a3.784,3.784,0,0,1,3.583-3.125,2.28,2.28,0,0,1,2.425,1.682,3.032,3.032,0,0,1,.022,1.6,4.177,4.177,0,0,1-.787,1.551,3.506,3.506,0,0,1-2.8,1.355,2.447,2.447,0,0,1-2.447-3.037ZM198.332,0h3.627l1.224-6.6c.24-1.245.743-2.535,2.535-2.535,1.617,0,1.682,1.18,1.442,2.513L205.936,0h3.627l1.4-7.582c.306-1.639.5-4.96-3.583-4.96a4.424,4.424,0,0,0-3.649,1.7l.24-1.289h-3.387Zm12.52,0h4.37l3.168-3.758L220.117,0h4.436l-3.5-6.489,5.135-5.637h-4.3l-2.535,3.19-1.377-3.19h-4.348l3.037,5.637ZM228.4-13.416h3.627l.5-2.753H228.9ZM225.907,0h3.627l2.251-12.127h-3.627Zm19.141-4.807c.7-2.229.59-4.173-.634-5.812a5.135,5.135,0,0,0-4.239-1.923,8.128,8.128,0,0,0-7.56,6.511A5.21,5.21,0,0,0,237.859.393,6.83,6.83,0,0,0,241.508-.7a9.186,9.186,0,0,0,3.037-3.1h-3.714a2.964,2.964,0,0,1-2.4,1.136c-1.42,0-2.491-.852-2.4-2.141ZM236.57-7.56a3.275,3.275,0,0,1,3.059-1.923,2.09,2.09,0,0,1,2.36,1.923ZM246.992,0h3.627l1.748-9.374h1.748l.5-2.753H252.87l.743-4.042h-3.627l-.743,4.042h-1.792l-.5,2.753h1.792Zm7.495,4.042h3.846L267.4-12.127h-3.846l-3.627,7.036-1.158-7.036H254.9l2.36,11.515Z" transform="translate(8512.4 4435.752)"/>
    <path id="Path_1242" data-name="Path 1242" d="M19.665-11.755H18.048v2.469a5.164,5.164,0,0,0-4.807-2.8,6,6,0,0,0-6.1,6.205,5.984,5.984,0,0,0,6.1,6.205,5.216,5.216,0,0,0,4.807-2.753V0h1.617ZM8.74-5.878a4.609,4.609,0,0,1,4.676-4.72,4.534,4.534,0,0,1,4.3,2.819A4.192,4.192,0,0,1,18.092-5.9,4.5,4.5,0,0,1,17.7-4.042,4.4,4.4,0,0,1,13.46-1.18,4.591,4.591,0,0,1,8.74-5.856ZM22.811,0h1.6V-6.4c0-2.666,1.267-4.086,3.54-4.086H28.1v-1.6a4,4,0,0,0-3.758,2.251v-1.923H22.811ZM40.444-5.419a6.109,6.109,0,0,0-1.835-5,6.157,6.157,0,0,0-4.3-1.661,6.133,6.133,0,0,0-6.184,6.227A6.071,6.071,0,0,0,34.326.328a6.151,6.151,0,0,0,3.343-.961A6.231,6.231,0,0,0,40.051-3.5H38.369a4.348,4.348,0,0,1-4.042,2.425,4.477,4.477,0,0,1-4.588-4.348ZM29.76-6.708a4.452,4.452,0,0,1,4.567-4,4.472,4.472,0,0,1,4.523,4ZM49.949,0h1.6V-10.466h2.578v-1.289H51.544v-4.414h-1.6v4.414H47.633v1.289h2.316Zm5.943,0h1.617V-6.686a3.992,3.992,0,0,1,.94-2.731,3.666,3.666,0,0,1,2.862-1.158,3.55,3.55,0,0,1,2.95,1.2,5.02,5.02,0,0,1,.852,3.1V0h1.6V-6.337a6.556,6.556,0,0,0-1.114-4.13A4.59,4.59,0,0,0,61.7-12.083a4.431,4.431,0,0,0-4.2,2.251v-6.337H55.892ZM81.238-5.419a6.109,6.109,0,0,0-1.835-5,6.157,6.157,0,0,0-4.3-1.661,6.133,6.133,0,0,0-6.184,6.227A6.071,6.071,0,0,0,75.12.328a6.151,6.151,0,0,0,3.343-.961A6.231,6.231,0,0,0,80.845-3.5H79.163A4.348,4.348,0,0,1,75.12-1.071a4.477,4.477,0,0,1-4.589-4.348ZM70.554-6.708a4.452,4.452,0,0,1,4.567-4,4.472,4.472,0,0,1,4.523,4ZM90.743,0h1.6V-10.466h2.578v-1.289H92.338v-4.414h-1.6v4.414H88.427v1.289h2.316ZM99.4,0h1.573L103.7-8.565,106.475,0h1.6l4.064-11.755h-1.682l-3.212,9.68-2.84-8.631h-1.333l-2.819,8.631-3.234-9.68h-1.7Zm13.35-5.878A6.065,6.065,0,0,0,118.973.306a6.07,6.07,0,0,0,6.249-6.184,6.088,6.088,0,0,0-6.249-6.205A6.077,6.077,0,0,0,112.746-5.9Zm1.6,0a4.582,4.582,0,0,1,4.632-4.7,4.569,4.569,0,0,1,4.632,4.7,4.569,4.569,0,0,1-4.632,4.7,4.576,4.576,0,0,1-4.632-4.676ZM133.941,0h1.617V-6.555a4.555,4.555,0,0,1,.787-2.819,2.893,2.893,0,0,1,2.491-1.2,3.031,3.031,0,0,1,2.578,1.245,4.48,4.48,0,0,1,.612,2.8V0h1.617V-6.533a4.153,4.153,0,0,1,.7-2.819,3.073,3.073,0,0,1,2.578-1.224,2.776,2.776,0,0,1,2.338.983,4.617,4.617,0,0,1,.874,3.125V0h1.617V-6.533c0-2.076-.306-3.343-1.333-4.37a4.333,4.333,0,0,0-3.168-1.18,4.424,4.424,0,0,0-3.234,1.311,5.273,5.273,0,0,0-.852,1.245,6.136,6.136,0,0,0-.765-1.224,4.149,4.149,0,0,0-3.212-1.333A4.209,4.209,0,0,0,135.47-9.9v-1.857h-1.53Zm20.168-5.878A6.065,6.065,0,0,0,160.335.306a6.07,6.07,0,0,0,6.249-6.184,6.088,6.088,0,0,0-6.249-6.205A6.077,6.077,0,0,0,154.108-5.9Zm1.6,0a4.582,4.582,0,0,1,4.632-4.7,4.569,4.569,0,0,1,4.632,4.7,4.569,4.569,0,0,1-4.632,4.7A4.576,4.576,0,0,1,155.7-5.856Zm20.189-2.928a3.33,3.33,0,0,0-3.583-3.278,3.389,3.389,0,0,0-3.671,3.365c.044,1.857,1.355,2.535,3.037,3.037,2.032.59,2.906,1.136,2.95,2.469a2.176,2.176,0,0,1-2.272,2.207,2.326,2.326,0,0,1-2.447-2.338h-1.6a3.773,3.773,0,0,0,4.02,3.671,3.656,3.656,0,0,0,3.889-3.736c-.087-2.513-1.967-2.993-3.649-3.452-1.42-.415-2.272-.874-2.316-1.988a1.86,1.86,0,0,1,2.032-1.9,1.842,1.842,0,0,1,2.01,1.945ZM179.76,0h1.6V-10.466h2.578v-1.289h-2.578v-4.414h-1.6v4.414h-2.316v1.289h2.316Z" transform="translate(8778 4435.752)"/>
    <path id="Path_1241" data-name="Path 1241" d="M11.34-3.977a4.433,4.433,0,0,1-4.261,2.8,4.568,4.568,0,0,1-4.632-4.7A4.823,4.823,0,0,1,3.78-9.264,4.464,4.464,0,0,1,7.1-10.6a4.5,4.5,0,0,1,4.261,2.906h1.661a6.1,6.1,0,0,0-5.987-4.392A6.093,6.093,0,0,0,.83-5.878,6.126,6.126,0,0,0,7.145.328a6.092,6.092,0,0,0,5.878-4.3Zm3.277-1.9A6.065,6.065,0,0,0,20.845.306a6.07,6.07,0,0,0,6.249-6.184,6.088,6.088,0,0,0-6.249-6.205A6.077,6.077,0,0,0,14.618-5.9Zm1.6,0a4.582,4.582,0,0,1,4.632-4.7,4.569,4.569,0,0,1,4.632,4.7,4.569,4.569,0,0,1-4.632,4.7,4.576,4.576,0,0,1-4.632-4.676ZM29.519,0h1.617V-6.555a4.555,4.555,0,0,1,.787-2.819,2.893,2.893,0,0,1,2.491-1.2A3.031,3.031,0,0,1,36.992-9.33a4.48,4.48,0,0,1,.612,2.8V0h1.617V-6.533a4.153,4.153,0,0,1,.7-2.819A3.073,3.073,0,0,1,42.5-10.575a2.776,2.776,0,0,1,2.338.983,4.617,4.617,0,0,1,.874,3.125V0h1.617V-6.533c0-2.076-.306-3.343-1.333-4.37a4.333,4.333,0,0,0-3.168-1.18,4.424,4.424,0,0,0-3.234,1.311,5.273,5.273,0,0,0-.852,1.245,6.136,6.136,0,0,0-.765-1.224,4.149,4.149,0,0,0-3.212-1.333A4.209,4.209,0,0,0,31.049-9.9v-1.857H29.519ZM50.408,0h1.617V-6.555a4.555,4.555,0,0,1,.787-2.819,2.893,2.893,0,0,1,2.491-1.2A3.031,3.031,0,0,1,57.881-9.33a4.48,4.48,0,0,1,.612,2.8V0h1.617V-6.533a4.153,4.153,0,0,1,.7-2.819,3.073,3.073,0,0,1,2.578-1.224,2.776,2.776,0,0,1,2.338.983A4.617,4.617,0,0,1,66.6-6.468V0h1.617V-6.533c0-2.076-.306-3.343-1.333-4.37a4.333,4.333,0,0,0-3.168-1.18,4.424,4.424,0,0,0-3.234,1.311,5.273,5.273,0,0,0-.852,1.245,6.136,6.136,0,0,0-.765-1.224,4.149,4.149,0,0,0-3.212-1.333A4.209,4.209,0,0,0,51.937-9.9v-1.857H50.408ZM70.576-5.878A6.065,6.065,0,0,0,76.8.306a6.07,6.07,0,0,0,6.249-6.184A6.088,6.088,0,0,0,76.8-12.083,6.077,6.077,0,0,0,70.576-5.9Zm1.6,0a4.582,4.582,0,0,1,4.632-4.7,4.569,4.569,0,0,1,4.632,4.7A4.569,4.569,0,0,1,76.8-1.18a4.576,4.576,0,0,1-4.632-4.676ZM85.477,0h1.617V-6.642a3.567,3.567,0,0,1,3.824-3.933c2.644-.044,3.78,1.682,3.78,4.217V0h1.6V-6.686c0-2.862-1.289-5.353-4.938-5.4a4.4,4.4,0,0,0-4.37,2.425c.022-.787.022-1.442.022-2.1h-1.53ZM105.71,4.457h1.617V-2.4A5.223,5.223,0,0,0,112.156.328a5.974,5.974,0,0,0,6.031-6.162,6,6,0,0,0-6.031-6.249,5.407,5.407,0,0,0-4.916,2.775v-2.447h-1.53ZM116.57-5.878a4.591,4.591,0,0,1-4.676,4.7,4.67,4.67,0,0,1-3.321-1.333,4.686,4.686,0,0,1-1.355-3.343,4.855,4.855,0,0,1,1.311-3.365A4.653,4.653,0,0,1,111.85-10.6a4.587,4.587,0,0,1,4.72,4.7Zm15.514.459a6.109,6.109,0,0,0-1.835-5,6.157,6.157,0,0,0-4.3-1.661,6.133,6.133,0,0,0-6.184,6.227A6.071,6.071,0,0,0,125.965.328a6.151,6.151,0,0,0,3.343-.961A6.231,6.231,0,0,0,131.69-3.5h-1.682a4.348,4.348,0,0,1-4.042,2.425,4.477,4.477,0,0,1-4.589-4.348ZM121.4-6.708a4.452,4.452,0,0,1,4.567-4,4.472,4.472,0,0,1,4.523,4ZM134.378,0h1.6V-6.4c0-2.666,1.267-4.086,3.54-4.086h.153v-1.6a4,4,0,0,0-3.758,2.251v-1.923h-1.53Zm7.036-13.918h1.617v-2.251h-1.617Zm0,13.918h1.617V-11.755h-1.617Zm4.763,0h1.617V-6.642a3.567,3.567,0,0,1,3.824-3.933c2.644-.044,3.78,1.682,3.78,4.217V0h1.6V-6.686c0-2.862-1.289-5.353-4.938-5.4a4.4,4.4,0,0,0-4.37,2.425c.022-.787.022-1.442.022-2.1h-1.53Zm25.739-11.755H170.3v2.469a5.164,5.164,0,0,0-4.807-2.8,6,6,0,0,0-6.1,6.205,5.984,5.984,0,0,0,6.1,6.205A5.216,5.216,0,0,0,170.3-2.425V0h1.617ZM160.991-5.878a4.609,4.609,0,0,1,4.676-4.72,4.534,4.534,0,0,1,4.3,2.819,4.192,4.192,0,0,1,.371,1.879,4.5,4.5,0,0,1-.393,1.857A4.4,4.4,0,0,1,165.71-1.18a4.591,4.591,0,0,1-4.72-4.676ZM175.98,0h1.6V-10.466h2.578v-1.289h-2.578v-4.414h-1.6v4.414h-2.316v1.289h2.316Zm17.087-11.755H191.45v2.469a5.164,5.164,0,0,0-4.807-2.8,6,6,0,0,0-6.1,6.205,5.984,5.984,0,0,0,6.1,6.205,5.216,5.216,0,0,0,4.807-2.753V0h1.617ZM182.142-5.878a4.609,4.609,0,0,1,4.676-4.72,4.534,4.534,0,0,1,4.3,2.819,4.192,4.192,0,0,1,.371,1.879,4.5,4.5,0,0,1-.393,1.857,4.4,4.4,0,0,1-4.239,2.862,4.591,4.591,0,0,1-4.72-4.676ZM196.213,0h1.617V-16.169h-1.617Zm11.034,0h1.617V-6.555a4.555,4.555,0,0,1,.787-2.819,2.893,2.893,0,0,1,2.491-1.2A3.031,3.031,0,0,1,214.72-9.33a4.48,4.48,0,0,1,.612,2.8V0h1.617V-6.533a4.153,4.153,0,0,1,.7-2.819,3.073,3.073,0,0,1,2.578-1.224,2.775,2.775,0,0,1,2.338.983,4.617,4.617,0,0,1,.874,3.125V0h1.617V-6.533c0-2.076-.306-3.343-1.333-4.37a4.333,4.333,0,0,0-3.168-1.18,4.424,4.424,0,0,0-3.234,1.311,5.273,5.273,0,0,0-.852,1.245,6.136,6.136,0,0,0-.765-1.224,4.149,4.149,0,0,0-3.212-1.333A4.209,4.209,0,0,0,208.777-9.9v-1.857h-1.53Zm32.316-5.419a6.109,6.109,0,0,0-1.835-5,6.157,6.157,0,0,0-4.3-1.661,6.133,6.133,0,0,0-6.184,6.227A6.071,6.071,0,0,0,233.445.328a6.151,6.151,0,0,0,3.343-.961A6.231,6.231,0,0,0,239.17-3.5h-1.682a4.348,4.348,0,0,1-4.042,2.425,4.477,4.477,0,0,1-4.589-4.348ZM228.879-6.708a4.452,4.452,0,0,1,4.567-4,4.472,4.472,0,0,1,4.523,4ZM241.858,0h1.617V-6.642a3.567,3.567,0,0,1,3.824-3.933c2.644-.044,3.78,1.682,3.78,4.217V0h1.6V-6.686c0-2.862-1.289-5.353-4.938-5.4a4.4,4.4,0,0,0-4.37,2.425c.022-.787.022-1.442.022-2.1h-1.53Zm14.858,0h1.6V-10.466h2.578v-1.289h-2.578v-4.414h-1.6v4.414H254.4v1.289h2.316ZM273.8-11.755h-1.617v2.469a5.164,5.164,0,0,0-4.807-2.8,6,6,0,0,0-6.1,6.205,5.984,5.984,0,0,0,6.1,6.205,5.216,5.216,0,0,0,4.807-2.753V0H273.8ZM262.877-5.878a4.609,4.609,0,0,1,4.676-4.72,4.534,4.534,0,0,1,4.3,2.819,4.192,4.192,0,0,1,.371,1.879,4.5,4.5,0,0,1-.393,1.857A4.4,4.4,0,0,1,267.6-1.18a4.591,4.591,0,0,1-4.72-4.676ZM276.949,0h1.617V-16.169h-1.617Zm11.034,0H289.6V-6.686a3.992,3.992,0,0,1,.94-2.731,3.667,3.667,0,0,1,2.862-1.158,3.55,3.55,0,0,1,2.95,1.2,5.02,5.02,0,0,1,.852,3.1V0h1.6V-6.337a6.556,6.556,0,0,0-1.114-4.13,4.59,4.59,0,0,0-3.889-1.617,4.431,4.431,0,0,0-4.2,2.251v-6.337h-1.617Zm25.346-5.419a6.109,6.109,0,0,0-1.835-5,6.157,6.157,0,0,0-4.3-1.661,6.133,6.133,0,0,0-6.184,6.227A6.071,6.071,0,0,0,307.211.328a6.151,6.151,0,0,0,3.343-.961A6.231,6.231,0,0,0,312.936-3.5h-1.682a4.348,4.348,0,0,1-4.042,2.425,4.477,4.477,0,0,1-4.589-4.348ZM302.644-6.708a4.452,4.452,0,0,1,4.567-4,4.472,4.472,0,0,1,4.523,4Zm24.778-5.047h-1.617v2.469a5.164,5.164,0,0,0-4.807-2.8,6,6,0,0,0-6.1,6.205A5.984,5.984,0,0,0,321,.328a5.216,5.216,0,0,0,4.807-2.753V0h1.617ZM316.5-5.878a4.609,4.609,0,0,1,4.676-4.72,4.534,4.534,0,0,1,4.3,2.819,4.192,4.192,0,0,1,.371,1.879,4.5,4.5,0,0,1-.393,1.857,4.4,4.4,0,0,1-4.239,2.862,4.591,4.591,0,0,1-4.72-4.676ZM330.569,0h1.617V-16.169h-1.617Zm5.659,0h1.6V-10.466H340.4v-1.289h-2.578v-4.414h-1.6v4.414h-2.316v1.289h2.316Zm5.943,0h1.617V-6.686a3.992,3.992,0,0,1,.94-2.731,3.667,3.667,0,0,1,2.862-1.158,3.55,3.55,0,0,1,2.95,1.2,5.02,5.02,0,0,1,.852,3.1V0h1.6V-6.337a6.556,6.556,0,0,0-1.114-4.13,4.59,4.59,0,0,0-3.889-1.617,4.431,4.431,0,0,0-4.2,2.251v-6.337h-1.617Zm31.967-16.169h-1.617v6.8a5.173,5.173,0,0,0-4.807-2.709A5.962,5.962,0,0,0,361.661-5.9,5.986,5.986,0,0,0,367.736.328a5.2,5.2,0,0,0,4.851-2.753V0h1.551ZM363.256-5.9a4.6,4.6,0,0,1,4.7-4.7,4.6,4.6,0,0,1,3.321,1.355,4.511,4.511,0,0,1,1.355,3.3,4.611,4.611,0,0,1-1.311,3.387,4.667,4.667,0,0,1-3.343,1.377,4.582,4.582,0,0,1-4.72-4.7Zm14.071-8.019h1.617v-2.251h-1.617Zm0,13.918h1.617V-11.755h-1.617Zm5.047,0h1.6V-10.466H386.5v-1.289H383.97v-.808c0-2.556,1.726-2.556,2.535-2.6v-1.289c-1.267,0-4.13.109-4.13,3.736v.961h-1.726v1.289h1.726Zm5.4,0h1.6V-10.466H391.9v-1.289h-2.535v-.808c0-2.556,1.726-2.556,2.535-2.6v-1.289c-1.267,0-4.13.109-4.13,3.736v.961h-1.726v1.289h1.726Zm15.6-3.977a4.433,4.433,0,0,1-4.261,2.8,4.568,4.568,0,0,1-4.632-4.7,4.823,4.823,0,0,1,1.333-3.387,4.464,4.464,0,0,1,3.321-1.333,4.5,4.5,0,0,1,4.261,2.906h1.661a6.1,6.1,0,0,0-5.987-4.392,6.093,6.093,0,0,0-6.205,6.205A6.126,6.126,0,0,0,399.178.328a6.092,6.092,0,0,0,5.878-4.3Zm14.814-7.779H416.57v6.642a3.573,3.573,0,0,1-3.846,3.933c-2.644.022-3.78-1.682-3.78-4.217v-6.358h-1.6v6.664c0,2.862,1.289,5.353,4.96,5.419A4.383,4.383,0,0,0,416.658-2.1V0h1.53ZM421.334,0h1.617V-16.169h-1.617Zm5.659,0h1.6V-10.466h2.578v-1.289h-2.578v-4.414h-1.6v4.414h-2.316v1.289h2.316Zm5.943-13.918h1.617v-2.251h-1.617Zm0,13.918h1.617V-11.755h-1.617Zm16.191-5.419a6.109,6.109,0,0,0-1.835-5,6.157,6.157,0,0,0-4.3-1.661A6.133,6.133,0,0,0,436.8-5.856,6.071,6.071,0,0,0,443.009.328a6.151,6.151,0,0,0,3.343-.961A6.231,6.231,0,0,0,448.734-3.5h-1.682a4.348,4.348,0,0,1-4.042,2.425,4.477,4.477,0,0,1-4.589-4.348ZM438.442-6.708a4.452,4.452,0,0,1,4.567-4,4.472,4.472,0,0,1,4.523,4Zm19.862-2.1a3.33,3.33,0,0,0-3.583-3.278,3.389,3.389,0,0,0-3.671,3.365c.044,1.857,1.355,2.535,3.037,3.037,2.032.59,2.906,1.136,2.95,2.469a2.176,2.176,0,0,1-2.272,2.207,2.326,2.326,0,0,1-2.447-2.338h-1.6a3.773,3.773,0,0,0,4.02,3.671,3.656,3.656,0,0,0,3.889-3.736c-.087-2.513-1.966-2.993-3.649-3.452-1.42-.415-2.272-.874-2.316-1.988a1.86,1.86,0,0,1,2.032-1.9,1.842,1.842,0,0,1,2.01,1.945Z" transform="translate(8505 4461.952)"/>
    <g id="XMLID_2087_" transform="translate(8428.199 4519)">
      <g id="XMLID_2140_">
        <g id="XMLID_2151_">
          <path id="XMLID_2152_" d="M380-162.2a2.689,2.689,0,0,1-1.3-2.8l5.3-27.5c-9.5-3.4-45.7-17-60.1-31.3-9.2-9-15.3-30.7-14.8-52.6.3-16.3,4.6-47.2,29.6-70.1,41-37.5,133.3-61.9,200.2-36.9,17,6.4,28,19.4,32.8,38.8,5.2,21.3,2.5,50.2-7.8,81.6-8.5,26.2-21.8,51.7-33.7,65-13.3,14.8-38.1,21.3-73.8,19.3a291.055,291.055,0,0,1-47.6-6.9c-10.2,10.8-25.1,22.9-25.7,23.4a2.716,2.716,0,0,1-1.7.6A8.428,8.428,0,0,1,380-162.2Zm28.6-29.3c.5.1,29.6,7.4,59.9,7.4,22.3,0,45.2-4,57.6-17.8,11.5-12.8,24.3-37.5,32.6-63,9.9-30.4,12.6-58.3,7.7-78.6-4.3-17.5-14.2-29.3-29.4-35-65.1-24.3-154.8-.7-194.6,35.8-23.5,21.6-27.5,50.8-27.8,66.2-.4,22.9,6.3,41.9,13.2,48.7,15.5,15.3,59.9,30.7,60.3,30.8a2.777,2.777,0,0,1,1.8,3.1l-4.3,22.3A251.013,251.013,0,0,0,406-190.8a2.665,2.665,0,0,1,2-.9A1.421,1.421,0,0,0,408.6-191.5Z" fill="#e188bd"/>
        </g>
        <g id="XMLID_2149_">
          <path id="XMLID_2150_" d="M482.5-287.2c.1.5.7,12.2,5.8,9.8C493.5-279.8,482.5-287.2,482.5-287.2Z" fill="#fff"/>
        </g>
        <g id="XMLID_2141_">
          <g id="XMLID_2147_">
            <path id="XMLID_2148_" d="M439.7-288.9,427.4-253l21.3-3-8.6,31.3,24.1-41.7-23.7,2.8,23.8-25Z" fill="#fada76"/>
          </g>
          <g id="XMLID_2145_">
            <path id="XMLID_2146_" d="M420.8-243.9,414.3-225l11.3-1.6L421.1-210l12.7-22-12.6,1.4,12.6-13.2Z" fill="#fada76"/>
          </g>
          <g id="XMLID_2142_">
            <g id="XMLID_2143_">
              <path id="XMLID_2144_" d="M391.5-320.6c16.1-2.6,22.2,6.7,22.2,6.7s-.6-15.8,9.7-20.5c10.2-4.7,15.9,3,15.9,3s-.7-32.2,33.2-26.6c33.9,5.7,31.6,53.1,31.6,53.1s3.7-11.2,17-5.7,9.3,24.1,9.3,24.1l-157.5,1C372.8-285.5,375.4-318,391.5-320.6Z" fill="#96b1d7"/>
            </g>
          </g>
        </g>
      </g>
      <g id="XMLID_2088_">
        <g id="XMLID_2096_">
          <g id="XMLID_2138_">
            <path id="XMLID_2139_" d="M259-186.7s-62,13.3-99.9,8S71.8-231.5,48.8-276.2c-23.1-44.6,15.6-98.8,48.9-109s147.9-7.5,171.4,14.7,24.4,50.8,24.4,50.8,31.5-3.8,51.5,19.8C365-276.4,350.1-200.9,259-186.7Z" fill="#8ad4b0"/>
          </g>
          <g id="XMLID_2097_">
            <g id="XMLID_2098_">
              <path id="XMLID_2099_" d="M112.8-305.7c.6,2.9,2.7,5,4.5,6.8a29.1,29.1,0,0,1,2.4,2.7c2.8,3.7,3,8.8,3.3,13.8l.1,1.2a126.688,126.688,0,0,0,4.5,27.2l.1.4-.2.3a22.761,22.761,0,0,0-2.9,7.3c-1.1,5.5.6,12.2,6,13.8a7.687,7.687,0,0,0,3,.3,6.753,6.753,0,0,0,1.4-.2l.7-.2.3.7c.6,1.2,1.1,2.3,1.7,3.3.6,1.2,2.4,4.5,5.5,4.6h.6a3.553,3.553,0,0,0,1-.2l.4-.1.4.2a28.685,28.685,0,0,0,15.9,4.3c.5,0,1-.1,1.5-.1,5.3-.5,10.3-2.4,15.1-4.3,4.4-1.7,8.5-3.3,12.9-4,.5-.1,1.1-.1,1.7-.2h1.1l.3.5a17.44,17.44,0,0,0,4.8,5.7,11.412,11.412,0,0,0,7.5,2.2,7.664,7.664,0,0,0,4.4-1.9c2-1.8,2.9-4.4,2.7-7.7v-.7l.6-.2a16,16,0,0,0,7.2-5.4,26.93,26.93,0,0,0,2.9-5.9,34.678,34.678,0,0,1,1.5-3.6l.2-.3.3-.1a24.4,24.4,0,0,1,6.7-1.7,12.471,12.471,0,0,1,5.5.6,1.483,1.483,0,0,0,.7.1,1.77,1.77,0,0,0,1.4-1.1,1.672,1.672,0,0,0-.1-1.2,1.419,1.419,0,0,0-.9-.8,7.491,7.491,0,0,0-1.6-.4l-3.6-.8,3.6-1c1-.3,2.4-.7,3.7-1.2,9.2-3.8,13.6-13,15.4-18.1a50.07,50.07,0,0,0,2-8.3l.1-.4.3-.2c8.4-5.8,15.6-12.1,11.4-18.5-2.3-3.6-6.3-5-12.6-4.4a35.472,35.472,0,0,0-4,.6l-.5.1-.3-.4a24.752,24.752,0,0,0-6.3-5.8,26.215,26.215,0,0,0-8.9-3.4l-5.8-1.2,5.9-.6h.1c1.1-.1,2.3-.1,3.6-.1h.2a1.389,1.389,0,0,0,1-.5,1.656,1.656,0,0,0,.5-1.2c0-4.3-2.2-8.6-6.1-11.9-3.5-3-7.7-4.7-11.4-6.1-7.4-2.8-17.2-6-27.2-5-.8.1-1.7.2-2.5.3a35.826,35.826,0,0,0-6.4,1.8l-.2.1h-1.4c-4.2.4-7.5,3-10.7,5.4a37.019,37.019,0,0,1-5.4,3.7,18.5,18.5,0,0,1-6.9,1.9c-4.5.4-9.2-.4-14.1-1.2-5-.8-10.2-1.7-15.3-1.3a20.781,20.781,0,0,0-6.3,1.5c-5.4,2.1-9.5,6.3-12.5,9.7C114.9-314.2,111.9-310.1,112.8-305.7Zm60.2-13,.9.2-.1.9v.1c-.3,1.7-.5,3.4-1.4,4.5s-2.4,1.8-4.8,2a24.441,24.441,0,0,1-2.9.1l-14-.1c-1,0-2.2,0-3.4.1a14.482,14.482,0,0,0-4.1,1l-3.8,1.7,2.8-3.1.1-.1c.1-.1.1-.2.2-.3,4-4.3,9.7-6.8,17-7.5A51.238,51.238,0,0,1,173-318.7Zm-34.5,17a13.694,13.694,0,0,0,2,6.3,24.008,24.008,0,0,0,2.8,3.7l.6.6-.5.6a19.524,19.524,0,0,0-2.6,4c-2.3,5-2.4,11.2-.1,17.6.3.9.8,1.9,1.3,3.1l.4.8-.8.4c-.5.3-1.1.5-1.7.8a33.653,33.653,0,0,0-3.8,1.9l-1.5.8.1-1.7a44.519,44.519,0,0,0-.2-10.9c-.3-1.6-.7-3.2-1.1-4.7a34.829,34.829,0,0,1-1.3-6.9c-.1-3.7,1.1-7.3,2.4-10.9.6-1.7,1.3-3.8,2.1-5.8l1.5-3.8Zm19.7,44.5a8.488,8.488,0,0,0,.9,2.2,4.282,4.282,0,0,1,.7,2.1,1.551,1.551,0,0,1-.7,1.1,5.783,5.783,0,0,1-1.4.5,5.283,5.283,0,0,1-1.3-.1c-1.7-.6-3-2.3-4.4-4.3-1.5-2.2-3.2-4.6-4.7-7.2l-.4-.7.7-.5a11.179,11.179,0,0,0,2.7-2.6,24.225,24.225,0,0,0,3.2-5.9c.5-1.1.9-2.1,1.4-3.1,2.2-4.2,6-7.3,8.7-9.2l.2-.1h.2c.3-.1.5-.1.8-.2h.1l1.8-.4-.7,1.7a27.1,27.1,0,0,0-2.1,13.7,25.582,25.582,0,0,0,.5,2.7l.2.7-.6.3c-.4.2-.8.5-1.2.7C159.7-264.1,157.3-260.7,158.2-257.2ZM231.3-300c.2.2.3.4.5.6l.3.3.8.9-1.1.5a31.207,31.207,0,0,0-5.7,3.2l-.9.7-.4-1.1a30.038,30.038,0,0,0-9.4-12.2l-1.5-1.2,1.8-.4a45.686,45.686,0,0,1,6.1-1c1.1-.1,2.3-.2,3.7-.2h2.2v1C227.3-304.9,230.2-301.3,231.3-300Zm3,4.8.6-.2.4.5a30.675,30.675,0,0,1,4.6,7.5c1.7,4.2,1.5,9.9-2,12.8a9.362,9.362,0,0,1-5.2,2,26.722,26.722,0,0,1-8.4-.9c-.2,0-.3-.1-.5-.1-.1,0-.3-.1-.4-.1l-1.4-.4.9-1.1c2.9-3.4,4.1-8.5,3.2-13.9,0-.2-.1-.5-.1-.7l-.1-.5.4-.3A33.32,33.32,0,0,1,234.3-295.2Zm-3,26.1-3.1,1.3-6.3,2.7-.8.4-.4-.9a39.021,39.021,0,0,1-1.6-4.5l-.5-1.6,1.6.4.4.1c1,.3,1.9.5,2.9.8a44.7,44.7,0,0,0,4.5.9ZM217.9-275l-.3-1.5c-.1-.6-.2-1.3-.3-1.9v-.1a6.752,6.752,0,0,1-.2-1.4l-.1-.5.4-.3a26.069,26.069,0,0,0,3.8-4.4l.4-.5,1.8-2.3-.1,2.9a12.126,12.126,0,0,1-3.5,8.6,2.651,2.651,0,0,1-.6.5Zm-1.7-9.1-.5-1.6a15.714,15.714,0,0,0-.9-2.3,51.913,51.913,0,0,0-3.7-6.5,43.7,43.7,0,0,1-3.4-5.8,18,18,0,0,1-1.2-3.5l-.2-.6.5-.4a10.985,10.985,0,0,1,1.4-.9c.4-.2.8-.5,1.2-.7l.5-.2.4.3a27.925,27.925,0,0,1,11.8,14.4l.2.5-.4.4c-.6.6-1.2,1.2-1.7,1.8-.6.7-1.1,1.4-1.7,2.2a19.224,19.224,0,0,1-1.3,1.7Zm2,20.7-.8.4-13.6,5.8-.8-1.7a20.451,20.451,0,0,0,4.5-2.9,38.216,38.216,0,0,0,3.4-3.6,25.377,25.377,0,0,1,3.6-3.7c.1-.1.2-.1.3-.2l1-.8.4,1.2c.5,1.6,1.1,3.1,1.7,4.6Zm-20.9,3.1-.6.1-.4-.4a11.983,11.983,0,0,1-1.1-1.2c-2.1-2.2-4.1-4.3-5.3-6.9-1.2-2.5-1.6-6.2.4-8.5a7.164,7.164,0,0,1,4.6-2.1,8.844,8.844,0,0,1,2.3,0,25.424,25.424,0,0,1,7.2,2.4l.9.4c2.2.9,4.6,1.9,7.3,2.8l1.6.6-1.4,1-.2.1c-.1.1-.2.1-.3.2a27.148,27.148,0,0,0-4.1,4.2,31.253,31.253,0,0,1-3,3.2A16.938,16.938,0,0,1,197.3-260.3Zm2.5,9a77.1,77.1,0,0,1,4.9,7.7l.9,1.6-1.8-.3a12.22,12.22,0,0,1-3.4-1c-2.1-1-3.8-2.8-5.6-4.6l-.3-.3-.1-.1-.9-1,1.2-.5,4.1-1.8.7-.3Zm-8.7-.5-.5.2-.4-.3a14,14,0,0,0-1.6-1,11.389,11.389,0,0,0-1.9-.9l-3.6-1.4,3.9-.3h.6l1.1-.1c1.9-.2,4.1-.4,6.3-.8l.5-.1.3.4a5.548,5.548,0,0,1,.6.8l.8.9-1.1.5Zm-13-6.9-.4-.1-.2-.3a22.149,22.149,0,0,1-3.3-8l-.1-.6.5-.3A24.868,24.868,0,0,0,185-281.3a5.639,5.639,0,0,1,.4-1.2c.8-2.5,1.6-5.1,3.5-5.8.2-.1.5-.1.7-.2a7.408,7.408,0,0,1,4.2,1.4c1.4.9,2.7,2,4.1,3.1h0l2.4,1.9-3.1-.3a11.294,11.294,0,0,0-2.6,0,10.793,10.793,0,0,0-6.7,3.1c-2.6,3-3,7.7-.9,12a25.7,25.7,0,0,0,4.8,6.6l1.2,1.3-1.8.2c-.9.1-1.9.2-3.1.3l-.8.1A40.5,40.5,0,0,1,178.1-258.7Zm-4.6-12.4-.2-1.6c-.6-4.1-1.3-8.3-3.3-11.9l-.3-.5.3-.5a19.956,19.956,0,0,1,5.8-6.1,19.263,19.263,0,0,1,8.5-3,17.678,17.678,0,0,1,13.4,4,1.746,1.746,0,0,0,1.2.4,1.421,1.421,0,0,0,.6-.2,1.8,1.8,0,0,0,.9-1.6,12.189,12.189,0,0,1,2.2-8.3l1-1.5.6,1.7a6.119,6.119,0,0,0,.5,1.2,43.406,43.406,0,0,0,3.7,6.3,40.692,40.692,0,0,1,3.5,6,31.367,31.367,0,0,1,1.3,4l.2.8-.8.3c-.4.1-.9.2-1.3.3-2.9.3-5.7-1.2-7.1-2.1a39.81,39.81,0,0,1-4.3-3.2,50.444,50.444,0,0,0-4.4-3.3,9.921,9.921,0,0,0-6.2-1.9,7.974,7.974,0,0,0-1.5.3c-3.5,1.2-4.5,4.8-5.5,7.9v.1c-.1.4-.2.7-.3,1.1a21.809,21.809,0,0,1-7.2,10.3Zm-3.2-34.3a53.572,53.572,0,0,1,18.6-5.6,40.4,40.4,0,0,1,12.6.8l1.4.4-1,1.1a18.858,18.858,0,0,1-2,2c-2.8,2.3-6.4,3.5-10.1,4.7h-.1a9.829,9.829,0,0,1-1.6.5,102.643,102.643,0,0,0-24.6,12.2c-.4.3-.8.5-1.2.8l-.2.1h-.2a1.268,1.268,0,0,0-.6.1,20.014,20.014,0,0,1-11.6-2.6l-1.1-.7,1-.8c1.9-1.5,3.9-2.9,5.8-4.2C160.3-299.5,165.1-302.8,170.3-305.4Zm-5.7-.6c-3.8,2.2-7.4,4.6-10.8,6.9a71.6,71.6,0,0,0-6.9,5.1l-.7.6-.6-.6a14.8,14.8,0,0,1-2.2-2.9c-1.6-2.7-2.4-6.7-.3-8.9a7,7,0,0,1,4.6-1.8c1-.1,2.1-.1,3.1-.1l13.4.1h3.4Zm26.9,7a57.741,57.741,0,0,0,6.1-2.3l2.4-1.1-1.2,2.4a20.315,20.315,0,0,0-1.4,3.9l-.2,1.2-1.1-.6a22.018,22.018,0,0,0-4.5-1.7l-3.1-.8Zm-18.4,39.7-2.8-2.9a9.509,9.509,0,0,1-1.5-2l-.6-.9,1-.4a6.884,6.884,0,0,1,.8-.3l1-.4.3,1,.6,2.1Zm-5.9-8.9-.2-1.1a7.719,7.719,0,0,1-.2-1.5,21.65,21.65,0,0,1,.4-7.6l.8-3.7,1,3.7a62.1,62.1,0,0,1,1.3,7.3l.1.6v.3l.1.7-.7.3a6.394,6.394,0,0,1-1.6.6Zm-21,.9-.9.8-.5-1.1a17.847,17.847,0,0,1-.9-2.3c-1.2-3.2-2.7-9.4,0-15.1a15.149,15.149,0,0,1,2.1-3.3l.5-.7.7.5a22.578,22.578,0,0,0,9,3.5l1.8.3-1.3,1.3a26.041,26.041,0,0,0-4.7,6.2,25.183,25.183,0,0,0-1.5,3.4,18.985,18.985,0,0,1-2.7,5.1A10.7,10.7,0,0,0,146.2-267.3Zm30.5-59.1-1.2,2.6a14.675,14.675,0,0,0-.6,1.4l-.3.7-.7-.1-1.8-.3-3.4-.5,3.2-1.3a14.17,14.17,0,0,0,1.8-.8c.1-.1.2-.1.3-.2.1,0,.2-.1.3-.1Zm22.3-.4c2,3.8,2.5,8.1,2.9,12.3l.1,1.2-1.2-.2a40.367,40.367,0,0,0-12.1-.6,53.937,53.937,0,0,0-11.5,2.5l-1.9.6.7-1.8a16.318,16.318,0,0,0,1-4.1v-.1c.1-.5.1-.9.2-1.4,1.2-6.3,5.9-11.7,12.9-14.8l.2-.1h.3C194.6-332.8,197.6-329.5,199-326.8Zm30.1,13.3-.3.3h-.4c-1,0-2.1,0-3.2.1-1.4.1-2.7.1-3.8.3a40.061,40.061,0,0,0-10.8,2.4l-.4.2-.4-.2c-.2-.1-.5-.2-.7-.3l-.3-.2-.9-.4.5-.9.1-.2.2-.4h0c.5-.9,1.1-1.8,1.6-2.6,2.9-4.5,6-7,9.2-7.5a1.554,1.554,0,0,0,1.3-1.9,1.752,1.752,0,0,0-1.8-1.4h-.1q-6.3,1.05-11.4,9c-.3.4-.5.8-.8,1.2l-.2.4-1.4,2.3-.3-2.7a33.809,33.809,0,0,0-3.1-12.3,15.416,15.416,0,0,0-4.6-5.5l-1.7-1.3,2.2-.3c.5-.1.9-.1,1.4-.2,9.4-.9,18.6,2.1,25.7,4.8,3.4,1.3,7.3,2.9,10.4,5.6a14.512,14.512,0,0,1,4.5,6.7l.3,1.1-1.2.1a4.1,4.1,0,0,0-1.1.1C233.7-316.9,230.8-315.6,229.1-313.5ZM250-301.9l-1.7.3c-1.5.3-3.1.6-4.6.8a54.19,54.19,0,0,0-7,1.4l-.6.2-.4-.5c-.6-.8-1.3-1.5-1.9-2.3-2.2-2.8-3.2-5.1-3.1-7v-.9l.9.1a28.667,28.667,0,0,1,13.4,3.7,20.558,20.558,0,0,1,3.7,2.9Zm5.4,2.2,1.3-.2a13.664,13.664,0,0,1,1.9-.2c3.3-.3,7.3-.3,9.3,2.9,2.4,3.8-2.6,8.3-7.3,11.8l-1.4,1-.1-1.7a36.773,36.773,0,0,0-.7-5.8,26.82,26.82,0,0,0-2.4-6.7Zm0,18c-.7.5-1.3.9-1.9,1.4a72.962,72.962,0,0,1-9.1,5.4l-2.3,1.2,1-2.3a16.513,16.513,0,0,0-.1-12.4,32.409,32.409,0,0,0-3.9-6.8l-.8-1.1,1.4-.3a37.28,37.28,0,0,1,4.4-.8,58.945,58.945,0,0,0,6.4-1.2l.9-.2.6-.1.3.6a25.912,25.912,0,0,1,2.9,7.3,31.372,31.372,0,0,1,.6,8.7v.4Zm-27.1,28.5a49.532,49.532,0,0,1-5.2-7.7l-.5-.9.9-.4,9.8-4.2c6.7-2.9,13.6-5.8,19.9-9.9l2-1.3-.6,2.3a27.587,27.587,0,0,1-.8,2.7c-2.7,7.9-7.7,13.8-13.5,16.2a32.716,32.716,0,0,1-5,1.5,40.561,40.561,0,0,0-5.9,1.9l-.6.3Zm-17.9,13.8,1-.3a50.972,50.972,0,0,0,7.9-3l2.1-1-.9,2.1a16.018,16.018,0,0,1-2,3.9,12.147,12.147,0,0,1-4.9,3.9l-.9.4-.3-1a10.662,10.662,0,0,0-.7-1.9,21.4,21.4,0,0,0-1-2.2Zm-1.4-3-.3-.6a66.423,66.423,0,0,0-5.6-9.2l-.6-.9,1-.4,15.3-6.6.8-.3.4.7a58.1,58.1,0,0,0,5.4,8.2l.5.6-.6.6-.3.3a10.1,10.1,0,0,0-1.3,1.6l-.2.2-.2.1c-1.7.7-3.3,1.5-4.8,2.2a42.244,42.244,0,0,1-8.9,3.3Zm-11.6,14h2.1c2.3,0,4.6,0,7-.2h0a25.125,25.125,0,0,0,2.7-.4l1.1-.2-.1,1.2a5.4,5.4,0,0,1-1.6,3.9A4.707,4.707,0,0,1,206-223a7.319,7.319,0,0,1-5.2-1.6,11.448,11.448,0,0,1-2.2-2.2Zm-14.7-2.4.8-1.4c.1-.2.2-.3.2-.5.9-2.2-.1-4.2-.8-5.8a8.539,8.539,0,0,1-.9-2.7c-.2-2.5,3.1-4.5,5.9-5.7l1.7-.7.6-.2.4.4,1.9,1.9a27.012,27.012,0,0,0,6.4,5.2,15.929,15.929,0,0,0,7.6,1.5h.6l.3.6c.5,1.1,1,2.2,1.5,3.4.2.5.4,1,.6,1.6l.3,1-1,.2a21.655,21.655,0,0,1-2.5.4h0c-2.2.2-4.4.2-6.7.2h-3.8l-.3-.5-.1-.2-.2-.5a1.589,1.589,0,0,0-1-.8,1.268,1.268,0,0,0-.6-.1,1.854,1.854,0,0,0-.7.2,17.025,17.025,0,0,1-7.4,2.4c-.3,0-.7.1-1.1.1Zm-4-2.1a9.115,9.115,0,0,1-3.2-.3,12.092,12.092,0,0,1-1.8-.5l-.3-.1h-.1l-.1-.1a18.8,18.8,0,0,1-3.4-2.8,31.719,31.719,0,0,1-3.3-4.6,40.244,40.244,0,0,0-3-4.2c-.8-.9-1.6-1.7-2.4-2.5l-.9-.7.9-.7a4.539,4.539,0,0,0,1.9-3.3,7.659,7.659,0,0,0-1-3.8,5.85,5.85,0,0,1-.6-1.5c-.5-2,1.1-4.1,2.8-5.2.1-.1.2-.1.3-.2l.8-.5.5.8a13.364,13.364,0,0,0,3.1,3.9,14.955,14.955,0,0,0,6.8,3.3l.3.1.2.2a10.038,10.038,0,0,0,2.6,2,23.685,23.685,0,0,0,4.7,2c.6.2,1.1.4,1.7.6l2,.7-1.9.9c-4.6,2.3-6.8,5.1-6.5,8.3a11.3,11.3,0,0,0,1.2,3.8c.6,1.3,1.1,2.4.8,3.2A2.391,2.391,0,0,1,178.7-232.9Zm-30.8,6.7.7-.9a1.38,1.38,0,0,1,.3-.4l.1-.1c.2-.3.5-.7.7-1,1.9-2.3,5.1-3.8,8.9-4.2a20.9,20.9,0,0,1,2.5-.1c3.5.1,7,1.1,10.6,2h.1l.1.1a24.01,24.01,0,0,0,4.6,2.1l2.5.8-2.4.9c-4.5,1.8-9.2,3.6-14,4.1-.5,0-.9.1-1.4.1a24.545,24.545,0,0,1-12.5-3Zm-8.5-8.2.6-.5a21.791,21.791,0,0,0,3.9-4.5l.3-.5c2.5-3.7,5.1-7.4,8.9-7.8,3.7-.3,6.7,2.9,7.9,4.2a38.858,38.858,0,0,1,2.8,3.9c.5.7,1,1.5,1.5,2.2l1.2,1.7-2.1-.3a17.09,17.09,0,0,0-3.1-.3c-1,0-2,0-3,.1-4.7.4-8.6,2.3-11.1,5.4a10.625,10.625,0,0,0-.9,1.1,3.039,3.039,0,0,0-.5.7l-.6.7-.7-.6a19.857,19.857,0,0,1-2.1-2,26.631,26.631,0,0,1-2.6-3.1Zm-5.2-15.5c-.1-2.3,0-4.5.1-6.3v-.4l.3-.2a14.964,14.964,0,0,1,2.3-1.7,30.488,30.488,0,0,1,4.4-2.3l1.8-.9.8-.4.4.7c1.6,2.6,3.3,5.1,4.9,7.4.5.7,1,1.5,1.6,2.2l.8,1-1.2.4c-4,1.4-6.7,5.4-8.9,8.7l-.3.4a19.753,19.753,0,0,1-2.7,3.2l-.9.9-.6-1.2A31.857,31.857,0,0,1,134.2-249.9Zm-5.3.4.9,2.8c1.2,3.5,2.5,6.9,4,10.3l.5,1.2h-1.4a3.887,3.887,0,0,1-1.5-.2c-3.5-1-4.7-5.9-3.8-10,.1-.4.2-.8.3-1.1l.1-.2Zm-9.3-65.3c2.7-3.1,6.5-7,11.2-8.8a19.255,19.255,0,0,1,5.5-1.3c4.6-.4,9.3.4,14.4,1.2.8.1,1.5.3,2.3.4l4.2.7-4.2,1.1a26.5,26.5,0,0,0-12.9,7.5c-4.5,4.8-6.6,11.2-8.6,16.8-1.2,3.6-2.7,7.8-2.5,12a32.725,32.725,0,0,0,1.4,7.7,39.272,39.272,0,0,1,1,4.4c.7,4.2.3,8.4-.1,12.9v.4l-.5,5.6-1.3-5.5a125.768,125.768,0,0,1-3.2-21.9l-.1-1.1c-.3-5.2-.6-11-3.9-15.5a26.123,26.123,0,0,0-2.7-3c-1.7-1.7-3.2-3.3-3.6-5.2C115.5-308.7,116.7-311.4,119.6-314.8Z" fill="#fff"/>
            </g>
          </g>
        </g>
        <g id="XMLID_2089_">
          <g id="XMLID_2092_">
            <path id="XMLID_2093_" d="M257.2-167.6c-3.8-4.6-10-7.1-15.8-8.1-5.5-.9-11.9-.9-16.5,2.7a12.815,12.815,0,0,0-4.9,10.4,17.169,17.169,0,0,0-.5,2.6c-.4,8.5,10.1,12.1,16.9,13,7.5,1.1,18.6.7,22.7-7C261.6-158.4,260.3-163.9,257.2-167.6Zm-24.3,7.1c0,.2-.1.2,0,0v-.1c-.1-.1-.2-.2-.1-.3.5-.5.3.1.1.4Z" fill="#8ad4b0"/>
          </g>
          <g id="XMLID_2090_">
            <path id="XMLID_2091_" d="M232.9-160.6Z" fill="#8ad4b0"/>
          </g>
        </g>
      </g>
    </g>
  </g>
</svg>
