<svg xmlns="http://www.w3.org/2000/svg" width="463.779" height="358.025" viewBox="0 0 463.779 358.025">
  <g id="Group_137" data-name="Group 137" transform="translate(-7871 -4519.4)">
    <path id="XMLID_531_" d="M3.168-9.7v-6.468H1.835V-9.7ZM6.621,0h4.457a6.01,6.01,0,0,0,3.474-.721A4.1,4.1,0,0,0,16.759-4.5a4.149,4.149,0,0,0-3.1-4.108,3.631,3.631,0,0,0,2.163-3.43A3.672,3.672,0,0,0,14.071-15.4a5.445,5.445,0,0,0-3.19-.765H6.621ZM8.412-14.574H10.75a4.369,4.369,0,0,1,2.01.371,2.442,2.442,0,0,1,1.311,2.294A2.475,2.475,0,0,1,12.76-9.5a4.493,4.493,0,0,1-1.9.328H8.412Zm0,6.926h2.6a5.152,5.152,0,0,1,2.272.328,2.874,2.874,0,0,1,1.726,2.731,2.75,2.75,0,0,1-1.7,2.688A5.379,5.379,0,0,1,11.34-1.6H8.412ZM30.94-11.755H29.323v2.469a5.164,5.164,0,0,0-4.807-2.8,6,6,0,0,0-6.1,6.205,5.984,5.984,0,0,0,6.1,6.205,5.216,5.216,0,0,0,4.807-2.753V0H30.94ZM20.015-5.878a4.609,4.609,0,0,1,4.676-4.72,4.534,4.534,0,0,1,4.3,2.819A4.192,4.192,0,0,1,29.366-5.9a4.5,4.5,0,0,1-.393,1.857A4.4,4.4,0,0,1,24.734-1.18a4.591,4.591,0,0,1-4.72-4.676ZM34.086,0h1.551V-2.425A5.21,5.21,0,0,0,40.444.328a5.983,5.983,0,0,0,6.1-6.227,5.962,5.962,0,0,0-6.052-6.184A5.532,5.532,0,0,0,35.7-9.4v-6.774H34.086ZM44.924-5.878a4.577,4.577,0,0,1-4.72,4.7A4.563,4.563,0,0,1,35.616-5.9a4.586,4.586,0,0,1,4.654-4.7,4.586,4.586,0,0,1,4.654,4.7Zm4.72,10.335h1.748L58.1-11.755h-1.77l-3.8,9.5-3.693-9.5H47.109L51.653-.219ZM65.987,0h1.551V-2.425A5.21,5.21,0,0,0,72.345.328a5.983,5.983,0,0,0,6.1-6.227,5.962,5.962,0,0,0-6.052-6.184A5.532,5.532,0,0,0,67.6-9.4v-6.774H65.987ZM76.825-5.878a4.577,4.577,0,0,1-4.72,4.7A4.563,4.563,0,0,1,67.517-5.9a4.586,4.586,0,0,1,4.654-4.7,4.586,4.586,0,0,1,4.654,4.7ZM80.845,0h1.617V-16.169H80.845ZM96.4-11.755H94.785v6.642A3.573,3.573,0,0,1,90.94-1.18C88.3-1.158,87.16-2.862,87.16-5.4v-6.358h-1.6v6.664c0,2.862,1.289,5.353,4.96,5.419A4.383,4.383,0,0,0,94.873-2.1V0H96.4Zm14.574,6.337a6.109,6.109,0,0,0-1.835-5,6.157,6.157,0,0,0-4.3-1.661,6.133,6.133,0,0,0-6.184,6.227A6.071,6.071,0,0,0,104.858.328,6.151,6.151,0,0,0,108.2-.634,6.231,6.231,0,0,0,110.583-3.5H108.9a4.348,4.348,0,0,1-4.042,2.425,4.477,4.477,0,0,1-4.589-4.348ZM100.292-6.708a4.452,4.452,0,0,1,4.567-4,4.472,4.472,0,0,1,4.523,4Zm19.862-2.1a3.33,3.33,0,0,0-3.583-3.278A3.389,3.389,0,0,0,112.9-8.718c.044,1.857,1.355,2.535,3.037,3.037,2.032.59,2.906,1.136,2.95,2.469a2.176,2.176,0,0,1-2.272,2.207,2.326,2.326,0,0,1-2.447-2.338h-1.6a3.773,3.773,0,0,0,4.02,3.671,3.656,3.656,0,0,0,3.889-3.736c-.087-2.513-1.966-2.993-3.649-3.452-1.42-.415-2.272-.874-2.316-1.988a1.86,1.86,0,0,1,2.032-1.9,1.842,1.842,0,0,1,2.01,1.945Zm4.545-.9v-6.468h-1.333V-9.7Zm21.5-2.054h-1.617v2.469a5.164,5.164,0,0,0-4.807-2.8,6,6,0,0,0-6.1,6.205,5.984,5.984,0,0,0,6.1,6.205,5.216,5.216,0,0,0,4.807-2.753V0H146.2ZM135.273-5.878a4.609,4.609,0,0,1,4.676-4.72,4.534,4.534,0,0,1,4.3,2.819,4.192,4.192,0,0,1,.371,1.879,4.5,4.5,0,0,1-.393,1.857,4.4,4.4,0,0,1-4.239,2.862,4.591,4.591,0,0,1-4.72-4.676ZM149.629,0h1.6V-10.466h2.535v-1.289h-2.535v-.808c0-2.556,1.726-2.556,2.535-2.6v-1.289c-1.267,0-4.13.109-4.13,3.736v.961H147.9v1.289h1.726Zm5.4,0h1.6V-10.466h2.535v-1.289h-2.535v-.808c0-2.556,1.726-2.556,2.535-2.6v-1.289c-1.267,0-4.13.109-4.13,3.736v.961H153.3v1.289h1.726ZM171.7-5.419a6.109,6.109,0,0,0-1.835-5,6.157,6.157,0,0,0-4.3-1.661,6.133,6.133,0,0,0-6.184,6.227A6.071,6.071,0,0,0,165.579.328a6.151,6.151,0,0,0,3.343-.961A6.231,6.231,0,0,0,171.3-3.5h-1.682a4.348,4.348,0,0,1-4.042,2.425,4.477,4.477,0,0,1-4.589-4.348ZM161.013-6.708a4.452,4.452,0,0,1,4.567-4,4.472,4.472,0,0,1,4.523,4Zm22.746,2.731a4.433,4.433,0,0,1-4.261,2.8,4.568,4.568,0,0,1-4.632-4.7A4.823,4.823,0,0,1,176.2-9.264,4.464,4.464,0,0,1,179.52-10.6a4.5,4.5,0,0,1,4.261,2.906h1.661a6.1,6.1,0,0,0-5.987-4.392,6.093,6.093,0,0,0-6.205,6.205A6.126,6.126,0,0,0,179.563.328a6.092,6.092,0,0,0,5.878-4.3ZM188.675,0h1.6V-10.466h2.578v-1.289H190.27v-4.414h-1.6v4.414h-2.316v1.289h2.316ZM201.5-8.806a3.33,3.33,0,0,0-3.583-3.278,3.389,3.389,0,0,0-3.671,3.365c.044,1.857,1.355,2.535,3.037,3.037,2.032.59,2.906,1.136,2.95,2.469a2.176,2.176,0,0,1-2.272,2.207,2.326,2.326,0,0,1-2.447-2.338h-1.6a3.773,3.773,0,0,0,4.02,3.671,3.656,3.656,0,0,0,3.889-3.736c-.087-2.513-1.967-2.993-3.649-3.452-1.42-.415-2.272-.874-2.316-1.988a1.86,1.86,0,0,1,2.032-1.9,1.842,1.842,0,0,1,2.01,1.945Zm11.165-3.168a3.069,3.069,0,0,0,.983,3.081,4.812,4.812,0,0,0-2.666,3.758c-.59,3.168,1.4,5.441,4.873,5.441a6.849,6.849,0,0,0,6.926-5.441c.284-1.53.087-2.993-1.311-3.758a4.735,4.735,0,0,0,2.163-3.081c.393-2.185-.9-4.5-4.654-4.5s-5.921,2.316-6.315,4.479Zm3.933.328a1.831,1.831,0,0,1,1.748-1.486,1.2,1.2,0,0,1,1.224,1.486,1.873,1.873,0,0,1-1.77,1.486,1.172,1.172,0,0,1-1.2-1.464Zm-1.486,6.489a2.245,2.245,0,0,1,2.1-1.857,1.476,1.476,0,0,1,1.442,1.857,2.293,2.293,0,0,1-2.119,1.835,1.453,1.453,0,0,1-1.42-1.814Zm9.352-.677c-.83,4.567,2.578,6.14,4.96,6.14a7.26,7.26,0,0,0,7.1-6.14l.852-4.5c.874-4.785-2.753-6.14-4.829-6.14a7.378,7.378,0,0,0-7.232,6.14Zm5-4.61c.153-.874.7-2.4,2.338-2.4,1.9,0,1.551,1.9,1.464,2.4l-.874,4.72c-.109.481-.459,2.4-2.36,2.4-1.6,0-1.639-1.442-1.442-2.4Zm9.811-2.1a3.2,3.2,0,0,0,3.212,3.933,4.929,4.929,0,0,0,4.654-3.933,3.171,3.171,0,0,0-3.19-3.955,4.953,4.953,0,0,0-4.654,3.933Zm2.425,0a1.9,1.9,0,0,1,1.792-1.53,1.224,1.224,0,0,1,1.245,1.508,1.94,1.94,0,0,1-1.792,1.53A1.242,1.242,0,0,1,241.7-12.52Zm5.222,8.915A3.188,3.188,0,0,0,250.139.328a5.009,5.009,0,0,0,4.676-3.955A3.2,3.2,0,0,0,251.6-7.582a4.957,4.957,0,0,0-4.676,3.933Zm2.425,0a1.912,1.912,0,0,1,1.814-1.53,1.229,1.229,0,0,1,1.224,1.53A1.924,1.924,0,0,1,250.6-2.1a1.23,1.23,0,0,1-1.245-1.508Zm3.758-12.542h-2.535L240.9,0h2.513ZM263.555-6.074c-.568,2.972.918,6.446,5.331,6.446a7.978,7.978,0,0,0,7.735-6.446c.546-2.972-.94-6.446-5.353-6.446A7.936,7.936,0,0,0,263.555-6.1Zm3.627,0a3.7,3.7,0,0,1,3.452-3.059,2.406,2.406,0,0,1,2.36,3.059,3.72,3.72,0,0,1-3.474,3.059,2.406,2.406,0,0,1-2.36-3.037ZM277.67,0H281.3l1.748-9.374h1.53l.5-2.753h-1.529l.087-.459c.218-1.158,1.071-1.158,1.748-1.158l.5-2.731c-2.556,0-5.222.306-5.878,3.824l-.087.524h-1.355l-.5,2.753h1.355Zm13.481,0h3.627L296-6.6c.24-1.245.743-2.535,2.535-2.535,1.617,0,1.682,1.18,1.442,2.513L298.755,0h3.627l1.4-7.582c.306-1.639.5-4.96-3.583-4.96a4.424,4.424,0,0,0-3.649,1.7l.24-1.289H293.4Zm26.7-4.807c.7-2.229.59-4.173-.634-5.812a5.135,5.135,0,0,0-4.239-1.923,8.128,8.128,0,0,0-7.56,6.511A5.21,5.21,0,0,0,310.663.393,6.83,6.83,0,0,0,314.312-.7a9.185,9.185,0,0,0,3.037-3.1h-3.715a2.964,2.964,0,0,1-2.4,1.136c-1.42,0-2.491-.852-2.4-2.141ZM309.374-7.56a3.275,3.275,0,0,1,3.059-1.923,2.09,2.09,0,0,1,2.36,1.923ZM321.2,0h3.365l3.5-7.844L328.668,0h3.365L338-12.127h-3.736l-3.212,7.538-.655-7.538h-3.059l-3.387,7.538-.459-7.538h-3.758Zm22.768,0h3.627l1.2-6.446a4.379,4.379,0,0,1,.546-1.617,2.186,2.186,0,0,1,1.988-1.071,1.27,1.27,0,0,1,1.42,1.027,4.113,4.113,0,0,1-.066,1.508L351.457,0h3.627l1.224-6.621a3.857,3.857,0,0,1,.546-1.508,2.118,2.118,0,0,1,1.923-1.005c.94,0,1.333.415,1.442.983a4.448,4.448,0,0,1-.066,1.7L358.952,0h3.627L363.8-6.621c.5-2.688.481-3.5-.437-4.7a3.7,3.7,0,0,0-2.972-1.224,5.06,5.06,0,0,0-3.168,1.114,6.1,6.1,0,0,0-1.071,1.049,3.333,3.333,0,0,0-.524-1.005,3.107,3.107,0,0,0-2.578-1.158,4.719,4.719,0,0,0-2.8.852,3.943,3.943,0,0,0-.9.852l.24-1.289h-3.387ZM365.7-6.074c-.568,2.972.918,6.446,5.331,6.446a7.978,7.978,0,0,0,7.735-6.446c.546-2.972-.94-6.446-5.353-6.446A7.936,7.936,0,0,0,365.7-6.1Zm3.627,0a3.7,3.7,0,0,1,3.452-3.059,2.406,2.406,0,0,1,2.36,3.059,3.72,3.72,0,0,1-3.474,3.059,2.406,2.406,0,0,1-2.36-3.037ZM379.687,0h3.627l1.2-6.446a4.379,4.379,0,0,1,.546-1.617,2.186,2.186,0,0,1,1.988-1.071,1.27,1.27,0,0,1,1.42,1.027,4.113,4.113,0,0,1-.066,1.508L387.182,0h3.627l1.224-6.621a3.857,3.857,0,0,1,.546-1.508A2.118,2.118,0,0,1,394.5-9.133c.94,0,1.333.415,1.442.983a4.448,4.448,0,0,1-.066,1.7L394.677,0H398.3l1.224-6.621c.5-2.688.481-3.5-.437-4.7a3.7,3.7,0,0,0-2.972-1.224,5.06,5.06,0,0,0-3.168,1.114,6.1,6.1,0,0,0-1.071,1.049,3.333,3.333,0,0,0-.524-1.005,3.107,3.107,0,0,0-2.578-1.158,4.719,4.719,0,0,0-2.8.852,3.943,3.943,0,0,0-.9.852l.24-1.289h-3.387ZM411.2-8.718c.284-3.19-2.36-3.824-3.955-3.824A5.384,5.384,0,0,0,401.8-8.434c-.306,1.639.808,2.666,2.294,3.168,2.141.9,3.015,1.005,2.862,1.835a1.427,1.427,0,0,1-1.442.94,1.033,1.033,0,0,1-1.158-1.114h-3.605c-.262,3.19,2.338,4.02,4.173,4.02,2.688,0,5.244-1.573,5.725-4.239.5-2.622-1.573-3.234-3.518-3.8-.918-.284-1.748-.655-1.639-1.2a1.116,1.116,0,0,1,1.18-.808c1.071,0,.983.656.961.918Z" transform="translate(7898 4872.967)"/>
    <g id="XMLID_1030_" transform="translate(8428.176 4519)">
      <g id="XMLID_1028_">
        <path id="XMLID_1029_" d="M-540.7,215.3c-1,2.9-36.5,69.3-.1,73.3C-504.4,292.4-540.7,215.3-540.7,215.3Z" fill="#96b1d7"/>
      </g>
      <g id="XMLID_1031_">
        <path id="XMLID_1032_" d="M-444.6,215.3c-1,2.9-36.5,69.3-.1,73.3C-408.3,292.4-444.6,215.3-444.6,215.3Z" fill="#96b1d7"/>
      </g>
      <g id="XMLID_1033_">
        <path id="XMLID_1034_" d="M-348.5,215.3c-1,2.9-36.5,69.3-.1,73.3C-312.2,292.4-348.5,215.3-348.5,215.3Z" fill="#96b1d7"/>
      </g>
      <g id="XMLID_1035_">
        <path id="XMLID_1036_" d="M-252.4,215.3c-1,2.9-36.5,69.3-.1,73.3C-216.1,292.4-252.4,215.3-252.4,215.3Z" fill="#e188bd"/>
      </g>
      <g id="XMLID_1037_">
        <path id="XMLID_1038_" d="M-156.3,215.3c-1,2.9-36.5,69.3-.1,73.3C-120,292.4-156.3,215.3-156.3,215.3Z" fill="#e188bd"/>
      </g>
      <g id="XMLID_1047_">
        <path id="XMLID_1048_" d="M-494,133.3c-1,2.9-36.5,69.3-.1,73.3C-457.6,210.5-494,133.3-494,133.3Z" fill="#96b1d7"/>
      </g>
      <g id="XMLID_1045_">
        <path id="XMLID_1046_" d="M-397.9,133.3c-1,2.9-36.5,69.3-.1,73.3C-361.5,210.5-397.9,133.3-397.9,133.3Z" fill="#96b1d7"/>
      </g>
      <g id="XMLID_1043_">
        <path id="XMLID_1044_" d="M-301.8,133.3c-1,2.9-36.5,69.3-.1,73.3C-265.4,210.5-301.8,133.3-301.8,133.3Z" fill="#96b1d7"/>
      </g>
      <g id="XMLID_1041_">
        <path id="XMLID_1042_" d="M-205.7,133.3c-1,2.9-36.5,69.3-.1,73.3C-169.3,210.5-205.7,133.3-205.7,133.3Z" fill="#96b1d7"/>
      </g>
      <g id="XMLID_1039_">
        <path id="XMLID_1040_" d="M-109.5,133.3c-1,2.9-36.5,69.3-.1,73.3C-73.2,210.5-109.5,133.3-109.5,133.3Z" fill="#96b1d7"/>
      </g>
    </g>
    <g id="XMLID_1081_" transform="translate(8405.4 4519)">
      <path id="XMLID_1075_" d="M-214.8,52.9s-49.4,52.5-110.3,52.5S-435.4,52.9-435.4,52.9-385.9.4-325,.4-214.8,52.9-214.8,52.9Z" fill="#eaeaea"/>
      <circle id="XMLID_1076_" cx="42.5" cy="42.5" r="42.5" transform="translate(-367.5 20.3)" fill="#231f20"/>
      <path id="XMLID_1077_" d="M-435.3,52.9s67.7,9.9,110.3,9.9,110.3-9.9,110.3-9.9S-264.6.4-325,.4-435.3,52.9-435.3,52.9Z" fill="#dea287"/>
      <path id="XMLID_1078_" d="M-215.3,53c3.9-.5,32.2-6.9,45.8-15.3" fill="none" stroke="#231f20" stroke-miterlimit="10" stroke-width="0.613"/>
      <path id="XMLID_1079_" d="M-242.3,56.5A106.219,106.219,0,0,0-204,39.6" fill="none" stroke="#231f20" stroke-miterlimit="10" stroke-width="0.613"/>
      <path id="XMLID_1080_" d="M-275.4,60.1c17.6-1.5,36.5-10.9,48.1-24.2" fill="none" stroke="#231f20" stroke-miterlimit="10" stroke-width="0.613"/>
      <path id="XMLID_1109_" d="M-435.3,52.9s67.7,9.9,110.3,9.9,110.3-9.9,110.3-9.9" fill="none" stroke="#231f20" stroke-miterlimit="10" stroke-width="0.613"/>
    </g>
  </g>
</svg>
