<svg xmlns="http://www.w3.org/2000/svg" width="569.66" height="257.561" viewBox="0 0 569.66 257.561">
  <g id="Group_136" data-name="Group 136" transform="translate(-8451 -4615.8)">
    <path id="XMLID_558_" d="M3.3,0,3.256-14.377,9.548,0h1.158l6.271-14.377L16.934,0h1.7V-16.169H16.1L10.138-2.6,4.152-16.169H1.617V0ZM33.627-11.755H32.01v2.469a5.164,5.164,0,0,0-4.807-2.8,6,6,0,0,0-6.1,6.205A5.984,5.984,0,0,0,27.2.328,5.216,5.216,0,0,0,32.01-2.425V0h1.617ZM22.7-5.878a4.609,4.609,0,0,1,4.676-4.72,4.534,4.534,0,0,1,4.3,2.819A4.192,4.192,0,0,1,32.054-5.9a4.5,4.5,0,0,1-.393,1.857A4.4,4.4,0,0,1,27.422-1.18,4.591,4.591,0,0,1,22.7-5.856ZM37.691,0h1.6V-10.466h2.578v-1.289H39.286v-4.414h-1.6v4.414H35.375v1.289h2.316ZM54.407-5.419a6.109,6.109,0,0,0-1.835-5,6.157,6.157,0,0,0-4.3-1.661,6.133,6.133,0,0,0-6.184,6.227A6.071,6.071,0,0,0,48.289.328a6.151,6.151,0,0,0,3.343-.961A6.231,6.231,0,0,0,54.013-3.5H52.331a4.348,4.348,0,0,1-4.042,2.425A4.477,4.477,0,0,1,43.7-5.419ZM43.722-6.708a4.452,4.452,0,0,1,4.567-4,4.472,4.472,0,0,1,4.523,4ZM56.7,0h1.6V-6.4c0-2.666,1.267-4.086,3.54-4.086h.153v-1.6A4,4,0,0,0,58.23-9.833v-1.923H56.7Zm7.036,0h1.617V-6.642a3.567,3.567,0,0,1,3.824-3.933c2.644-.044,3.78,1.682,3.78,4.217V0h1.6V-6.686c0-2.862-1.289-5.353-4.938-5.4a4.4,4.4,0,0,0-4.37,2.425c.022-.787.022-1.442.022-2.1h-1.53ZM89.476-11.755H87.859v2.469a5.164,5.164,0,0,0-4.807-2.8,6,6,0,0,0-6.1,6.205,5.984,5.984,0,0,0,6.1,6.205,5.216,5.216,0,0,0,4.807-2.753V0h1.617ZM78.551-5.878a4.609,4.609,0,0,1,4.676-4.72,4.534,4.534,0,0,1,4.3,2.819A4.192,4.192,0,0,1,87.9-5.9a4.5,4.5,0,0,1-.393,1.857A4.4,4.4,0,0,1,83.27-1.18a4.591,4.591,0,0,1-4.72-4.676ZM92.622,0h1.617V-16.169H92.622Zm11.034,0h1.617V-6.555a4.555,4.555,0,0,1,.787-2.819,2.893,2.893,0,0,1,2.491-1.2,3.031,3.031,0,0,1,2.578,1.245,4.48,4.48,0,0,1,.612,2.8V0h1.617V-6.533a4.153,4.153,0,0,1,.7-2.819,3.073,3.073,0,0,1,2.578-1.224,2.776,2.776,0,0,1,2.338.983,4.617,4.617,0,0,1,.874,3.125V0h1.617V-6.533c0-2.076-.306-3.343-1.333-4.37a4.333,4.333,0,0,0-3.168-1.18,4.424,4.424,0,0,0-3.234,1.311,5.273,5.273,0,0,0-.852,1.245,6.136,6.136,0,0,0-.765-1.224,4.149,4.149,0,0,0-3.212-1.333A4.209,4.209,0,0,0,105.186-9.9v-1.857h-1.53Zm32.316-5.419a6.109,6.109,0,0,0-1.835-5,6.157,6.157,0,0,0-4.3-1.661,6.133,6.133,0,0,0-6.184,6.227A6.071,6.071,0,0,0,129.855.328,6.151,6.151,0,0,0,133.2-.634,6.231,6.231,0,0,0,135.579-3.5H133.9a4.348,4.348,0,0,1-4.042,2.425,4.477,4.477,0,0,1-4.589-4.348ZM125.288-6.708a4.452,4.452,0,0,1,4.567-4,4.472,4.472,0,0,1,4.523,4ZM138.267,0h1.617V-6.642a3.567,3.567,0,0,1,3.824-3.933c2.644-.044,3.78,1.682,3.78,4.217V0h1.6V-6.686c0-2.862-1.289-5.353-4.938-5.4a4.4,4.4,0,0,0-4.37,2.425c.022-.787.022-1.442.022-2.1h-1.53Zm14.858,0h1.6V-10.466H157.3v-1.289H154.72v-4.414h-1.6v4.414h-2.316v1.289h2.316Zm17.087-11.755h-1.617v2.469a5.164,5.164,0,0,0-4.807-2.8,6,6,0,0,0-6.1,6.205,5.984,5.984,0,0,0,6.1,6.205,5.216,5.216,0,0,0,4.807-2.753V0h1.617ZM159.287-5.878a4.609,4.609,0,0,1,4.676-4.72,4.534,4.534,0,0,1,4.3,2.819,4.192,4.192,0,0,1,.371,1.879,4.5,4.5,0,0,1-.393,1.857,4.4,4.4,0,0,1-4.239,2.862,4.591,4.591,0,0,1-4.72-4.676ZM173.358,0h1.617V-16.169h-1.617Zm11.034-13.918h1.617v-2.251h-1.617Zm0,13.918h1.617V-11.755h-1.617Zm4.763,0h1.617V-16.169h-1.617ZM193.9,0h1.617V-16.169H193.9Zm4.741,0h1.617V-6.642a3.567,3.567,0,0,1,3.824-3.933c2.644-.044,3.78,1.682,3.78,4.217V0h1.6V-6.686c0-2.862-1.289-5.353-4.938-5.4a4.4,4.4,0,0,0-4.37,2.425c.022-.787.022-1.442.022-2.1h-1.53Zm25.368-5.419a6.109,6.109,0,0,0-1.835-5,6.157,6.157,0,0,0-4.3-1.661,6.133,6.133,0,0,0-6.184,6.227A6.071,6.071,0,0,0,217.888.328a6.151,6.151,0,0,0,3.343-.961A6.231,6.231,0,0,0,223.613-3.5h-1.682a4.348,4.348,0,0,1-4.042,2.425A4.477,4.477,0,0,1,213.3-5.419ZM213.322-6.708a4.452,4.452,0,0,1,4.567-4,4.472,4.472,0,0,1,4.523,4Zm19.862-2.1a3.33,3.33,0,0,0-3.583-3.278,3.389,3.389,0,0,0-3.671,3.365c.044,1.857,1.355,2.535,3.037,3.037,2.032.59,2.906,1.136,2.95,2.469a2.176,2.176,0,0,1-2.272,2.207A2.326,2.326,0,0,1,227.2-3.343h-1.6a3.773,3.773,0,0,0,4.02,3.671,3.656,3.656,0,0,0,3.889-3.736c-.087-2.513-1.967-2.993-3.649-3.452-1.42-.415-2.272-.874-2.316-1.988a1.86,1.86,0,0,1,2.032-1.9,1.842,1.842,0,0,1,2.01,1.945Zm9.833,0a3.33,3.33,0,0,0-3.583-3.278,3.389,3.389,0,0,0-3.671,3.365c.044,1.857,1.355,2.535,3.037,3.037,2.032.59,2.906,1.136,2.95,2.469a2.176,2.176,0,0,1-2.272,2.207,2.326,2.326,0,0,1-2.447-2.338h-1.6a3.773,3.773,0,0,0,4.02,3.671,3.656,3.656,0,0,0,3.889-3.736c-.087-2.513-1.967-2.993-3.649-3.452-1.42-.415-2.272-.874-2.316-1.988a1.86,1.86,0,0,1,2.032-1.9,1.842,1.842,0,0,1,2.01,1.945Zm21.042-2.95H262.44v2.469a5.164,5.164,0,0,0-4.807-2.8,6,6,0,0,0-6.1,6.205,5.984,5.984,0,0,0,6.1,6.205,5.216,5.216,0,0,0,4.807-2.753V0h1.617ZM253.132-5.878a4.609,4.609,0,0,1,4.676-4.72,4.534,4.534,0,0,1,4.3,2.819,4.192,4.192,0,0,1,.371,1.879,4.5,4.5,0,0,1-.393,1.857,4.4,4.4,0,0,1-4.239,2.862,4.591,4.591,0,0,1-4.72-4.676ZM267.488,0h1.6V-10.466h2.535v-1.289h-2.535v-.808c0-2.556,1.726-2.556,2.535-2.6v-1.289c-1.267,0-4.13.109-4.13,3.736v.961h-1.726v1.289h1.726Zm5.4,0h1.6V-10.466h2.535v-1.289H274.48v-.808c0-2.556,1.726-2.556,2.535-2.6v-1.289c-1.267,0-4.13.109-4.13,3.736v.961h-1.726v1.289h1.726Zm16.672-5.419a6.109,6.109,0,0,0-1.835-5,6.157,6.157,0,0,0-4.3-1.661,6.133,6.133,0,0,0-6.184,6.227A6.071,6.071,0,0,0,283.438.328a6.151,6.151,0,0,0,3.343-.961A6.231,6.231,0,0,0,289.163-3.5H287.48a4.348,4.348,0,0,1-4.042,2.425,4.477,4.477,0,0,1-4.589-4.348ZM278.872-6.708a4.452,4.452,0,0,1,4.567-4,4.472,4.472,0,0,1,4.523,4Zm22.746,2.731a4.433,4.433,0,0,1-4.261,2.8,4.568,4.568,0,0,1-4.632-4.7,4.823,4.823,0,0,1,1.333-3.387,4.464,4.464,0,0,1,3.321-1.333,4.5,4.5,0,0,1,4.261,2.906H303.3a6.1,6.1,0,0,0-5.987-4.392,6.093,6.093,0,0,0-6.205,6.205A6.126,6.126,0,0,0,297.422.328a6.092,6.092,0,0,0,5.878-4.3ZM306.534,0h1.6V-10.466h2.578v-1.289h-2.578v-4.414h-1.6v4.414h-2.316v1.289h2.316ZM319.36-8.806a3.33,3.33,0,0,0-3.583-3.278,3.389,3.389,0,0,0-3.671,3.365c.044,1.857,1.355,2.535,3.037,3.037,2.032.59,2.906,1.136,2.95,2.469a2.176,2.176,0,0,1-2.272,2.207,2.326,2.326,0,0,1-2.447-2.338h-1.6A3.773,3.773,0,0,0,315.8.328a3.656,3.656,0,0,0,3.889-3.736c-.087-2.513-1.966-2.993-3.649-3.452-1.42-.415-2.272-.874-2.316-1.988a1.86,1.86,0,0,1,2.032-1.9,1.842,1.842,0,0,1,2.01,1.945ZM328.143,0h11.406l.634-3.474h-5.747c1.18-.918,2.338-1.814,3.474-2.709,2.447-1.9,3.3-3.321,3.649-5.288.481-2.6-.961-5-4.567-5a7.092,7.092,0,0,0-5.441,2.469,7.893,7.893,0,0,0-1.661,3.715h3.933c.24-1.18.721-2.556,2.141-2.556.983,0,1.639.524,1.4,1.814-.328,1.748-1.639,2.731-3.605,4.151-1.661,1.224-3.321,2.447-5.025,3.671ZM346.06-16.169l-3.1,9.155,3.19.83a2.7,2.7,0,0,1,2.382-1.4,1.7,1.7,0,0,1,1.814,2.119,2.746,2.746,0,0,1-2.578,2.141,1.9,1.9,0,0,1-1.7-1.005h-4.151c0,2.556,1.814,4.654,5.288,4.654a7.454,7.454,0,0,0,7.3-5.878c.415-2.229-.568-5.419-4.392-5.419a4.358,4.358,0,0,0-2.272.481l.765-2.207h5.768L355-16.169Zm11.078,3.627a3.2,3.2,0,0,0,3.212,3.933A4.929,4.929,0,0,0,365-12.542a3.171,3.171,0,0,0-3.19-3.955,4.953,4.953,0,0,0-4.654,3.933Zm2.425,0a1.9,1.9,0,0,1,1.792-1.53,1.224,1.224,0,0,1,1.245,1.508,1.94,1.94,0,0,1-1.792,1.53,1.242,1.242,0,0,1-1.245-1.486Zm5.222,8.915A3.188,3.188,0,0,0,368,.328a5.009,5.009,0,0,0,4.676-3.955,3.2,3.2,0,0,0-3.212-3.955,4.957,4.957,0,0,0-4.676,3.933Zm2.425,0a1.912,1.912,0,0,1,1.814-1.53,1.229,1.229,0,0,1,1.224,1.53,1.924,1.924,0,0,1-1.792,1.53,1.23,1.23,0,0,1-1.245-1.508Zm3.758-12.542h-2.535L358.755,0h2.513ZM381.414-6.074c-.568,2.972.918,6.446,5.331,6.446a7.978,7.978,0,0,0,7.735-6.446c.546-2.972-.94-6.446-5.353-6.446A7.936,7.936,0,0,0,381.414-6.1Zm3.627,0a3.7,3.7,0,0,1,3.452-3.059,2.406,2.406,0,0,1,2.36,3.059,3.72,3.72,0,0,1-3.474,3.059,2.406,2.406,0,0,1-2.36-3.037ZM395.529,0h3.627L400.9-9.374h1.53l.5-2.753h-1.529l.087-.459c.219-1.158,1.071-1.158,1.748-1.158l.5-2.731c-2.556,0-5.222.306-5.878,3.824l-.087.524h-1.355l-.5,2.753h1.355Zm22.9-4.61A3.487,3.487,0,0,1,415.5-2.993c-1.726,0-2.622-1.311-2.294-3.081a4.1,4.1,0,0,1,1.18-2.229,3.144,3.144,0,0,1,2.272-.852,2.154,2.154,0,0,1,2.294,1.7h3.671a5.13,5.13,0,0,0-5.484-5.091A7.987,7.987,0,0,0,409.556-6.1,5.194,5.194,0,0,0,414.844.393a8.141,8.141,0,0,0,7.276-5Zm4.5,4.61h3.627L427.8-6.73a3.951,3.951,0,0,1,.524-1.42,2.19,2.19,0,0,1,1.945-.983,1.43,1.43,0,0,1,1.442.765,3.175,3.175,0,0,1,.044,1.77L430.532,0h3.627L435.4-6.773a7.139,7.139,0,0,0-.066-4.042c-.459-1.071-1.442-1.726-3.3-1.726a4.291,4.291,0,0,0-3.452,1.53l.284-1.53.677-3.627h-3.627Zm16.3-13.416h3.627l.5-2.753h-3.627ZM436.738,0h3.627l2.251-12.127h-3.627Zm6.249,0h3.627l2.993-16.169H445.98Zm21.872-16.169h-3.627l-.7,3.758-.24,1.311a3.832,3.832,0,0,0-3.3-1.442A7.579,7.579,0,0,0,449.8-6.1c-.677,3.649,1.2,6.489,4.873,6.489a4.844,4.844,0,0,0,3.977-1.7L458.413,0h3.452ZM453.431-6.118a3.745,3.745,0,0,1,3.649-3.037,2.461,2.461,0,0,1,1.988.852,2.436,2.436,0,0,1,.5,2.141A3.514,3.514,0,0,1,458.3-3.911a3.843,3.843,0,0,1-2.425.918,2.4,2.4,0,0,1-2.447-3.1ZM464.466,0h3.627l1.2-6.511c.328-1.7,1.311-2.382,3.168-2.382h.131l.677-3.649a3.8,3.8,0,0,0-3.409,1.77l.262-1.355h-3.409Zm20.517-4.807c.7-2.229.59-4.173-.634-5.812a5.135,5.135,0,0,0-4.239-1.923,8.128,8.128,0,0,0-7.56,6.511A5.21,5.21,0,0,0,477.794.393,6.83,6.83,0,0,0,481.443-.7a9.185,9.185,0,0,0,3.037-3.1h-3.715a2.964,2.964,0,0,1-2.4,1.136c-1.42,0-2.491-.852-2.4-2.141ZM476.5-7.56a3.275,3.275,0,0,1,3.059-1.923,2.09,2.09,0,0,1,2.36,1.923Zm9.7,7.56h3.627l1.224-6.6c.24-1.245.743-2.535,2.535-2.535,1.617,0,1.682,1.18,1.442,2.513L493.81,0h3.627l1.4-7.582c.306-1.639.5-4.96-3.583-4.96a4.424,4.424,0,0,0-3.649,1.7l.24-1.289h-3.387Z" transform="translate(8487 4872.968)"/>
    <g id="XMLID_1211_" transform="translate(8427.83 4519)">
      <g id="XMLID_1811_">
        <circle id="XMLID_2028_" cx="16" cy="16" r="16" transform="translate(258.6 100.2)" fill="#96b1d7"/>
        <path id="XMLID_2022_" d="M315.3,180.6l-24.6-42.2a7.1,7.1,0,0,0-5.4-3.4H264.4a7.1,7.1,0,0,0-5.4,3.4l-18.5,31.8L220,134.9a7.173,7.173,0,0,0-6.1-3.5h-20a6.959,6.959,0,0,0-6.1,3.5l-24.6,42.2a6.989,6.989,0,0,0,2.5,9.6,7.42,7.42,0,0,0,3.5,1,7.173,7.173,0,0,0,6.1-3.5l10.8-18.6v8l-4.9,35a4.968,4.968,0,0,0,4.9,5.6h0v21.4a7.57,7.57,0,0,0,7.1,7.6,7.39,7.39,0,0,0,7.7-7.4V214h5.9v21.4a7.57,7.57,0,0,0,7.1,7.6,7.452,7.452,0,0,0,7.7-7.4V214h0a4.921,4.921,0,0,0,4.9-5.6l-4.9-35v-7.7L232.3,184c.4.6,2.9,5,4.6,6a7.42,7.42,0,0,0,3.5,1,7.173,7.173,0,0,0,6.1-3.5L257,169.4l-.1,62.2a7.383,7.383,0,0,0,7.4,7.4h.2a7.383,7.383,0,0,0,7.4-7.4l-.1-37.6a2.96,2.96,0,0,1,2.7-3,2.89,2.89,0,0,1,3.1,2.9v37.5a7.57,7.57,0,0,0,7.1,7.6,7.39,7.39,0,0,0,7.7-7.4V169.4l10.5,18.1A7.173,7.173,0,0,0,309,191a6.434,6.434,0,0,0,3.5-1A6.619,6.619,0,0,0,315.3,180.6Z" fill="#96b1d7"/>
        <path id="XMLID_1812_" d="M179,128.4l4-.4a3.772,3.772,0,0,0,3.4-4.6c-.7-3.4-.9-8.2,1.9-11.1v.4a16,16,0,0,0,32,0v-.4c2.8,2.9,2.6,7.7,1.9,11.1a3.94,3.94,0,0,0,3.4,4.6l4,.4a3.881,3.881,0,0,0,4.2-3.4c.5-5.1.4-12.7-2.4-15.7a13.6,13.6,0,0,0-12.8-3.9,16.023,16.023,0,0,0-28.4,0c-3.4-.6-8.6-.6-12.8,3.9-2.9,3-3,10.6-2.4,15.7A3.656,3.656,0,0,0,179,128.4Z" fill="#96b1d7"/>
      </g>
      <g id="XMLID_1220_">
        <circle id="XMLID_1810_" cx="15.8" cy="15.8" r="15.8" transform="translate(396.7 101.9)" fill="#96b1d7"/>
        <path id="XMLID_1809_" d="M452.8,181.5l-24.3-41.8a6.933,6.933,0,0,0-5.3-3.4H402.5a6.779,6.779,0,0,0-5.3,3.4l-18.3,31.5-20.4-35a7.011,7.011,0,0,0-6-3.5H332.7a6.8,6.8,0,0,0-6,3.5L302.1,178a6.983,6.983,0,0,0,2.5,9.5,7.3,7.3,0,0,0,3.5.9,6.8,6.8,0,0,0,6-3.5l10.7-18.4v7.9L320,209a4.867,4.867,0,0,0,4.8,5.5h0v21.2a7.351,7.351,0,1,0,14.7.2V214.5h5.8v21.2a7.351,7.351,0,1,0,14.7.2V214.5h0a4.867,4.867,0,0,0,4.8-5.5L360,174.4v-7.6L370.6,185c.4.6,2.9,5,4.6,6a7.3,7.3,0,0,0,3.5.9,6.8,6.8,0,0,0,6-3.5l10.4-17.9-.1,61.7a7.383,7.383,0,0,0,7.4,7.4h.2a7.383,7.383,0,0,0,7.4-7.4l-.1-37.2a3.031,3.031,0,0,1,2.7-3,2.89,2.89,0,0,1,3.1,2.9V232a7.351,7.351,0,1,0,14.7.2V170.5l10.4,17.9a7.011,7.011,0,0,0,6,3.5,7.3,7.3,0,0,0,3.5-.9A7.006,7.006,0,0,0,452.8,181.5Z" fill="#96b1d7"/>
        <path id="XMLID_1808_" d="M317.7,129.7l3.9-.3a3.786,3.786,0,0,0,3.4-4.5c-.7-3.4-.9-8.1,1.9-11v.4a15.8,15.8,0,1,0,31.6,0v-.4c2.8,2.9,2.6,7.6,1.9,11a3.786,3.786,0,0,0,3.4,4.5l3.9.3a3.729,3.729,0,0,0,4.1-3.4c.5-5,.4-12.5-2.4-15.5a13.335,13.335,0,0,0-12.7-3.8,15.859,15.859,0,0,0-28.2,0,13.584,13.584,0,0,0-12.7,3.8c-2.8,3-2.9,10.5-2.4,15.5A4.04,4.04,0,0,0,317.7,129.7Z" fill="#96b1d7"/>
      </g>
      <g id="XMLID_1216_">
        <circle id="XMLID_1219_" cx="15.8" cy="15.8" r="15.8" transform="translate(535.8 101.9)" fill="#96b1d7"/>
        <path id="XMLID_1218_" d="M591.9,181.5l-24.3-41.8a6.933,6.933,0,0,0-5.3-3.4H541.6a6.779,6.779,0,0,0-5.3,3.4L518,171.2l-20.4-35a7.011,7.011,0,0,0-6-3.5H471.8a6.8,6.8,0,0,0-6,3.5L441.2,178a6.983,6.983,0,0,0,2.5,9.5,7.3,7.3,0,0,0,3.5.9,6.8,6.8,0,0,0,6-3.5l10.7-18.4v7.9L459.1,209a4.867,4.867,0,0,0,4.8,5.5h0v21.2a7.351,7.351,0,1,0,14.7.2V214.5h5.8v21.2a7.351,7.351,0,1,0,14.7.2V214.5h0a4.867,4.867,0,0,0,4.8-5.5l-4.8-34.6v-7.6L509.7,185c.4.6,2.9,5,4.6,6a7.3,7.3,0,0,0,3.5.9,6.8,6.8,0,0,0,6-3.5l10.4-17.9-.1,61.7a7.383,7.383,0,0,0,7.4,7.4h.2a7.383,7.383,0,0,0,7.4-7.4L549,195a3.031,3.031,0,0,1,2.7-3,2.89,2.89,0,0,1,3.1,2.9V232a7.351,7.351,0,1,0,14.7.2V170.5l10.4,17.9a7.011,7.011,0,0,0,6,3.5,7.3,7.3,0,0,0,3.5-.9A7.007,7.007,0,0,0,591.9,181.5Z" fill="#96b1d7"/>
        <path id="XMLID_1217_" d="M456.8,129.7l3.9-.3a3.786,3.786,0,0,0,3.4-4.5c-.7-3.4-.9-8.1,1.9-11v.4a15.8,15.8,0,1,0,31.6,0v-.4c2.8,2.9,2.6,7.6,1.9,11a3.786,3.786,0,0,0,3.4,4.5l3.9.3a3.729,3.729,0,0,0,4.1-3.4c.5-5,.4-12.5-2.4-15.5a13.335,13.335,0,0,0-12.7-3.8,15.761,15.761,0,0,0-14.1-8.6,15.993,15.993,0,0,0-14.1,8.6,13.584,13.584,0,0,0-12.7,3.8c-2.8,3-2.9,10.5-2.4,15.5A4.04,4.04,0,0,0,456.8,129.7Z" fill="#96b1d7"/>
      </g>
      <g id="XMLID_1212_">
        <circle id="XMLID_1215_" cx="15.8" cy="15.8" r="15.8" transform="translate(118.7 100.9)" fill="#8ad4b0"/>
        <path id="XMLID_1214_" d="M174.8,180.5l-24.3-41.8a6.933,6.933,0,0,0-5.3-3.4H124.5a6.779,6.779,0,0,0-5.3,3.4l-18.3,31.5-20.4-35a7.011,7.011,0,0,0-6-3.5H54.6a6.8,6.8,0,0,0-6,3.5L24.1,177a6.983,6.983,0,0,0,2.5,9.5,7.3,7.3,0,0,0,3.5.9,6.8,6.8,0,0,0,6-3.5l10.7-18.4v7.9L42,208a4.867,4.867,0,0,0,4.8,5.5h0v21.2a7.351,7.351,0,1,0,14.7.2V213.5h5.8v21.2a7.351,7.351,0,1,0,14.7.2V213.5h0a4.867,4.867,0,0,0,4.8-5.5L82,173.4v-7.6L92.7,184c.4.6,2.9,5,4.6,6a7.3,7.3,0,0,0,3.5.9,6.8,6.8,0,0,0,6-3.5l10.4-17.9-.1,61.7a7.383,7.383,0,0,0,7.4,7.4h.2a7.383,7.383,0,0,0,7.4-7.4L132,194a3.031,3.031,0,0,1,2.7-3,2.89,2.89,0,0,1,3.1,2.9V231a7.351,7.351,0,1,0,14.7.2V169.5l10.4,17.9a7.011,7.011,0,0,0,6,3.5,7.3,7.3,0,0,0,3.5-.9A6.976,6.976,0,0,0,174.8,180.5Z" fill="#8ad4b0"/>
        <path id="XMLID_1213_" d="M39.7,128.7l3.9-.3a3.786,3.786,0,0,0,3.4-4.5c-.7-3.4-.9-8.1,1.9-11v.4a15.8,15.8,0,0,0,31.6,0v-.4c2.8,2.9,2.6,7.6,1.9,11a3.786,3.786,0,0,0,3.4,4.5l3.9.3a3.729,3.729,0,0,0,4.1-3.4c.5-5,.4-12.5-2.4-15.5A13.334,13.334,0,0,0,78.7,106a15.761,15.761,0,0,0-14.1-8.6A15.993,15.993,0,0,0,50.5,106a13.584,13.584,0,0,0-12.7,3.8c-2.8,3-2.9,10.5-2.4,15.5A4.04,4.04,0,0,0,39.7,128.7Z" fill="#8ad4b0"/>
      </g>
    </g>
  </g>
</svg>
