<svg xmlns="http://www.w3.org/2000/svg" width="524.509" height="351.458" viewBox="0 0 524.509 351.458">
  <g id="Group_138" data-name="Group 138" transform="translate(-7839.464 -4113)">
    <path id="XMLID_145_" d="M1.464-16.169V0H3.278V-6.358h2.6c2.1,0,3.19-.262,4.261-1.093A5.063,5.063,0,0,0,11.8-11.3a4.953,4.953,0,0,0-1.726-3.846C9.068-15.907,8-16.169,5.725-16.169Zm1.814,1.6H5.812a5.069,5.069,0,0,1,3.015.677,3.143,3.143,0,0,1,1.224,2.644,3.174,3.174,0,0,1-1.2,2.622,5.037,5.037,0,0,1-2.993.677H3.278ZM24.691-5.419a6.109,6.109,0,0,0-1.835-5,6.157,6.157,0,0,0-4.3-1.661,6.133,6.133,0,0,0-6.184,6.227A6.071,6.071,0,0,0,18.573.328a6.151,6.151,0,0,0,3.343-.961A6.231,6.231,0,0,0,24.3-3.5H22.615a4.348,4.348,0,0,1-4.042,2.425,4.477,4.477,0,0,1-4.589-4.348ZM14.006-6.708a4.452,4.452,0,0,1,4.567-4,4.472,4.472,0,0,1,4.523,4ZM26.985,0h1.6V-6.4c0-2.666,1.267-4.086,3.54-4.086h.153v-1.6a4,4,0,0,0-3.758,2.251v-1.923H26.985ZM34.02-13.918h1.617v-2.251H34.02ZM34.02,0h1.617V-11.755H34.02Zm4.763,0H40.4V-6.642a3.567,3.567,0,0,1,3.824-3.933C46.868-10.619,48-8.893,48-6.358V0h1.6V-6.686c0-2.862-1.289-5.353-4.938-5.4a4.4,4.4,0,0,0-4.37,2.425c.022-.787.022-1.442.022-2.1H38.784ZM64.523-11.755H62.906v2.469a5.164,5.164,0,0,0-4.807-2.8A6,6,0,0,0,52-5.878,5.984,5.984,0,0,0,58.1.328a5.216,5.216,0,0,0,4.807-2.753V0h1.617ZM53.6-5.878a4.609,4.609,0,0,1,4.676-4.72,4.534,4.534,0,0,1,4.3,2.819A4.192,4.192,0,0,1,62.95-5.9a4.5,4.5,0,0,1-.393,1.857A4.4,4.4,0,0,1,58.318-1.18,4.591,4.591,0,0,1,53.6-5.856ZM68.587,0h1.6V-10.466h2.578v-1.289H70.182v-4.414h-1.6v4.414H66.271v1.289h2.316ZM85.674-11.755H84.057v2.469a5.164,5.164,0,0,0-4.807-2.8,6,6,0,0,0-6.1,6.205A5.984,5.984,0,0,0,79.25.328a5.216,5.216,0,0,0,4.807-2.753V0h1.617ZM74.749-5.878a4.609,4.609,0,0,1,4.676-4.72,4.534,4.534,0,0,1,4.3,2.819A4.192,4.192,0,0,1,84.1-5.9a4.5,4.5,0,0,1-.393,1.857A4.4,4.4,0,0,1,79.468-1.18a4.591,4.591,0,0,1-4.72-4.676ZM88.82,0h1.617V-16.169H88.82ZM99.855,0h1.617V-6.555a4.555,4.555,0,0,1,.787-2.819,2.893,2.893,0,0,1,2.491-1.2,3.031,3.031,0,0,1,2.578,1.245,4.48,4.48,0,0,1,.612,2.8V0h1.617V-6.533a4.153,4.153,0,0,1,.7-2.819,3.073,3.073,0,0,1,2.578-1.224,2.776,2.776,0,0,1,2.338.983,4.617,4.617,0,0,1,.874,3.125V0h1.617V-6.533c0-2.076-.306-3.343-1.333-4.37a4.333,4.333,0,0,0-3.168-1.18,4.424,4.424,0,0,0-3.234,1.311,5.273,5.273,0,0,0-.852,1.245,6.136,6.136,0,0,0-.765-1.224,4.149,4.149,0,0,0-3.212-1.333A4.209,4.209,0,0,0,101.384-9.9v-1.857h-1.53Zm32.316-5.419a6.109,6.109,0,0,0-1.835-5,6.157,6.157,0,0,0-4.3-1.661,6.133,6.133,0,0,0-6.184,6.227A6.071,6.071,0,0,0,126.053.328,6.151,6.151,0,0,0,129.4-.634,6.231,6.231,0,0,0,131.777-3.5h-1.682a4.348,4.348,0,0,1-4.042,2.425,4.477,4.477,0,0,1-4.589-4.348ZM121.486-6.708a4.452,4.452,0,0,1,4.567-4,4.472,4.472,0,0,1,4.523,4ZM134.465,0h1.617V-6.642a3.567,3.567,0,0,1,3.824-3.933c2.644-.044,3.78,1.682,3.78,4.217V0h1.6V-6.686c0-2.862-1.289-5.353-4.938-5.4a4.4,4.4,0,0,0-4.37,2.425c.022-.787.022-1.442.022-2.1h-1.53Zm14.858,0h1.6V-10.466H153.5v-1.289h-2.578v-4.414h-1.6v4.414h-2.316v1.289h2.316ZM166.41-11.755h-1.617v2.469a5.164,5.164,0,0,0-4.807-2.8,6,6,0,0,0-6.1,6.205,5.984,5.984,0,0,0,6.1,6.205,5.216,5.216,0,0,0,4.807-2.753V0h1.617ZM155.485-5.878a4.609,4.609,0,0,1,4.676-4.72,4.534,4.534,0,0,1,4.3,2.819,4.192,4.192,0,0,1,.371,1.879,4.5,4.5,0,0,1-.393,1.857A4.4,4.4,0,0,1,160.2-1.18a4.591,4.591,0,0,1-4.72-4.676ZM169.556,0h1.617V-16.169h-1.617ZM180.59-13.918h1.617v-2.251H180.59ZM180.59,0h1.617V-11.755H180.59Zm4.763,0h1.617V-16.169h-1.617ZM190.1,0h1.617V-16.169H190.1Zm4.741,0h1.617V-6.642a3.567,3.567,0,0,1,3.824-3.933c2.644-.044,3.78,1.682,3.78,4.217V0h1.6V-6.686c0-2.862-1.289-5.353-4.938-5.4a4.4,4.4,0,0,0-4.37,2.425c.022-.787.022-1.442.022-2.1h-1.53ZM220.2-5.419a6.109,6.109,0,0,0-1.835-5,6.157,6.157,0,0,0-4.3-1.661,6.133,6.133,0,0,0-6.184,6.227A6.071,6.071,0,0,0,214.086.328a6.151,6.151,0,0,0,3.343-.961A6.231,6.231,0,0,0,219.811-3.5h-1.682a4.348,4.348,0,0,1-4.042,2.425A4.477,4.477,0,0,1,209.5-5.419ZM209.52-6.708a4.452,4.452,0,0,1,4.567-4,4.472,4.472,0,0,1,4.523,4Zm19.862-2.1a3.33,3.33,0,0,0-3.583-3.278,3.389,3.389,0,0,0-3.671,3.365c.044,1.857,1.355,2.535,3.037,3.037,2.032.59,2.906,1.136,2.95,2.469a2.176,2.176,0,0,1-2.272,2.207,2.326,2.326,0,0,1-2.447-2.338h-1.6A3.773,3.773,0,0,0,225.82.328a3.656,3.656,0,0,0,3.889-3.736c-.087-2.513-1.967-2.993-3.649-3.452-1.42-.415-2.272-.874-2.316-1.988a1.86,1.86,0,0,1,2.032-1.9,1.842,1.842,0,0,1,2.01,1.945Zm9.833,0a3.33,3.33,0,0,0-3.583-3.278,3.389,3.389,0,0,0-3.671,3.365C232-6.861,233.314-6.184,235-5.681c2.032.59,2.906,1.136,2.95,2.469a2.176,2.176,0,0,1-2.272,2.207,2.326,2.326,0,0,1-2.447-2.338h-1.6a3.773,3.773,0,0,0,4.02,3.671,3.656,3.656,0,0,0,3.889-3.736c-.087-2.513-1.967-2.993-3.649-3.452-1.42-.415-2.272-.874-2.316-1.988a1.86,1.86,0,0,1,2.032-1.9,1.842,1.842,0,0,1,2.01,1.945Zm21.042-2.95h-1.617v2.469a5.164,5.164,0,0,0-4.807-2.8,6,6,0,0,0-6.1,6.205,5.984,5.984,0,0,0,6.1,6.205,5.216,5.216,0,0,0,4.807-2.753V0h1.617ZM249.33-5.878a4.609,4.609,0,0,1,4.676-4.72,4.534,4.534,0,0,1,4.3,2.819,4.192,4.192,0,0,1,.371,1.879,4.5,4.5,0,0,1-.393,1.857A4.4,4.4,0,0,1,254.05-1.18a4.591,4.591,0,0,1-4.72-4.676ZM263.686,0h1.6V-10.466h2.535v-1.289h-2.535v-.808c0-2.556,1.726-2.556,2.535-2.6v-1.289c-1.267,0-4.13.109-4.13,3.736v.961H261.96v1.289h1.726Zm5.4,0h1.6V-10.466h2.535v-1.289h-2.535v-.808c0-2.556,1.726-2.556,2.535-2.6v-1.289c-1.267,0-4.13.109-4.13,3.736v.961h-1.726v1.289h1.726Zm16.672-5.419a6.109,6.109,0,0,0-1.835-5,6.157,6.157,0,0,0-4.3-1.661,6.133,6.133,0,0,0-6.184,6.227A6.071,6.071,0,0,0,279.636.328a6.151,6.151,0,0,0,3.343-.961A6.231,6.231,0,0,0,285.361-3.5h-1.682a4.348,4.348,0,0,1-4.042,2.425,4.477,4.477,0,0,1-4.589-4.348ZM275.07-6.708a4.452,4.452,0,0,1,4.567-4,4.472,4.472,0,0,1,4.523,4Zm22.746,2.731a4.433,4.433,0,0,1-4.261,2.8,4.568,4.568,0,0,1-4.632-4.7,4.823,4.823,0,0,1,1.333-3.387,4.464,4.464,0,0,1,3.321-1.333,4.5,4.5,0,0,1,4.261,2.906H299.5a6.1,6.1,0,0,0-5.987-4.392,6.093,6.093,0,0,0-6.205,6.205A6.126,6.126,0,0,0,293.62.328a6.092,6.092,0,0,0,5.878-4.3ZM302.732,0h1.6V-10.466h2.578v-1.289h-2.578v-4.414h-1.6v4.414h-2.316v1.289h2.316Zm12.826-8.806a3.33,3.33,0,0,0-3.583-3.278A3.389,3.389,0,0,0,308.3-8.718c.044,1.857,1.355,2.535,3.037,3.037,2.032.59,2.906,1.136,2.95,2.469a2.176,2.176,0,0,1-2.272,2.207,2.326,2.326,0,0,1-2.447-2.338h-1.6A3.773,3.773,0,0,0,312,.328a3.656,3.656,0,0,0,3.889-3.736c-.087-2.513-1.966-2.993-3.649-3.452-1.42-.415-2.272-.874-2.316-1.988a1.86,1.86,0,0,1,2.032-1.9,1.842,1.842,0,0,1,2.01,1.945ZM328.143,0h4.13l2.993-16.169h-6.773l-.634,3.474H330.5Zm19.141-13.416h3.627l.5-2.753h-3.627ZM344.793,0h3.627l2.251-12.127h-3.627Zm6.249,0h3.627l1.224-6.6c.24-1.245.743-2.535,2.535-2.535,1.617,0,1.682,1.18,1.442,2.513L358.646,0h3.627l1.4-7.582c.306-1.639.5-4.96-3.583-4.96a4.424,4.424,0,0,0-3.649,1.7l.24-1.289h-3.387Zm33.452-4.807c.7-2.229.59-4.173-.634-5.812a5.135,5.135,0,0,0-4.239-1.923,8.128,8.128,0,0,0-7.56,6.511A5.21,5.21,0,0,0,377.306.393,6.83,6.83,0,0,0,380.955-.7a9.185,9.185,0,0,0,3.037-3.1h-3.715a2.964,2.964,0,0,1-2.4,1.136c-1.42,0-2.491-.852-2.4-2.141ZM376.017-7.56a3.275,3.275,0,0,1,3.059-1.923,2.09,2.09,0,0,1,2.36,1.923Zm22.44-4.567H394.7l-3.736,7.56-.94-7.56h-3.758L388.362,0h3.474Zm11.559,7.32c.7-2.229.59-4.173-.634-5.812a5.135,5.135,0,0,0-4.239-1.923,8.128,8.128,0,0,0-7.56,6.511A5.21,5.21,0,0,0,402.827.393,6.83,6.83,0,0,0,406.476-.7a9.185,9.185,0,0,0,3.037-3.1H405.8a2.964,2.964,0,0,1-2.4,1.136c-1.42,0-2.491-.852-2.4-2.141ZM401.537-7.56A3.275,3.275,0,0,1,404.6-9.483a2.09,2.09,0,0,1,2.36,1.923ZM411.217,0h3.627l1.2-6.511c.328-1.7,1.311-2.382,3.168-2.382h.131l.677-3.649a3.8,3.8,0,0,0-3.409,1.77l.262-1.355h-3.409Zm8.5,4.042h3.846l9.068-16.169h-3.846l-3.627,7.036L424-12.127h-3.867l2.36,11.515Zm22.964-20.211-3.1,9.155,3.19.83a2.7,2.7,0,0,1,2.382-1.4,1.7,1.7,0,0,1,1.814,2.119,2.746,2.746,0,0,1-2.578,2.141,1.9,1.9,0,0,1-1.7-1.005H438.53c0,2.556,1.814,4.654,5.288,4.654a7.454,7.454,0,0,0,7.3-5.878c.415-2.229-.568-5.419-4.392-5.419a4.358,4.358,0,0,0-2.272.481l.765-2.207h5.768l.634-3.474ZM458.719,0h3.627l1.2-6.446a4.379,4.379,0,0,1,.546-1.617,2.186,2.186,0,0,1,1.988-1.071,1.27,1.27,0,0,1,1.42,1.027,4.113,4.113,0,0,1-.066,1.508L466.213,0h3.627l1.224-6.621a3.857,3.857,0,0,1,.546-1.508,2.118,2.118,0,0,1,1.923-1.005c.94,0,1.333.415,1.442.983a4.447,4.447,0,0,1-.066,1.7L473.708,0h3.627l1.224-6.621c.5-2.688.481-3.5-.437-4.7a3.7,3.7,0,0,0-2.972-1.224,5.06,5.06,0,0,0-3.168,1.114,6.1,6.1,0,0,0-1.071,1.049,3.333,3.333,0,0,0-.524-1.005,3.107,3.107,0,0,0-2.578-1.158,4.719,4.719,0,0,0-2.8.852,3.943,3.943,0,0,0-.9.852l.24-1.289h-3.387ZM480.46-6.074c-.568,2.972.918,6.446,5.331,6.446a7.978,7.978,0,0,0,7.735-6.446c.546-2.972-.94-6.446-5.353-6.446A7.936,7.936,0,0,0,480.46-6.1Zm3.627,0a3.7,3.7,0,0,1,3.452-3.059,2.406,2.406,0,0,1,2.36,3.059,3.72,3.72,0,0,1-3.474,3.059,2.406,2.406,0,0,1-2.36-3.037ZM494.444,0h3.627l1.2-6.446a4.379,4.379,0,0,1,.546-1.617,2.186,2.186,0,0,1,1.988-1.071,1.27,1.27,0,0,1,1.42,1.027,4.113,4.113,0,0,1-.066,1.508L501.938,0h3.627l1.224-6.621a3.857,3.857,0,0,1,.546-1.508,2.118,2.118,0,0,1,1.923-1.005c.94,0,1.333.415,1.442.983a4.447,4.447,0,0,1-.066,1.7L509.433,0h3.627l1.224-6.621c.5-2.688.481-3.5-.437-4.7a3.7,3.7,0,0,0-2.972-1.224,5.06,5.06,0,0,0-3.168,1.114,6.1,6.1,0,0,0-1.071,1.049,3.333,3.333,0,0,0-.524-1.005,3.107,3.107,0,0,0-2.578-1.158,4.719,4.719,0,0,0-2.8.852,3.943,3.943,0,0,0-.9.852l.24-1.289h-3.387Zm31.508-8.718c.284-3.19-2.36-3.824-3.955-3.824a5.384,5.384,0,0,0-5.441,4.108c-.306,1.639.808,2.666,2.294,3.168,2.141.9,3.015,1.005,2.862,1.835a1.427,1.427,0,0,1-1.442.94,1.033,1.033,0,0,1-1.158-1.114h-3.605c-.262,3.19,2.338,4.02,4.173,4.02,2.688,0,5.244-1.573,5.725-4.239.5-2.622-1.573-3.234-3.518-3.8-.918-.284-1.748-.655-1.639-1.2a1.116,1.116,0,0,1,1.18-.808c1.071,0,.983.656.961.918Z" transform="translate(7838 4460.416)"/>
    <g id="XMLID_159_" transform="translate(8428.322 4519)">
      <g id="XMLID_463_">
        <path id="XMLID_477_" d="M-386-372.9l-21.1,23.3a5.777,5.777,0,0,0,.5,8.3l24.3,20.8.2-8.4-12-12.3a5.824,5.824,0,0,1,.1-8.2l13.8-13.6Z" fill="#8ad4b0"/>
        <path id="XMLID_476_" d="M-339.1-320.6c-1.2-7.2-6.6-16.2-12-21.4-5.9-5.7-8.4-12.5-9.8-20.5l-1.8-10.4H-386l-13.5,76.7h45.3a12.951,12.951,0,0,0,4.9-.9C-341.7-300.3-337.5-310.7-339.1-320.6Z" fill="#8ad4b0"/>
        <path id="XMLID_473_" d="M-382.1-262.5h0a6.445,6.445,0,0,1-6.4-6.4v-31.8h12.8v31.8A6.258,6.258,0,0,1-382.1-262.5Z" fill="#8ad4b0"/>
        <path id="XMLID_472_" d="M-363.7-262.5h0a6.445,6.445,0,0,1-6.4-6.4v-31.8h12.8v31.8A6.38,6.38,0,0,1-363.7-262.5Z" fill="#8ad4b0"/>
        <g id="XMLID_464_">
          <circle id="XMLID_468_" cx="14.3" cy="14.3" r="14.3" transform="translate(-385.9 -406)" fill="#8ad4b0"/>
          <path id="XMLID_467_" d="M-385.8-392.2v14.7h15.1l-.9-14.7Z" fill="#8ad4b0"/>
        </g>
      </g>
      <g id="XMLID_455_">
        <path id="XMLID_462_" d="M-288.9-372.9-310-349.6a5.777,5.777,0,0,0,.5,8.3l24.3,20.8.2-8.4-12-12.3a5.824,5.824,0,0,1,.1-8.2l13.8-13.6Z" fill="#8ad4b0"/>
        <path id="XMLID_461_" d="M-242-320.6c-1.2-7.2-6.6-16.2-12-21.4-5.9-5.7-8.4-12.5-9.8-20.5l-1.8-10.4h-23.3l-13.5,76.7h45.3a12.951,12.951,0,0,0,4.9-.9C-244.5-300.3-240.4-310.7-242-320.6Z" fill="#8ad4b0"/>
        <path id="XMLID_460_" d="M-284.9-262.5h0a6.445,6.445,0,0,1-6.4-6.4v-31.8h12.8v31.8A6.38,6.38,0,0,1-284.9-262.5Z" fill="#8ad4b0"/>
        <path id="XMLID_459_" d="M-266.6-262.5h0a6.445,6.445,0,0,1-6.4-6.4v-31.8h12.8v31.8A6.38,6.38,0,0,1-266.6-262.5Z" fill="#8ad4b0"/>
        <g id="XMLID_456_">
          <circle id="XMLID_458_" cx="14.3" cy="14.3" r="14.3" transform="translate(-288.7 -406)" fill="#8ad4b0"/>
          <path id="XMLID_457_" d="M-288.7-392.2v14.7h15.1l-.8-14.7Z" fill="#8ad4b0"/>
        </g>
      </g>
      <g id="XMLID_441_">
        <path id="XMLID_454_" d="M-436.7-229.4l-21.1,23.3a5.777,5.777,0,0,0,.5,8.3L-433-177l.2-8.4-12-12.3a5.824,5.824,0,0,1,.1-8.2l13.8-13.6Z" fill="#8ad4b0"/>
        <path id="XMLID_453_" d="M-389.8-177.1c-1.2-7.2-6.6-16.2-12-21.4-5.9-5.7-8.4-12.5-9.8-20.5l-1.8-10.4h-23.3l-13.5,76.7h45.3a12.951,12.951,0,0,0,4.9-.9C-392.3-156.8-388.2-167.2-389.8-177.1Z" fill="#8ad4b0"/>
        <path id="XMLID_452_" d="M-432.8-118.9h0a6.445,6.445,0,0,1-6.4-6.4v-31.8h12.8v31.8A6.318,6.318,0,0,1-432.8-118.9Z" fill="#8ad4b0"/>
        <path id="XMLID_448_" d="M-414.4-118.9h0a6.445,6.445,0,0,1-6.4-6.4v-31.8H-408v31.8A6.445,6.445,0,0,1-414.4-118.9Z" fill="#8ad4b0"/>
        <g id="XMLID_442_">
          <circle id="XMLID_447_" cx="14.3" cy="14.3" r="14.3" transform="translate(-436.6 -262.5)" fill="#8ad4b0"/>
          <path id="XMLID_443_" d="M-436.5-248.7V-234h15.1l-.9-14.7Z" fill="#8ad4b0"/>
        </g>
      </g>
      <g id="XMLID_433_">
        <path id="XMLID_440_" d="M-339.6-229.4l-21.1,23.3a5.777,5.777,0,0,0,.5,8.3l24.3,20.8.2-8.4-12-12.3a5.824,5.824,0,0,1,.1-8.2l13.8-13.6Z" fill="#96b1d7"/>
        <path id="XMLID_439_" d="M-292.7-177.1c-1.2-7.2-6.6-16.2-12-21.4-5.9-5.7-8.4-12.5-9.8-20.5l-1.8-10.4h-23.3l-13.5,76.7h45.3a12.951,12.951,0,0,0,4.9-.9C-295.2-156.8-291.1-167.2-292.7-177.1Z" fill="#96b1d7"/>
        <path id="XMLID_438_" d="M-335.6-118.9h0a6.445,6.445,0,0,1-6.4-6.4v-31.8h12.8v31.8A6.445,6.445,0,0,1-335.6-118.9Z" fill="#96b1d7"/>
        <path id="XMLID_437_" d="M-317.3-118.9h0a6.445,6.445,0,0,1-6.4-6.4v-31.8h12.8v31.8A6.445,6.445,0,0,1-317.3-118.9Z" fill="#96b1d7"/>
        <g id="XMLID_434_">
          <circle id="XMLID_436_" cx="14.3" cy="14.3" r="14.3" transform="translate(-339.4 -262.5)" fill="#96b1d7"/>
          <path id="XMLID_435_" d="M-339.4-248.7V-234h15.1l-.8-14.7Z" fill="#96b1d7"/>
        </g>
      </g>
      <g id="XMLID_408_">
        <path id="XMLID_432_" d="M-242.4-229.4l-21.1,23.3a5.777,5.777,0,0,0,.5,8.3l24.3,20.8.2-8.4-12-12.3a5.824,5.824,0,0,1,.1-8.2l13.8-13.6Z" fill="#8ad4b0"/>
        <path id="XMLID_431_" d="M-195.5-177.1c-1.2-7.2-6.6-16.2-12-21.4-5.9-5.7-8.4-12.5-9.8-20.5l-1.8-10.4h-23.3l-13.5,76.7h45.3a12.951,12.951,0,0,0,4.9-.9C-198.1-156.8-193.9-167.2-195.5-177.1Z" fill="#8ad4b0"/>
        <path id="XMLID_430_" d="M-238.5-118.9h0a6.445,6.445,0,0,1-6.4-6.4v-31.8h12.8v31.8A6.445,6.445,0,0,1-238.5-118.9Z" fill="#8ad4b0"/>
        <path id="XMLID_429_" d="M-220.2-118.9h0a6.445,6.445,0,0,1-6.4-6.4v-31.8h12.8v31.8A6.38,6.38,0,0,1-220.2-118.9Z" fill="#8ad4b0"/>
        <g id="XMLID_409_">
          <circle id="XMLID_428_" cx="14.3" cy="14.3" r="14.3" transform="translate(-242.3 -262.5)" fill="#8ad4b0"/>
          <path id="XMLID_427_" d="M-242.3-248.7V-234h15.2l-.9-14.7Z" fill="#8ad4b0"/>
        </g>
      </g>
    </g>
  </g>
</svg>
