<svg width="527" height="353.416" xmlns="http://www.w3.org/2000/svg">

 <g>
  <title>Layer 1</title>
  <g stroke="null" data-name="Group 136" id="Group_136">
   <text stroke="null" transform="matrix(0.962799 0 0 1.01607 61 -4.61292)" x="0" y="347.41602" font-family="ITCAvantGardeStd-Bk, ITC Avant Garde Gothic Std" font-size="21.85" id="XMLID_145_">
    <tspan stroke="null" id="svg_1" y="0" x="0">Perinatal mental illness affects</tspan>
    <tspan stroke="null" id="svg_2" font-style="oblique" font-weight="700" font-family="ITCAvantGardeStd-BoldObl, ITC Avant Garde Gothic Std" y="0">1 in every 5 moms</tspan>
   </text>
   <g stroke="null" id="XMLID_159_">
    <g stroke="null" id="XMLID_463_">
     <path stroke="null" fill="#8ad4b0" d="m257.72123,29.01891l-20.31505,23.67437a5.56209,5.86982 0 0 0 0.4814,8.43336l23.39601,21.1342l0.19256,-8.53496l-11.55359,-12.49763a5.60734,5.91758 0 0 1 0.09628,-8.33175l13.28662,-13.81851l-5.58423,-10.05907z" id="XMLID_477_"/>
     <path stroke="null" fill="#8ad4b0" d="m302.8765,82.15922c-1.15536,-7.31568 -6.35447,-16.46029 -11.55359,-21.74384c-5.68051,-5.79158 -8.08751,-12.70084 -9.43543,-20.82938l-1.73304,-10.5671l-22.43321,0l-12.99778,77.93236l43.61479,0a12.46921,13.15909 0 0 0 4.71771,-0.91446c7.31727,-3.25142 11.36103,-13.81851 9.82055,-23.87758z" id="XMLID_476_"/>
     <path stroke="null" fill="#8ad4b0" d="m261.47615,141.19273l0,0a6.20524,6.54855 0 0 1 -6.16191,-6.50283l0,-32.31094l12.32382,0l0,32.31094a6.02519,6.35855 0 0 1 -6.16191,6.50283z" id="XMLID_473_"/>
     <path stroke="null" fill="#8ad4b0" d="m279.19165,141.19273l0,0a6.20524,6.54855 0 0 1 -6.16191,-6.50283l0,-32.31094l12.32382,0l0,32.31094a6.14266,6.48251 0 0 1 -6.16191,6.50283z" id="XMLID_472_"/>
     <g stroke="null" id="XMLID_464_">
      <circle stroke="null" fill="#8ad4b0" r="10.38129" cy="9.91684" cx="271.58554" id="XMLID_468_"/>
      <path stroke="null" fill="#8ad4b0" d="m257.91379,9.40881l0,14.93619l14.53826,0l-0.86652,-14.93619l-13.67174,0z" id="XMLID_467_"/>
     </g>
    </g>
    <g stroke="null" id="XMLID_455_">
     <path stroke="null" fill="#8ad4b0" d="m351.209,29.01891l-20.31505,23.67437a5.56209,5.86982 0 0 0 0.4814,8.43336l23.39601,21.1342l0.19256,-8.53496l-11.55359,-12.49763a5.60734,5.91758 0 0 1 0.09628,-8.33175l13.28662,-13.81851l-5.58423,-10.05907z" id="XMLID_462_"/>
     <path stroke="null" fill="#8ad4b0" d="m396.36426,82.15922c-1.15536,-7.31568 -6.35447,-16.46029 -11.55359,-21.74384c-5.68051,-5.79158 -8.08751,-12.70084 -9.43543,-20.82938l-1.73304,-10.5671l-22.43321,0l-12.99778,77.93236l43.61479,0a12.46921,13.15909 0 0 0 4.71771,-0.91446c7.41355,-3.25142 11.36103,-13.81851 9.82055,-23.87758z" id="XMLID_461_"/>
     <path stroke="null" fill="#8ad4b0" d="m355.06019,141.19273l0,0a6.20524,6.54855 0 0 1 -6.16191,-6.50283l0,-32.31094l12.32382,0l0,32.31094a6.14266,6.48251 0 0 1 -6.16191,6.50283z" id="XMLID_460_"/>
     <path stroke="null" fill="#8ad4b0" d="m372.67941,141.19273l0,0a6.20524,6.54855 0 0 1 -6.16191,-6.50283l0,-32.31094l12.32382,0l0,32.31094a6.14266,6.48251 0 0 1 -6.16191,6.50283z" id="XMLID_459_"/>
     <g stroke="null" id="XMLID_456_">
      <circle stroke="null" fill="#8ad4b0" r="10.38129" cy="9.91684" cx="365.16957" id="XMLID_458_"/>
      <path stroke="null" fill="#8ad4b0" d="m351.40156,9.40881l0,14.93619l14.53826,0l-0.77024,-14.93619l-13.76802,0z" id="XMLID_457_"/>
     </g>
    </g>
    <g stroke="null" id="XMLID_441_">
     <path stroke="null" fill="#8ad4b0" d="m208.90733,174.82455l-20.31505,23.67437a5.56209,5.86982 0 0 0 0.4814,8.43336l23.39601,21.1342l0.19256,-8.53496l-11.55359,-12.49763a5.60734,5.91758 0 0 1 0.09628,-8.33175l13.28662,-13.81851l-5.58423,-10.05907z" id="XMLID_454_"/>
     <path stroke="null" fill="#8ad4b0" d="m254.0626,227.96487c-1.15536,-7.31568 -6.35447,-16.46029 -11.55359,-21.74384c-5.68051,-5.79158 -8.08751,-12.70084 -9.43543,-20.82938l-1.73304,-10.5671l-22.43321,0l-12.99778,77.93236l43.61479,0a12.46921,13.15909 0 0 0 4.71771,-0.91446c7.41355,-3.25142 11.36103,-13.81851 9.82055,-23.87758z" id="XMLID_453_"/>
     <path stroke="null" fill="#8ad4b0" d="m212.66225,287.09998l0,0a6.20524,6.54855 0 0 1 -6.16191,-6.50283l0,-32.31094l12.32382,0l0,32.31094a6.08296,6.41951 0 0 1 -6.16191,6.50283z" id="XMLID_452_"/>
     <path stroke="null" fill="#8ad4b0" d="m230.37775,287.09998l0,0a6.20524,6.54855 0 0 1 -6.16191,-6.50283l0,-32.31094l12.32382,0l0,32.31094a6.20524,6.54855 0 0 1 -6.16191,6.50283z" id="XMLID_448_"/>
     <g stroke="null" id="XMLID_442_">
      <circle stroke="null" fill="#8ad4b0" r="10.38129" cy="155.72249" cx="222.77163" id="XMLID_447_"/>
      <path stroke="null" fill="#8ad4b0" d="m209.09989,155.21446l0,14.93619l14.53826,0l-0.86652,-14.93619l-13.67174,0z" id="XMLID_443_"/>
     </g>
    </g>
    <g stroke="null" id="XMLID_433_">
     <path stroke="null" fill="#96b1d7" d="m302.3951,174.82455l-20.31505,23.67437a5.56209,5.86982 0 0 0 0.4814,8.43336l23.39601,21.1342l0.19256,-8.53496l-11.55359,-12.49763a5.60734,5.91758 0 0 1 0.09628,-8.33175l13.28662,-13.81851l-5.58423,-10.05907z" id="XMLID_440_"/>
     <path stroke="null" fill="#96b1d7" d="m347.55036,227.96487c-1.15536,-7.31568 -6.35447,-16.46029 -11.55359,-21.74384c-5.68051,-5.79158 -8.08751,-12.70084 -9.43543,-20.82938l-1.73304,-10.5671l-22.43321,0l-12.99778,77.93236l43.61479,0a12.46921,13.15909 0 0 0 4.71771,-0.91446c7.41355,-3.25142 11.36103,-13.81851 9.82055,-23.87758z" id="XMLID_439_"/>
     <path stroke="null" fill="#96b1d7" d="m306.24629,287.09998l0,0a6.20524,6.54855 0 0 1 -6.16191,-6.50283l0,-32.31094l12.32382,0l0,32.31094a6.20524,6.54855 0 0 1 -6.16191,6.50283z" id="XMLID_438_"/>
     <path stroke="null" fill="#96b1d7" d="m323.86551,287.09998l0,0a6.20524,6.54855 0 0 1 -6.16191,-6.50283l0,-32.31094l12.32382,0l0,32.31094a6.20524,6.54855 0 0 1 -6.16191,6.50283z" id="XMLID_437_"/>
     <g stroke="null" id="XMLID_434_">
      <circle stroke="null" fill="#96b1d7" r="10.3813" cy="155.72249" cx="316.35569" id="XMLID_436_"/>
      <path stroke="null" fill="#96b1d7" d="m302.58766,155.21446l0,14.93619l14.53826,0l-0.77024,-14.93619l-13.76802,0z" id="XMLID_435_"/>
     </g>
    </g>
    <g stroke="null" id="XMLID_408_">
     <path stroke="null" fill="#8ad4b0" d="m395.97914,174.82455l-20.31505,23.67437a5.56209,5.86982 0 0 0 0.4814,8.43336l23.39601,21.1342l0.19256,-8.53496l-11.55359,-12.49763a5.60734,5.91758 0 0 1 0.09628,-8.33175l13.28662,-13.81851l-5.58423,-10.05907z" id="XMLID_432_"/>
     <path stroke="null" fill="#8ad4b0" d="m441.13441,227.96487c-1.15536,-7.31568 -6.35447,-16.46029 -11.55359,-21.74384c-5.68051,-5.79158 -8.08751,-12.70084 -9.43543,-20.82938l-1.73304,-10.5671l-22.43321,0l-12.99778,77.93236l43.61479,0a12.46921,13.15909 0 0 0 4.71771,-0.91446c7.31727,-3.25142 11.36103,-13.81851 9.82055,-23.87758z" id="XMLID_431_"/>
     <path stroke="null" fill="#8ad4b0" d="m399.73406,287.09998l0,0a6.20524,6.54855 0 0 1 -6.16191,-6.50283l0,-32.31094l12.32382,0l0,32.31094a6.20524,6.54855 0 0 1 -6.16191,6.50283z" id="XMLID_430_"/>
     <path stroke="null" fill="#8ad4b0" d="m417.35327,287.09998l0,0a6.20524,6.54855 0 0 1 -6.16191,-6.50283l0,-32.31094l12.32382,0l0,32.31094a6.14266,6.48251 0 0 1 -6.16191,6.50283z" id="XMLID_429_"/>
     <g stroke="null" id="XMLID_409_">
      <circle stroke="null" fill="#8ad4b0" r="10.3813" cy="155.72249" cx="409.84344" id="XMLID_428_"/>
      <path stroke="null" fill="#8ad4b0" d="m396.07542,155.21446l0,14.93619l14.63454,0l-0.86652,-14.93619l-13.76802,0z" id="XMLID_427_"/>
     </g>
    </g>
   </g>
  </g>
 </g>
</svg>